<svg width="60" height="60" viewBox="0 0 60 60" fill="none" xmlns="http://www.w3.org/2000/svg">
<g clip-path="url(#clip0_1140_13582)">
<path d="M55.2125 11.6918H31.6128V60.0441L51.9354 60.0788C56.3821 60.0788 59.9999 56.4612 59.9999 52.0143V16.4791C59.9998 13.8394 57.8522 11.6918 55.2125 11.6918Z" fill="#0090E3"/>
<path d="M55.2126 11.6918H51.2771C53.9168 11.6918 56.0644 13.8394 56.0644 16.4791V52.0142C56.0644 56.3776 52.5803 59.9404 48.2483 60.0724L51.9355 60.0788C56.3822 60.0788 60 56.4612 60 52.0143V16.4791C59.9999 13.8394 57.8523 11.6918 55.2126 11.6918Z" fill="#0090E3"/>
<path d="M8.06453 59.9999C3.61787 59.9999 0 56.3822 0 51.9353V4.5762C0 2.05289 2.05301 0 4.57632 0H39.9399C42.4632 0 44.5161 2.05289 44.5161 4.5762V51.9353C44.5161 54.1823 45.5238 56.2857 47.2808 57.7062L50.178 60.0758L8.06453 59.9999Z" fill="#FED775"/>
<path d="M40.613 4.5762V51.9353C40.613 54.1823 41.6207 56.2857 43.3776 57.7062L46.2662 60.0688L50.1778 60.0757L47.2805 57.7061C45.5235 56.2855 44.5158 54.1822 44.5158 51.9352V4.5762C44.5161 2.05289 42.4632 0 39.9399 0H36.0369C38.5601 0 40.613 2.05289 40.613 4.5762Z" fill="#FED775"/>
<path d="M7.45711 49H38.5429C39.3477 49 40 48.3287 40 47.5C40 46.6713 39.3475 46 38.5429 46H7.45711C6.65232 46 6 46.6713 6 47.5C6 48.3287 6.65232 49 7.45711 49Z" fill="#546E7A"/>
<path d="M7.45711 40H38.5429C39.3477 40 40 39.3287 40 38.5C40 37.6713 39.3475 37 38.5429 37H7.45711C6.65232 37 6 37.6713 6 38.5C6 39.3287 6.65232 40 7.45711 40Z" fill="#546E7A"/>
<path d="M7.45711 31H38.5429C39.3477 31 40 30.3287 40 29.5C40 28.6713 39.3475 28 38.5429 28H7.45711C6.65232 28 6 28.6713 6 29.5C6 30.3287 6.65232 31 7.45711 31Z" fill="#546E7A"/>
<rect x="6" y="8" width="34" height="14" rx="3" fill="#546E7A"/>
</g>
<defs>
<clipPath id="clip0_1140_13582">
<rect width="60" height="60" fill="white"/>
</clipPath>
</defs>
</svg>
