<svg width="60" height="60" viewBox="0 0 60 60" fill="none" xmlns="http://www.w3.org/2000/svg">
<ellipse cx="46.5731" cy="40.8014" rx="10.5848" ry="10.5848" fill="#FED775"/>
<ellipse cx="12.702" cy="40.8014" rx="10.5848" ry="10.5848" fill="#FED775"/>
<path d="M59.8674 38.8832C59.7959 38.3816 59.695 37.8902 59.5711 37.41L59.657 37.3988C59.657 37.3988 54.7028 24.2644 53.6714 19.6267C52.8077 16.1169 50.2848 13.3636 47.0784 12.1014C46.9968 11.809 46.929 11.5455 46.8785 11.3205C46.1797 8.47575 43.4247 6.56805 40.4623 6.98747C37.5002 7.407 35.3828 10.005 35.501 12.932C35.5248 13.3104 35.5556 13.7971 35.5907 14.3503C33.3826 16.4551 32.0822 19.4549 32.212 22.6659C32.2175 22.7555 32.2233 22.8471 32.2288 22.9423H27.7707C27.7762 22.8471 27.7819 22.7555 27.7881 22.6659C27.9174 19.4548 26.6178 16.4551 24.4088 14.3503C24.4439 13.7972 24.4748 13.3104 24.4986 12.932C24.6167 10.005 22.4997 7.407 19.5372 6.98747C16.5752 6.56794 13.8198 8.47575 13.121 11.3205C13.0706 11.5456 13.0029 11.809 12.9211 12.1014C9.71481 13.3635 7.19187 16.1169 6.32808 19.6267C5.29672 24.2644 0.342492 37.3988 0.342492 37.3988L0.42839 37.41C0.30464 37.8902 0.203742 38.3816 0.132726 38.8832C-0.894424 46.1339 4.15179 52.8453 11.4024 53.8721C18.6531 54.8988 25.3642 49.8531 26.3908 42.6024C26.4619 42.0998 26.501 41.6009 26.5155 41.1049L26.6014 41.118C26.6014 41.118 26.6243 40.7631 26.6645 40.1492H33.335C33.3752 40.7631 33.3981 41.118 33.3981 41.118L33.4841 41.1049C33.4986 41.6009 33.5378 42.0998 33.6088 42.6024C34.6356 49.8531 41.3466 54.8988 48.5972 53.8721C55.8488 52.8455 60.894 46.1339 59.8674 38.8832ZM22.0149 41.9831C21.3296 46.8159 16.8561 50.181 12.0219 49.4962C7.18812 48.8114 3.82437 44.3363 4.50922 39.5036C5.19359 34.6699 9.66758 31.3057 14.5013 31.9904C19.3354 32.6754 22.6992 37.1484 22.0149 41.9831ZM47.9777 49.4962C43.1435 50.181 38.67 46.8159 37.9847 41.9831C37.3004 37.1484 40.6641 32.6754 45.4983 31.9904C50.3325 31.3057 54.806 34.6698 55.4905 39.5036C56.1753 44.3365 52.8115 48.8115 47.9777 49.4962Z" fill="#546E7A"/>
</svg>
