<svg width="60" height="60" viewBox="0 0 60 60" fill="none" xmlns="http://www.w3.org/2000/svg">
<g clip-path="url(#clip0_1137_13424)">
<path d="M2 7L18.5 2.5L24 7.5L30 9.5L40 3.5L46.5 2.5L57.5 7.5V28.5L47 32L46.5 58.5H12.5L13.5 30H2.5L2 7Z" fill="#FED775"/>
<path d="M59.9723 30.0141V7.42588C59.9726 7.09963 59.8833 6.77957 59.714 6.50069C59.5446 6.22182 59.3019 5.99488 59.0123 5.84471L47.7181 0.197647C47.4718 0.0759537 47.2022 0.00855325 46.9275 0H38.457C37.9901 0.00741145 37.5449 0.198089 37.2174 0.530884C36.8898 0.863678 36.7063 1.3119 36.7064 1.77882C36.7064 3.56108 35.9984 5.27034 34.7381 6.53058C33.4779 7.79083 31.7686 8.49882 29.9864 8.49882C28.2041 8.49882 26.4949 7.79083 25.2346 6.53058C23.9744 5.27034 23.2664 3.56108 23.2664 1.77882C23.2664 1.3119 23.0829 0.863678 22.7554 0.530884C22.4279 0.198089 21.9827 0.00741145 21.5158 0H13.0452C12.7796 0.00903252 12.5193 0.0765175 12.2828 0.197647L0.988729 5.84471C0.687399 5.9827 0.433164 6.20606 0.257509 6.4871C0.0818535 6.76815 -0.0075069 7.09455 0.000493876 7.42588V30.0141C0.000435051 30.481 0.183965 30.9293 0.511477 31.2621C0.838989 31.5948 1.28422 31.7855 1.75108 31.7929H11.2946V58.2494C11.2946 58.7163 11.4781 59.1646 11.8056 59.4973C12.1331 59.8301 12.5783 60.0208 13.0452 60.0282H46.9275C47.3944 60.0208 47.8396 59.8301 48.1672 59.4973C48.4947 59.1646 48.6782 58.7163 48.6781 58.2494V31.7929H58.2217C58.6885 31.7855 59.1338 31.5948 59.4613 31.2621C59.7888 30.9293 59.9723 30.481 59.9723 30.0141ZM45.177 56.4988H14.7958V48.7341H45.177V56.4988ZM56.4711 28.2635H48.6781V18.72C48.6781 18.4901 48.6329 18.2625 48.5449 18.0501C48.4569 17.8377 48.328 17.6447 48.1654 17.4821C48.0028 17.3196 47.8099 17.1906 47.5975 17.1027C47.3851 17.0147 47.1574 16.9694 46.9275 16.9694C46.6977 16.9694 46.47 17.0147 46.2576 17.1027C46.0452 17.1906 45.8523 17.3196 45.6897 17.4821C45.5271 17.6447 45.3982 17.8377 45.3102 18.0501C45.2222 18.2625 45.177 18.4901 45.177 18.72V45.2047H14.7958V18.72C14.7958 18.2557 14.6114 17.8104 14.2831 17.4821C13.9548 17.1538 13.5095 16.9694 13.0452 16.9694C12.5809 16.9694 12.1356 17.1538 11.8073 17.4821C11.479 17.8104 11.2946 18.2557 11.2946 18.72V28.2353H3.50167V8.47059L13.7228 3.52941H19.8781L20.0758 4.34824C20.6711 6.51245 21.9604 8.42141 23.7457 9.78192C25.531 11.1424 27.7135 11.8793 29.9581 11.8793C32.2027 11.8793 34.3853 11.1424 36.1706 9.78192C37.9559 8.42141 39.2452 6.51245 39.8405 4.34824L40.0381 3.52941H46.6734L56.4146 8.41412L56.4711 28.2635Z" fill="#546E7A"/>
</g>
<defs>
<clipPath id="clip0_1137_13424">
<rect width="60" height="60" fill="white"/>
</clipPath>
</defs>
</svg>
