<svg width="60" height="60" viewBox="0 0 60 60" fill="none" xmlns="http://www.w3.org/2000/svg">
<path d="M51.0008 9.00019C51.7965 9.00019 52.5595 9.31627 53.1221 9.87889C53.6848 10.4415 54.0008 11.2046 54.0008 12.0002V22.6204C54.0021 29.9329 51.8325 37.0813 47.7671 43.1596C43.7017 49.2379 37.9235 53.9726 31.1646 56.7638C30.7952 56.9197 30.3984 57.0001 29.9975 57.0001C29.5967 57.0001 29.1998 56.9197 28.8305 56.7638C22.0725 53.972 16.2953 49.237 12.231 43.1587C8.16663 37.0803 5.99813 29.9323 6.00025 22.6204V12.0002C6.00025 11.2046 6.31632 10.4415 6.87894 9.87889C7.44155 9.31627 8.20462 9.00019 9.00028 9.00019C16.4383 9.11007 23.7433 7.02291 30.0005 3.00012C36.2578 7.02291 43.5628 9.11007 51.0008 9.00019Z" fill="#FED775"/>
<path fill-rule="evenodd" clip-rule="evenodd" d="M28.3779 0.476523C29.3662 -0.158841 30.6344 -0.158841 31.6227 0.476523C37.3833 4.18004 44.1086 6.10155 50.9563 6.0004C50.971 6.00018 50.9858 6.00007 51.0006 6.00007C52.5919 6.00007 54.118 6.63222 55.2433 7.75745C56.3685 8.88269 57.0007 10.4088 57.0007 12.0001V22.6194C57.0007 22.6197 57.0007 22.62 57.0007 22.6203C57.0028 30.5259 54.6581 38.2543 50.2638 44.8261C45.8712 51.3955 39.628 56.5136 32.325 59.5326C31.5899 59.8411 30.8006 60 30.0033 60C29.206 60 28.4167 59.8411 27.6816 59.5326C20.3778 56.5142 14.1337 51.3965 9.74006 44.8274C5.34453 38.2554 2.99877 30.5266 3 22.6203C3 22.6201 3 22.6199 3 22.6198V12.0001C3 10.4088 3.63215 8.88268 4.75738 7.75745C5.88261 6.63222 7.40875 6.00007 9.00007 6.00007C9.01484 6.00007 9.02961 6.00018 9.04438 6.0004C15.892 6.10155 22.6173 4.18004 28.3779 0.476523ZM9.00007 12.0004V22.6208C8.99894 29.3393 10.9923 35.907 14.7274 41.4916C18.4626 47.0762 23.7715 51.4264 29.9814 53.9908C29.9862 53.9928 29.991 53.9948 29.9958 53.9968L30.0033 53.9999C30.0105 53.9969 30.0177 53.9939 30.0249 53.9909C36.234 51.426 41.5419 47.0756 45.276 41.491C49.0102 35.9065 51.0025 29.3391 51.0006 22.6211V12.0004C43.6222 12.1014 36.3665 10.1996 30.0003 6.51396C23.6341 10.1996 16.3785 12.1014 9.00007 12.0004ZM30.0003 21.0002C31.6572 21.0002 33.0004 22.3434 33.0004 24.0003V27.0003H36.0004C37.6573 27.0003 39.0004 28.3435 39.0004 30.0004C39.0004 31.6572 37.6573 33.0004 36.0004 33.0004H33.0004V36.0004C33.0004 37.6573 31.6572 39.0005 30.0003 39.0005C28.3435 39.0005 27.0003 37.6573 27.0003 36.0004V33.0004H24.0003C22.3434 33.0004 21.0002 31.6572 21.0002 30.0004C21.0002 28.3435 22.3434 27.0003 24.0003 27.0003H27.0003V24.0003C27.0003 22.3434 28.3435 21.0002 30.0003 21.0002Z" fill="#546E7A"/>
</svg>
