<svg width="60" height="60" viewBox="0 0 60 60" fill="none" xmlns="http://www.w3.org/2000/svg">
<path d="M12.7139 27.2768L19.3897 40.2357L31.825 35.1307L37.5846 18.5066L18.2116 19.5538L12.7139 27.2768Z" fill="#E69329"/>
<path d="M6.82349 46.1261C6.82349 47.4669 7.08758 48.7946 7.60068 50.0333C8.11379 51.2721 8.86585 52.3976 9.81395 53.3457C10.762 54.2938 11.8876 55.0459 13.1263 55.559C14.3651 56.0721 15.6928 56.3362 17.0336 56.3362C18.3744 56.3362 19.702 56.0721 20.9408 55.559C22.1795 55.0459 23.3051 54.2938 24.2532 53.3457C25.2013 52.3976 25.9533 51.2721 26.4664 50.0333C26.9795 48.7946 27.2436 47.4669 27.2436 46.1261C27.2436 44.7853 26.9795 43.4576 26.4664 42.2189C25.9533 40.9801 25.2013 39.8546 24.2532 38.9065C23.3051 37.9584 22.1795 37.2063 20.9408 36.6932C19.702 36.1801 18.3744 35.916 17.0336 35.916C15.6928 35.916 14.3651 36.1801 13.1263 36.6932C11.8876 37.2063 10.762 37.9584 9.81395 38.9065C8.86585 39.8546 8.11379 40.9801 7.60068 42.2189C7.08758 43.4576 6.82349 44.7853 6.82349 46.1261Z" fill="#546E7A"/>
<path d="M17.0335 34.3453C10.4886 34.3453 5.25269 39.5813 5.25269 46.1262C5.25269 52.6711 10.4886 57.907 17.0335 57.907C23.5785 57.907 28.8144 52.6711 28.8144 46.1262C28.8144 39.5813 23.5785 34.3453 17.0335 34.3453ZM17.0335 55.2891C11.9285 55.2891 7.87065 51.2312 7.87065 46.1262C7.87065 41.0212 11.9285 36.9633 17.0335 36.9633C22.1386 36.9633 26.1964 41.0212 26.1964 46.1262C26.1964 51.2312 22.1386 55.2891 17.0335 55.2891Z" fill="#90A4AE"/>
<path d="M15.7246 42.1992H18.3426V52.6711H15.7246V42.1992Z" fill="#90A4AE"/>
<path d="M14.2846 46.1262C15.5936 48.6133 18.4734 49.6604 20.9605 48.3515L42.5587 37.2251C43.8677 36.5706 44.784 35.6543 45.4385 34.738C47.6637 30.5493 52.7688 20.7319 56.1721 12.2235L32.3486 23.6117L26.0655 33.0364L17.1644 37.7487C13.761 39.4504 12.7139 43.2464 14.2846 46.1262Z" fill="#FED775"/>
<path d="M36.9301 2.92969L15.3318 11.1763C14.4155 11.4381 13.3684 12.4853 12.4521 13.4016L5.12176 23.2189C3.81277 25.1824 3.55098 27.6695 4.46727 29.8947C4.99086 31.2037 6.69254 34.3453 8.52511 37.8795C10.6195 35.6543 13.6302 34.3453 17.0335 34.3453C17.5571 34.3453 18.2116 34.3453 18.7352 34.4762L15.9863 28.9785L22.0076 23.6116H32.4795C32.4795 23.6116 52.7688 20.7319 56.303 12.2235L36.9301 2.92969Z" fill="#FED775"/>
</svg>
