<svg width="60" height="60" viewBox="0 0 60 60" fill="none" xmlns="http://www.w3.org/2000/svg">
<g clip-path="url(#clip0_1137_13375)">
<path d="M50 25.375C46.5 24 46 22.625 46 21.25C46 19.875 47 18.5 48.25 17.5C50.375 15.75 51.5 13.125 51.5 10.25C51.5 4.75 47.875 0 41.5 0C35.625 0 32.125 4 31.625 8.875C31.625 9.375 31.875 9.75 32.25 10C37 13 39.875 18.25 39.875 24.625C39.875 29.375 38 33.625 34.625 36.625C34.375 36.875 34.375 37.375 34.625 37.625C35.5 38.25 37.5 39.125 38.75 39.75C39.125 39.875 39.375 40 39.75 40H54.875C57.75 40 60 37.625 60 35V34.25C60 29.875 55.25 27.5 50 25.375Z" fill="#0090E3"/>
<path d="M33.25 42.75C29 41 28.375 39.5 28.375 37.875C28.375 36.25 29.625 34.625 31 33.375C33.5 31.25 34.875 28.25 34.875 24.75C34.875 18.25 30.625 12.625 22.875 12.625C15.25 12.625 10.875 18.25 10.875 24.75C10.875 28.25 12.25 31.25 14.75 33.375C16.125 34.625 17.375 36.25 17.375 37.875C17.375 39.5 16.75 41.125 12.375 42.75C6.125 45.25 0 48.125 0 53.375V53.75V55C0 57.75 2.25 60 5.125 60H39.75C42.625 60 45 57.75 45 55V53.75V53.25C45 48.125 39.5 45.25 33.25 42.75Z" fill="#0090E3"/>
</g>
<defs>
<clipPath id="clip0_1137_13375">
<rect width="60" height="60" fill="white"/>
</clipPath>
</defs>
</svg>
