<svg width="60" height="60" viewBox="0 0 60 60" fill="none" xmlns="http://www.w3.org/2000/svg">
<g clip-path="url(#clip0_1137_13416)">
<path d="M30.0004 0.000244141C13.4316 0.000244141 0 13.4306 0 30.0006C0 46.568 13.4316 59.9995 30.0004 59.9995C46.5684 59.9995 60 46.568 60 30.0006C60 13.4305 46.5684 0.000244141 30.0004 0.000244141Z" fill="#FED775"/>
<path d="M33.9005 15.3212C33.9005 15.3212 28.2307 13.1312 22.3013 15.4363L22.6244 14.0946H18.6173L16.8181 25.9164L20.7435 25.8704C20.7435 25.8704 21.1111 24.1594 21.3722 23.8004C21.6324 23.4413 21.9835 23.18 22.4232 23.0171C22.8635 22.8539 23.7931 22.7721 25.2114 22.7721H36.3379C34.0549 24.9753 19.0262 29.8774 18.4175 45.9054H34.1745C30.1934 37.8368 42.9483 24.9478 45.1166 22.8446V14.7915C45.1166 14.7915 38.2616 17.0656 33.9005 15.3212Z" fill="#108EE3"/>
</g>
<defs>
<clipPath id="clip0_1137_13416">
<rect width="60" height="60" fill="white"/>
</clipPath>
</defs>
</svg>
