<svg width="60" height="60" viewBox="0 0 60 60" fill="none" xmlns="http://www.w3.org/2000/svg">
<rect x="13.4688" y="3.9375" width="33" height="53" fill="#FED775"/>
<path d="M42.2679 60H18.4286C14.8781 60 12 57.1219 12 53.5714V6.42857C12 2.87812 14.8781 0 18.4286 0H42.2679C45.8183 0 48.6964 2.87812 48.6964 6.42857V53.5714C48.6964 57.1195 45.8222 59.9961 42.2679 60ZM33.4286 51.4286H27C25.8145 51.4306 24.8571 52.3891 24.8571 53.5714C24.8571 54.755 25.8165 55.7143 27 55.7143H33.4286C34.6121 55.7143 35.5714 54.755 35.5714 53.5714C35.5714 52.3891 34.6141 51.4306 33.4286 51.4286ZM44.1429 10.7143H16.5536V49.2857H44.1429V10.7143ZM31.2857 4.28571H29.1429C27.9573 4.28772 27 5.24638 27 6.42857C27 7.6121 27.9593 8.57143 29.1429 8.57143H31.2857C32.4692 8.57143 33.4286 7.6121 33.4286 6.42857C33.4286 5.24638 32.4712 4.28772 31.2857 4.28571Z" fill="#546E7A"/>
</svg>
