<svg width="60" height="60" viewBox="0 0 60 60" fill="none" xmlns="http://www.w3.org/2000/svg">
<g clip-path="url(#clip0_1137_13390)">
<path d="M36.3204 17.3701L17.3728 36.3177L23.6933 42.6382L42.6409 23.6906L36.3204 17.3701Z" fill="#546E7A"/>
<path d="M4.74376 36.3086L1.57668 39.4757C0.705906 40.3465 0.705908 41.7583 1.57669 42.6291L17.371 58.4233C18.2417 59.2941 19.6535 59.2941 20.5243 58.4233L23.6914 55.2562C24.5622 54.3855 24.5622 52.9737 23.6914 52.1029L7.89714 36.3086C7.02636 35.4378 5.61454 35.4378 4.74376 36.3086Z" fill="#FED775"/>
<path d="M7.89733 26.8474L4.73025 30.0145C3.85947 30.8853 3.85947 32.2971 4.73025 33.1679L26.845 55.2826C27.7157 56.1534 29.1276 56.1534 29.9983 55.2826L33.1654 52.1155C34.0362 51.2447 34.0362 49.8329 33.1654 48.9621L11.0507 26.8474C10.1799 25.9766 8.76811 25.9766 7.89733 26.8474Z" fill="#108EE3"/>
<path d="M55.2665 23.6914L58.4336 20.5243C59.3043 19.6535 59.3043 18.2417 58.4336 17.3709L42.6393 1.57668C41.7685 0.705899 40.3567 0.705899 39.4859 1.57668L36.3188 4.74376C35.4481 5.61454 35.4481 7.02635 36.3188 7.89713L52.1131 23.6914C52.9839 24.5622 54.3957 24.5622 55.2665 23.6914Z" fill="#FED775"/>
<path d="M52.1124 33.1593L55.2795 29.9922C56.1503 29.1214 56.1503 27.7096 55.2795 26.8388L33.1648 4.72412C32.294 3.85334 30.8822 3.85334 30.0114 4.72412L26.8443 7.89121C25.9736 8.76198 25.9736 10.1738 26.8443 11.0446L48.9591 33.1593C49.8298 34.0301 51.2417 34.0301 52.1124 33.1593Z" fill="#108EE3"/>
<path d="M6.30596 47.3887L3.15259 50.5421L9.47304 56.8626L12.6264 53.7092L6.30596 47.3887Z" fill="#546E7A"/>
<path d="M53.7043 12.6219L56.8577 9.46851L50.5372 3.14806L47.3838 6.30142L53.7043 12.6219Z" fill="#546E7A"/>
</g>
<defs>
<clipPath id="clip0_1137_13390">
<rect width="60" height="60" fill="white"/>
</clipPath>
</defs>
</svg>
