<svg width="60" height="60" viewBox="0 0 60 60" fill="none" xmlns="http://www.w3.org/2000/svg">
<g clip-path="url(#clip0_1137_13502)">
<path d="M52.7679 0.642857C51.9107 -0.214286 50.625 -0.214286 49.7679 0.642857C48.9107 1.5 48.9107 2.78571 49.7679 3.64285C57.2678 11.1428 57.2678 23.1428 49.7679 30.6428C48.9107 31.5 48.9107 32.7857 49.7679 33.6428C50.1964 34.0714 50.8393 34.2857 51.2679 34.2857C51.6964 34.2857 52.3393 34.0714 52.7679 33.6428C61.9821 24.6428 61.9821 9.64285 52.7679 0.642857Z" fill="#FED775"/>
<path d="M42.6964 22.7144C41.8393 23.5715 41.8393 24.8572 42.6964 25.7144C43.125 26.143 43.7679 26.3572 44.1964 26.3572C44.625 26.3572 45.2679 26.143 45.6964 25.7144C48.0536 23.3572 49.3393 20.3573 49.125 16.9287C49.125 13.7144 47.625 10.5001 45.2679 8.14298C44.4107 7.28584 43.125 7.28584 42.2679 8.14298C41.4107 9.00012 41.4107 10.2858 42.2679 11.143C45.4821 14.3573 45.6964 19.7144 42.6964 22.7144Z" fill="#FED775"/>
<path d="M9.9107 30.6428C2.41071 23.1428 2.41071 11.1428 9.9107 3.64285C10.7678 2.78571 10.7678 1.5 9.9107 0.642857C9.05356 -0.214286 7.76785 -0.214286 6.91071 0.642857C-2.30357 9.64285 -2.30357 24.6428 6.91071 33.6428C7.33928 34.0714 7.76785 34.2857 8.41071 34.2857C9.05356 34.2857 9.48213 34.0714 9.9107 33.6428C10.7678 32.7857 10.7678 31.5 9.9107 30.6428Z" fill="#FED775"/>
<path d="M14.4106 26.1429C14.8392 26.5714 15.482 26.7857 15.9106 26.7857C16.3392 26.7857 16.982 26.5714 17.4106 26.1429C18.2677 25.2857 18.2677 24 17.4106 23.1429C14.1963 19.9286 13.982 14.5714 16.982 11.5714C17.8392 10.7143 17.8392 9.42859 16.982 8.57145C16.1249 7.7143 14.8392 7.7143 13.982 8.57145C11.6249 10.9286 10.5535 13.9286 10.5535 17.3572C10.5535 20.5714 12.0535 23.7857 14.4106 26.1429Z" fill="#FED775"/>
<path d="M46.982 55.7143H42.2677L33.6963 22.2858C35.1963 21.2143 36.2677 19.2858 36.2677 17.1429C36.2677 13.5001 33.482 10.7144 29.8392 10.7144C26.1963 10.7144 23.4106 13.5001 23.4106 17.1429C23.4106 19.2858 24.482 21.2143 26.1963 22.2858L17.6249 55.7143H12.6963C11.4106 55.7143 10.5535 56.5714 10.5535 57.8572C10.5535 59.1429 11.4106 60 12.6963 60H46.982C48.2677 60 49.1249 59.1429 49.1249 57.8572C49.1249 56.5714 48.2677 55.7143 46.982 55.7143ZM33.2677 38.5715H26.1963L29.6249 25.0715L33.2677 38.5715ZM25.3392 42.8572H25.5535H34.1249C34.3392 42.8572 34.3392 42.8572 34.3392 42.8572L37.7677 55.7143H21.9106L25.3392 42.8572Z" fill="#546E7A"/>
</g>
<defs>
<clipPath id="clip0_1137_13502">
<rect width="60" height="60" fill="white"/>
</clipPath>
</defs>
</svg>
