<svg width="60" height="60" viewBox="0 0 60 60" fill="none" xmlns="http://www.w3.org/2000/svg">
<g clip-path="url(#clip0_1137_13476)">
<path d="M30 55C16.2193 55 5 43.7912 5 30C5 16.2088 16.2193 5 30 5C43.7807 5 55 16.2193 55 30C55 43.7807 43.7806 55 30 55Z" fill="#FED775"/>
<path fill-rule="evenodd" clip-rule="evenodd" d="M0 30C0 46.5686 13.4315 60 30 60C46.5686 60 60 46.5686 60 30C60 13.4315 46.5686 0 30 0C13.4315 0 0 13.4315 0 30ZM54.8571 30C54.8571 43.7283 43.7283 54.8571 30 54.8571C16.2718 54.8571 5.14286 43.7283 5.14286 30C5.14286 16.2718 16.2718 5.14286 30 5.14286C43.7283 5.14286 54.8571 16.2718 54.8571 30Z" fill="#0090E3"/>
<path fill-rule="evenodd" clip-rule="evenodd" d="M17.1428 29.9999C17.1428 45.5046 22.2552 58.2857 30 58.2857C37.7448 58.2857 42.8571 45.5046 42.8571 29.9999C42.8571 14.4952 37.7448 1.71423 30 1.71423C22.2552 1.71423 17.1428 14.4952 17.1428 29.9999ZM37.7142 29.9999C37.7142 42.8986 33.6164 53.1428 30 53.1428C26.3834 53.1428 22.2857 42.8986 22.2857 29.9999C22.2857 17.1015 26.3834 6.85709 30 6.85709C33.6164 6.85709 37.7142 17.1015 37.7142 29.9999Z" fill="#0090E3"/>
<path d="M8.06299 14.4594L11.5126 10.6451C11.8579 10.9574 12.2296 11.2628 12.6266 11.5603C16.9854 14.826 23.9392 16.838 31.5366 16.838C38.0197 16.838 44.0587 15.377 48.4428 12.8696C49.4982 12.266 50.4386 11.6113 51.2498 10.9183L54.5903 14.8284C53.5274 15.7365 52.3233 16.5748 50.9961 17.3338C45.7974 20.3072 38.8792 21.9809 31.5366 21.9809C22.8895 21.9809 14.8553 19.6563 9.54293 15.6761C9.02103 15.2851 8.52715 14.8792 8.06299 14.4594Z" fill="#0090E3"/>
<path d="M8.06299 45.5952L11.5126 49.4095C11.8579 49.0972 12.2296 48.7917 12.6266 48.4941C16.9854 45.2287 23.9392 43.2165 31.5366 43.2165C38.0197 43.2165 44.0587 44.6774 48.4428 47.185C49.4982 47.7885 50.4386 48.4433 51.2498 49.1362L54.5903 45.226C53.5274 44.3181 52.3233 43.4798 50.9961 42.7207C45.7974 39.7474 38.8792 38.0736 31.5366 38.0736C22.8895 38.0736 14.8553 40.3982 9.54293 44.3784C9.02103 44.7696 8.52715 45.1752 8.06299 45.5952Z" fill="#0090E3"/>
<path d="M1.71436 32.5714V27.4286H58.2858V32.5714H1.71436Z" fill="#0090E3"/>
</g>
<defs>
<clipPath id="clip0_1137_13476">
<rect width="60" height="60" fill="white"/>
</clipPath>
</defs>
</svg>
