<svg width="60" height="60" viewBox="0 0 60 60" fill="none" xmlns="http://www.w3.org/2000/svg">
<g clip-path="url(#clip0_1137_13443)">
<g clip-path="url(#clip1_1137_13443)">
<path d="M30 26.8965C33.4303 26.8965 36.207 24.12 36.207 20.6896C32.7765 20.6897 30 23.4662 30 26.8965Z" fill="#0090E3"/>
<path d="M59.2757 40.5166C60.0765 39.8525 60.2398 38.6752 59.6326 37.829C58.3374 36.0238 57.2626 35.5955 52.7585 37.9635L43.7844 43.4484C41.043 44.9059 33.8481 44.4829 30.7427 44.4829C30.7427 44.4829 38.0689 44.9784 35.1465 40.6161C33.6919 38.4447 31.1844 37.2415 28.5703 37.2415H24.5357C22.1844 37.2415 19.863 36.5132 17.9854 35.098C13.6033 31.7929 5.17236 38.2759 5.17236 38.2759V56.8967H19.6551C21.721 56.8967 23.7837 56.7415 25.8268 56.4302L39.3103 54.3798C39.7706 54.3798 40.2175 54.3261 40.6499 54.2298L40.6716 54.2268C41.7619 54.0727 42.7592 53.5203 43.5557 52.7589L59.2757 40.5166Z" fill="#FED775"/>
<path d="M0 59.9999H5.17242V35.1724H0V59.9999Z" fill="#0090E3"/>
<path d="M17.878 48.6208C17.3059 48.6208 16.8435 48.1584 16.8435 47.5863C16.8435 44.9949 18.777 43.4484 22.0159 43.4484H32.069C32.6411 43.4484 33.1035 43.9108 33.1035 44.4829C33.1035 45.055 32.6411 45.5174 32.069 45.5174H22.0159C18.9125 45.5174 18.9125 47.0744 18.9125 47.5864C18.9126 48.1584 18.4501 48.6208 17.878 48.6208Z" fill="#E69329"/>
<path d="M30.0001 31.0345C29.428 31.0345 28.9656 30.5721 28.9656 30V18.6207C28.9656 18.0486 29.428 17.5862 30.0001 17.5862C30.5722 17.5862 31.0346 18.0486 31.0346 18.6207V30C31.0346 30.5721 30.5722 31.0345 30.0001 31.0345Z" fill="#0090E3"/>
<path d="M17.6571 34.9047C17.8816 34.886 18.0978 34.9409 18.3047 35.0981C20.1822 36.5133 22.5036 37.2416 24.855 37.2416H28.5709H28.8895C31.5036 37.2416 34.0112 38.4448 35.4657 40.6161C37.6795 43.9213 34.0122 44.4375 32.1036 44.4945C33.0936 44.509 34.3019 44.5379 35.5774 44.539C38.6674 44.5338 42.0833 44.3538 43.785 43.4487L52.7591 37.9638C52.9266 37.8759 53.0788 37.7993 53.238 37.7197L52.0432 34.1384C52.0432 34.1384 49.7156 32.328 48.9397 32.0694C48.1638 31.8108 41.957 31.8108 40.6638 32.0694C39.3708 32.328 36.6552 28.3194 35.4914 28.9659C34.3276 29.6125 26.6983 30.9056 26.1811 31.0349C25.6638 31.1641 14.4832 34.1384 14.4832 34.1384L14.4573 34.1891C15.6129 34.1175 16.7125 34.3151 17.6571 34.9047Z" fill="#546E7A"/>
<path d="M39.3103 9.31031C39.3103 14.4527 35.1424 18.6206 30 18.6206C24.8576 18.6206 20.6897 14.4527 20.6897 9.31031C20.6897 4.16789 24.8576 0 30 0C35.1424 0 39.3103 4.16789 39.3103 9.31031Z" fill="#FED775"/>
<path fill-rule="evenodd" clip-rule="evenodd" d="M26 11.1875C26 11.4982 26.2878 11.75 26.6429 11.75H29.8571C30.2122 11.75 30.5 11.4982 30.5 11.1875C30.5 10.8768 30.2122 10.625 29.8571 10.625H26.6429C26.2878 10.625 26 10.8768 26 11.1875Z" fill="white"/>
<path fill-rule="evenodd" clip-rule="evenodd" d="M26 8.9375C26 9.24816 26.3358 9.5 26.75 9.5H29.75C30.1642 9.5 30.5 9.24816 30.5 8.9375C30.5 8.62684 30.1642 8.375 29.75 8.375H26.75C26.3358 8.375 26 8.62684 26 8.9375Z" fill="white"/>
<path fill-rule="evenodd" clip-rule="evenodd" d="M27.0954 12.6016C27.7878 13.4223 28.8088 14 30.0076 14C30.9817 14 31.845 13.6161 32.5034 13.0299C32.8326 12.7367 32.8321 12.2618 32.5023 11.9692C32.1725 11.6766 31.6383 11.677 31.3091 11.9701C30.9098 12.3257 30.4583 12.5 30.0076 12.5C29.4591 12.5 28.8981 12.2382 28.4454 11.7017C27.9926 11.1649 27.6875 10.389 27.6875 9.5C27.6875 8.61105 27.9926 7.83512 28.4454 7.29834C28.8981 6.76179 29.4591 6.5 30.0076 6.5C30.4583 6.5 30.9098 6.67428 31.3091 7.02986C31.6383 7.32301 32.1726 7.32343 32.5023 7.03079C32.8321 6.73816 32.8326 6.26328 32.5034 5.97014C31.845 5.38387 30.9817 5 30.0076 5C28.8088 5 27.7878 5.57769 27.0954 6.39837C26.4032 7.21883 26 8.3179 26 9.5C26 10.6821 26.4032 11.7812 27.0954 12.6016Z" fill="white"/>
</g>
</g>
<defs>
<clipPath id="clip0_1137_13443">
<rect width="60" height="60" fill="white"/>
</clipPath>
<clipPath id="clip1_1137_13443">
<rect width="60" height="60" fill="white"/>
</clipPath>
</defs>
</svg>
