<svg width="60" height="60" viewBox="0 0 60 60" fill="none" xmlns="http://www.w3.org/2000/svg">
<rect x="3" y="12" width="38" height="36" fill="#FED775"/>
<path d="M50.5 12H58V48L50.5 49L40.5 26.5L50.5 12Z" fill="#FED775"/>
<path d="M58.99 49.72C59.6351 48.8145 59.9844 47.7317 59.99 46.62V13.37C59.9874 11.9466 59.4207 10.5823 58.4142 9.57576C57.4078 8.56926 56.0434 8.00265 54.62 8.00001C51.86 8.00001 50.75 9.43001 47.79 13.24C47.17 14.03 46.49 14.92 45.69 15.91L45.01 16.76L44.81 15.69C44.3868 13.5294 43.2277 11.5822 41.5302 10.1801C39.8327 8.77792 37.7017 8.00751 35.5 8.00001H10.5C9.25208 7.99869 8.01614 8.24352 6.86296 8.72047C5.70977 9.19742 4.66198 9.89714 3.77956 10.7796C2.89714 11.662 2.19742 12.7098 1.72047 13.863C1.24352 15.0161 0.99869 16.2521 1.00001 17.5V42.5C0.99869 43.7479 1.24352 44.9839 1.72047 46.1371C2.19742 47.2902 2.89714 48.338 3.77956 49.2205C4.66198 50.1029 5.70977 50.8026 6.86296 51.2795C8.01614 51.7565 9.25208 52.0013 10.5 52H35.5C37.7017 51.9925 39.8327 51.2221 41.5302 49.82C43.2277 48.4178 44.3868 46.4707 44.81 44.31L45.01 43.24L50.42 49.99C50.9446 50.6321 51.61 51.1447 52.3647 51.4882C53.1193 51.8316 53.9429 51.9967 54.7717 51.9706C55.6004 51.9445 56.412 51.7279 57.1435 51.3376C57.875 50.9473 58.5068 50.3938 58.99 49.72ZM41 42.5C41 43.9587 40.4205 45.3576 39.3891 46.3891C38.3576 47.4205 36.9587 48 35.5 48H10.5C9.04132 48 7.64237 47.4205 6.61092 46.3891C5.57947 45.3576 5.00001 43.9587 5.00001 42.5V17.5C5.00001 16.0413 5.57947 14.6424 6.61092 13.6109C7.64237 12.5795 9.04132 12 10.5 12H35.5C36.9587 12 38.3576 12.5795 39.3891 13.6109C40.4205 14.6424 41 16.0413 41 17.5V42.5ZM56 46.66C55.9779 46.9311 55.8809 47.1907 55.72 47.41C55.5509 47.6214 55.3256 47.7808 55.07 47.87C54.9205 47.9295 54.761 47.9601 54.6 47.96C54.4936 47.9704 54.3864 47.9704 54.28 47.96C54.0154 47.8981 53.7752 47.7588 53.59 47.56L45 36.8V23.2L53.56 12.5C53.7522 12.2936 53.998 12.1447 54.27 12.07C54.5337 12.0114 54.8086 12.0281 55.0632 12.1183C55.3178 12.2085 55.542 12.3685 55.71 12.58C55.8785 12.796 55.9793 13.0569 56 13.33V46.66Z" fill="#546E7A"/>
<path d="M16.5 27.32C16.1029 28.2765 15.9229 29.3091 15.9731 30.3435C16.0232 31.3779 16.3023 32.3883 16.7902 33.3018C17.278 34.2154 17.9625 35.0092 18.7942 35.6263C19.626 36.2433 20.5842 36.6681 21.6 36.87C22.9601 37.1353 24.3681 36.9963 25.65 36.47C26.7125 36.0286 27.6498 35.3321 28.3789 34.4421C29.1081 33.5522 29.6067 32.4962 29.8305 31.3677C30.0544 30.2392 29.9966 29.0728 29.6623 27.9719C29.328 26.8711 28.7276 25.8695 27.914 25.056C27.1005 24.2424 26.099 23.642 24.9981 23.3077C23.8972 22.9734 22.7309 22.9157 21.6023 23.1395C20.4738 23.3634 19.4178 23.8619 18.5279 24.5911C17.6379 25.3203 16.9414 26.2575 16.5 27.32ZM20.85 27.88C21.4199 27.3324 22.1796 27.0266 22.97 27.0266C23.7604 27.0266 24.5201 27.3324 25.09 27.88C25.5099 28.2994 25.796 28.834 25.9121 29.416C26.0281 29.9981 25.9689 30.6014 25.742 31.1498C25.515 31.6982 25.1305 32.167 24.6371 32.4968C24.1437 32.8266 23.5635 33.0027 22.97 33.0027C22.3765 33.0027 21.7963 32.8266 21.3029 32.4968C20.8095 32.167 20.425 31.6982 20.198 31.1498C19.971 30.6014 19.9119 29.9981 20.0279 29.416C20.144 28.834 20.4301 28.2994 20.85 27.88Z" fill="#546E7A"/>
<path d="M9.9001 35.99C11.0401 38.75 12.9001 40.75 14.2501 40.75C14.6495 40.7512 15.0401 40.6328 15.3716 40.41C15.7031 40.1872 15.9603 39.8703 16.1101 39.5C16.2593 39.1326 16.301 38.7302 16.2301 38.34C16.145 37.9592 15.9503 37.6116 15.6701 37.34C13.7588 35.3808 12.6891 32.7521 12.6891 30.015C12.6891 27.278 13.7588 24.6493 15.6701 22.69C15.8566 22.5035 16.0045 22.2822 16.1054 22.0385C16.2063 21.7949 16.2583 21.5337 16.2583 21.27C16.2583 21.0063 16.2063 20.7452 16.1054 20.5015C16.0045 20.2579 15.8566 20.0365 15.6701 19.85C15.4836 19.6635 15.2622 19.5156 15.0186 19.4147C14.775 19.3138 14.5138 19.2618 14.2501 19.2618C13.9864 19.2618 13.7252 19.3138 13.4816 19.4147C13.238 19.5156 13.0166 19.6635 12.8301 19.85C10.7836 21.9388 9.41051 24.5932 8.88819 27.4704C8.36588 30.3475 8.71836 33.3152 9.9001 35.99Z" fill="#546E7A"/>
<path d="M30.6301 40.42C30.964 40.6352 31.3528 40.7498 31.7501 40.75C32.9401 40.75 34.8201 39.1 36.1301 35.93C37.3011 33.2548 37.6412 30.2895 37.1062 27.4186C36.5713 24.5478 35.186 21.9039 33.1301 19.83C32.9436 19.6435 32.7222 19.4956 32.4786 19.3947C32.2349 19.2938 31.9738 19.2418 31.7101 19.2418C31.1775 19.2418 30.6667 19.4534 30.2901 19.83C30.1036 20.0165 29.9557 20.2379 29.8548 20.4815C29.7538 20.7252 29.7019 20.9863 29.7019 21.25C29.7019 21.7826 29.9135 22.2934 30.2901 22.67C32.2007 24.6276 33.2702 27.2546 33.2702 29.99C33.2702 32.7254 32.2007 35.3524 30.2901 37.31C30.0099 37.5816 29.8152 37.9292 29.7301 38.31C29.6659 38.7138 29.7215 39.1275 29.8901 39.5C30.0386 39.8742 30.2965 40.1948 30.6301 40.42Z" fill="#546E7A"/>
</svg>
