<svg width="60" height="60" viewBox="0 0 60 60" fill="none" xmlns="http://www.w3.org/2000/svg">
<g clip-path="url(#clip0_1137_13489)">
<path d="M60 15.9907C60 17.09 59.1005 17.9895 58.0012 17.9895C58.0012 17.9895 57.9812 17.9895 57.9612 17.9895H1.99384C1.27426 17.9895 0.614641 17.6097 0.254851 16.9901C-0.0849505 16.3705 -0.0849505 15.6109 0.254851 14.9913L8.25019 0.999417C8.60998 0.379778 9.26959 0 9.98917 0H49.9659C50.6854 0 51.345 0.379778 51.7048 0.999417L59.5203 14.6914C59.8199 15.0512 60 15.491 60 15.9907Z" fill="#546E7A"/>
<path d="M59.9824 15.9907V57.9662C59.9824 59.0656 59.0829 59.9651 57.9835 59.9651H2.01617C0.916809 59.9651 0.017334 59.0656 0.017334 57.9662V15.9907H59.9824Z" fill="#0090E3"/>
<path d="M19.2561 28.421C19.1653 28.3486 19.0588 28.3124 18.9596 28.2581C18.8797 28.2137 18.8089 28.1611 18.7228 28.128C18.5005 28.0426 18.2698 27.9926 18.035 27.9894C18.025 27.9892 18.0168 27.9836 18.0068 27.9836C17.9968 27.9836 17.9886 27.989 17.9786 27.9892C17.744 27.9924 17.5131 28.0426 17.2908 28.128C17.2049 28.1611 17.1341 28.2135 17.0544 28.2577C16.955 28.3121 16.8485 28.3482 16.7573 28.4208L8.76199 34.8175C7.9011 35.5085 7.76058 36.7655 8.44958 37.6284C9.14057 38.4893 10.3956 38.6318 11.2605 37.9408L16.008 34.1413V47.5718C16.008 48.6766 16.902 49.5707 18.0068 49.5707C19.1116 49.5707 20.0056 48.6766 20.0056 47.5718V34.1413L24.7529 37.9406C25.1219 38.2355 25.563 38.378 26.0001 38.378C26.5876 38.378 27.1675 38.1203 27.5636 37.6284C28.2526 36.7657 28.1121 35.5087 27.2512 34.8175L19.2561 28.421Z" fill="#FED775"/>
<path d="M51.2375 34.8175L43.2422 28.4208C43.1514 28.3484 43.0449 28.3123 42.9457 28.2579C42.8658 28.2135 42.795 28.1609 42.7089 28.1278C42.4866 28.0424 42.2559 27.9924 42.0211 27.9892C42.0111 27.9892 42.0029 27.9836 41.9929 27.9836C41.9829 27.9836 41.9747 27.989 41.9647 27.9892C41.73 27.9924 41.4992 28.0426 41.2769 28.128C41.191 28.1611 41.1202 28.2135 41.0404 28.2577C40.9411 28.3121 40.8346 28.3482 40.7434 28.4208L32.7481 34.8175C31.8872 35.5085 31.7467 36.7655 32.4357 37.6284C33.1267 38.4893 34.3817 38.6318 35.2466 37.9408L39.9941 34.1413V47.5718C39.9941 48.6766 40.8881 49.5707 41.9929 49.5707C43.0976 49.5707 43.9917 48.6766 43.9917 47.5718V34.1413L48.7389 37.9406C49.1079 38.2355 49.5491 38.378 49.9862 38.378C50.5737 38.378 51.1535 38.1203 51.5497 37.6284C52.2389 36.7657 52.0984 35.5085 51.2375 34.8175Z" fill="#FED775"/>
</g>
<defs>
<clipPath id="clip0_1137_13489">
<rect width="60" height="60" fill="white"/>
</clipPath>
</defs>
</svg>
