<svg width="60" height="60" viewBox="0 0 60 60" fill="none" xmlns="http://www.w3.org/2000/svg">
<rect x="6" y="17" width="48" height="35" fill="#FED775"/>
<path d="M50.1875 9.91676H39.4502L44.7419 4.62503C45.5714 3.79557 45.5714 2.44967 44.7419 1.62209C43.9125 0.792636 42.5684 0.792636 41.7371 1.62209L33.4424 9.91676H26.5577L18.263 1.62209C17.4317 0.792636 16.0876 0.792636 15.2601 1.62209C14.4287 2.44979 14.4287 3.79557 15.2601 4.62503L20.5518 9.91676H9.8126C4.39454 9.91676 0 14.3095 0 19.7295V48.5668C0 53.9867 4.39454 58.3794 9.8126 58.3794H50.1874C55.6073 58.3794 60 53.9867 60 48.5668V19.7295C60.0001 14.3095 55.6075 9.91676 50.1875 9.91676ZM49.4239 42.8155C49.4239 46.0729 46.7817 48.7152 43.5242 48.7152H16.4759C13.2184 48.7152 10.5762 46.0729 10.5762 42.8155V25.4789C10.5762 22.2215 13.2184 19.5811 16.4759 19.5811H43.5243C46.7818 19.5811 49.424 22.2215 49.424 25.4789V42.8155H49.4239Z" fill="#0090E3"/>
</svg>
