<svg width="139" height="139" viewBox="0 0 139 139" fill="none" xmlns="http://www.w3.org/2000/svg">
<path d="M69.5 0L85.628 9.31101H104.25L113.561 25.439L129.689 34.75V53.372L139 69.5L129.689 85.628V104.25L113.561 113.561L104.25 129.689H85.628L69.5 139L53.372 129.689H34.75L25.439 113.561L9.31101 104.25V85.628L0 69.5L9.31101 53.372V34.75L25.439 25.439L34.75 9.31101H53.372L69.5 0Z" fill="#0090E3"/>
<path d="M69.5001 134.822C69.3455 134.823 69.1936 134.782 69.0603 134.704L54.3107 126.187H37.2763C37.1232 126.187 36.9728 126.147 36.8401 126.07C36.7074 125.994 36.597 125.884 36.52 125.752L28.0028 110.997L13.2479 102.48C13.1156 102.403 13.0059 102.293 12.9296 102.16C12.8534 102.027 12.8133 101.877 12.8134 101.724V84.6894L4.29623 69.9398C4.21955 69.8059 4.1792 69.6543 4.1792 69.5C4.1792 69.3457 4.21955 69.1941 4.29623 69.0602L12.8134 54.3106V37.2708C12.8133 37.1178 12.8534 36.9674 12.9296 36.8347C13.0059 36.702 13.1156 36.5916 13.2479 36.5146L28.0028 27.9974L36.52 13.2424C36.597 13.1102 36.7074 13.0004 36.8401 12.9242C36.9728 12.8479 37.1232 12.8079 37.2763 12.808H54.3107L69.0657 4.29614C69.1987 4.21993 69.3494 4.17984 69.5028 4.17984C69.6561 4.17984 69.8068 4.21993 69.9399 4.29614L84.6948 12.8134H101.729C101.882 12.8132 102.033 12.8533 102.165 12.9295C102.298 13.0058 102.409 13.1155 102.486 13.2478L111.003 28.0027L125.752 36.52C125.886 36.5958 125.997 36.7058 126.074 36.8387C126.152 36.9715 126.192 37.1225 126.192 37.2762V54.3106L134.709 69.0602C134.786 69.1941 134.826 69.3457 134.826 69.5C134.826 69.6543 134.786 69.8059 134.709 69.9398L126.192 84.6894V101.724C126.192 101.877 126.152 102.028 126.074 102.161C125.997 102.294 125.886 102.404 125.752 102.48L111.003 110.997L102.48 125.768C102.403 125.901 102.293 126.01 102.16 126.087C102.027 126.163 101.877 126.203 101.724 126.203H84.6895L69.9345 134.72C69.8015 134.792 69.6514 134.828 69.5001 134.822ZM37.7804 124.438H54.5467C54.6995 124.437 54.8497 124.478 54.9811 124.556L69.5001 132.934L84.0137 124.556C84.1468 124.477 84.2989 124.437 84.4535 124.438H101.214L109.597 109.919C109.675 109.786 109.786 109.675 109.919 109.597L124.438 101.22V84.4695C124.437 84.3173 124.476 84.1676 124.551 84.035L132.934 69.5161L124.551 54.9703C124.476 54.8378 124.437 54.688 124.438 54.5359V37.8072L109.919 29.4294C109.786 29.3522 109.675 29.2413 109.597 29.1076L101.214 14.5887H84.4535C84.2989 14.5902 84.1468 14.5494 84.0137 14.4707L69.5001 6.09291L54.9811 14.4707C54.8497 14.5487 54.6995 14.5895 54.5467 14.5887H37.7804L29.3759 29.0808C29.299 29.2129 29.1902 29.3236 29.0594 29.4026L14.5619 37.8072V54.5734C14.561 54.726 14.5203 54.8757 14.4439 55.0079L6.06084 69.5268L14.4439 84.0458C14.5203 84.1779 14.561 84.3276 14.5619 84.4802V101.246L29.0809 109.624C29.2117 109.703 29.3205 109.814 29.3973 109.946L37.7804 124.438Z" fill="white"/>
<path d="M69.5 103.73C88.4046 103.73 103.73 88.4046 103.73 69.5C103.73 50.5954 88.4046 35.2703 69.5 35.2703C50.5954 35.2703 35.2703 50.5954 35.2703 69.5C35.2703 88.4046 50.5954 103.73 69.5 103.73Z" fill="white"/>
<path d="M21.6951 61.0847L23.7171 64.4476L27.5359 65.3272L24.9614 68.2879L25.3047 72.1979L21.6951 70.6639L18.0801 72.1979L18.4233 68.2879L15.8489 65.3272L19.673 64.4476L21.6951 61.0847Z" fill="white"/>
<path d="M117.305 61.0847L119.327 64.4476L123.146 65.3272L120.577 68.2879L120.915 72.1979L117.305 70.6639L113.695 72.1979L114.033 68.2879L111.459 65.3272L115.283 64.4476L117.305 61.0847Z" fill="white"/>
<path d="M58.5049 44.9406H80.4952" stroke="#0090E3" stroke-width="2" stroke-linecap="round" stroke-linejoin="round"/>
<path d="M58.5049 94.0594H80.4952" stroke="#0090E3" stroke-width="2" stroke-linecap="round" stroke-linejoin="round"/>
<path d="M31.5211 52.3369L32.9155 52.8732L31.1617 57.5663L29.7672 57.0299L30.3035 55.555L27.4877 54.4823L26.9514 55.9572L25.8787 55.5657C26.0143 55.0861 26.0776 54.589 26.0664 54.0907C26.0673 53.5678 26.0116 53.0463 25.9001 52.5353L26.1254 51.9293L30.9525 53.7314L31.5211 52.3369Z" fill="white"/>
<path d="M30.4806 45.0801C31.3706 45.1035 32.2413 45.3439 33.0171 45.7804C33.7929 46.2169 34.4504 46.8363 34.9323 47.5848C35.2363 48.2392 35.1344 49.0187 34.6266 49.9233C34.1189 50.8279 33.5039 51.3214 32.7816 51.4036C31.892 51.3789 31.0218 51.1379 30.2462 50.7015C29.4705 50.2651 28.8128 49.6464 28.3299 48.8989C28.026 48.2445 28.1279 47.4615 28.6356 46.5497C29.1451 45.6486 29.7566 45.1552 30.4806 45.0801ZM29.7619 47.9978C30.0264 48.3409 30.3682 48.6166 30.7596 48.8023L31.5909 49.269C31.955 49.5084 32.3701 49.6591 32.803 49.7088C32.9468 49.7116 33.0882 49.6726 33.2102 49.5964C33.3321 49.5202 33.4292 49.4102 33.4896 49.2797C33.5698 49.1609 33.6127 49.0208 33.6127 48.8774C33.6127 48.7341 33.5698 48.594 33.4896 48.4752C33.2193 48.1335 32.8743 47.8583 32.4812 47.6706L31.6445 47.204C31.2812 46.9661 30.8685 46.8138 30.4377 46.7589C30.2963 46.7569 30.1572 46.7959 30.0373 46.871C29.9175 46.9462 29.8218 47.0544 29.7619 47.1826C29.6834 47.304 29.6417 47.4456 29.6417 47.5902C29.6417 47.7348 29.6834 47.8764 29.7619 47.9978Z" fill="white"/>
<path d="M34.6963 39.3787C35.5719 39.538 36.3955 39.9085 37.0955 40.458C37.7955 41.0076 38.3509 41.7196 38.7135 42.5324C38.9173 43.2476 38.6974 44.0038 38.0538 44.8012C37.4102 45.6164 36.729 46.0133 36.005 45.9812C35.1295 45.8196 34.3063 45.4477 33.6065 44.8973C32.9067 44.347 32.3511 43.6348 31.9877 42.8221C31.7839 42.1248 31.9877 41.3686 32.6528 40.548C33.3179 39.7273 33.9722 39.3465 34.6963 39.3787ZM33.5378 42.157C33.7481 42.5361 34.0437 42.8612 34.4013 43.1063L35.1522 43.6963C35.4767 43.9878 35.8639 44.2007 36.2839 44.3185C36.4264 44.3414 36.5726 44.3227 36.7048 44.2647C36.8371 44.2067 36.9498 44.1118 37.0294 43.9913C37.1273 43.888 37.1924 43.7578 37.2162 43.6175C37.2401 43.4771 37.2218 43.3328 37.1635 43.2029C36.9467 42.825 36.648 42.5006 36.2892 42.2535L35.533 41.6636C35.2106 41.3737 34.8277 41.1593 34.412 41.036C34.2715 41.0113 34.1267 41.0286 33.996 41.0859C33.8652 41.1431 33.7544 41.2377 33.6772 41.3578C33.5793 41.4634 33.514 41.595 33.4893 41.7368C33.4645 41.8786 33.4814 42.0245 33.5378 42.157Z" fill="white"/>
<path d="M38.2257 35.2005C38.6857 35.2721 39.1005 35.518 39.3842 35.8871C39.7044 36.22 39.8832 36.6641 39.883 37.126C39.8559 37.3676 39.7783 37.6007 39.6554 37.8105C39.5326 38.0202 39.3671 38.2018 39.1696 38.3435C39.0128 38.523 38.8171 38.6643 38.5974 38.7567C38.3778 38.849 38.1399 38.8901 37.902 38.8766C37.664 38.8632 37.4323 38.7956 37.2244 38.6791C37.0166 38.5625 36.838 38.4001 36.7024 38.2041C36.3776 37.8693 36.1967 37.4208 36.1983 36.9544C36.2913 36.4774 36.5416 36.0454 36.9091 35.7274C37.2767 35.4095 37.7402 35.224 38.2257 35.2005ZM37.2066 36.7345C37.2555 36.9363 37.3574 37.1214 37.5016 37.2708L37.7054 37.5068C37.8368 37.6737 38.011 37.8016 38.2096 37.8769C38.2927 37.9035 38.3815 37.9071 38.4665 37.8873C38.5515 37.8675 38.6295 37.8249 38.6923 37.7643C38.9765 37.5122 38.939 37.1797 38.5743 36.7559L38.3705 36.52C38.0058 36.0962 37.6786 35.9836 37.3943 36.2571C37.3209 36.3106 37.2642 36.3839 37.2309 36.4685C37.1977 36.553 37.1892 36.6453 37.2066 36.7345ZM41.3365 40.8268L40.0653 33.1624L40.8591 32.4759L42.1464 40.1242L41.3365 40.8268ZM44.3454 34.4228C44.7938 34.5172 45.1989 34.7561 45.4983 35.103C45.7977 35.4499 45.9749 35.8856 46.0027 36.343C45.9762 36.5841 45.8995 36.817 45.7776 37.0267C45.6557 37.2363 45.4912 37.4182 45.2947 37.5605C45.1237 37.7361 44.9183 37.8744 44.6912 37.9668C44.4641 38.0591 44.2203 38.1034 43.9753 38.0968C43.5185 38.0353 43.1042 37.7964 42.8222 37.4318C42.498 37.0944 42.3173 36.6445 42.318 36.1767C42.3473 35.935 42.4257 35.7018 42.5483 35.4916C42.671 35.2813 42.8354 35.0983 43.0314 34.9538C43.2017 34.7799 43.4067 34.6437 43.6331 34.5541C43.8594 34.4645 44.1021 34.4234 44.3454 34.4336V34.4228ZM43.3263 35.9622C43.3763 36.1636 43.4779 36.3485 43.6213 36.4985L43.8251 36.7345C43.9572 36.9041 44.1335 37.034 44.3347 37.1099C44.4176 37.1337 44.5053 37.1353 44.5891 37.1146C44.6729 37.0939 44.7497 37.0516 44.812 36.9919C45.1017 36.7452 45.0587 36.4073 44.694 35.9836L44.4902 35.7476C44.1255 35.3239 43.7983 35.2113 43.5141 35.4848C43.4392 35.5398 43.3814 35.6147 43.3472 35.701C43.3131 35.7874 43.304 35.8816 43.321 35.9729L43.3263 35.9622Z" fill="white"/>
<path d="M52.2943 28.2548C52.9722 28.534 53.5219 29.0555 53.8363 29.7179C54.1506 30.3803 54.207 31.136 53.9945 31.8376C53.6647 32.5255 53.0913 33.0664 52.3855 33.3555C51.7167 33.7246 50.9334 33.828 50.1918 33.6451C49.5151 33.361 48.967 32.8373 48.6523 32.1743C48.3376 31.5113 48.2785 30.7555 48.4862 30.0516C48.8528 29.3898 49.4184 28.8601 50.1028 28.5376C50.7873 28.2151 51.5558 28.1162 52.2996 28.2548H52.2943ZM50.2937 31.1082L50.5297 31.607C50.8354 32.256 51.2752 32.4491 51.8491 32.1809C52.423 31.9127 52.5571 31.4461 52.246 30.7918L52.01 30.293C51.6989 29.6386 51.2537 29.4455 50.6798 29.7191C50.1059 29.9926 49.9558 30.4539 50.2937 31.1082Z" fill="white"/>
<path d="M59.0519 26.0075C59.6132 26.4479 60.0038 27.0699 60.1568 27.7668C60.3995 28.4318 60.3995 29.1613 60.1568 29.8263C60.0329 30.0994 59.8481 30.3405 59.6166 30.5311C59.3851 30.7217 59.1131 30.8568 58.8213 30.9259C58.5692 31.0107 58.302 31.0407 58.0375 31.0139C57.7729 30.9871 57.5171 30.904 57.2873 30.7703L57.9577 33.0391L56.1127 33.5754L54.1335 26.8603L55.63 26.4205L55.9947 27.0642C56.0845 26.7567 56.2538 26.4783 56.4854 26.2571C56.717 26.0358 57.0029 25.8794 57.3141 25.8037C57.5994 25.6985 57.9054 25.6621 58.2074 25.6975C58.5094 25.7329 58.7987 25.8392 59.0519 26.0075ZM56.6329 27.8097C56.5505 28.0733 56.5505 28.3559 56.6329 28.6196L56.7241 28.9253C56.7898 29.1959 56.9379 29.4395 57.1479 29.6225C57.2457 29.6975 57.3609 29.7466 57.4827 29.7653C57.6046 29.7841 57.7292 29.7718 57.8451 29.7298C58.3814 29.5743 58.5477 29.1935 58.3814 28.5445L58.2366 28.051C58.0489 27.4235 57.7003 27.1875 57.1639 27.3431C57.0409 27.3719 56.9274 27.432 56.8344 27.5175C56.7414 27.603 56.672 27.711 56.6329 27.8311V27.8097Z" fill="white"/>
<path d="M63.7019 28.5015L65.9277 28.1744L66.1154 29.4616L61.1971 30.1803L61.1059 29.5635L62.7686 26.1202L60.7627 26.4098L60.575 25.1226L65.2948 24.4307L65.3806 25.026L63.7019 28.5015Z" fill="white"/>
<path d="M71.2645 24.8115C71.5296 25.0686 71.7359 25.3801 71.8693 25.7245C72.0026 26.0689 72.0598 26.4381 72.0368 26.8067V27.1339L68.2127 27.1982C68.198 27.4962 68.2913 27.7895 68.4755 28.0242C68.578 28.1225 68.7006 28.1974 68.8349 28.2437C68.9692 28.29 69.1119 28.3066 69.2532 28.2924C69.5072 28.3071 69.7581 28.231 69.9612 28.0778C70.0344 28.0097 70.0921 27.9264 70.13 27.8338C70.168 27.7412 70.1854 27.6415 70.1811 27.5415L72.0422 27.5147C72.0585 27.7953 72.0048 28.0755 71.8859 28.3302C71.767 28.5848 71.5867 28.8059 71.3611 28.9735C70.7514 29.3631 70.0346 29.5508 69.3122 29.5099C68.5242 29.5722 67.7401 29.3496 67.1025 28.8824C66.8261 28.633 66.6094 28.3247 66.4683 27.9803C66.3272 27.6358 66.2653 27.2641 66.2872 26.8925C66.2569 26.5261 66.3064 26.1576 66.4324 25.8122C66.5583 25.4668 66.7576 25.1528 67.0166 24.8919C67.6306 24.4464 68.3661 24.1995 69.1244 24.1841C69.8828 24.1688 70.6277 24.3858 71.2592 24.8061L71.2645 24.8115ZM68.2127 26.2918L70.0899 26.2596C70.0936 26.145 70.0741 26.0309 70.0326 25.924C69.9911 25.8171 69.9286 25.7196 69.8486 25.6375C69.7649 25.5574 69.6653 25.4959 69.5562 25.4571C69.4471 25.4183 69.3311 25.403 69.2157 25.4122C69.091 25.3988 68.9649 25.4114 68.8454 25.4493C68.7259 25.4871 68.6155 25.5493 68.5212 25.632C68.427 25.7146 68.3509 25.816 68.2978 25.9295C68.2447 26.0431 68.2157 26.1665 68.2127 26.2918Z" fill="white"/>
<path d="M79.165 25.203C78.888 25.4008 78.5607 25.516 78.221 25.5355C78.3765 25.6876 78.4988 25.8702 78.5803 26.0719C78.6565 26.2699 78.6805 26.4841 78.6501 26.6941C78.6249 26.9326 78.5386 27.1606 78.3995 27.356C78.2605 27.5514 78.0734 27.7077 77.8563 27.8097C77.3611 28.0282 76.8114 28.0918 76.2794 27.992L75.5553 27.8794C75.1531 27.8204 74.9386 27.8794 74.9117 28.0671C74.9052 28.1113 74.9113 28.1564 74.9293 28.1972C74.9473 28.238 74.9766 28.2729 75.0137 28.2977C75.1502 28.3869 75.307 28.4403 75.4695 28.4533L77.1859 28.7161C77.4186 28.7343 77.6452 28.7998 77.8518 28.9087C78.0584 29.0175 78.2406 29.1673 78.3873 29.349C78.5108 29.5278 78.5968 29.7297 78.6401 29.9427C78.6834 30.1556 78.6832 30.3751 78.6393 30.5879C78.5933 30.9224 78.4432 31.2339 78.2103 31.4783C77.9698 31.7139 77.6692 31.879 77.3414 31.9556C76.9895 32.0363 76.6254 32.049 76.2687 31.9932L73.4636 31.5641C73.2408 31.5297 73.0304 31.4393 72.8522 31.3013C72.6764 31.1604 72.5413 30.9753 72.4606 30.7649C72.3742 30.5602 72.3481 30.335 72.3855 30.116C72.4196 29.8713 72.537 29.6458 72.7181 29.4777C72.8958 29.3031 73.1156 29.1774 73.3563 29.113C73.2258 28.9855 73.1234 28.832 73.056 28.6625C72.9871 28.4926 72.9667 28.3069 72.997 28.1261C73.038 27.8756 73.1744 27.6506 73.3778 27.4986C73.5915 27.3242 73.8536 27.2194 74.1287 27.1982C73.918 27.0194 73.7448 26.8007 73.6191 26.5546C73.5075 26.3442 73.4662 26.1037 73.5011 25.8681C73.5221 25.6101 73.6188 25.364 73.7791 25.1608C73.9394 24.9575 74.1562 24.8062 74.4022 24.7257C75.0324 24.5381 75.6988 24.5068 76.3438 24.6345C76.6219 24.6724 76.8964 24.7334 77.1644 24.8168C77.427 24.7252 77.6641 24.5727 77.8563 24.3717C77.9446 24.2786 78.0106 24.1668 78.0494 24.0445L79.6101 24.2858C79.6029 24.4611 79.5597 24.633 79.4831 24.7908C79.4065 24.9486 79.2982 25.0889 79.165 25.203ZM74.429 29.7995C74.3761 29.8362 74.3318 29.884 74.2994 29.9396C74.2669 29.9952 74.2471 30.0572 74.2413 30.1213C74.2282 30.1859 74.2295 30.2526 74.2453 30.3166C74.261 30.3806 74.2908 30.4403 74.3325 30.4914C74.372 30.5439 74.422 30.5877 74.4792 30.62C74.5364 30.6523 74.5997 30.6724 74.665 30.6791L76.1507 30.9098C76.2826 30.9331 76.4184 30.9064 76.5315 30.8347C76.5868 30.7983 76.6333 30.7501 76.6677 30.6935C76.702 30.6369 76.7233 30.5734 76.7299 30.5075C76.7434 30.4438 76.7422 30.3778 76.7264 30.3146C76.7106 30.2514 76.6807 30.1927 76.6388 30.1428C76.5503 30.0432 76.4279 29.9801 76.2955 29.9658L74.8098 29.7351C74.6793 29.7086 74.5436 29.7315 74.429 29.7995ZM75.6412 25.7715C75.5646 25.8186 75.5 25.8828 75.4525 25.9592C75.405 26.0355 75.376 26.1218 75.3676 26.2113C75.3478 26.2976 75.3476 26.3872 75.3671 26.4736C75.3866 26.5599 75.4253 26.6408 75.4803 26.7101C75.6146 26.8467 75.7935 26.9304 75.9844 26.9461C76.1666 26.9821 76.3555 26.9556 76.5208 26.8711C76.5988 26.8261 76.6643 26.7623 76.7111 26.6855C76.758 26.6086 76.7848 26.5212 76.789 26.4312C76.8095 26.3434 76.809 26.252 76.7875 26.1644C76.7661 26.0768 76.7243 25.9955 76.6656 25.9271C76.5216 25.7855 76.3309 25.7016 76.1292 25.6911C75.9552 25.6613 75.7761 25.6895 75.6197 25.7715H75.6412Z" fill="white"/>
<path d="M85.9658 27.2518C85.6613 27.4066 85.3186 27.4699 84.9789 27.4342C85.1085 27.616 85.1997 27.8222 85.2471 28.0403C85.2905 28.2469 85.2794 28.4614 85.2149 28.6624C85.1541 28.8946 85.0342 29.107 84.8669 29.279C84.6996 29.451 84.4906 29.5767 84.2602 29.644C83.7294 29.7861 83.1677 29.7618 82.6512 29.5742L81.9539 29.349C81.5678 29.2256 81.3478 29.2524 81.2888 29.4348C81.2761 29.4779 81.2753 29.5236 81.2867 29.5671C81.298 29.6106 81.321 29.6501 81.3532 29.6815C81.4741 29.7887 81.6197 29.8643 81.7769 29.9014L83.4342 30.4378C83.659 30.4937 83.8701 30.5948 84.0545 30.735C84.2389 30.8751 84.3929 31.0514 84.5069 31.253C84.6003 31.4486 84.6532 31.6611 84.6624 31.8777C84.6716 32.0943 84.637 32.3106 84.5606 32.5134C84.4664 32.8391 84.2687 33.1253 83.9974 33.3287C83.7248 33.5231 83.4036 33.6382 83.0695 33.6612C82.7067 33.6859 82.3424 33.6404 81.9968 33.5271L79.3151 32.6636C79.1007 32.5946 78.9071 32.4729 78.7519 32.3096C78.6041 32.1486 78.499 31.9531 78.4462 31.7411C78.3848 31.5273 78.3848 31.3005 78.4462 31.0867C78.5181 30.8499 78.6697 30.6453 78.8753 30.5075C79.0799 30.3627 79.318 30.2723 79.5672 30.2447C79.4533 30.1022 79.3743 29.935 79.3365 29.7566C79.2853 29.5815 79.2853 29.3954 79.3365 29.2202C79.4214 28.9888 79.5897 28.7975 79.8085 28.6839C80.0486 28.5496 80.3225 28.4881 80.597 28.5069C80.416 28.2988 80.2791 28.0561 80.1947 27.7936C80.1198 27.5672 80.1198 27.3227 80.1947 27.0963C80.2574 26.8449 80.3924 26.6175 80.5831 26.4421C80.7738 26.2667 81.0117 26.151 81.2674 26.1094C81.9189 26.0236 82.5815 26.0973 83.1982 26.324C83.467 26.407 83.7289 26.511 83.9813 26.635C84.2539 26.5837 84.5109 26.4698 84.7322 26.3025C84.8333 26.2252 84.9157 26.1262 84.9735 26.0129L86.4807 26.4956C86.4084 26.8026 86.225 27.072 85.9658 27.2518ZM80.5433 31.0492C80.4846 31.075 80.4327 31.1141 80.3918 31.1635C80.3508 31.2128 80.3219 31.271 80.3073 31.3335C80.2841 31.3953 80.2749 31.4616 80.2805 31.5275C80.286 31.5934 80.3062 31.6572 80.3395 31.7143C80.3702 31.772 80.4121 31.8231 80.4628 31.8646C80.5134 31.906 80.5718 31.937 80.6345 31.9556L82.0719 32.4115C82.1946 32.4581 82.3301 32.4581 82.4527 32.4115C82.5139 32.3854 82.5684 32.3458 82.612 32.2957C82.6557 32.2455 82.6874 32.1861 82.7048 32.1219C82.7269 32.0607 82.7354 31.9955 82.7298 31.9306C82.7243 31.8658 82.7048 31.803 82.6726 31.7464C82.6023 31.6315 82.4912 31.5472 82.3615 31.5104L80.9295 31.0546C80.8059 31.0049 80.6683 31.003 80.5433 31.0492ZM82.3723 27.2572C82.2897 27.2922 82.2163 27.3457 82.1577 27.4136C82.0991 27.4815 82.0569 27.5619 82.0344 27.6487C82.0012 27.7307 81.9869 27.819 81.9925 27.9072C81.9981 27.9954 82.0234 28.0812 82.0665 28.1583C82.1772 28.3159 82.3409 28.4283 82.5278 28.4747C82.7119 28.5385 82.9122 28.5385 83.0963 28.4747C83.179 28.4393 83.2522 28.3848 83.3099 28.3159C83.3677 28.247 83.4084 28.1654 83.4289 28.0778C83.4674 27.9923 83.4841 27.8985 83.4775 27.8049C83.471 27.7113 83.4414 27.6208 83.3913 27.5415C83.2739 27.3861 83.1077 27.2746 82.9194 27.225C82.7389 27.1709 82.5451 27.1823 82.3723 27.2572Z" fill="white"/>
<path d="M91.2112 30.1267C91.3676 30.3343 91.4592 30.5836 91.4745 30.8431C91.4898 31.1027 91.428 31.361 91.297 31.5855L90.4066 33.3662C90.3592 33.449 90.3404 33.5452 90.353 33.6397C90.3608 33.6838 90.3796 33.7251 90.4077 33.7598C90.4359 33.7946 90.4724 33.8215 90.5139 33.8382L90.825 33.9991L90.3262 34.9913H90.1653C90.0472 34.9736 89.9306 34.9467 89.8167 34.9109C89.6518 34.864 89.492 34.8011 89.3393 34.7232C89.0565 34.5978 88.8026 34.4151 88.5938 34.1868C88.4371 33.9999 88.3583 33.7598 88.3739 33.5164C88.0654 33.5809 87.7488 33.5972 87.4353 33.5647C87.0753 33.5208 86.7264 33.4117 86.4055 33.2429C85.3328 32.7065 85.0164 32.0093 85.4401 31.1618C85.5206 30.9707 85.6391 30.798 85.7885 30.6541C85.9379 30.5103 86.115 30.3984 86.309 30.3251C86.7272 30.2125 87.1693 30.2255 87.5801 30.3627C88.2099 30.5582 88.8204 30.8113 89.4037 31.1189L89.5163 30.8936C89.5567 30.8167 89.5778 30.7311 89.5778 30.6442C89.5778 30.5574 89.5567 30.4718 89.5163 30.3948C89.4228 30.2271 89.2781 30.0937 89.1033 30.014C88.9376 29.9277 88.7538 29.8817 88.567 29.8799C88.4958 29.8747 88.4247 29.8914 88.3633 29.9279C88.3019 29.9643 88.2532 30.0187 88.2237 30.0838V30.1159L86.5289 29.2685C86.5438 29.2262 86.5617 29.185 86.5825 29.1452C86.6874 28.9333 86.8484 28.7543 87.0479 28.6276C87.2474 28.5009 87.4779 28.4313 87.7142 28.4264C88.4002 28.4156 89.0764 28.5897 89.6719 28.9306C90.2738 29.1995 90.8019 29.6098 91.2112 30.1267ZM87.8376 31.5319C87.7291 31.5108 87.6169 31.5237 87.5161 31.5689C87.4153 31.614 87.3309 31.6891 87.2744 31.784C87.1296 32.0736 87.2744 32.3203 87.6445 32.5134C87.8529 32.625 88.0924 32.6646 88.3256 32.626C88.4259 32.6171 88.5223 32.583 88.6058 32.5267C88.6893 32.4704 88.7571 32.3939 88.803 32.3042L89.0014 31.9181C88.6429 31.7134 88.2473 31.5821 87.8376 31.5319Z" fill="white"/>
<path d="M96.3872 33.0229C96.4623 33.1195 96.4999 33.1677 96.4945 33.1731L95.5934 34.5086L95.0571 34.1654C94.9352 34.065 94.7928 33.9928 94.6398 33.9538C94.4868 33.9149 94.3271 33.9102 94.1721 33.9401C93.8609 34.0476 93.5996 34.265 93.4373 34.5515L92.1662 36.4341L90.5571 35.3614L93.4105 31.135L94.7138 32.0146L94.3867 32.7279C94.6278 32.5532 94.9205 32.4645 95.218 32.4758C95.5166 32.4932 95.8045 32.5935 96.0493 32.7655C96.1739 32.8344 96.2877 32.9211 96.3872 33.0229Z" fill="white"/>
<path d="M100.635 37.0724C100.732 37.3145 100.756 37.5799 100.704 37.8355C100.651 38.091 100.525 38.3256 100.34 38.5098L99.0204 39.9955C98.9545 40.0643 98.9131 40.1529 98.9025 40.2476C98.8978 40.2923 98.9048 40.3376 98.9226 40.3789C98.9404 40.4202 98.9686 40.4563 99.0044 40.4836L99.2618 40.7142L98.527 41.5616L98.3715 41.508C98.2632 41.4616 98.1591 41.406 98.0604 41.3417C97.9122 41.2549 97.7737 41.1524 97.6474 41.036C97.4044 40.8349 97.207 40.5844 97.0682 40.3012C96.968 40.0884 96.947 39.8469 97.0091 39.62C96.6937 39.5984 96.3831 39.5315 96.0866 39.4216C95.7508 39.2865 95.4419 39.0921 95.1748 38.8477C94.2845 38.0539 94.1504 37.2977 94.7833 36.5843C94.9119 36.4184 95.0738 36.2811 95.2585 36.1814C95.4432 36.0816 95.6467 36.0216 95.856 36.0051C96.2894 36.0009 96.7138 36.128 97.0735 36.3698C97.6334 36.7187 98.1595 37.1192 98.645 37.5658L98.8113 37.3781C98.8723 37.3162 98.9173 37.2404 98.9426 37.1573C98.9678 37.0741 98.9724 36.9861 98.9561 36.9008C98.9118 36.7155 98.8082 36.5498 98.6611 36.4288C98.5283 36.3086 98.3709 36.2189 98.1998 36.166C98.1321 36.1435 98.0592 36.1417 97.9904 36.1608C97.9216 36.1799 97.8601 36.219 97.8137 36.2732V36.3054L96.3977 35.0504C96.42 35.0114 96.447 34.9753 96.4782 34.9431C96.6332 34.765 96.8345 34.6331 97.0597 34.5621C97.285 34.4912 97.5255 34.4838 97.7547 34.5408C98.4207 34.7047 99.0291 35.0478 99.5139 35.5331C100.006 35.9485 100.391 36.4766 100.635 37.0724ZM96.9984 37.5605C96.899 37.5114 96.7869 37.4943 96.6774 37.5116C96.5679 37.5289 96.4664 37.5797 96.387 37.657C96.1725 37.8984 96.2315 38.1612 96.5586 38.4508C96.7301 38.6139 96.9507 38.7158 97.1861 38.7404C97.2841 38.7563 97.3845 38.7475 97.4781 38.7147C97.5718 38.6819 97.6558 38.6262 97.7225 38.5527L98.0121 38.2309C97.7228 37.9415 97.378 37.7135 96.9984 37.5605Z" fill="white"/>
<path d="M105.435 42.6343C105.331 43.1362 105.042 43.5804 104.625 43.8786L102.083 45.9865L100.86 44.5062L103.22 42.5485C103.374 42.4348 103.481 42.2689 103.521 42.0819C103.54 41.9911 103.539 41.897 103.516 41.8069C103.494 41.7167 103.451 41.6329 103.392 41.5616C103.327 41.4772 103.245 41.407 103.152 41.3555C103.058 41.304 102.955 41.2723 102.849 41.2622C102.743 41.2521 102.636 41.264 102.535 41.2971C102.433 41.3301 102.34 41.3836 102.26 41.4543L99.9538 43.3637L98.731 41.8834L102.657 38.6331L103.66 39.8453L103.124 40.4353C103.467 40.4149 103.81 40.4813 104.121 40.6284C104.45 40.7695 104.739 40.9886 104.963 41.2666C105.138 41.4454 105.272 41.6609 105.353 41.8974C105.435 42.1339 105.463 42.3856 105.435 42.6343Z" fill="white"/>
<path d="M108.718 46.9251L107.613 47.617L107.039 46.7052L105.398 47.7404C105.239 47.8222 105.11 47.9516 105.028 48.1104C105.007 48.1866 105.005 48.2666 105.021 48.3439C105.036 48.4212 105.07 48.4937 105.119 48.5556L105.409 49.0115L104.465 49.6337C104.309 49.5015 104.167 49.3542 104.041 49.1939C103.903 49.033 103.775 48.8627 103.66 48.6843C103.391 48.3137 103.237 47.8712 103.22 47.4132C103.237 47.213 103.305 47.0205 103.418 46.8542C103.531 46.6879 103.684 46.5535 103.864 46.4638L106.009 45.1015L105.629 44.4955L106.734 43.8036L107.152 44.4686L108.68 43.9966L109.447 45.2034L108.139 46.0294L108.718 46.9251Z" fill="white"/>
<path d="M104.776 50.3899L109.313 48.0675L110.187 49.7731L105.65 52.1009L104.776 50.3899ZM109.844 47.794L111.003 47.1986L111.877 48.9096L110.718 49.5049L109.844 47.794Z" fill="white"/>
<path d="M112.097 55.8875C111.944 56.2216 111.722 56.5191 111.444 56.7597C111.166 57.0003 110.84 57.1784 110.488 57.282L110.182 57.3946L108.841 53.8172C108.551 53.9026 108.304 54.0941 108.149 54.3535C108.091 54.4833 108.06 54.6241 108.06 54.7665C108.06 54.9089 108.091 55.0497 108.149 55.1795C108.217 55.4243 108.374 55.6348 108.589 55.7695C108.68 55.8132 108.78 55.836 108.881 55.836C108.983 55.836 109.083 55.8132 109.174 55.7695L109.828 57.5126C109.569 57.6235 109.285 57.6679 109.005 57.6416C108.724 57.6154 108.454 57.5194 108.219 57.3624C107.64 56.9237 107.217 56.3109 107.012 55.6139C106.689 54.8932 106.636 54.0804 106.862 53.3237C107.004 52.9787 107.223 52.6705 107.502 52.4224C107.78 52.1743 108.112 51.9928 108.471 51.8917C108.807 51.7342 109.173 51.6526 109.544 51.6526C109.915 51.6526 110.281 51.7342 110.616 51.8917C111.272 52.2812 111.76 52.9005 111.984 53.6294C112.303 54.3416 112.343 55.1472 112.097 55.8875ZM109.683 53.5061L110.338 55.2599C110.449 55.2281 110.551 55.1726 110.639 55.0973C110.726 55.0219 110.796 54.9286 110.844 54.8236C110.892 54.7186 110.917 54.6045 110.916 54.4891C110.916 54.3737 110.89 54.2597 110.842 54.1551C110.813 54.0335 110.759 53.9193 110.684 53.8196C110.609 53.7199 110.514 53.6369 110.405 53.5759C110.296 53.5149 110.176 53.4772 110.052 53.4652C109.927 53.4531 109.802 53.4671 109.683 53.5061Z" fill="white"/>
<path d="M28.3671 83.8902L26.9351 84.2871L25.5889 79.46L27.0209 79.0631L27.4446 80.5809L30.3355 79.7711L29.9172 78.2586L30.9899 77.9582C31.1606 78.4272 31.4031 78.8669 31.7086 79.2615C32.0142 79.6845 32.3649 80.073 32.7545 80.42L32.9315 81.0422L27.9541 82.4313L28.3671 83.8902Z" fill="white"/>
<path d="M35.013 88.0416C34.4749 88.7482 33.7726 89.313 32.967 89.6868C32.1613 90.0607 31.2767 90.2324 30.3896 90.187C29.6763 90.0529 29.1024 89.5219 28.6626 88.5779C28.2228 87.6339 28.1745 86.8455 28.5285 86.2126C29.0665 85.506 29.7688 84.9412 30.5745 84.5674C31.3801 84.1935 32.2648 84.0218 33.1518 84.0672C33.867 84.2031 34.4444 84.7395 34.8842 85.6763C35.3241 86.6131 35.367 87.4015 35.013 88.0416ZM33.0499 85.7567C32.618 85.776 32.1961 85.8934 31.8163 86.1L30.9528 86.5076C30.5429 86.6657 30.1756 86.9173 29.8801 87.2424C29.7956 87.3589 29.7465 87.4973 29.7389 87.641C29.7313 87.7847 29.7654 87.9276 29.8372 88.0523C29.8862 88.1866 29.9741 88.3032 30.0897 88.3873C30.2053 88.4714 30.3433 88.5191 30.4862 88.5243C30.9203 88.4996 31.3435 88.3786 31.7251 88.1703L32.5887 87.7627C32.9966 87.606 33.3635 87.3584 33.6614 87.0386C33.7484 86.9255 33.7996 86.7889 33.8082 86.6464C33.8168 86.504 33.7825 86.3622 33.7096 86.2394C33.6575 86.1042 33.5676 85.9868 33.4506 85.9013C33.3337 85.8157 33.1946 85.7655 33.0499 85.7567Z" fill="white"/>
<path d="M38.5417 93.464C38.1752 94.2827 37.5669 94.9696 36.7985 95.4324C36.0942 95.99 35.2338 96.3143 34.3367 96.3603C33.6126 96.3603 32.9529 95.9151 32.3683 95.0623C31.7837 94.2095 31.6013 93.4533 31.8319 92.7507C32.2445 91.9624 32.843 91.2866 33.5758 90.7819C34.3085 90.2772 35.1533 89.9588 36.0369 89.8544C36.761 89.8544 37.4153 90.3049 38.0106 91.1631C38.606 92.0212 38.783 92.7829 38.5417 93.464ZM36.23 91.5332C35.805 91.6171 35.406 91.8009 35.0661 92.0695L34.2831 92.6059C33.909 92.831 33.5901 93.137 33.3498 93.5016C33.2861 93.6312 33.2608 93.7763 33.2769 93.9198C33.2931 94.0634 33.35 94.1993 33.441 94.3115C33.5119 94.4356 33.618 94.536 33.7459 94.6C33.8738 94.6639 34.0178 94.6886 34.1597 94.6708C34.5823 94.5796 34.9797 94.3965 35.3236 94.1344L36.1066 93.5981C36.4809 93.3778 36.8 93.0752 37.0399 92.7131C37.1047 92.586 37.1311 92.4427 37.1159 92.3008C37.1007 92.1589 37.0444 92.0245 36.9541 91.914C36.8831 91.7873 36.7769 91.6839 36.6484 91.6163C36.5199 91.5487 36.3746 91.5198 36.23 91.5332Z" fill="white"/>
<path d="M36.5842 100.238L44.0931 98.2322L44.8493 98.9616L37.3405 100.978L36.5842 100.238ZM41.8941 96.6017C41.87 97.0671 41.6639 97.5044 41.3202 97.8192C41.1643 98.0053 40.9718 98.1575 40.7548 98.2663C40.5378 98.3751 40.3007 98.4382 40.0583 98.4518C39.8159 98.4653 39.5733 98.429 39.3455 98.345C39.1177 98.2611 38.9095 98.1313 38.7338 97.9638C38.5581 97.7962 38.4187 97.5943 38.3242 97.3707C38.2296 97.1471 38.1819 96.9065 38.184 96.6637C38.1861 96.4209 38.238 96.1812 38.3365 95.9593C38.435 95.7373 38.5779 95.538 38.7564 95.3735C39.0613 95.0184 39.4919 94.7953 39.9578 94.7513C40.2018 94.7568 40.442 94.8124 40.6635 94.9149C40.885 95.0173 41.083 95.1643 41.2451 95.3467C41.4351 95.4987 41.5911 95.689 41.7029 95.9052C41.8147 96.1214 41.8798 96.3587 41.8941 96.6017ZM40.285 95.7382C40.0778 95.8005 39.8921 95.9194 39.7487 96.0814L39.5341 96.3067C39.3802 96.453 39.2689 96.6384 39.2123 96.8431C39.1941 96.9281 39.1994 97.0165 39.2278 97.0988C39.2562 97.181 39.3065 97.254 39.3732 97.3097C39.6521 97.5725 39.9793 97.4974 40.3655 97.0952L40.58 96.8699C40.9662 96.4676 41.0198 96.1297 40.7463 95.8723C40.6875 95.8054 40.6108 95.7567 40.5253 95.732C40.4398 95.7073 40.3489 95.7076 40.2636 95.7328L40.285 95.7382ZM43.2725 102.62C43.2484 103.085 43.0423 103.522 42.6986 103.837C42.4389 104.068 42.1203 104.222 41.7782 104.282C41.4361 104.343 41.0839 104.307 40.761 104.179C40.438 104.051 40.1568 103.836 39.9487 103.558C39.7407 103.28 39.6139 102.949 39.5824 102.603C39.5986 102.145 39.7907 101.711 40.1188 101.391C40.4236 101.036 40.8543 100.813 41.3202 100.769C41.5641 100.775 41.8043 100.83 42.0258 100.933C42.2473 101.035 42.4453 101.182 42.6074 101.364C42.7965 101.517 42.9514 101.708 43.0623 101.924C43.1731 102.14 43.2374 102.377 43.251 102.62H43.2725ZM41.6634 101.756C41.4562 101.818 41.2705 101.937 41.1271 102.099L40.9126 102.325C40.7586 102.471 40.6473 102.656 40.5907 102.861C40.5725 102.946 40.5779 103.034 40.6062 103.117C40.6346 103.199 40.6849 103.272 40.7517 103.328C41.0306 103.59 41.3577 103.515 41.7439 103.113L41.9584 102.888C42.3446 102.485 42.3983 102.148 42.1247 101.89C42.0636 101.82 41.9829 101.77 41.8931 101.746C41.8033 101.722 41.7084 101.726 41.6205 101.756H41.6634Z" fill="white"/>
<path d="M52.9753 106.46C53.1691 107.168 53.0911 107.923 52.7567 108.577C52.4223 109.231 51.8556 109.737 51.1678 109.994C50.4203 110.109 49.6557 109.985 48.9821 109.642C48.3085 109.298 47.7597 108.752 47.4134 108.079C47.2234 107.37 47.3036 106.615 47.6385 105.961C47.9735 105.307 48.5392 104.8 49.2262 104.54C49.9744 104.424 50.74 104.547 51.4141 104.892C52.0882 105.237 52.6364 105.785 52.9807 106.46H52.9753ZM49.4729 106.594L49.2208 107.087C48.8937 107.726 49.0117 108.192 49.5748 108.476C50.138 108.761 50.5885 108.594 50.9157 107.94L51.1678 107.452C51.5003 106.803 51.3823 106.336 50.8138 106.047C50.2453 105.757 49.7947 105.923 49.4622 106.594H49.4729Z" fill="white"/>
<path d="M59.4756 108.739C59.6922 109.419 59.6676 110.152 59.4059 110.815C59.2393 111.502 58.8393 112.111 58.2742 112.537C58.018 112.692 57.7297 112.787 57.4314 112.813C57.133 112.84 56.8324 112.799 56.5525 112.692C56.2954 112.623 56.0561 112.5 55.8507 112.331C55.6453 112.161 55.4786 111.95 55.3619 111.711L54.6485 113.963L52.8196 113.384L54.9328 106.712L56.4238 107.184L56.3595 107.924C56.6067 107.72 56.903 107.583 57.2191 107.529C57.5353 107.474 57.8602 107.503 58.1616 107.613C58.4521 107.688 58.7217 107.828 58.9494 108.023C59.1772 108.219 59.3573 108.464 59.4756 108.739ZM56.4614 108.879C56.2489 109.055 56.097 109.293 56.0269 109.56L55.9304 109.86C55.8338 110.122 55.8207 110.406 55.8928 110.675C55.9327 110.796 56.0031 110.903 56.0972 110.988C56.1912 111.072 56.3056 111.131 56.4292 111.158C56.9655 111.324 57.3195 111.094 57.5019 110.461L57.6574 109.973C57.8559 109.351 57.6896 108.954 57.164 108.788C57.0488 108.742 56.9238 108.726 56.8009 108.742C56.6779 108.758 56.5611 108.805 56.4614 108.879Z" fill="white"/>
<path d="M62.951 112.671L65.1714 113.019L64.973 114.306L60.0601 113.54L60.1566 112.917L62.7632 110.118L60.7573 109.807L60.9611 108.519L65.6756 109.254L65.5791 109.844L62.951 112.671Z" fill="white"/>
<path d="M71.3075 109.935C71.5637 110.202 71.7592 110.52 71.8804 110.869C72.0017 111.218 72.046 111.59 72.0101 111.957V112.285L68.1913 112.226C68.1646 112.521 68.2466 112.817 68.4219 113.057C68.5217 113.159 68.6424 113.238 68.7758 113.289C68.9091 113.34 69.0519 113.362 69.1943 113.352C69.4477 113.377 69.7015 113.308 69.9076 113.159C69.9838 113.092 70.0444 113.01 70.0852 112.917C70.126 112.824 70.1459 112.724 70.1436 112.622L72.0047 112.649C72.0125 112.931 71.9499 113.21 71.8225 113.461C71.6951 113.712 71.507 113.927 71.2753 114.087C70.6591 114.466 69.9369 114.638 69.2158 114.575C68.4247 114.612 67.6465 114.365 67.0221 113.878C66.7541 113.62 66.5475 113.306 66.4175 112.957C66.2875 112.609 66.2375 112.236 66.2712 111.866C66.2522 111.498 66.314 111.13 66.452 110.788C66.59 110.446 66.8011 110.139 67.0704 109.887C67.6707 109.419 68.4242 109.191 69.1835 109.249C69.9521 109.207 70.7088 109.452 71.3075 109.935ZM68.2074 111.314L70.0793 111.346C70.0922 111.231 70.0796 111.114 70.0423 111.004C70.005 110.895 69.944 110.794 69.8636 110.711C69.7832 110.628 69.6854 110.563 69.5771 110.521C69.4688 110.48 69.3528 110.463 69.2372 110.472C69.1134 110.454 68.9871 110.462 68.8665 110.495C68.7459 110.528 68.6336 110.587 68.5367 110.666C68.4398 110.745 68.3605 110.844 68.3038 110.955C68.2471 111.067 68.2143 111.189 68.2074 111.314Z" fill="white"/>
<path d="M78.7843 108.326C78.5826 108.601 78.3075 108.813 77.9905 108.938C78.1966 109.038 78.3794 109.181 78.5269 109.356C78.6589 109.52 78.7458 109.716 78.7789 109.925C78.8305 110.159 78.82 110.403 78.7486 110.633C78.6771 110.862 78.5471 111.069 78.3713 111.233C77.9723 111.597 77.4699 111.828 76.9339 111.893L76.2098 112.011C75.8076 112.081 75.6252 112.204 75.6735 112.386C75.6809 112.432 75.7009 112.474 75.7313 112.508C75.7617 112.542 75.8012 112.567 75.8451 112.58C76.0014 112.622 76.1662 112.622 76.3225 112.58L78.0388 112.295C78.2662 112.241 78.5024 112.233 78.733 112.273C78.9635 112.312 79.1835 112.398 79.3796 112.526C79.7245 112.795 79.9483 113.191 80.0018 113.625C80.0615 113.959 80.0145 114.302 79.8677 114.607C79.7135 114.905 79.4795 115.153 79.1919 115.326C78.8785 115.517 78.5304 115.645 78.1675 115.701L75.3678 116.162C75.1465 116.2 74.9192 116.179 74.7081 116.103C74.5009 116.03 74.3161 115.904 74.1717 115.739C74.0279 115.569 73.9333 115.363 73.8982 115.143C73.8551 114.901 73.8967 114.651 74.0162 114.435C74.1333 114.216 74.3052 114.032 74.515 113.899C74.3496 113.82 74.2032 113.707 74.0859 113.566C73.9751 113.43 73.9012 113.268 73.8714 113.094C73.8335 112.842 73.8929 112.585 74.0376 112.376C74.1865 112.141 74.4009 111.954 74.6544 111.839C74.4006 111.734 74.1694 111.581 73.9733 111.389C73.8039 111.222 73.6913 111.006 73.6515 110.772C73.592 110.52 73.6075 110.257 73.6962 110.014C73.7848 109.77 73.9426 109.559 74.1503 109.404C74.6945 109.033 75.3198 108.798 75.9738 108.718C76.2503 108.67 76.53 108.643 76.8105 108.637C77.037 108.47 77.2208 108.251 77.3469 107.999C77.3996 107.883 77.4271 107.757 77.4274 107.629L78.9881 107.372C79.0464 107.704 78.9734 108.046 78.7843 108.326ZM75.5662 109.968C75.5071 110.036 75.4651 110.117 75.4437 110.205C75.4222 110.292 75.4219 110.384 75.4429 110.472C75.4496 110.56 75.4768 110.646 75.5224 110.723C75.5681 110.799 75.6308 110.864 75.7057 110.911C75.8706 110.997 76.0606 111.022 76.242 110.981C76.4448 110.967 76.6355 110.879 76.7784 110.734C76.8351 110.665 76.8752 110.583 76.8956 110.496C76.9161 110.409 76.9163 110.318 76.8964 110.23C76.8865 110.141 76.8568 110.056 76.8094 109.979C76.7621 109.903 76.6984 109.839 76.6228 109.791C76.4464 109.704 76.2463 109.68 76.0543 109.721C75.8755 109.748 75.711 109.835 75.5877 109.968H75.5662ZM75.6628 114.172C75.6247 114.224 75.5978 114.284 75.584 114.346C75.5701 114.409 75.5696 114.474 75.5823 114.537C75.5914 114.603 75.6142 114.666 75.6493 114.723C75.6844 114.779 75.7311 114.827 75.7861 114.864C75.8397 114.901 75.9001 114.926 75.9636 114.939C76.0271 114.952 76.0926 114.952 76.1562 114.939L77.6419 114.693C77.7739 114.674 77.8944 114.607 77.9798 114.505C78.019 114.453 78.0473 114.394 78.0631 114.331C78.079 114.268 78.082 114.203 78.072 114.139C78.062 114.075 78.0391 114.013 78.0049 113.958C77.9706 113.903 77.9256 113.856 77.8725 113.818C77.7565 113.749 77.6186 113.726 77.4864 113.754L76.0007 113.995C75.8788 114.019 75.7678 114.081 75.6842 114.172H75.6628Z" fill="white"/>
<path d="M85.1559 106.229C85.0024 106.533 84.7663 106.788 84.4748 106.964C84.6885 107.031 84.8858 107.143 85.054 107.291C85.2158 107.436 85.3361 107.621 85.4027 107.827C85.4926 108.05 85.523 108.292 85.4911 108.53C85.4591 108.768 85.3658 108.993 85.2203 109.184C84.8836 109.606 84.4275 109.916 83.9116 110.075L83.2144 110.316C82.8336 110.45 82.678 110.6 82.7316 110.777C82.7469 110.82 82.7735 110.857 82.8084 110.886C82.8434 110.914 82.8855 110.932 82.9301 110.938C83.0931 110.957 83.258 110.931 83.4074 110.863L85.0487 110.295C85.2633 110.204 85.494 110.157 85.7272 110.157C85.9603 110.157 86.191 110.204 86.4056 110.295C86.5965 110.399 86.7644 110.541 86.8998 110.711C87.0352 110.882 87.1352 111.077 87.1941 111.287C87.3109 111.605 87.324 111.953 87.2316 112.279C87.1326 112.597 86.9469 112.881 86.6953 113.1C86.419 113.339 86.0982 113.521 85.7513 113.636L83.0695 114.559C82.8609 114.636 82.6353 114.658 82.4158 114.62C82.1962 114.582 81.9906 114.487 81.8199 114.344C81.6493 114.202 81.5197 114.017 81.4444 113.808C81.3639 113.575 81.3639 113.322 81.4444 113.089C81.5205 112.851 81.6573 112.636 81.8413 112.467C81.6657 112.416 81.503 112.328 81.364 112.209C81.2297 112.096 81.1295 111.947 81.0743 111.78C80.9922 111.539 81.0076 111.276 81.1172 111.046C81.2299 110.792 81.4169 110.579 81.6536 110.434C81.3858 110.373 81.1325 110.26 80.9081 110.102C80.7139 109.972 80.5657 109.784 80.4843 109.565C80.3828 109.327 80.3536 109.064 80.4003 108.81C80.4471 108.555 80.5677 108.32 80.7472 108.133C81.2196 107.676 81.7955 107.339 82.4259 107.152C82.69 107.052 82.963 106.979 83.2412 106.932C83.4267 106.726 83.5625 106.48 83.6381 106.213C83.6657 106.088 83.6657 105.958 83.6381 105.832L85.1345 105.296C85.2592 105.593 85.2669 105.927 85.1559 106.229ZM82.2811 108.375C82.2315 108.454 82.2022 108.545 82.1956 108.638C82.1891 108.732 82.2056 108.825 82.2436 108.911C82.2669 108.997 82.3088 109.076 82.3663 109.144C82.4238 109.211 82.4954 109.265 82.5761 109.302C82.7497 109.363 82.9389 109.363 83.1125 109.302C83.3011 109.251 83.466 109.135 83.5791 108.975C83.6253 108.894 83.6523 108.804 83.6578 108.711C83.6634 108.618 83.6475 108.525 83.6113 108.439C83.5878 108.352 83.5447 108.271 83.4852 108.203C83.4256 108.135 83.3513 108.082 83.268 108.047C83.0804 107.992 82.8796 108.004 82.6995 108.08C82.526 108.13 82.3747 108.238 82.2704 108.385L82.2811 108.375ZM83.0856 112.504C83.0588 112.562 83.0448 112.626 83.0448 112.689C83.0448 112.753 83.0588 112.817 83.0856 112.875C83.1041 112.938 83.1362 112.997 83.1797 113.047C83.2232 113.097 83.2772 113.137 83.3377 113.164C83.398 113.189 83.4628 113.202 83.5281 113.202C83.5935 113.202 83.6582 113.189 83.7185 113.164L85.1398 112.671C85.268 112.633 85.376 112.546 85.4402 112.429C85.4696 112.372 85.4872 112.309 85.492 112.244C85.4968 112.18 85.4888 112.115 85.4683 112.053C85.4479 111.992 85.4154 111.935 85.3728 111.887C85.3302 111.838 85.2784 111.798 85.2203 111.77C85.0945 111.72 84.9546 111.72 84.8288 111.77L83.4074 112.263C83.338 112.281 83.2728 112.312 83.2157 112.355C83.1586 112.399 83.1107 112.453 83.0749 112.515L83.0856 112.504Z" fill="white"/>
<path d="M90.2243 103.928C90.4844 103.918 90.7416 103.985 90.9638 104.121C91.1861 104.256 91.3635 104.454 91.474 104.69L92.4287 106.438C92.4697 106.524 92.5375 106.593 92.6217 106.637C92.6615 106.657 92.7056 106.668 92.7505 106.668C92.7953 106.668 92.8394 106.657 92.8792 106.637L93.201 106.46L93.7373 107.436C93.7058 107.479 93.6718 107.52 93.6354 107.559C93.5535 107.646 93.4657 107.726 93.3726 107.801C93.2403 107.911 93.0964 108.006 92.9436 108.085C92.6713 108.245 92.3675 108.344 92.0532 108.375C91.8197 108.401 91.5848 108.339 91.3935 108.203C91.2673 108.492 91.0993 108.762 90.8947 109.002C90.6551 109.272 90.3678 109.496 90.0473 109.662C88.996 110.234 88.2416 110.102 87.7839 109.265C87.6728 109.091 87.5988 108.896 87.5665 108.692C87.5342 108.488 87.5443 108.279 87.5962 108.08C87.7405 107.67 88.0039 107.314 88.3524 107.055C88.8734 106.648 89.4298 106.289 90.0151 105.982L89.8917 105.763C89.8548 105.684 89.7993 105.616 89.7302 105.564C89.6611 105.511 89.5804 105.476 89.4948 105.462C89.3081 105.443 89.1201 105.485 88.9585 105.58C88.8009 105.664 88.6636 105.781 88.5562 105.923C88.5154 105.983 88.4935 106.053 88.4935 106.125C88.4935 106.196 88.5154 106.267 88.5562 106.326V106.358L86.8935 107.264C86.8664 107.227 86.843 107.188 86.8238 107.146C86.7102 106.94 86.6552 106.706 86.6646 106.471C86.6741 106.236 86.7477 106.007 86.8775 105.811C87.2584 105.239 87.789 104.783 88.4114 104.491C88.9625 104.163 89.5839 103.97 90.2243 103.928ZM89.4466 107.533C89.3677 107.61 89.3146 107.709 89.2945 107.818C89.2743 107.926 89.2881 108.038 89.3339 108.139C89.4841 108.417 89.7523 108.455 90.1384 108.246C90.3481 108.137 90.5174 107.964 90.6212 107.752C90.67 107.665 90.6956 107.566 90.6956 107.465C90.6956 107.365 90.67 107.266 90.6212 107.179L90.412 106.792C90.0444 106.973 89.7162 107.224 89.4466 107.533Z" fill="white"/>
<path d="M94.6709 100.378C94.7274 100.353 94.7869 100.337 94.8479 100.329L95.8025 101.622L95.3091 101.992C95.1682 102.07 95.0468 102.18 94.954 102.312C94.8611 102.443 94.7992 102.594 94.7728 102.754C94.7756 103.082 94.8932 103.399 95.1053 103.649L96.4515 105.473L94.9068 106.615L91.8818 102.512L93.1476 101.579L93.684 102.115C93.6009 101.829 93.616 101.523 93.7269 101.246C93.8391 100.973 94.0247 100.735 94.2632 100.56C94.3886 100.478 94.5262 100.416 94.6709 100.378Z" fill="white"/>
<path d="M98.9185 96.8644C99.1662 96.7846 99.4318 96.7791 99.6825 96.8487C99.9333 96.9183 100.158 97.0599 100.329 97.256L101.724 98.6719C101.788 98.7441 101.875 98.793 101.97 98.8114C102.014 98.8184 102.058 98.8142 102.1 98.7992C102.141 98.7842 102.178 98.7588 102.206 98.7256L102.458 98.4842L103.236 99.2726C103.219 99.3244 103.197 99.3747 103.172 99.4228C103.118 99.5271 103.057 99.6275 102.989 99.7232C102.892 99.8642 102.78 99.9953 102.657 100.115C102.441 100.349 102.175 100.532 101.879 100.651C101.66 100.736 101.417 100.736 101.198 100.651C101.155 100.964 101.067 101.27 100.935 101.557C100.78 101.884 100.565 102.178 100.302 102.426C99.4513 103.263 98.6897 103.344 98.0174 102.668C97.861 102.534 97.733 102.37 97.6409 102.186C97.5488 102.001 97.4945 101.801 97.4811 101.595C97.5111 101.162 97.6657 100.746 97.9263 100.399C98.3181 99.8696 98.7541 99.3744 99.2296 98.9186L99.058 98.7363C99.0004 98.6712 98.9278 98.621 98.8465 98.5902C98.7652 98.5594 98.6776 98.5488 98.5913 98.5593C98.4022 98.5931 98.2292 98.6872 98.0979 98.8275C97.9689 98.9489 97.8682 99.0972 97.8029 99.2619C97.7755 99.329 97.7691 99.4028 97.7844 99.4736C97.7997 99.5445 97.8361 99.609 97.8887 99.6588L97.9155 99.6856L96.564 101.01C96.528 100.984 96.494 100.956 96.4621 100.925C96.2971 100.756 96.181 100.546 96.1262 100.316C96.0714 100.086 96.08 99.8463 96.151 99.6213C96.3596 98.9672 96.7436 98.3828 97.2612 97.9318C97.7174 97.4451 98.2867 97.0785 98.9185 96.8644ZM99.1545 100.528C99.0993 100.624 99.0754 100.735 99.0859 100.845C99.0965 100.956 99.1411 101.06 99.2135 101.144C99.4388 101.375 99.707 101.338 100.018 101.026C100.193 100.867 100.31 100.654 100.351 100.42C100.37 100.326 100.366 100.227 100.34 100.134C100.314 100.041 100.266 99.9552 100.2 99.8841L99.8947 99.573C99.5885 99.8404 99.3372 100.165 99.1545 100.528Z" fill="white"/>
<path d="M103.354 91.3669C103.867 91.345 104.37 91.5152 104.765 91.8443L107.447 93.7858L106.315 95.3412L103.832 93.5337C103.681 93.4111 103.489 93.3498 103.295 93.3621C103.206 93.3699 103.12 93.3981 103.044 93.4446C102.968 93.4911 102.903 93.5547 102.855 93.6303C102.789 93.715 102.741 93.8127 102.714 93.917C102.687 94.0213 102.682 94.1301 102.7 94.2364C102.716 94.3437 102.754 94.4466 102.811 94.5388C102.868 94.631 102.943 94.7106 103.032 94.7727L105.451 96.5319L104.32 98.0874L100.2 95.0892L101.123 93.8127L101.826 94.1666C101.723 93.8388 101.701 93.4911 101.761 93.1529C101.821 92.7998 101.962 92.4655 102.174 92.1768C102.301 91.9646 102.472 91.7824 102.675 91.6425C102.879 91.5027 103.111 91.4087 103.354 91.3669Z" fill="white"/>
<path d="M105.537 86.6739L106.685 87.2907L106.149 88.24L107.86 89.1572C108.008 89.2536 108.182 89.3023 108.358 89.2966C108.435 89.277 108.506 89.2397 108.566 89.1875C108.625 89.1353 108.672 89.0698 108.702 88.9963L108.954 88.5189L109.951 89.0552C109.912 89.2567 109.855 89.4542 109.78 89.6452C109.707 89.8456 109.621 90.0409 109.522 90.2299C109.331 90.6461 109.021 90.9968 108.632 91.2382C108.449 91.3213 108.249 91.3566 108.049 91.3406C107.849 91.3247 107.656 91.258 107.489 91.147L105.242 89.9402L104.904 90.5731L103.756 89.9563L104.127 89.2591L102.963 88.1864L103.638 86.9259L104.995 87.6554L105.537 86.6739Z" fill="white"/>
<path d="M105.387 85.4778L104.186 84.979L104.926 83.2037L106.127 83.7025L105.387 85.4778ZM110.649 87.6661L105.94 85.7084L106.68 83.9331L111.384 85.8962L110.649 87.6661Z" fill="white"/>
<path d="M109.013 78.2478C109.336 78.0625 109.695 77.9505 110.066 77.9199C110.437 77.8894 110.81 77.9409 111.158 78.0708L111.475 78.1567L110.456 81.8414C110.734 81.9479 111.041 81.9479 111.319 81.8414C111.443 81.7697 111.549 81.6722 111.632 81.5556C111.714 81.439 111.77 81.3059 111.797 81.1656C111.884 80.9267 111.884 80.6643 111.797 80.4254C111.751 80.3349 111.686 80.2554 111.606 80.1925C111.526 80.1295 111.434 80.0846 111.335 80.0607L111.834 78.2693C112.109 78.3336 112.363 78.4654 112.573 78.6527C112.784 78.84 112.945 79.0769 113.041 79.342C113.254 80.0437 113.239 80.7947 112.998 81.4874C112.833 82.2601 112.397 82.9486 111.77 83.429C111.452 83.626 111.094 83.7482 110.722 83.7863C110.351 83.8244 109.975 83.7774 109.624 83.6489C109.255 83.5718 108.909 83.4127 108.61 83.1834C108.311 82.9541 108.067 82.6604 107.897 82.3241C107.594 81.6262 107.561 80.8402 107.806 80.1197C107.965 79.3686 108.394 78.7022 109.013 78.2478ZM109.549 81.5893L110.048 79.7872C109.939 79.744 109.821 79.7258 109.703 79.7337C109.586 79.7417 109.472 79.7756 109.369 79.8331C109.267 79.8906 109.178 79.9702 109.11 80.0661C109.042 80.1621 108.996 80.272 108.975 80.3879C108.928 80.5049 108.905 80.6308 108.91 80.7571C108.914 80.8835 108.945 81.0075 109.001 81.121C109.056 81.2345 109.136 81.3349 109.233 81.4156C109.33 81.4963 109.444 81.5555 109.565 81.5893H109.549Z" fill="white"/>
<path d="M46.2262 56.5867C46.2262 56.7139 46.2779 56.829 46.3815 56.932C46.485 57.0289 46.622 57.0774 46.7926 57.0774C46.957 57.0774 47.1214 57.041 47.2859 56.9683C47.4564 56.8957 47.6178 56.7866 47.77 56.6412L47.77 55.9689L46.8748 55.9689C46.6677 55.9689 46.5063 56.0325 46.3906 56.1597C46.281 56.2869 46.2262 56.4292 46.2262 56.5867ZM46.8108 58.0132C46.2688 58.0132 45.8669 57.883 45.605 57.6225C45.3431 57.356 45.2122 57.0107 45.2122 56.5867C45.2122 56.1324 45.3675 55.7841 45.6781 55.5418C45.9887 55.2995 46.3937 55.1784 46.893 55.1784L47.7609 55.1784C47.7548 54.9543 47.6878 54.7816 47.5599 54.6605C47.4381 54.5333 47.2676 54.4697 47.0483 54.4697C46.8413 54.4697 46.6159 54.5 46.3723 54.5605C46.1287 54.6151 45.9247 54.6817 45.7603 54.7604L45.4405 53.7791C45.6111 53.6641 45.8699 53.5702 46.217 53.4975C46.5703 53.4187 46.8413 53.3794 47.0301 53.3794C47.5599 53.3794 48.0136 53.5338 48.3912 53.8428C48.7688 54.1456 48.9576 54.5333 48.9576 55.0058L48.9576 57.9042L48.3456 57.9042L48.0532 57.5317C47.8888 57.6589 47.6939 57.7709 47.4686 57.8679C47.2493 57.9648 47.0301 58.0132 46.8108 58.0132Z" fill="#0090E3"/>
<path d="M51.0188 51.4895L51.0188 53.6338C51.1954 53.5369 51.3811 53.4611 51.576 53.4066C51.777 53.3521 51.9567 53.3248 52.115 53.3248C52.7666 53.3248 53.266 53.549 53.6132 53.9972C53.9603 54.4455 54.1339 55.0027 54.1339 55.669C54.1339 56.3353 53.9542 56.8926 53.5949 57.3409C53.2417 57.7891 52.7484 58.0132 52.115 58.0132C51.9079 58.0132 51.6765 57.9708 51.4207 57.886C51.1649 57.8012 50.9365 57.6831 50.7356 57.5317L50.4432 57.9042L49.8403 57.9042L49.8403 51.5894L51.0188 51.4895ZM51.8044 57.0047C52.2124 57.0047 52.4987 56.8593 52.6631 56.5686C52.8275 56.2717 52.9098 55.9719 52.9098 55.669C52.9098 55.3238 52.8367 55.0148 52.6905 54.7423C52.5444 54.4697 52.249 54.3334 51.8044 54.3334C51.6765 54.3334 51.5425 54.3576 51.4024 54.4061C51.2685 54.4485 51.1406 54.5091 51.0188 54.5878L51.0188 56.7503C51.1406 56.823 51.2685 56.8835 51.4024 56.932C51.5425 56.9805 51.6765 57.0047 51.8044 57.0047Z" fill="#0090E3"/>
<path d="M56.0528 51.4895L56.0528 53.6338C56.2294 53.5369 56.4152 53.4611 56.6101 53.4066C56.811 53.3521 56.9907 53.3248 57.149 53.3248C57.8007 53.3248 58.3001 53.549 58.6472 53.9972C58.9944 54.4455 59.1679 55.0027 59.1679 55.669C59.1679 56.3353 58.9883 56.8926 58.6289 57.3409C58.2757 57.7891 57.7824 58.0132 57.149 58.0132C56.942 58.0132 56.7105 57.9708 56.4548 57.886C56.199 57.8012 55.9706 57.6831 55.7696 57.5317L55.4773 57.9042L54.8744 57.9042L54.8744 51.5894L56.0528 51.4895ZM56.8384 57.0047C57.2465 57.0047 57.5327 56.8593 57.6971 56.5686C57.8616 56.2717 57.9438 55.9719 57.9438 55.669C57.9438 55.3238 57.8707 55.0148 57.7246 54.7423C57.5784 54.4697 57.283 54.3334 56.8384 54.3334C56.7105 54.3334 56.5766 54.3576 56.4365 54.4061C56.3025 54.4485 56.1746 54.5091 56.0528 54.5878L56.0528 56.7503C56.1746 56.823 56.3025 56.8835 56.4365 56.932C56.5766 56.9805 56.7105 57.0047 56.8384 57.0047Z" fill="#0090E3"/>
<path d="M68.2444 54.6877C68.0313 54.5908 67.8333 54.5181 67.6506 54.4697C67.4679 54.4152 67.273 54.3879 67.066 54.3879C66.9137 54.3879 66.7949 54.4182 66.7097 54.4788C66.6305 54.5333 66.5909 54.612 66.5909 54.715C66.5909 54.7877 66.6396 54.8574 66.7371 54.924C66.8406 54.9906 67.0051 55.0633 67.2304 55.1421C67.6019 55.2753 67.946 55.4631 68.2627 55.7054C68.5794 55.9416 68.7377 56.2505 68.7377 56.6322C68.7377 57.0683 68.5794 57.4075 68.2627 57.6498C67.9521 57.8921 67.4953 58.0132 66.8924 58.0132C66.7036 58.0132 66.4509 57.9769 66.1342 57.9042C65.8236 57.8315 65.5647 57.7164 65.3577 57.5589L65.7139 56.7048C65.9271 56.8018 66.1311 56.8775 66.326 56.932C66.527 56.9805 66.7097 57.0047 66.8741 57.0047C67.0934 57.0047 67.2608 56.9744 67.3766 56.9138C67.4923 56.8533 67.5501 56.7745 67.5501 56.6776C67.5501 56.5564 67.4923 56.4474 67.3766 56.3505C67.2608 56.2536 67.0781 56.1657 66.8284 56.087C66.4752 55.9719 66.1403 55.8084 65.8236 55.5964C65.513 55.3783 65.3577 55.0875 65.3577 54.7241C65.3577 54.3061 65.513 53.979 65.8236 53.7428C66.1342 53.5005 66.5544 53.3794 67.0842 53.3794C67.273 53.3794 67.5166 53.4187 67.8151 53.4975C68.1135 53.5762 68.3754 53.6913 68.6007 53.8427L68.2444 54.6877Z" fill="#182C55"/>
<path d="M72.0505 57.8133C71.9531 57.8921 71.813 57.9557 71.6303 58.0041C71.4537 58.0587 71.2954 58.0859 71.1553 58.0859C70.6072 58.0859 70.1748 57.9496 69.8581 57.677C69.5475 57.3984 69.3922 57.0047 69.3922 56.4959L69.3922 54.4152L68.7984 54.4152L68.7984 53.5066L69.3922 53.5066L69.3922 52.4617L70.5706 52.2527L70.5706 53.5066L71.3745 53.5066L71.7399 54.4152L70.5706 54.4152L70.5706 56.2869C70.5706 56.5171 70.6254 56.7079 70.7351 56.8593C70.8447 57.0047 71.0061 57.0774 71.2192 57.0774C71.2984 57.0774 71.3776 57.0683 71.4567 57.0501C71.5359 57.0319 71.6181 57.0017 71.7034 56.9593L72.0505 57.8133Z" fill="#182C55"/>
<path d="M80.1175 57.0047C80.5255 57.0047 80.8118 56.8593 80.9762 56.5686C81.1406 56.2717 81.2229 55.9719 81.2229 55.669C81.2229 55.3238 81.1498 55.0148 81.0036 54.7423C80.8574 54.4697 80.5621 54.3334 80.1175 54.3334C79.9896 54.3334 79.8556 54.3576 79.7155 54.4061C79.5815 54.4485 79.4537 54.5091 79.3318 54.5878L79.3318 56.7503C79.4537 56.823 79.5815 56.8835 79.7155 56.932C79.8556 56.9805 79.9896 57.0047 80.1175 57.0047ZM78.1534 53.4975L78.7563 53.4975L79.0121 53.8246C79.2131 53.6731 79.4476 53.552 79.7155 53.4611C79.9835 53.3703 80.221 53.3248 80.4281 53.3248C81.0797 53.3248 81.5791 53.549 81.9263 53.9972C82.2734 54.4455 82.447 55.0027 82.447 55.669C82.447 56.3353 82.2673 56.8926 81.908 57.3409C81.5548 57.7891 81.0615 58.0132 80.4281 58.0132C80.2697 58.0132 80.0901 57.986 79.8891 57.9315C79.6942 57.8769 79.5085 57.8012 79.3318 57.7043L79.3318 59.8032L78.1534 59.894L78.1534 53.4975Z" fill="#182C55"/>
<path d="M83.3245 56.5776C83.5133 56.5776 83.6686 56.6412 83.7904 56.7684C83.9183 56.8957 83.9822 57.0531 83.9822 57.2409C83.9822 57.4287 83.9183 57.5862 83.7904 57.7134C83.6686 57.8406 83.5133 57.9042 83.3245 57.9042C83.1357 57.9042 82.9743 57.8406 82.8403 57.7134C82.7124 57.5862 82.6485 57.4287 82.6485 57.2409C82.6485 57.0531 82.7124 56.8957 82.8403 56.7684C82.9743 56.6412 83.1357 56.5776 83.3245 56.5776Z" fill="#182C55"/>
<path d="M85.3524 53.97C85.5534 53.7701 85.8031 53.6126 86.1015 53.4975C86.406 53.3824 86.677 53.3248 86.9146 53.3248C87.5175 53.3248 87.9438 53.5005 88.1935 53.8518C88.4493 54.2032 88.5772 54.6332 88.5772 55.1421L88.5772 57.9042L87.3896 57.9042L87.3896 55.1966C87.3896 54.9179 87.3226 54.7059 87.1886 54.5605C87.0546 54.4091 86.8597 54.3334 86.604 54.3334C86.4334 54.3334 86.2538 54.3788 86.065 54.4697C85.8823 54.5545 85.7148 54.6544 85.5625 54.7695L85.5625 57.9042L84.375 57.9042L84.375 53.4975L84.9961 53.4975L85.3524 53.97Z" fill="#182C55"/>
<path d="M90.6425 51.4895L90.6425 57.9042L89.464 57.9042L89.464 51.5894L90.6425 51.4895Z" fill="#182C55"/>
<path fill-rule="evenodd" clip-rule="evenodd" d="M62.1562 58.409C63.6277 58.409 64.8206 57.2225 64.8206 55.7589C64.8206 54.2953 63.6277 53.1088 62.1562 53.1088C60.6846 53.1088 59.4917 54.2953 59.4917 55.7589C59.4917 57.2225 60.6846 58.409 62.1562 58.409ZM63.8056 55.7589C63.8056 56.6649 63.0671 57.3994 62.1562 57.3994C61.8908 57.3994 61.64 57.3371 61.4179 57.2263L63.6315 55.0246C63.7429 55.2455 63.8056 55.4949 63.8056 55.7589ZM62.92 54.3045C62.6917 54.1856 62.4318 54.1184 62.1562 54.1184C61.2452 54.1184 60.5067 54.8529 60.5067 55.7589C60.5067 56.0331 60.5743 56.2915 60.6939 56.5187L62.92 54.3045Z" fill="#0090E3"/>
<path fill-rule="evenodd" clip-rule="evenodd" d="M74.8439 58.409C76.3154 58.409 77.5084 57.2225 77.5084 55.7589C77.5084 54.2953 76.3154 53.1089 74.8439 53.1089C73.3724 53.1089 72.1794 54.2953 72.1794 55.7589C72.1794 57.2225 73.3724 58.409 74.8439 58.409ZM76.4933 55.7589C76.4933 56.665 75.7548 57.3995 74.8439 57.3995C74.5785 57.3995 74.3277 57.3371 74.1056 57.2264L76.3193 55.0246C76.4306 55.2456 76.4933 55.495 76.4933 55.7589ZM75.6078 54.3046C75.3794 54.1857 75.1195 54.1184 74.8439 54.1184C73.9329 54.1184 73.1945 54.8529 73.1945 55.7589C73.1945 56.0331 73.2621 56.2916 73.3816 56.5187L75.6078 54.3046Z" fill="#182C55"/>
<path d="M54.5408 75.0888H52.2399V67.3332L49.585 69.0066V66.4965L52.8674 64.4208H54.5408V75.0888Z" fill="#0090E3"/>
<path d="M60.889 75.2497C57.8479 75.2497 56.3515 72.8683 56.3515 69.7467C56.3515 66.6735 57.8157 64.2599 60.889 64.2599C63.9784 64.2599 65.4104 66.6574 65.4104 69.7467C65.4104 72.9005 63.9462 75.2497 60.889 75.2497ZM60.889 73.0775C62.4659 73.0775 63.029 71.4523 63.029 69.7467C63.029 68.0572 62.482 66.4321 60.889 66.4321C59.296 66.4321 58.7329 68.0733 58.7329 69.7467C58.7329 71.4523 59.3121 73.0775 60.889 73.0775Z" fill="#0090E3"/>
<path d="M71.1341 75.2497C68.093 75.2497 66.5966 72.8683 66.5966 69.7467C66.5966 66.6735 68.0608 64.2599 71.1341 64.2599C74.2235 64.2599 75.6555 66.6574 75.6555 69.7467C75.6555 72.9005 74.1913 75.2497 71.1341 75.2497ZM71.1341 73.0775C72.711 73.0775 73.2741 71.4523 73.2741 69.7467C73.2741 68.0572 72.727 66.4321 71.1341 66.4321C69.5411 66.4321 68.978 68.0733 68.978 69.7467C68.978 71.4523 69.5572 73.0775 71.1341 73.0775Z" fill="#0090E3"/>
<path d="M86.866 73.6728C87.6384 73.6728 88.1854 73.0775 88.1854 72.3051C88.1854 71.5489 87.6384 70.9696 86.866 70.9696C86.0937 70.9696 85.5627 71.5489 85.5627 72.3051C85.5627 73.0775 86.0937 73.6728 86.866 73.6728ZM79.4001 68.5882C80.1724 68.5882 80.7195 67.9929 80.7195 67.2366C80.7195 66.4643 80.1724 65.8689 79.4001 65.8689C78.6277 65.8689 78.0967 66.4643 78.0967 67.2366C78.0967 67.9929 78.6277 68.5882 79.4001 68.5882ZM86.866 75.2497C85.1122 75.2497 83.8732 73.9946 83.8732 72.3212C83.8732 70.6317 85.1122 69.3606 86.866 69.3606C88.6199 69.3606 89.8588 70.6317 89.8588 72.3212C89.8588 73.9946 88.6199 75.2497 86.866 75.2497ZM79.4001 70.1651C77.6462 70.1651 76.4072 68.91 76.4072 67.2366C76.4072 65.5471 77.6462 64.2599 79.4001 64.2599C81.1539 64.2599 82.409 65.5471 82.409 67.2366C82.409 68.91 81.1539 70.1651 79.4001 70.1651ZM79.5288 75.0888V74.8796L85.3052 64.4208H86.7373V64.6139L80.9608 75.0888H79.5288Z" fill="#0090E3"/>
<path d="M44.3503 84.0586C44.3503 82.9924 45.1463 82.219 46.2651 82.219C47.3764 82.219 48.1724 82.9924 48.1724 84.0586C48.1724 85.1174 47.3764 85.8908 46.2651 85.8908C45.1463 85.8908 44.3503 85.1174 44.3503 84.0586ZM46.2651 84.9747C46.7907 84.9747 47.1587 84.5843 47.1587 84.0586C47.1587 83.5255 46.7907 83.1351 46.2651 83.1351C45.732 83.1351 45.364 83.5255 45.364 84.0586C45.364 84.5843 45.732 84.9747 46.2651 84.9747Z" fill="#0090E3"/>
<path d="M50.7964 84.9897C51.3295 84.9897 51.6899 84.5918 51.6899 84.0662C51.6899 83.548 51.3295 83.1275 50.7964 83.1275C50.2632 83.1275 49.8878 83.548 49.8878 84.0662C49.8878 84.5918 50.2632 84.9897 50.7964 84.9897ZM51.0141 85.8908C50.466 85.8908 50.1206 85.7181 49.9028 85.4478V87.28H48.8516V82.3016H49.7526L49.8202 82.7296C50.0305 82.4367 50.3834 82.2265 50.9616 82.2265C51.9978 82.2265 52.7036 83.0074 52.7036 84.0662C52.7036 85.1249 51.9903 85.8908 51.0141 85.8908Z" fill="#0090E3"/>
<path d="M53.1428 85.8157V85.0949L54.7497 83.1501H53.1729V82.2941H55.9436V83.0074L54.3292 84.9597H56.0563V85.8157H53.1428Z" fill="#0090E3"/>
<path d="M57.486 83.6907H59.1079C59.0554 83.2777 58.6724 83.0449 58.297 83.0449C57.8389 83.0449 57.5761 83.3153 57.486 83.6907ZM60.1066 84.2989H57.4635C57.5386 84.742 57.8239 85.0498 58.342 85.0498C58.6574 85.0498 58.9277 84.9222 59.0629 84.6669H60.0766C59.8363 85.4253 59.1605 85.8908 58.297 85.8908C57.1256 85.8908 56.4498 85.0423 56.4498 84.0586C56.4498 83.06 57.1406 82.219 58.312 82.219C59.4008 82.219 60.1291 82.9548 60.1291 83.9986C60.1291 84.1037 60.1216 84.2013 60.1066 84.2989Z" fill="#0090E3"/>
<path d="M62.4711 84.9597C62.9968 84.9597 63.3722 84.5467 63.3722 84.0211C63.3722 83.503 62.9968 83.105 62.4711 83.105C61.9305 83.105 61.5701 83.503 61.5701 84.0211C61.5701 84.5467 61.9305 84.9597 62.4711 84.9597ZM63.4323 82.6995L63.5299 82.2941H64.431V85.5229C64.431 86.6717 63.6951 87.3926 62.5237 87.3926C61.5475 87.3926 60.8492 86.8519 60.684 86.0034H61.7127C61.8104 86.3113 62.1483 86.4915 62.5237 86.4915C63.0343 86.4915 63.3872 86.1686 63.3872 85.5754V85.3802C63.1695 85.6355 62.8165 85.8157 62.2684 85.8157C61.2847 85.8157 60.5564 85.0423 60.5564 84.0061C60.5564 82.9699 61.2772 82.219 62.2609 82.219C62.8165 82.219 63.207 82.4292 63.4323 82.6995Z" fill="#0090E3"/>
<path d="M67.0249 84.9597C67.5505 84.9597 67.9259 84.5467 67.9259 84.0211C67.9259 83.503 67.5505 83.105 67.0249 83.105C66.4842 83.105 66.1238 83.503 66.1238 84.0211C66.1238 84.5467 66.4842 84.9597 67.0249 84.9597ZM67.986 82.6995L68.0836 82.2941H68.9847V85.5229C68.9847 86.6717 68.2488 87.3926 67.0774 87.3926C66.1013 87.3926 65.4029 86.8519 65.2377 86.0034H66.2665C66.3641 86.3113 66.702 86.4915 67.0774 86.4915C67.588 86.4915 67.9409 86.1686 67.9409 85.5754V85.3802C67.7232 85.6355 67.3703 85.8157 66.8221 85.8157C65.8385 85.8157 65.1101 85.0423 65.1101 84.0061C65.1101 82.9699 65.8309 82.219 66.8146 82.219C67.3703 82.219 67.7607 82.4292 67.986 82.6995Z" fill="#0090E3"/>
<path d="M71.5636 84.9897C72.1042 84.9897 72.4721 84.5768 72.4721 84.0436C72.4721 83.518 72.0967 83.12 71.5636 83.12C71.0304 83.12 70.67 83.518 70.67 84.0436C70.67 84.5768 71.0304 84.9897 71.5636 84.9897ZM73.4783 85.8157H72.5698L72.4872 85.4253C72.2469 85.7031 71.894 85.8908 71.3458 85.8908C70.3696 85.8908 69.6563 85.1024 69.6563 84.0436C69.6563 82.9849 70.3696 82.219 71.3458 82.219C71.894 82.219 72.2469 82.4067 72.4872 82.6845L72.5622 82.2941H73.4783V85.8157Z" fill="#0090E3"/>
<path d="M75.4504 85.8157H74.4067V82.2866H75.3378L75.4129 82.8948C75.5856 82.4593 75.976 82.2115 76.5016 82.2115C76.5993 82.2115 76.6969 82.2265 76.7344 82.2415V83.2026C76.7044 83.1951 76.5993 83.1726 76.5092 83.1726C75.8409 83.1726 75.4504 83.6081 75.4504 84.3139V85.8157Z" fill="#0090E3"/>
<path d="M78.9331 84.9897C79.4738 84.9897 79.8417 84.5768 79.8417 84.0436C79.8417 83.518 79.4662 83.12 78.9331 83.12C78.4 83.12 78.0396 83.518 78.0396 84.0436C78.0396 84.5768 78.4 84.9897 78.9331 84.9897ZM80.8479 85.8157H79.9393L79.8567 85.4253C79.6164 85.7031 79.2635 85.8908 78.7154 85.8908C77.7392 85.8908 77.0259 85.1024 77.0259 84.0436C77.0259 82.9849 77.7392 82.219 78.7154 82.219C79.2635 82.219 79.6164 82.4067 79.8567 82.6845L79.9318 82.2941H80.8479V85.8157Z" fill="#0090E3"/>
<path d="M81.7762 85.8157V82.2941H82.6848L82.7674 82.6995C82.9251 82.4743 83.3155 82.219 83.8487 82.219C84.7648 82.219 85.2904 82.7896 85.2904 83.6682V85.8157H84.2466V83.901C84.2466 83.4279 83.9913 83.1651 83.5783 83.1651C83.1729 83.1651 82.8425 83.4354 82.835 83.8859L82.8275 85.8157H81.7762Z" fill="#0090E3"/>
<path d="M85.837 83.1501V82.2941H86.4602V81.3329L87.4889 81.1527V82.2941H88.5026V83.1501H87.4965V84.4041C87.4965 84.8246 87.7818 84.9597 88.1723 84.9597C88.2549 84.9597 88.36 84.9522 88.4426 84.9297V85.8458C88.2999 85.8833 88.0897 85.8983 87.932 85.8983C87.0534 85.8983 86.4527 85.4553 86.4527 84.4791V83.1501H85.837Z" fill="#0090E3"/>
<path d="M90.2043 85.8157H89.1531V82.2941H90.2043V85.8157ZM89.6787 81.7609C89.3333 81.7609 89.063 81.5056 89.063 81.1602C89.063 80.8223 89.3333 80.5595 89.6787 80.5595C90.0241 80.5595 90.2945 80.8223 90.2945 81.1602C90.2945 81.5056 90.0241 81.7609 89.6787 81.7609Z" fill="#0090E3"/>
<path d="M91.9139 83.6907H93.5358C93.4833 83.2777 93.1003 83.0449 92.7249 83.0449C92.2668 83.0449 92.004 83.3153 91.9139 83.6907ZM94.5345 84.2989H91.8914C91.9665 84.742 92.2518 85.0498 92.7699 85.0498C93.0853 85.0498 93.3556 84.9222 93.4908 84.6669H94.5045C94.2642 85.4253 93.5884 85.8908 92.7249 85.8908C91.5535 85.8908 90.8777 85.0423 90.8777 84.0586C90.8777 83.06 91.5685 82.219 92.7399 82.219C93.8287 82.219 94.557 82.9548 94.557 83.9986C94.557 84.1037 94.5495 84.2013 94.5345 84.2989Z" fill="#0090E3"/>
</svg>
