<svg width="134" height="25" viewBox="0 0 134 25" fill="none" xmlns="http://www.w3.org/2000/svg">
<path d="M2.99093 15.0348C2.99093 15.41 3.14362 15.7495 3.449 16.0532C3.75438 16.3391 4.15855 16.482 4.66153 16.482C5.14655 16.482 5.63156 16.3748 6.11658 16.1604C6.61956 15.946 7.09559 15.6244 7.54468 15.1956L7.54468 13.2124L4.90404 13.2124C4.29328 13.2124 3.81725 13.4 3.47594 13.7752C3.1526 14.1504 2.99093 14.5703 2.99093 15.0348ZM4.71542 19.2424C3.11667 19.2424 1.93108 18.8583 1.15865 18.09C0.386216 17.3039 -3.85893e-09 16.2855 -3.56258e-09 15.0348C-3.24506e-09 13.6948 0.45807 12.6675 1.37421 11.9528C2.29035 11.2381 3.48492 10.8808 4.95793 10.8808L7.51773 10.8808C7.49977 10.2197 7.30217 9.71053 6.92494 9.3532C6.56567 8.978 6.06269 8.7904 5.416 8.7904C4.80524 8.7904 4.14059 8.87973 3.42205 9.0584C2.70351 9.2192 2.10173 9.41573 1.61672 9.648L0.673632 6.7536C1.17661 6.41413 1.94006 6.1372 2.96398 5.9228C4.00586 5.69053 4.80524 5.5744 5.36211 5.5744C6.92494 5.5744 8.26322 6.03 9.37696 6.9412C10.4907 7.83453 11.0476 8.978 11.0476 10.3716L11.0476 18.9208L9.24223 18.9208L8.37998 17.822C7.89497 18.1972 7.32014 18.5277 6.65548 18.8136C6.0088 19.0995 5.36211 19.2424 4.71542 19.2424Z" fill="#0090E3"/>
<path d="M17.1271 -4.03645e-09L17.1271 6.3248C17.648 6.03893 18.1959 5.8156 18.7708 5.6548C19.3636 5.494 19.8935 5.4136 20.3605 5.4136C22.2826 5.4136 23.7556 6.07467 24.7796 7.3968C25.8035 8.71893 26.3154 10.3627 26.3154 12.328C26.3154 14.2933 25.7855 15.9371 24.7257 17.2592C23.6838 18.5813 22.2287 19.2424 20.3605 19.2424C19.7498 19.2424 19.0672 19.1173 18.3127 18.8672C17.5582 18.6171 16.8846 18.2687 16.2918 17.822L15.4295 18.9208L13.6512 18.9208L13.6512 0.294798L17.1271 -4.03645e-09ZM19.4444 16.2676C20.6479 16.2676 21.4922 15.8388 21.9772 14.9812C22.4623 14.1057 22.7048 13.2213 22.7048 12.328C22.7048 11.3096 22.4892 10.3984 22.0581 9.5944C21.627 8.7904 20.7557 8.3884 19.4444 8.3884C19.0672 8.3884 18.672 8.45987 18.2588 8.6028C17.8636 8.72787 17.4864 8.90653 17.1271 9.1388L17.1271 15.5172C17.4864 15.7316 17.8636 15.9103 18.2588 16.0532C18.672 16.1961 19.0672 16.2676 19.4444 16.2676Z" fill="#0090E3"/>
<path d="M31.9754 -7.53585e-09L31.9754 6.3248C32.4964 6.03893 33.0442 5.8156 33.6191 5.6548C34.2119 5.494 34.7418 5.4136 35.2089 5.4136C37.1309 5.4136 38.604 6.07467 39.6279 7.3968C40.6518 8.71893 41.1638 10.3627 41.1638 12.328C41.1638 14.2933 40.6338 15.9371 39.574 17.2592C38.5321 18.5813 37.0771 19.2424 35.2089 19.2424C34.5981 19.2424 33.9155 19.1173 33.161 18.8672C32.4065 18.6171 31.7329 18.2687 31.1401 17.822L30.2779 18.9208L28.4995 18.9208L28.4995 0.294798L31.9754 -7.53585e-09ZM34.2927 16.2676C35.4963 16.2676 36.3405 15.8388 36.8256 14.9812C37.3106 14.1057 37.5531 13.2213 37.5531 12.328C37.5531 11.3096 37.3375 10.3984 36.9064 9.5944C36.4753 8.7904 35.604 8.3884 34.2927 8.3884C33.9155 8.3884 33.5203 8.45987 33.1071 8.6028C32.7119 8.72787 32.3347 8.90653 31.9754 9.1388L31.9754 15.5172C32.3347 15.7316 32.7119 15.9103 33.1071 16.0532C33.5203 16.1961 33.9155 16.2676 34.2927 16.2676Z" fill="#0090E3"/>
<path d="M67.9346 9.4336C67.3059 9.14773 66.7221 8.93333 66.1832 8.7904C65.6443 8.6296 65.0694 8.5492 64.4587 8.5492C64.0096 8.5492 63.6593 8.63853 63.4078 8.8172C63.1743 8.978 63.0575 9.21026 63.0575 9.514C63.0575 9.7284 63.2012 9.93387 63.4887 10.1304C63.794 10.3269 64.2791 10.5413 64.9437 10.7736C66.0395 11.1667 67.0544 11.7205 67.9885 12.4352C68.9226 13.132 69.3897 14.0432 69.3897 15.1688C69.3897 16.4552 68.9226 17.4557 67.9885 18.1704C67.0724 18.8851 65.7251 19.2424 63.9467 19.2424C63.3899 19.2424 62.6444 19.1352 61.7103 18.9208C60.7941 18.7064 60.0307 18.3669 59.4199 17.9024L60.4708 15.3832C61.0995 15.6691 61.7013 15.8924 62.2761 16.0532C62.8689 16.1961 63.4078 16.2676 63.8928 16.2676C64.5395 16.2676 65.0335 16.1783 65.3748 15.9996C65.7161 15.8209 65.8868 15.5887 65.8868 15.3028C65.8868 14.9455 65.7161 14.6239 65.3748 14.338C65.0335 14.0521 64.4946 13.7931 63.7581 13.5608C62.7162 13.2213 61.7282 12.7389 60.7941 12.1136C59.878 11.4704 59.4199 10.6128 59.4199 9.5408C59.4199 8.308 59.878 7.3432 60.7941 6.6464C61.7103 5.93173 62.9498 5.5744 64.5126 5.5744C65.0694 5.5744 65.788 5.69053 66.6682 5.9228C67.5484 6.15507 68.3208 6.49453 68.9855 6.9412L67.9346 9.4336Z" fill="white"/>
<path d="M79.1611 18.6528C78.8737 18.8851 78.4606 19.0727 77.9216 19.2156C77.4007 19.3764 76.9337 19.4568 76.5205 19.4568C74.9038 19.4568 73.6284 19.0548 72.6943 18.2508C71.7781 17.4289 71.3201 16.2676 71.3201 14.7668L71.3201 8.6296L69.5686 8.6296L69.5686 5.9496L71.3201 5.9496L71.3201 2.8676L74.796 2.2512L74.796 5.9496L77.1672 5.9496L78.245 8.6296L74.796 8.6296L74.796 14.1504C74.796 14.8293 74.9577 15.3921 75.281 15.8388C75.6044 16.2676 76.0804 16.482 76.7091 16.482C76.9426 16.482 77.1762 16.4552 77.4097 16.4016C77.6432 16.348 77.8857 16.2587 78.1372 16.1336L79.1611 18.6528Z" fill="white"/>
<path d="M102.955 16.2676C104.159 16.2676 105.003 15.8388 105.488 14.9812C105.973 14.1057 106.216 13.2213 106.216 12.328C106.216 11.3096 106 10.3984 105.569 9.5944C105.138 8.7904 104.267 8.3884 102.955 8.3884C102.578 8.3884 102.183 8.45987 101.77 8.6028C101.374 8.72787 100.997 8.90653 100.638 9.1388L100.638 15.5172C100.997 15.7316 101.374 15.9103 101.77 16.0532C102.183 16.1961 102.578 16.2676 102.955 16.2676ZM97.162 5.9228L98.9404 5.9228L99.6949 6.8876C100.288 6.44093 100.979 6.0836 101.77 5.8156C102.56 5.5476 103.261 5.4136 103.871 5.4136C105.794 5.4136 107.267 6.07467 108.29 7.3968C109.314 8.71893 109.826 10.3627 109.826 12.328C109.826 14.2933 109.296 15.9371 108.237 17.2592C107.195 18.5813 105.74 19.2424 103.871 19.2424C103.404 19.2424 102.874 19.162 102.282 19.0012C101.707 18.8404 101.159 18.6171 100.638 18.3312L100.638 24.522L97.162 24.79L97.162 5.9228Z" fill="white"/>
<path d="M112.415 15.008C112.971 15.008 113.429 15.1956 113.789 15.5708C114.166 15.946 114.355 16.4105 114.355 16.9644C114.355 17.5183 114.166 17.9828 113.789 18.358C113.429 18.7332 112.971 18.9208 112.415 18.9208C111.858 18.9208 111.382 18.7332 110.986 18.358C110.609 17.9828 110.421 17.5183 110.421 16.9644C110.421 16.4105 110.609 15.946 110.986 15.5708C111.382 15.1956 111.858 15.008 112.415 15.008Z" fill="white"/>
<path d="M118.396 7.3164C118.989 6.7268 119.725 6.26227 120.606 5.9228C121.504 5.58333 122.303 5.4136 123.004 5.4136C124.782 5.4136 126.04 5.93173 126.776 6.968C127.531 8.00427 127.908 9.2728 127.908 10.7736L127.908 18.9208L124.405 18.9208L124.405 10.9344C124.405 10.1125 124.207 9.4872 123.812 9.0584C123.417 8.61173 122.842 8.3884 122.088 8.3884C121.585 8.3884 121.055 8.5224 120.498 8.7904C119.959 9.04053 119.465 9.33533 119.016 9.6748L119.016 18.9208L115.513 18.9208L115.513 5.9228L117.345 5.9228L118.396 7.3164Z" fill="white"/>
<path d="M134 -1.75767e-08L134 18.9208L130.524 18.9208L130.524 0.294798L134 -1.75767e-08Z" fill="white"/>
<path fill-rule="evenodd" clip-rule="evenodd" d="M49.9772 20.4097C54.3176 20.4097 57.8362 16.91 57.8362 12.593C57.8362 8.27598 54.3176 4.77634 49.9772 4.77634C45.6368 4.77634 42.1182 8.27598 42.1182 12.593C42.1182 16.91 45.6368 20.4097 49.9772 20.4097ZM54.8423 12.593C54.8423 15.2654 52.6641 17.4319 49.9772 17.4319C49.1944 17.4319 48.4548 17.248 47.7996 16.9213L54.329 10.4271C54.6574 11.0788 54.8423 11.8144 54.8423 12.593ZM52.2304 8.30321C51.5567 7.95248 50.7903 7.75411 49.9772 7.75411C47.2903 7.75411 45.1121 9.92056 45.1121 12.593C45.1121 13.4017 45.3115 14.164 45.6642 14.834L52.2304 8.30321Z" fill="#0090E3"/>
<path fill-rule="evenodd" clip-rule="evenodd" d="M87.401 20.4097C91.7415 20.4097 95.2601 16.91 95.2601 12.593C95.2601 8.27598 91.7415 4.77634 87.401 4.77634C83.0606 4.77634 79.542 8.27598 79.542 12.593C79.542 16.91 83.0606 20.4097 87.401 20.4097ZM92.2662 12.593C92.2662 15.2654 90.088 17.4319 87.401 17.4319C86.6182 17.4319 85.8786 17.248 85.2234 16.9213L91.7528 10.4271C92.0813 11.0788 92.2662 11.8144 92.2662 12.593ZM89.6542 8.30321C88.9806 7.95248 88.2141 7.75411 87.401 7.75411C84.7141 7.75411 82.5359 9.92056 82.5359 12.593C82.5359 13.4017 82.7354 14.164 83.088 14.834L89.6542 8.30321Z" fill="white"/>
</svg>
