<svg width="114" height="83" viewBox="0 0 114 83" fill="none" xmlns="http://www.w3.org/2000/svg">
<path d="M0.292893 74.7929C-0.0976311 75.1834 -0.0976311 75.8166 0.292893 76.2071L6.65685 82.5711C7.04738 82.9616 7.68054 82.9616 8.07107 82.5711C8.46159 82.1805 8.46159 81.5474 8.07107 81.1569L2.41421 75.5L8.07107 69.8431C8.46159 69.4526 8.46159 68.8195 8.07107 68.4289C7.68054 68.0384 7.04738 68.0384 6.65685 68.4289L0.292893 74.7929ZM1 76.5C1.6729 76.5 2.34845 76.4931 3.02644 76.4794L2.98602 74.4798C2.32131 74.4932 1.65924 74.5 1 74.5V76.5ZM7.0965 76.3177C8.44246 76.2385 9.79633 76.134 11.1566 76.0046L10.9673 74.0136C9.63034 74.1407 8.30045 74.2434 6.97907 74.3212L7.0965 76.3177ZM15.2023 75.5499C16.5379 75.377 17.8782 75.1812 19.2218 74.9633L18.9015 72.9891C17.5786 73.2037 16.2595 73.3963 14.9455 73.5664L15.2023 75.5499ZM23.2202 74.2514C24.5441 73.9949 25.87 73.7176 27.1964 73.4201L26.7587 71.4686C25.451 71.7619 24.1443 72.0352 22.8398 72.2879L23.2202 74.2514ZM31.1476 72.4746C32.4565 72.142 33.7646 71.7901 35.0709 71.4197L34.5253 69.4956C33.2364 69.8611 31.9459 70.2081 30.6549 70.5363L31.1476 72.4746ZM38.9624 70.2596C40.2516 69.8565 41.5377 69.4357 42.8194 68.9977L42.1727 67.1051C40.9074 67.5375 39.6379 67.9529 38.3656 68.3507L38.9624 70.2596ZM46.6434 67.6353C47.912 67.1648 49.175 66.6778 50.4313 66.1747L49.6878 64.318C48.4474 64.8148 47.2004 65.2956 45.9479 65.7602L46.6434 67.6353ZM54.1798 64.6175C55.4235 64.082 56.6593 63.5309 57.886 62.9648L57.0479 61.1489C55.8369 61.7077 54.6168 62.2518 53.3889 62.7805L54.1798 64.6175ZM61.5507 61.2152C62.7676 60.6145 63.974 59.9991 65.1685 59.3694L64.236 57.6002C63.0572 58.2215 61.8666 58.8289 60.6655 59.4217L61.5507 61.2152ZM68.7352 57.4273C69.9193 56.7614 71.0901 56.0815 72.2462 55.3881L71.2174 53.673C70.0776 54.3567 68.923 55.0272 67.7549 55.6841L68.7352 57.4273ZM75.6964 53.2505C76.8436 52.5164 77.9742 51.7688 79.0868 51.0084L77.9582 49.3572C76.8626 50.106 75.7489 50.8425 74.6184 51.5659L75.6964 53.2505ZM82.4091 48.6598C83.5114 47.8538 84.5933 47.0348 85.6533 46.2035L84.419 44.6298C83.3771 45.4469 82.3131 46.2523 81.2285 47.0454L82.4091 48.6598ZM88.8108 43.6356C89.8565 42.7532 90.8774 41.8583 91.8718 40.9517L90.5242 39.4738C89.5493 40.3627 88.5477 41.2407 87.521 42.1071L88.8108 43.6356ZM94.8247 38.1464C95.7994 37.1808 96.7437 36.203 97.6557 35.2141L96.1854 33.8582C95.2945 34.8244 94.3711 35.7804 93.4171 36.7257L94.8247 38.1464ZM100.348 32.1483C101.23 31.0912 102.076 30.0224 102.881 28.9429L101.278 27.7467C100.495 28.796 99.6727 29.8363 98.8126 30.8667L100.348 32.1483ZM105.231 25.5923C105.99 24.4363 106.702 23.2693 107.367 22.0924L105.625 21.1095C104.983 22.2458 104.294 23.3746 103.559 24.4948L105.231 25.5923ZM109.253 18.4427C109.842 17.1873 110.375 15.922 110.849 14.6479L108.974 13.9512C108.521 15.1712 108.009 16.3854 107.443 17.5926L109.253 18.4427ZM112.109 10.7206C112.471 9.38243 112.765 8.03631 112.988 6.68367L111.014 6.35837C110.802 7.64274 110.523 8.92339 110.178 10.1991L112.109 10.7206ZM113.442 2.57189C113.481 1.88235 113.5 1.19166 113.5 0.5H111.5C111.5 1.1541 111.482 1.80759 111.445 2.46034L113.442 2.57189Z" fill="#0090E3"/>
</svg>
