<svg width="715" height="226" viewBox="0 0 715 226" fill="none" xmlns="http://www.w3.org/2000/svg">
<path opacity="0.1" fill-rule="evenodd" clip-rule="evenodd" d="M12.2872 1.71826C12.995 0.220167 14.7831 -0.42054 16.2812 0.287197L40.694 11.8204C42.1921 12.5282 42.8328 14.3164 42.1251 15.8144C41.4174 17.3125 39.6291 17.9532 38.1311 17.2455L20.3944 8.86623C20.7405 9.75504 21.0906 10.6404 21.4448 11.5223C22.0625 13.0597 21.3168 14.8067 19.7794 15.4243C18.2419 16.042 16.4949 15.2963 15.8773 13.7589C15.4709 12.7475 15.0699 11.7318 14.6743 10.7116L6.17907 28.694C5.47131 30.1921 3.6831 30.8328 2.18505 30.125C0.686886 29.4173 0.0462606 27.6291 0.754024 26.131L12.2872 1.71826ZM24.2368 32.4653C23.5027 30.9799 24.1118 29.1807 25.5972 28.4467C27.0825 27.7126 28.8817 28.3217 29.6158 29.8071C32.5972 35.8401 35.7875 41.6966 39.18 47.381C40.0292 48.8037 39.5642 50.6454 38.1415 51.4946C36.7187 52.3437 34.8771 51.8787 34.028 50.4559C30.5541 44.6355 27.2881 38.6399 24.2368 32.4653ZM45.2195 67.6126C44.2596 66.2621 44.5763 64.3892 45.9268 63.4293C47.2772 62.4694 49.1501 62.7861 50.11 64.1366C53.9849 69.5881 58.0641 74.866 62.3409 79.9748C63.4044 81.2453 63.2367 83.1373 61.9663 84.2009C60.6958 85.2644 58.8038 85.0967 57.7402 83.8263C53.363 78.5976 49.187 73.1945 45.2195 67.6126ZM71.5072 99.0343C70.3491 97.8494 70.3708 95.95 71.5558 94.7919C72.7406 93.6338 74.64 93.6556 75.7981 94.8405C80.4415 99.5914 85.2743 104.18 90.2898 108.611C91.5315 109.708 91.6489 111.604 90.5519 112.845C89.4549 114.087 87.5591 114.204 86.3174 113.107C81.1946 108.582 76.2554 103.892 71.5072 99.0343ZM102.204 126.177C100.889 125.169 100.64 123.286 101.648 121.971C102.656 120.656 104.539 120.407 105.854 121.415C111.096 125.433 116.505 129.306 122.076 133.036C123.453 133.958 123.822 135.821 122.9 137.198C121.978 138.575 120.115 138.943 118.738 138.022C113.064 134.222 107.55 130.275 102.204 126.177ZM136.168 148.942C134.739 148.104 134.259 146.266 135.097 144.837C135.935 143.408 137.773 142.928 139.202 143.766C144.894 147.103 150.731 150.31 156.707 153.392C158.18 154.152 158.758 155.961 157.998 157.434C157.239 158.906 155.43 159.484 153.957 158.725C147.888 155.595 141.956 152.336 136.168 148.942ZM172.466 167.682C170.957 166.997 170.289 165.219 170.974 163.71C171.659 162.202 173.437 161.534 174.946 162.218C180.953 164.945 187.085 167.559 193.335 170.063C194.873 170.679 195.62 172.425 195.004 173.963C194.388 175.501 192.641 176.249 191.103 175.632C184.773 173.096 178.559 170.447 172.466 167.682ZM210.362 182.88C208.8 182.328 207.981 180.615 208.532 179.052C209.084 177.49 210.798 176.671 212.36 177.222C218.579 179.419 224.903 181.516 231.326 183.519C232.908 184.012 233.79 185.694 233.297 187.276C232.804 188.858 231.122 189.74 229.54 189.247C223.048 187.223 216.654 185.102 210.362 182.88ZM249.303 195.029C247.705 194.591 246.765 192.941 247.203 191.343C247.641 189.745 249.291 188.805 250.889 189.243C257.254 190.988 263.706 192.647 270.241 194.224C271.852 194.612 272.843 196.233 272.454 197.843C272.066 199.454 270.445 200.445 268.835 200.056C262.241 198.466 255.729 196.791 249.303 195.029ZM288.825 204.569C287.203 204.227 286.166 202.636 286.508 201.015C286.85 199.394 288.442 198.357 290.063 198.699C296.564 200.07 303.141 201.365 309.788 202.587C311.418 202.886 312.496 204.45 312.197 206.08C311.897 207.709 310.333 208.787 308.704 208.488C302.007 207.257 295.379 205.952 288.825 204.569ZM328.791 211.926C327.155 211.666 326.039 210.129 326.299 208.492C326.559 206.856 328.097 205.74 329.733 206C336.349 207.052 343.029 208.036 349.769 208.954C351.411 209.177 352.561 210.689 352.337 212.331C352.114 213.973 350.601 215.122 348.96 214.899C342.177 213.975 335.453 212.985 328.791 211.926ZM715 216.673V211.195C714.553 210.995 714.051 210.901 713.529 210.944C706.788 211.499 700.05 212.032 693.315 212.541C691.663 212.666 690.425 214.107 690.55 215.759C690.675 217.411 692.115 218.649 693.768 218.524C700.516 218.014 707.268 217.48 714.021 216.924C714.369 216.895 714.698 216.808 715 216.673ZM369.067 217.426C367.421 217.236 366.24 215.748 366.43 214.102C366.62 212.456 368.109 211.275 369.755 211.465C376.465 212.24 383.23 212.954 390.047 213.61C391.696 213.768 392.905 215.234 392.746 216.883C392.588 218.532 391.122 219.741 389.473 219.582C382.62 218.923 375.816 218.205 369.067 217.426ZM673.097 213.998C674.75 213.885 676.182 215.133 676.295 216.786C676.408 218.439 675.16 219.871 673.507 219.984C666.759 220.446 660.017 220.883 653.283 221.293C651.63 221.394 650.207 220.135 650.107 218.481C650.006 216.827 651.265 215.405 652.919 215.304C659.636 214.895 666.363 214.459 673.097 213.998ZM409.558 221.334C407.906 221.204 406.673 219.76 406.802 218.108C406.932 216.456 408.376 215.223 410.028 215.352C416.735 215.879 423.487 216.353 430.281 216.775C431.934 216.877 433.192 218.301 433.089 219.955C432.986 221.608 431.563 222.866 429.909 222.763C423.083 222.339 416.299 221.864 409.558 221.334ZM632.642 216.459C634.297 216.371 635.709 217.642 635.796 219.296C635.884 220.951 634.613 222.363 632.959 222.45C626.188 222.808 619.427 223.138 612.681 223.437C611.026 223.51 609.624 222.228 609.551 220.573C609.477 218.917 610.76 217.516 612.415 217.443C619.144 217.144 625.887 216.816 632.642 216.459ZM450.195 223.866C448.54 223.789 447.261 222.384 447.339 220.729C447.416 219.074 448.821 217.795 450.476 217.873C457.167 218.186 463.895 218.453 470.657 218.674C472.313 218.728 473.612 220.114 473.558 221.77C473.504 223.426 472.117 224.725 470.461 224.671C463.671 224.449 456.915 224.181 450.195 223.866ZM592.215 218.248C593.871 218.19 595.261 219.485 595.319 221.14C595.378 222.796 594.083 224.186 592.427 224.245C585.62 224.485 578.828 224.693 572.056 224.867C570.4 224.909 569.022 223.601 568.98 221.945C568.938 220.288 570.246 218.911 571.902 218.869C578.655 218.695 585.427 218.488 592.215 218.248ZM490.916 225.201C489.26 225.169 487.943 223.8 487.975 222.144C488.007 220.487 489.376 219.17 491.032 219.202C497.708 219.331 504.415 219.419 511.148 219.466C512.805 219.478 514.139 220.831 514.127 222.487C514.116 224.144 512.763 225.478 511.106 225.466C504.349 225.419 497.618 225.331 490.916 225.201ZM551.704 219.285C553.361 219.26 554.724 220.582 554.75 222.239C554.776 223.895 553.453 225.259 551.797 225.285C544.995 225.39 538.214 225.459 531.458 225.49C529.801 225.497 528.451 224.16 528.444 222.504C528.436 220.847 529.773 219.497 531.43 219.49C538.164 219.459 544.923 219.39 551.704 219.285Z" fill="#0090E3"/>
</svg>
