<svg width="89" height="71" viewBox="0 0 89 71" fill="none" xmlns="http://www.w3.org/2000/svg">
<path d="M0.292893 62.2929C-0.0976311 62.6834 -0.0976311 63.3166 0.292893 63.7071L6.65685 70.0711C7.04738 70.4616 7.68054 70.4616 8.07107 70.0711C8.46159 69.6805 8.46159 69.0474 8.07107 68.6569L2.41421 63L8.07107 57.3431C8.46159 56.9526 8.46159 56.3195 8.07107 55.9289C7.68054 55.5384 7.04738 55.5384 6.65685 55.9289L0.292893 62.2929ZM1 64C1.66095 64 2.32228 63.9936 2.98382 63.9807L2.94507 61.9811C2.29637 61.9937 1.64795 62 1 62V64ZM6.95045 63.8281C8.27045 63.7522 9.58998 63.6515 10.9077 63.5265L10.7189 61.5355C9.42555 61.6581 8.13072 61.7569 6.8357 61.8314L6.95045 63.8281ZM14.8505 63.0797C16.1619 62.9069 17.4702 62.7104 18.7741 62.4907L18.4418 60.5185C17.1614 60.7342 15.8767 60.9272 14.5892 61.0968L14.8505 63.0797ZM22.6738 61.762C23.9704 61.4958 25.2612 61.2069 26.545 60.8957L26.0739 58.952C24.8129 59.2576 23.5451 59.5414 22.2716 59.8028L22.6738 61.762ZM30.3832 59.8934C31.659 59.5361 32.9263 59.1568 34.1838 58.7561L33.5765 56.8505C32.3416 57.2441 31.0969 57.6166 29.8438 57.9675L30.3832 59.8934ZM37.9417 57.4843C39.1903 57.0367 40.4276 56.5678 41.652 56.078L40.9093 54.221C39.7074 54.7018 38.4928 55.1622 37.2668 55.6017L37.9417 57.4843ZM45.3091 54.5366C46.5233 53.9981 47.723 53.4387 48.9067 52.859L48.0271 51.0628C46.8664 51.6313 45.6896 52.18 44.4982 52.7084L45.3091 54.5366ZM52.4383 51.0437C53.6094 50.4123 54.7625 49.7603 55.896 49.0885L54.8763 47.368C53.7664 48.0258 52.6368 48.6645 51.4891 49.2833L52.4383 51.0437ZM59.2713 46.9911C60.3883 46.2635 61.4832 45.5157 62.5543 44.7483L61.3895 43.1225C60.3429 43.8724 59.2724 44.6035 58.1798 45.3152L59.2713 46.9911ZM65.7335 42.3572C66.7817 41.5295 67.8031 40.6817 68.7959 39.8145L67.4802 38.3082C66.5129 39.1531 65.5169 39.9799 64.494 40.7877L65.7335 42.3572ZM71.7264 37.1169C72.6863 36.1848 73.6141 35.2328 74.5076 34.2618L73.0358 32.9076C72.1684 33.8503 71.2669 34.7754 70.3331 35.682L71.7264 37.1169ZM77.1198 31.2472C77.967 30.207 78.7757 29.1472 79.5436 28.0686L77.9144 26.9086C77.1722 27.951 76.3898 28.9765 75.5691 29.9842L77.1198 31.2472ZM81.7514 24.7309C82.4522 23.586 83.1077 22.4222 83.7154 21.2403L81.9368 20.3257C81.3523 21.4623 80.7212 22.583 80.0456 23.6868L81.7514 24.7309ZM85.4076 17.6062C85.9247 16.3692 86.3898 15.1144 86.8005 13.8431L84.8973 13.2283C84.5041 14.4456 84.0584 15.6481 83.5623 16.835L85.4076 17.6062ZM87.8687 9.9706C88.1673 8.66808 88.4089 7.35018 88.5909 6.01791L86.6094 5.74711C86.4355 7.01947 86.2047 8.27862 85.9193 9.52371L87.8687 9.9706ZM88.9544 2.01594C88.9847 1.34706 89 0.675039 89 0H87C87 0.64481 86.9854 1.28664 86.9564 1.92539L88.9544 2.01594Z" fill="#0090E3"/>
</svg>
