<svg width="60" height="16" viewBox="0 0 60 16" fill="none" xmlns="http://www.w3.org/2000/svg">
<path d="M59.7071 8.7071C60.0976 8.31658 60.0976 7.68341 59.7071 7.29289L53.3431 0.928928C52.9526 0.538403 52.3195 0.538403 51.9289 0.928928C51.5384 1.31945 51.5384 1.95262 51.9289 2.34314L57.5858 7.99999L51.9289 13.6568C51.5384 14.0474 51.5384 14.6805 51.9289 15.0711C52.3195 15.4616 52.9526 15.4616 53.3431 15.0711L59.7071 8.7071ZM8.74228e-08 9L2.10714 9L2.10714 7L-8.74228e-08 7L8.74228e-08 9ZM6.32143 9L10.5357 9L10.5357 7L6.32143 7L6.32143 9ZM14.75 9L18.9643 9L18.9643 7L14.75 7L14.75 9ZM23.1786 9L27.3929 9L27.3929 7L23.1786 7L23.1786 9ZM31.6071 9L35.8214 9L35.8214 7L31.6071 7L31.6071 9ZM40.0357 9L44.25 9L44.25 7L40.0357 7L40.0357 9ZM48.4643 9L52.6786 9L52.6786 7L48.4643 7L48.4643 9ZM56.8929 9L59 8.99999L59 6.99999L56.8929 7L56.8929 9Z" fill="#D6D6EE"/>
</svg>
