<svg width="108" height="16" viewBox="0 0 108 16" fill="none" xmlns="http://www.w3.org/2000/svg">
<path d="M4.83619 11.072C6.43619 11.072 7.54019 9.808 7.54019 8.224C7.54019 6.64 6.43619 5.424 4.83619 5.424C3.20419 5.424 2.00419 6.656 2.00419 8.224C2.00419 9.792 3.20419 11.072 4.83619 11.072ZM1.90819 12H0.820188V0.992H2.03619V5.776C2.62819 4.912 3.63619 4.336 4.98019 4.336C7.10819 4.336 8.74019 5.952 8.74019 8.224C8.74019 10.48 7.10819 12.16 4.98019 12.16C3.63619 12.16 2.62819 11.584 2.03619 10.704L1.90819 12ZM11.5554 7.632H16.6434C16.5794 6.288 15.4114 5.424 14.1154 5.424C12.6914 5.424 11.7634 6.352 11.5554 7.632ZM17.8114 8.56H11.5234C11.6674 10 12.6114 11.024 14.1794 11.024C15.2034 11.024 16.0194 10.544 16.4674 9.648H17.7474C17.2354 11.184 15.8274 12.16 14.0834 12.16C11.6674 12.16 10.3074 10.32 10.3074 8.256C10.3074 6.176 11.7474 4.336 14.1154 4.336C16.3714 4.336 17.8594 5.904 17.8594 7.984C17.8594 8.192 17.8434 8.384 17.8114 8.56ZM19.4008 8.256C19.4008 6.048 21.1128 4.336 23.3848 4.336C25.6728 4.336 27.3688 6.048 27.3688 8.256C27.3688 10.448 25.6728 12.16 23.3848 12.16C21.1128 12.16 19.4008 10.448 19.4008 8.256ZM23.3848 11.04C24.9848 11.04 26.1528 9.824 26.1528 8.256C26.1528 6.672 24.9848 5.456 23.3848 5.456C21.7848 5.456 20.6168 6.672 20.6168 8.256C20.6168 9.824 21.7848 11.04 23.3848 11.04ZM28.9008 8.256C28.9008 6.048 30.6128 4.336 32.8848 4.336C35.1728 4.336 36.8688 6.048 36.8688 8.256C36.8688 10.448 35.1728 12.16 32.8848 12.16C30.6128 12.16 28.9008 10.448 28.9008 8.256ZM32.8848 11.04C34.4848 11.04 35.6528 9.824 35.6528 8.256C35.6528 6.672 34.4848 5.456 32.8848 5.456C31.2848 5.456 30.1168 6.672 30.1168 8.256C30.1168 9.824 31.2848 11.04 32.8848 11.04ZM40.1768 12H38.9608V4.496H40.0648L40.1448 6.032C40.5448 4.96 41.5208 4.336 42.7048 4.336C42.9128 4.336 43.1208 4.368 43.2648 4.4V5.504C43.1528 5.472 42.9768 5.456 42.8488 5.456C41.2328 5.456 40.1768 6.64 40.1768 8.32V12ZM48.1177 11.072C49.7497 11.072 50.9337 9.792 50.9337 8.224C50.9337 6.656 49.7337 5.424 48.1177 5.424C46.5177 5.424 45.4137 6.64 45.4137 8.224C45.4137 9.808 46.5177 11.072 48.1177 11.072ZM52.1337 12H50.9497L50.9177 10.704C50.3257 11.584 49.3017 12.16 47.9897 12.16C45.8457 12.16 44.2137 10.48 44.2137 8.224C44.2137 5.952 45.8457 4.336 47.9897 4.336C49.3017 4.336 50.3257 4.912 50.9177 5.776V0.992H52.1337V12ZM55.4929 7.632H60.5809C60.5169 6.288 59.3489 5.424 58.0529 5.424C56.6289 5.424 55.7009 6.352 55.4929 7.632ZM61.7489 8.56H55.4609C55.6049 10 56.5489 11.024 58.1169 11.024C59.1409 11.024 59.9569 10.544 60.4049 9.648H61.6849C61.1729 11.184 59.7649 12.16 58.0209 12.16C55.6049 12.16 54.2449 10.32 54.2449 8.256C54.2449 6.176 55.6849 4.336 58.0529 4.336C60.3089 4.336 61.7969 5.904 61.7969 7.984C61.7969 8.192 61.7809 8.384 61.7489 8.56ZM63.8983 12V0.992H65.1143V12H63.8983ZM68.9897 12H67.7897V4.496H68.9897V12ZM68.3977 2.784C67.9177 2.784 67.5817 2.448 67.5817 1.968C67.5817 1.504 67.9177 1.152 68.3977 1.152C68.8777 1.152 69.2137 1.504 69.2137 1.968C69.2137 2.448 68.8777 2.784 68.3977 2.784ZM71.6639 12V4.496H72.7519L72.8319 5.648C73.2799 4.944 74.2399 4.336 75.4719 4.336C77.4559 4.336 78.6399 5.52 78.6399 7.424V12H77.4399V7.744C77.4399 6.256 76.6399 5.472 75.2639 5.472C73.9999 5.472 72.9119 6.4 72.8959 7.776L72.8799 12H71.6639ZM84.5716 11.072C86.2036 11.072 87.3876 9.792 87.3876 8.224C87.3876 6.656 86.2036 5.424 84.5716 5.424C82.9716 5.424 81.8676 6.64 81.8676 8.224C81.8676 9.808 82.9716 11.072 84.5716 11.072ZM87.3716 5.776L87.4836 4.496H88.5876V11.264C88.5876 13.76 87.1316 15.28 84.7316 15.28C82.8276 15.28 81.4196 14.288 81.0196 12.64H82.2516C82.6036 13.632 83.5956 14.208 84.7316 14.208C86.3316 14.208 87.3876 13.2 87.3876 11.424V10.704C86.8116 11.568 85.7716 12.16 84.4436 12.16C82.2996 12.16 80.6516 10.48 80.6516 8.224C80.6516 5.952 82.2996 4.336 84.4436 4.336C85.7556 4.336 86.7796 4.912 87.3716 5.776ZM91.9148 7.632H97.0028C96.9388 6.288 95.7708 5.424 94.4748 5.424C93.0508 5.424 92.1228 6.352 91.9148 7.632ZM98.1708 8.56H91.8828C92.0268 10 92.9708 11.024 94.5388 11.024C95.5628 11.024 96.3788 10.544 96.8268 9.648H98.1068C97.5948 11.184 96.1868 12.16 94.4428 12.16C92.0268 12.16 90.6668 10.32 90.6668 8.256C90.6668 6.176 92.1068 4.336 94.4748 4.336C96.7308 4.336 98.2188 5.904 98.2188 7.984C98.2188 8.192 98.2028 8.384 98.1708 8.56ZM100.32 12V4.496H101.408L101.488 5.648C101.936 4.944 102.896 4.336 104.128 4.336C106.112 4.336 107.296 5.52 107.296 7.424V12H106.096V7.744C106.096 6.256 105.296 5.472 103.92 5.472C102.656 5.472 101.568 6.4 101.552 7.776L101.536 12H100.32Z" fill="#4B5563"/>
</svg>
