<svg width="104" height="24" viewBox="0 0 104 24" fill="none" xmlns="http://www.w3.org/2000/svg">
<g filter="url(#filter0_f_129_3183)">
<path d="M9.472 6.784L7.008 12.448H11.936L9.472 6.784ZM5.6 16H4.256L8.768 5.392H10.176L14.704 16H13.36L12.336 13.52H6.608L5.6 16ZM19.4693 15.072C21.1013 15.072 22.2853 13.792 22.2853 12.224C22.2853 10.656 21.0853 9.424 19.4693 9.424C17.8693 9.424 16.7653 10.64 16.7653 12.224C16.7653 13.808 17.8693 15.072 19.4693 15.072ZM23.4853 16H22.3013L22.2693 14.704C21.6773 15.584 20.6533 16.16 19.3413 16.16C17.1973 16.16 15.5653 14.48 15.5653 12.224C15.5653 9.952 17.1973 8.336 19.3413 8.336C20.6533 8.336 21.6773 8.912 22.2693 9.776V4.992H23.4853V16ZM27.3565 16H26.1405V8.496H27.2445L27.3245 10.032C27.7245 8.96 28.7005 8.336 29.8845 8.336C30.0925 8.336 30.3005 8.368 30.4445 8.4V9.504C30.3325 9.472 30.1565 9.456 30.0285 9.456C28.4125 9.456 27.3565 10.64 27.3565 12.32V16ZM32.6414 11.632H37.7294C37.6654 10.288 36.4974 9.424 35.2014 9.424C33.7774 9.424 32.8494 10.352 32.6414 11.632ZM38.8974 12.56H32.6094C32.7534 14 33.6974 15.024 35.2654 15.024C36.2894 15.024 37.1054 14.544 37.5534 13.648H38.8334C38.3214 15.184 36.9134 16.16 35.1694 16.16C32.7534 16.16 31.3934 14.32 31.3934 12.256C31.3934 10.176 32.8334 8.336 35.2014 8.336C37.4574 8.336 38.9454 9.904 38.9454 11.984C38.9454 12.192 38.9294 12.384 38.8974 12.56ZM40.4868 13.632H41.6228C41.7348 14.592 42.6628 15.104 43.6228 15.104C44.5188 15.104 45.3988 14.704 45.3988 13.904C45.3988 13.024 44.4708 12.816 43.3028 12.624C42.0548 12.416 40.6468 12.128 40.6468 10.56C40.6468 9.12 42.0707 8.336 43.5268 8.336C45.0148 8.336 46.4068 9.136 46.4868 10.72H45.3348C45.2548 9.872 44.4068 9.392 43.4948 9.392C42.6308 9.392 41.8307 9.776 41.8307 10.48C41.8307 11.152 42.4868 11.376 43.6228 11.584C44.9988 11.824 46.6468 12.048 46.6468 13.792C46.6468 15.312 45.1108 16.176 43.5268 16.176C41.9588 16.176 40.5028 15.264 40.4868 13.632ZM56.6721 15.072C58.2721 15.072 59.3761 13.808 59.3761 12.224C59.3761 10.64 58.2721 9.424 56.6721 9.424C55.0401 9.424 53.8401 10.656 53.8401 12.224C53.8401 13.792 55.0401 15.072 56.6721 15.072ZM53.7441 16H52.6561V4.992H53.8721V9.776C54.4641 8.912 55.4721 8.336 56.8161 8.336C58.9441 8.336 60.5761 9.952 60.5761 12.224C60.5761 14.48 58.9441 16.16 56.8161 16.16C55.4721 16.16 54.4641 15.584 53.8721 14.704L53.7441 16ZM63.3914 11.632H68.4794C68.4154 10.288 67.2474 9.424 65.9514 9.424C64.5274 9.424 63.5994 10.352 63.3914 11.632ZM69.6474 12.56H63.3594C63.5034 14 64.4474 15.024 66.0154 15.024C67.0394 15.024 67.8554 14.544 68.3034 13.648H69.5834C69.0714 15.184 67.6634 16.16 65.9194 16.16C63.5034 16.16 62.1434 14.32 62.1434 12.256C62.1434 10.176 63.5834 8.336 65.9514 8.336C68.2074 8.336 69.6954 9.904 69.6954 11.984C69.6954 12.192 69.6794 12.384 69.6474 12.56ZM75.1568 15.072C76.7888 15.072 77.9728 13.792 77.9728 12.224C77.9728 10.656 76.7728 9.424 75.1568 9.424C73.5568 9.424 72.4528 10.64 72.4528 12.224C72.4528 13.808 73.5568 15.072 75.1568 15.072ZM79.1728 16H77.9888L77.9568 14.704C77.3648 15.584 76.3408 16.16 75.0288 16.16C72.8848 16.16 71.2528 14.48 71.2528 12.224C71.2528 9.952 72.8848 8.336 75.0288 8.336C76.3408 8.336 77.3648 8.912 77.9568 9.776V4.992H79.1728V16ZM83.044 16H81.828V8.496H82.932L83.012 10.032C83.412 8.96 84.388 8.336 85.572 8.336C85.78 8.336 85.988 8.368 86.132 8.4V9.504C86.02 9.472 85.844 9.456 85.716 9.456C84.1 9.456 83.044 10.64 83.044 12.32V16ZM89.2163 16H88.0163V8.496H89.2163V16ZM88.6243 6.784C88.1443 6.784 87.8083 6.448 87.8083 5.968C87.8083 5.504 88.1443 5.152 88.6243 5.152C89.1043 5.152 89.4403 5.504 89.4403 5.968C89.4403 6.448 89.1043 6.784 88.6243 6.784ZM91.9225 8.496H93.1225V16.736C93.1225 18.352 92.2745 19.28 90.7225 19.28C90.3545 19.28 90.0505 19.248 89.7305 19.152C89.7305 19.04 89.7305 18.224 89.7305 18.096C90.0505 18.176 90.3225 18.192 90.5785 18.192C91.3625 18.192 91.9225 17.792 91.9225 16.688V8.496ZM92.4985 6.768C92.0345 6.768 91.6985 6.432 91.6985 5.968C91.6985 5.504 92.0345 5.152 92.4985 5.152C92.9785 5.152 93.3305 5.504 93.3305 5.968C93.3305 6.432 92.9785 6.768 92.4985 6.768ZM97.6208 9.536V16H96.4208L96.4368 9.536H94.9488V8.496H96.4368V7.536C96.4368 5.712 97.4768 4.864 99.0608 4.864C99.3008 4.864 99.5888 4.896 99.8288 4.944V6.016C99.6528 5.968 99.4448 5.952 99.2688 5.952C98.2768 5.952 97.6208 6.368 97.6208 7.552V8.496H99.8128V9.536H97.6208Z" fill="#4B5563"/>
</g>
<defs>
<filter id="filter0_f_129_3183" x="0" y="-2" width="103.829" height="28" filterUnits="userSpaceOnUse" color-interpolation-filters="sRGB">
<feFlood flood-opacity="0" result="BackgroundImageFix"/>
<feBlend mode="normal" in="SourceGraphic" in2="BackgroundImageFix" result="shape"/>
<feGaussianBlur stdDeviation="2" result="effect1_foregroundBlur_129_3183"/>
</filter>
</defs>
</svg>
