<svg width="131" height="131" viewBox="0 0 131 131" fill="none" xmlns="http://www.w3.org/2000/svg">
<path d="M31.9138 58.9179L45.825 85.9219L71.7379 75.284L83.7397 40.6425L43.3701 42.8246L31.9138 58.9179Z" fill="#E69329"/>
<path d="M19.6393 98.1964C19.6393 100.99 20.1896 103.757 21.2588 106.338C22.328 108.92 23.8952 111.265 25.8708 113.241C27.8465 115.216 30.1919 116.784 32.7732 117.853C35.3546 118.922 38.1212 119.472 40.9152 119.472C43.7092 119.472 46.4758 118.922 49.0571 117.853C51.6384 116.784 53.9839 115.216 55.9595 113.241C57.9352 111.265 59.5023 108.92 60.5715 106.338C61.6408 103.757 62.1911 100.99 62.1911 98.1964C62.1911 95.4024 61.6408 92.6358 60.5715 90.0545C59.5023 87.4732 57.9352 85.1277 55.9595 83.1521C53.9839 81.1764 51.6384 79.6093 49.0571 78.5401C46.4758 77.4708 43.7092 76.9205 40.9152 76.9205C38.1212 76.9205 35.3546 77.4708 32.7732 78.5401C30.1919 79.6093 27.8465 81.1764 25.8708 83.1521C23.8952 85.1277 22.328 87.4732 21.2588 90.0545C20.1896 92.6358 19.6393 95.4024 19.6393 98.1964Z" fill="#546E7A"/>
<path d="M40.9152 73.6473C27.2768 73.6473 16.3661 84.5581 16.3661 98.1965C16.3661 111.835 27.2768 122.746 40.9152 122.746C54.5536 122.746 65.4643 111.835 65.4643 98.1965C65.4643 84.5581 54.5536 73.6473 40.9152 73.6473ZM40.9152 117.29C30.2773 117.29 21.8214 108.834 21.8214 98.1965C21.8214 87.5585 30.2773 79.1027 40.9152 79.1027C51.5532 79.1027 60.009 87.5585 60.009 98.1965C60.009 108.834 51.5532 117.29 40.9152 117.29Z" fill="#90A4AE"/>
<path d="M38.1875 90.0134H43.6429V111.835H38.1875V90.0134Z" fill="#90A4AE"/>
<path d="M35.1871 98.1965C37.9147 103.379 43.9156 105.561 49.0982 102.834L94.1049 79.6482C96.8326 78.2844 98.742 76.375 100.106 74.4657C104.743 65.7371 115.381 45.2795 122.473 27.5496L72.829 51.2804L59.7362 70.9197L41.1879 80.7393C34.096 84.2853 31.9138 92.1956 35.1871 98.1965Z" fill="#FED775"/>
<path d="M82.3759 8.18298L37.3692 25.3674C35.4598 25.9129 33.2777 28.095 31.3683 30.0044L16.0933 50.462C13.3656 54.5535 12.8201 59.7361 14.7294 64.3732C15.8205 67.1008 19.3665 73.6473 23.1853 81.012C27.5495 76.3749 33.8232 73.6473 40.9152 73.6473C42.0062 73.6473 43.3701 73.6473 44.4611 73.92L38.733 62.4638L51.2803 51.2803H73.1018C73.1018 51.2803 115.381 45.2794 122.746 27.5495L82.3759 8.18298Z" fill="#FED775"/>
<path d="M49.6437 98.1965C46.0978 99.8331 42.0062 98.1965 40.6424 94.6505C39.0058 91.1045 40.6424 87.013 44.1884 85.6492C47.4616 84.0126 52.9169 96.5599 49.6437 98.1965Z" fill="#FFCDD2"/>
</svg>
