<svg width="60" height="60" viewBox="0 0 60 60" fill="none" xmlns="http://www.w3.org/2000/svg">
<circle cx="30" cy="30" r="30" fill="#0090E3"/>
<path fill-rule="evenodd" clip-rule="evenodd" d="M26.3285 17C26.013 17 25.7104 17.1212 25.4872 17.337L18.3485 24.2415C18.1254 24.4573 18 24.75 18 25.0552V38.864C18 40.7707 19.5981 42.3162 21.5694 42.3162H22.7592C23.4163 42.3162 23.949 41.801 23.949 41.1655C23.949 40.5299 23.4163 40.0148 22.7592 40.0148H21.5694C20.9123 40.0148 20.3796 39.4996 20.3796 38.864V26.2059H26.3285C26.9857 26.2059 27.5183 25.6907 27.5183 25.0552V19.3015H35.8469C36.504 19.3015 37.0367 19.8167 37.0367 20.4522V23.9044C37.0367 24.54 37.5693 25.0552 38.2265 25.0552C38.8836 25.0552 39.4162 24.54 39.4162 23.9044V20.4522C39.4162 18.5456 37.8182 17 35.8469 17H26.3285ZM25.1387 23.9044H22.0622L25.1387 20.9289V23.9044ZM40.7504 28.1703C39.3564 26.8222 37.0965 26.8222 35.7026 28.1703L33.7039 30.1033L27.8668 35.7489C27.7143 35.8964 27.6061 36.0811 27.5539 36.2835L26.3641 40.8864C26.2627 41.2785 26.3815 41.6933 26.677 41.9792C26.9726 42.265 27.4015 42.3799 27.8069 42.2818L32.566 41.1311C32.7753 41.0806 32.9663 40.976 33.1188 40.8284L38.8875 35.2491L40.9545 33.2499C42.3485 31.9017 42.3485 29.716 40.9545 28.3678L40.7504 28.1703ZM36.2119 30.9324L37.3852 29.7977C37.8498 29.3483 38.6031 29.3483 39.0678 29.7977L39.2719 29.9952C39.7365 30.4445 39.7365 31.1732 39.2719 31.6225L38.0625 32.7923L36.2119 30.9324ZM34.5289 32.5602L36.3795 34.42L31.6693 38.9756L29.1536 39.5839L29.7825 37.1508L34.5289 32.5602Z" fill="white"/>
</svg>
