<svg width="60" height="60" viewBox="0 0 60 60" fill="none" xmlns="http://www.w3.org/2000/svg">
<circle cx="30" cy="30" r="30" fill="#0090E3"/>
<path d="M44.6351 28.0785C44.635 28.0752 44.635 28.072 44.6348 28.0688C44.6331 28.0381 44.6296 28.0077 44.6253 27.9774C44.6243 27.9705 44.6235 27.9637 44.6224 27.9569C44.6177 27.9284 44.6116 27.9003 44.6046 27.8724C44.6025 27.8639 44.6004 27.8555 44.5981 27.847C44.5906 27.8198 44.5819 27.793 44.5722 27.7664C44.5691 27.7579 44.5659 27.7494 44.5626 27.7409C44.552 27.7139 44.5403 27.6873 44.5275 27.6612C44.5239 27.6541 44.5204 27.6469 44.5167 27.6398C44.5024 27.6122 44.4869 27.5851 44.4702 27.5587C44.467 27.5536 44.4637 27.5485 44.4604 27.5435C44.442 27.5154 44.4224 27.488 44.4014 27.4614C44.4001 27.4598 44.3991 27.458 44.3978 27.4563C44.3961 27.4541 44.3941 27.4524 44.3924 27.4502C44.371 27.4239 44.3484 27.3983 44.3245 27.3737C44.3203 27.3693 44.3159 27.3651 44.3117 27.3609C44.2905 27.3399 44.2688 27.3193 44.2458 27.2997L44.2366 27.2918C44.2352 27.2906 44.2339 27.2895 44.2325 27.2883L39.8637 23.5647V21.4149C39.8637 20.797 39.3296 20.2961 38.6706 20.2961H36.0297L33.5277 18.1628C31.7072 16.6125 28.9294 16.6125 27.1095 18.1623L24.6069 20.2961H21.966C21.3071 20.2961 20.7729 20.797 20.7729 21.4149V23.5647L16.404 27.2883C16.4026 27.2895 16.4013 27.2906 16.4 27.2918L16.3907 27.2997C16.3677 27.3193 16.3459 27.3399 16.3248 27.3609C16.3205 27.3651 16.3162 27.3693 16.312 27.3737C16.2881 27.3983 16.2655 27.4239 16.2441 27.4502C16.2424 27.4523 16.2404 27.4541 16.2388 27.4563C16.2374 27.458 16.2364 27.4598 16.2351 27.4614C16.214 27.488 16.1945 27.5153 16.1761 27.5435C16.1728 27.5485 16.1695 27.5535 16.1663 27.5586C16.1496 27.585 16.1341 27.6122 16.1198 27.6398C16.1161 27.6469 16.1125 27.654 16.109 27.6611C16.0962 27.6873 16.0845 27.7139 16.0738 27.7409C16.0705 27.7494 16.0673 27.7579 16.0643 27.7664C16.0546 27.7929 16.0459 27.8198 16.0384 27.847C16.0361 27.8554 16.034 27.8638 16.0319 27.8723C16.0249 27.9002 16.0188 27.9284 16.0142 27.9569C16.013 27.9637 16.0122 27.9705 16.0112 27.9774C16.0069 28.0076 16.0034 28.0381 16.0017 28.0688C16.0015 28.072 16.0016 28.0753 16.0014 28.0785C16.0006 28.0948 16 28.1111 16 28.1275V40.4687C16 41.6851 17.0521 42.6716 18.3494 42.6716H42.287C43.5843 42.6716 44.6363 41.6851 44.6363 40.4687V28.1275C44.6365 28.1111 44.6358 28.0948 44.6351 28.0785ZM24.7188 34.8182L18.3864 39.0592V30.3651L24.7188 34.8182ZM27.1211 35.959H33.5155L40.1973 40.434H20.4393L27.1211 35.959ZM42.2501 39.0592L35.9178 34.8181L42.2501 30.365V39.0592ZM41.5723 28.0448L39.8637 29.2463V26.5885L41.5723 28.0448ZM28.7144 19.8182C29.6239 19.0437 31.0127 19.0437 31.9227 19.8187L32.4827 20.2961H28.1539L28.7144 19.8182ZM23.1592 22.5337H25.0682H35.5682H37.4773V24.0597V30.3651V30.9245L33.5 33.7214H27.1364L23.1592 30.9245V30.3651V24.0596V22.5337ZM20.7728 29.2463L19.0642 28.0448L20.7728 26.5886L20.7728 29.2463Z" fill="white"/>
<path d="M29.4752 31.1561C29.9886 31.6376 30.8377 31.581 31.2734 31.0363L34.853 26.5612C35.2484 26.0669 35.1415 25.3657 34.6143 24.9949C34.0871 24.6242 33.3393 24.7244 32.9439 25.2187L30.1897 28.6618L28.7761 27.3364C28.3102 26.8995 27.5547 26.8995 27.0887 27.3364C26.6228 27.7733 26.6228 28.4817 27.0887 28.9186L29.4752 31.1561Z" fill="white"/>
</svg>
