<svg width="60" height="60" viewBox="0 0 60 60" fill="none" xmlns="http://www.w3.org/2000/svg">
<circle cx="30" cy="30" r="30" fill="#0090E3"/>
<path d="M21.7915 14C20.8277 14 19.9938 14.4401 19.2347 15.0488C18.4757 15.6576 17.7765 16.477 17.1573 17.5211C15.9189 19.6142 15 22.55 15 26.2116C15 28.0892 15.4644 30.023 16.3983 31.5682C16.603 31.9054 16.9376 32.1301 17.1973 32.4298C16.5031 33.2258 15.3596 34.7148 15.3596 34.7148L17.1973 36.4379C17.1973 36.4379 18.4657 34.7991 19.2747 33.8907C19.789 34.0967 20.2734 34.3776 20.8727 34.3776C23.065 34.3776 25.3521 33.4786 27.4645 32.3549C28.1436 32.8418 28.9077 33.179 29.7017 33.179C32.3284 33.179 34.326 31.7321 35.7342 30.4445C36.1437 30.0699 36.4183 29.7936 36.733 29.4705C36.728 29.7983 36.718 30.098 36.8129 30.4819C36.8878 30.7722 36.9727 31.1328 37.2923 31.4559C37.6119 31.7789 38.1861 31.9803 38.6506 31.9803C39.5844 31.9803 40.1237 31.5776 40.688 31.1936C41.2523 30.8097 41.7867 30.3508 42.3659 29.92C43.5295 29.0585 44.768 28.3842 45.6818 28.3842V25.9869C43.6543 25.9869 42.0713 27.1106 40.8079 28.0471C40.2086 28.4919 39.6693 28.8806 39.2498 29.1709C39.2498 29.1053 39.2498 29.0913 39.2498 29.021C39.2648 28.5856 39.3347 28.0986 39.2498 27.5601C39.2099 27.2932 39.115 27.0123 38.8503 26.6611C38.5856 26.3099 37.9914 25.9869 37.492 25.9869C36.7729 25.9869 36.5082 26.2772 36.2536 26.4738C35.9989 26.6705 35.8091 26.8718 35.5744 27.1106C35.105 27.5882 34.5457 28.1641 33.9364 28.7214C32.8628 29.7046 31.5993 30.4491 30.2211 30.6318C31.1349 29.9434 32.0538 29.2598 32.698 28.4966C33.5469 27.4946 34.1761 26.4738 34.1761 25.2751C34.1761 24.6009 34.0863 23.6784 33.5369 22.8028C32.9876 21.9272 31.8041 21.1921 30.3409 21.1921C28.7679 21.1921 27.3347 21.9179 26.4657 23.0651C25.5968 24.2122 25.2273 25.6825 25.2273 27.4103C25.2273 28.5856 25.5119 29.5595 25.9064 30.407C24.1286 31.2826 22.2859 31.9803 20.8727 31.9803C23.035 28.9414 25.2273 24.8022 25.2273 19.7687C25.2273 18.7245 25.2373 17.493 24.8677 16.3599C24.683 15.7933 24.3883 15.2174 23.869 14.7492C23.3496 14.2809 22.5806 14 21.7915 14ZM21.7915 16.3974C22.0213 16.3974 22.0312 16.4395 22.1112 16.5097C22.1911 16.58 22.2859 16.7532 22.3908 17.0716C22.5955 17.7037 22.6705 18.7713 22.6705 19.7687C22.6705 24.0156 20.7329 27.7334 18.7953 30.5194C18.7503 30.4491 18.6804 30.4445 18.6355 30.3695C17.9713 29.2786 17.5568 27.6912 17.5568 26.2116C17.5568 22.9199 18.3958 20.368 19.3945 18.6824C19.8939 17.8395 20.4083 17.2215 20.8727 16.8469C21.3371 16.4723 21.7316 16.3974 21.7915 16.3974ZM30.3409 23.5895C31.05 23.5895 31.1549 23.7487 31.3397 24.039C31.5244 24.3293 31.6193 24.8678 31.6193 25.2751C31.6193 25.5748 31.3497 26.2725 30.7005 27.0357C30.1362 27.7006 29.2772 28.3889 28.3434 29.0585C28.1187 28.5762 27.7841 28.225 27.7841 27.4103C27.7841 26.0196 28.0987 25.0036 28.5431 24.4136C28.9876 23.8236 29.487 23.5895 30.3409 23.5895ZM15 40.3711V42.7684H45.6818V40.3711H15Z" fill="white"/>
</svg>
