<svg width="96" height="96" viewBox="0 0 96 96" fill="none" xmlns="http://www.w3.org/2000/svg">
<circle cx="48" cy="48" r="48" fill="#0090E3"/>
<path fill-rule="evenodd" clip-rule="evenodd" d="M58.3007 71.7238C59.6817 72.67 61.435 73.6792 63.4912 74.4589C67.477 75.9701 70.4545 76.0582 71.8311 75.9803C74.9022 75.8062 75.3154 73.8594 73.6684 71.4438C71.7878 68.6855 69.9759 65.5683 70.155 62.1184C72.9768 57.946 74.625 52.9121 74.625 47.5C74.625 33.0716 62.9284 21.375 48.5 21.375C34.0716 21.375 22.375 33.0716 22.375 47.5C22.375 61.9284 34.0716 73.625 48.5 73.625C51.9623 73.625 55.2718 72.9503 58.3007 71.7238ZM48.5 26.125C36.6949 26.125 27.125 35.6949 27.125 47.5C27.125 59.3052 36.6949 68.875 48.5 68.875C51.753 68.875 54.8303 68.1499 57.5844 66.8548C58.3883 66.4767 59.3362 66.5788 60.0411 67.1199C61.2832 68.0732 63.0443 69.2092 65.1754 70.0174C66.1014 70.3684 66.9476 70.6221 67.7033 70.8042C66.9138 69.3621 66.1147 67.6443 65.7463 66.0276C65.3668 64.362 64.7977 61.4607 65.904 59.9122C68.4044 56.4136 69.875 52.132 69.875 47.5C69.875 35.6949 60.3052 26.125 48.5 26.125ZM43.75 45.125C43.75 43.8133 44.8133 42.75 46.125 42.75H48.5C49.8117 42.75 50.875 43.8133 50.875 45.125V59.375C50.875 60.6867 49.8117 61.75 48.5 61.75C47.1883 61.75 46.125 60.6867 46.125 59.375V47.5C44.8133 47.5 43.75 46.4367 43.75 45.125ZM48.5 39.1875C50.1397 39.1875 51.4688 37.8584 51.4688 36.2188C51.4688 34.5791 50.1397 33.25 48.5 33.25C46.8603 33.25 45.5312 34.5791 45.5312 36.2188C45.5312 37.8584 46.8603 39.1875 48.5 39.1875Z" fill="white"/>
</svg>
