<svg width="96" height="96" viewBox="0 0 96 96" fill="none" xmlns="http://www.w3.org/2000/svg">
<circle cx="48" cy="48" r="48" fill="#0090E3"/>
<path fill-rule="evenodd" clip-rule="evenodd" d="M48.4592 33.0491C43.0662 33.0491 38.6943 37.5431 38.6943 43.0868C38.6943 48.6303 43.0662 53.1245 48.4592 53.1245C53.852 53.1245 58.224 48.6303 58.224 43.0868C58.224 37.5431 53.852 33.0491 48.4592 33.0491ZM48.4592 38.0679C45.7626 38.0679 43.5768 40.3149 43.5768 43.0868C43.5768 45.8587 45.7626 48.1056 48.4592 48.1056C51.1557 48.1056 53.3416 45.8587 53.3416 43.0868C53.3416 40.3149 51.1557 38.0679 48.4592 38.0679Z" fill="white"/>
<path fill-rule="evenodd" clip-rule="evenodd" d="M46.1885 76.1642C46.4775 76.371 46.7075 76.5304 46.8685 76.6401L47.1333 76.818C47.9433 77.3465 48.9734 77.3475 49.7834 76.8191L50.05 76.6401C50.2107 76.5304 50.4407 76.371 50.7297 76.1642C51.3077 75.7504 52.1237 75.1455 53.0984 74.3653C55.0436 72.8083 57.6426 70.5373 60.2494 67.6802C65.3925 62.0432 70.9182 53.7376 70.9182 43.8791C70.9182 37.5646 68.5652 31.4973 64.3599 27.0148C60.1526 22.5304 54.434 20 48.4591 20C42.4843 20 36.7658 22.5304 32.5584 27.0148C28.3529 31.4973 26 37.5646 26 43.8791C26 53.7376 31.5258 62.0432 36.6688 67.6802C39.2757 70.5373 41.8745 72.8083 43.8198 74.3653C44.7945 75.1455 45.6105 75.7504 46.1885 76.1642ZM48.4591 25.2014C43.8445 25.2014 39.4074 27.1547 36.1269 30.6512C32.8446 34.1497 30.9909 38.9069 30.9909 43.8791C30.9909 51.7304 35.4469 58.7926 40.2857 64.0959C42.6698 66.7091 45.0618 68.8011 46.8598 70.2401C47.4724 70.7306 48.0137 71.143 48.4591 71.4725C48.9045 71.143 49.4458 70.7306 50.0584 70.2401C51.8564 68.8011 54.2483 66.7091 56.6325 64.0959C61.4712 58.7926 65.9273 51.7304 65.9273 43.8791C65.9273 38.9069 64.0737 34.1497 60.7911 30.6512C57.5109 27.1547 53.0737 25.2014 48.4591 25.2014Z" fill="white"/>
</svg>
