<svg width="96" height="96" viewBox="0 0 96 96" fill="none" xmlns="http://www.w3.org/2000/svg">
<circle cx="48" cy="48" r="48" fill="#0090E3"/>
<path fill-rule="evenodd" clip-rule="evenodd" d="M25 39.1331C25 35.1936 28.0867 32 31.8944 32H64.0684C67.8762 32 70.9628 35.1936 70.9628 39.1331V58.1547C70.9628 62.0943 67.8762 65.2878 64.0684 65.2878H31.8944C28.0868 65.2878 25 62.0943 25 58.1547V39.1331ZM33.9324 36.7554L46.7634 45.0524C46.7634 45.0524 46.7634 45.0524 46.7634 45.0524C47.5085 45.5342 48.4543 45.5342 49.1995 45.0524L62.0304 36.7554H33.9324ZM66.3665 39.5593L51.6355 49.085L51.6354 49.085C49.3999 50.5305 46.5629 50.5305 44.3274 49.085L44.3274 49.085L29.5963 39.5593V58.1547C29.5963 59.4679 30.6252 60.5324 31.8944 60.5324H64.0684C65.3377 60.5324 66.3665 59.468 66.3665 58.1547V39.5593Z" fill="white"/>
</svg>
