<svg width="96" height="96" viewBox="0 0 96 96" fill="none" xmlns="http://www.w3.org/2000/svg">
<circle cx="48" cy="48" r="48" fill="#0090E3"/>
<g clip-path="url(#clip0_760_2614)">
<path d="M53.1383 68.6969C52.4985 69.1924 51.8182 69.7142 51.2402 70.2316H56.1242C56.6898 70.2316 57.2323 70.4625 57.6323 70.8737C58.0322 71.2848 58.2569 71.8424 58.2569 72.4239C58.2569 73.0053 58.0322 73.563 57.6323 73.9741C57.2323 74.3853 56.6898 74.6162 56.1242 74.6162H47.5932C47.0276 74.6162 46.4851 74.3853 46.0851 73.9741C45.6852 73.563 45.4605 73.0053 45.4605 72.4239C45.4605 69.1354 48.1797 67.0395 50.5791 65.1892C52.1786 63.9571 53.9914 62.5583 53.9914 61.4622C53.9914 60.8807 53.7667 60.3231 53.3668 59.912C52.9668 59.5008 52.4243 59.2698 51.8587 59.2698C51.2931 59.2698 50.7506 59.5008 50.3506 59.912C49.9507 60.3231 49.726 60.8807 49.726 61.4622C49.726 62.0436 49.5013 62.6013 49.1013 63.0124C48.7013 63.4235 48.1588 63.6545 47.5932 63.6545C47.0276 63.6545 46.4851 63.4235 46.0851 63.0124C45.6852 62.6013 45.4605 62.0436 45.4605 61.4622C45.4605 59.7178 46.1346 58.0449 47.3345 56.8115C48.5344 55.5781 50.1618 54.8851 51.8587 54.8851C53.5556 54.8851 55.183 55.5781 56.3829 56.8115C57.5828 58.0449 58.2569 59.7178 58.2569 61.4622C58.2569 64.7507 55.5377 66.8466 53.1383 68.6969ZM71.0534 54.8851C70.4878 54.8851 69.9453 55.1161 69.5453 55.5273C69.1454 55.9384 68.9207 56.496 68.9207 57.0775V63.6545H66.7879C66.2223 63.6545 65.6798 63.4235 65.2798 63.0124C64.8799 62.6013 64.6552 62.0436 64.6552 61.4622V57.0775C64.6552 56.496 64.4305 55.9384 64.0305 55.5273C63.6305 55.1161 63.0881 54.8851 62.5224 54.8851C61.9568 54.8851 61.4143 55.1161 61.0143 55.5273C60.6144 55.9384 60.3897 56.496 60.3897 57.0775V61.4622C60.3897 63.2065 61.0638 64.8794 62.2637 66.1128C63.4636 67.3463 65.091 68.0392 66.7879 68.0392H68.9207V72.4239C68.9207 73.0053 69.1454 73.563 69.5453 73.9741C69.9453 74.3853 70.4878 74.6162 71.0534 74.6162C71.619 74.6162 72.1615 74.3853 72.5615 73.9741C72.9614 73.563 73.1861 73.0053 73.1861 72.4239V57.0775C73.1861 56.496 72.9614 55.9384 72.5615 55.5273C72.1615 55.1161 71.619 54.8851 71.0534 54.8851ZM49.726 48.3081V37.3464C49.726 36.765 49.5013 36.2073 49.1013 35.7962C48.7013 35.385 48.1588 35.1541 47.5932 35.1541C47.0276 35.1541 46.4851 35.385 46.0851 35.7962C45.6852 36.2073 45.4605 36.765 45.4605 37.3464V46.1158H39.0622C38.4966 46.1158 37.9541 46.3468 37.5542 46.7579C37.1542 47.169 36.9295 47.7267 36.9295 48.3081C36.9295 48.8896 37.1542 49.4472 37.5542 49.8583C37.9541 50.2695 38.4966 50.5005 39.0622 50.5005H47.5932C48.1588 50.5005 48.7013 50.2695 49.1013 49.8583C49.5013 49.4472 49.726 48.8896 49.726 48.3081ZM71.0534 26.3847C70.4878 26.3847 69.9453 26.6157 69.5453 27.0268C69.1454 27.438 68.9207 27.9956 68.9207 28.577V33.7817C66.6985 30.3344 63.717 27.4741 60.2182 25.433C56.7193 23.3919 52.8017 22.2274 48.7831 22.034C44.7645 21.8407 40.7581 22.6238 37.0891 24.32C33.42 26.0162 30.1917 28.5777 27.666 31.7965C25.1402 35.0153 23.3882 38.8009 22.5522 42.846C21.7161 46.8912 21.8195 51.0819 22.854 55.0783C23.8885 59.0747 25.8249 62.7641 28.5062 65.8471C31.1874 68.9302 34.5379 71.3201 38.2859 72.8229C38.5336 72.9211 38.7968 72.9716 39.0622 72.972C39.5599 72.9728 40.0422 72.7946 40.4256 72.4684C40.809 72.1421 41.0693 71.6883 41.1614 71.1856C41.2535 70.6828 41.1717 70.1627 40.9302 69.7154C40.6886 69.2682 40.3024 68.9218 39.8386 68.7364C36.6565 67.4716 33.8161 65.4405 31.5558 62.8138C29.2954 60.187 27.6811 57.0412 26.8482 53.6403C26.0154 50.2395 25.9884 46.6829 26.7695 43.2691C27.5505 39.8553 29.1169 36.6839 31.3371 34.0212C33.5573 31.3585 36.3665 29.2821 39.5289 27.9664C42.6913 26.6507 46.1146 26.134 49.5115 26.4598C52.9083 26.7855 56.1796 27.9442 59.0507 29.8385C61.9218 31.7328 64.3089 34.3075 66.0116 37.3464H60.3897C59.824 37.3464 59.2816 37.5774 58.8816 37.9885C58.4816 38.3997 58.2569 38.9573 58.2569 39.5387C58.2569 40.1202 58.4816 40.6778 58.8816 41.089C59.2816 41.5001 59.824 41.7311 60.3897 41.7311H66.7879C68.4848 41.7311 70.1122 41.0382 71.3121 39.8047C72.512 38.5713 73.1861 36.8984 73.1861 35.1541V28.577C73.1861 27.9956 72.9614 27.438 72.5615 27.0268C72.1615 26.6157 71.619 26.3847 71.0534 26.3847Z" fill="white"/>
</g>
<defs>
<clipPath id="clip0_760_2614">
<rect width="51.1859" height="52.6162" fill="white" transform="translate(22 22)"/>
</clipPath>
</defs>
</svg>
