<svg width="23" height="27" viewBox="0 0 23 27" fill="none" xmlns="http://www.w3.org/2000/svg">
<path d="M3.65465 24.5748C4.79053 25.5263 6.13575 26.1952 7.58003 26.5265C7.71824 26.5717 7.81124 26.3909 7.71824 26.3004C4.6247 23.349 6.32453 20.1547 7.58003 18.7145C8.47515 17.6863 9.75003 15.9929 9.65703 13.7222C9.65703 13.4949 9.88953 13.3127 10.0729 13.4497C11.8283 14.3577 13.0283 16.3559 13.3512 17.9899C13.8601 17.4913 14.0448 16.7189 14.0448 16.0382C14.0448 15.8108 14.3212 15.6287 14.5524 15.8108C16.2148 17.3092 19.0772 22.3944 14.4594 26.3896C14.3677 26.4813 14.4594 26.6634 14.5524 26.6182C15.9526 26.2511 17.2694 25.6188 18.4313 24.7556C25.9579 18.9431 21.0624 8.63561 17.8759 5.23078C17.4613 4.82132 16.7224 5.09386 16.7224 5.68415C16.6759 6.91124 16.3065 8.27266 15.3378 9.1807C14.5989 6.09361 12.137 2.58674 8.62757 0.861072C8.16645 0.633738 7.61232 0.996697 7.65882 1.49657C7.74924 5.72032 4.99411 8.40957 2.5929 11.9061C0.468112 15.0384 -0.916554 20.8057 3.65465 24.5748Z" fill="#D6D6EE"/>
</svg>
