<svg width="20" height="17" viewBox="0 0 20 17" fill="none" xmlns="http://www.w3.org/2000/svg">
<path d="M17.9441 4.72472C17.9568 4.90237 17.9568 5.08007 17.9568 5.25772C17.9568 10.6765 13.8325 16.9201 6.29441 16.9201C3.97207 16.9201 1.81473 16.2475 0 15.0801C0.329961 15.1181 0.647187 15.1308 0.989844 15.1308C2.90605 15.1308 4.67004 14.4836 6.07867 13.3796C4.27664 13.3415 2.76648 12.1613 2.24617 10.5369C2.5 10.575 2.75379 10.6003 3.02031 10.6003C3.38832 10.6003 3.75637 10.5496 4.09898 10.4608C2.22082 10.08 0.812148 8.4303 0.812148 6.43792V6.38718C1.35781 6.69175 1.99238 6.8821 2.66492 6.90745C1.56086 6.1714 0.837539 4.91507 0.837539 3.49374C0.837539 2.73233 1.04055 2.03437 1.3959 1.42522C3.41367 3.91253 6.44668 5.53687 9.84766 5.71456C9.78422 5.40999 9.74613 5.09276 9.74613 4.7755C9.74613 2.51659 11.5736 0.676514 13.8451 0.676514C15.0253 0.676514 16.0913 1.17144 16.84 1.97093C17.7664 1.79327 18.6547 1.45062 19.4416 0.981084C19.137 1.93288 18.4898 2.73237 17.6395 3.23995C18.4644 3.15116 19.2639 2.92269 19.9999 2.60546C19.4416 3.41761 18.7436 4.14093 17.9441 4.72472Z" fill="white"/>
</svg>
