<svg width="1749" height="465" viewBox="0 0 1749 465" fill="none" xmlns="http://www.w3.org/2000/svg">
<path opacity="0.1" d="M1573.5 76.4999L1571.83 74.0091L1573.5 76.4999ZM196.528 129.047C198.159 129.338 199.245 130.897 198.953 132.528L194.203 159.107C193.911 160.738 192.353 161.824 190.722 161.532C189.091 161.24 188.005 159.682 188.296 158.051L192.519 134.425L168.893 130.203C167.262 129.911 166.177 128.353 166.468 126.722C166.76 125.091 168.318 124.005 169.949 124.296L196.528 129.047ZM2549.35 381.535C2548.1 380.454 2547.96 378.559 2549.04 377.304C2550.12 376.048 2552.01 375.907 2553.27 376.988L2549.35 381.535ZM2538.56 364.116C2539.8 365.211 2539.92 367.107 2538.82 368.35C2537.73 369.594 2535.83 369.714 2534.59 368.619L2538.56 364.116ZM2519.66 355.49C2518.41 354.398 2518.29 352.502 2519.38 351.256C2520.47 350.01 2522.36 349.885 2523.61 350.977L2519.66 355.49ZM2508.65 337.944C2509.91 339.028 2510.04 340.923 2508.96 342.176C2507.87 343.428 2505.98 343.564 2504.73 342.479L2508.65 337.944ZM2489.7 329.562C2488.44 328.487 2488.29 326.593 2489.37 325.333C2490.44 324.073 2492.34 323.923 2493.6 324.999L2489.7 329.562ZM2478.36 312.098C2479.63 313.163 2479.8 315.056 2478.73 316.324C2477.67 317.593 2475.77 317.758 2474.5 316.692L2478.36 312.098ZM2459.18 303.929C2457.9 302.874 2457.72 300.983 2458.78 299.706C2459.83 298.428 2461.72 298.248 2463 299.302L2459.18 303.929ZM2447.79 286.856C2449.08 287.9 2449.28 289.789 2448.23 291.076C2447.19 292.362 2445.3 292.559 2444.01 291.515L2447.79 286.856ZM2428.53 279.069C2427.24 278.037 2427.02 276.15 2428.06 274.854C2429.09 273.558 2430.98 273.344 2432.27 274.376L2428.53 279.069ZM2416.62 262.028C2417.93 263.049 2418.16 264.934 2417.14 266.239C2416.12 267.545 2414.23 267.776 2412.93 266.756L2416.62 262.028ZM2397.36 254.715C2396.05 253.707 2395.8 251.824 2396.81 250.509C2397.81 249.194 2399.7 248.944 2401.01 249.952L2397.36 254.715ZM2385.05 237.851C2386.38 238.845 2386.65 240.726 2385.65 242.051C2384.66 243.376 2382.78 243.644 2381.45 242.65L2385.05 237.851ZM2365.67 230.934C2364.34 229.953 2364.05 228.075 2365.03 226.74C2366.01 225.405 2367.89 225.118 2369.23 226.099L2365.67 230.934ZM2353.1 214.377C2354.44 215.344 2354.75 217.218 2353.78 218.564C2352.82 219.909 2350.94 220.216 2349.6 219.249L2353.1 214.377ZM2333.5 207.812C2332.14 206.859 2331.82 204.988 2332.77 203.632C2333.72 202.277 2335.59 201.95 2336.95 202.902L2333.5 207.812ZM2320.61 191.561C2321.98 192.498 2322.32 194.366 2321.39 195.732C2320.45 197.098 2318.58 197.446 2317.22 196.509L2320.61 191.561ZM2300.83 185.413C2299.46 184.491 2299.09 182.628 2300.01 181.251C2300.93 179.874 2302.79 179.504 2304.17 180.425L2300.83 185.413ZM2287.59 169.478C2288.98 170.383 2289.37 172.241 2288.47 173.63C2287.56 175.018 2285.7 175.41 2284.32 174.505L2287.59 169.478ZM2267.66 163.798C2266.26 162.911 2265.85 161.057 2266.74 159.658C2267.62 158.259 2269.48 157.844 2270.88 158.731L2267.66 163.798ZM2254.03 148.201C2255.44 149.07 2255.88 150.918 2255.01 152.329C2254.14 153.74 2252.3 154.178 2250.89 153.309L2254.03 148.201ZM2233.97 143.038C2232.54 142.188 2232.08 140.345 2232.93 138.923C2233.78 137.501 2235.62 137.038 2237.05 137.888L2233.97 143.038ZM2219.92 127.809C2221.35 128.64 2221.84 130.475 2221.01 131.909C2220.18 133.343 2218.35 133.832 2216.91 133.002L2219.92 127.809ZM2199.72 123.21C2198.28 122.401 2197.76 120.573 2198.57 119.127C2199.38 117.681 2201.21 117.166 2202.65 117.975L2199.72 123.21ZM2185.24 108.393C2186.69 109.181 2187.24 111.001 2186.45 112.459C2185.66 113.916 2183.84 114.46 2182.38 113.672L2185.24 108.393ZM2164.91 104.41C2163.44 103.645 2162.87 101.834 2163.64 100.364C2164.4 98.894 2166.21 98.322 2167.68 99.0865L2164.91 104.41ZM2149.96 90.0558C2151.45 90.7959 2152.05 92.5976 2151.31 94.0799C2150.57 95.5623 2148.77 96.164 2147.28 95.4239L2149.96 90.0558ZM2129.52 86.7454C2128.03 86.031 2127.4 84.2399 2128.11 82.745C2128.82 81.2501 2130.62 80.6175 2132.11 81.3319L2129.52 86.7454ZM2114.09 72.9162C2115.6 73.6035 2116.26 75.3828 2115.57 76.8904C2114.89 78.398 2113.11 79.0629 2111.6 78.3755L2114.09 72.9162ZM2093.54 70.3451C2092.02 69.6864 2091.32 67.9199 2091.98 66.3997C2092.64 64.8794 2094.4 64.1809 2095.92 64.8397L2093.54 70.3451ZM2077.6 57.1123C2079.13 57.7407 2079.86 59.4929 2079.24 61.026C2078.61 62.559 2076.86 63.2924 2075.32 62.6639L2077.6 57.1123ZM2056.96 55.3565C2055.41 54.7601 2054.64 53.0236 2055.24 51.4778C2055.83 49.932 2057.57 49.1623 2059.12 49.7586L2056.96 55.3565ZM2040.49 42.8032C2042.05 43.3656 2042.85 45.0849 2042.29 46.6434C2041.73 48.2019 2040.01 49.0094 2038.45 48.447L2040.49 42.8032ZM2019.78 41.9499C2018.21 41.4236 2017.36 39.7233 2017.89 38.1523C2018.42 36.5813 2020.12 35.7344 2021.69 36.2607L2019.78 41.9499ZM2002.76 30.1722C2004.35 30.6604 2005.24 32.3397 2004.75 33.923C2004.26 35.5063 2002.58 36.394 2001 35.9059L2002.76 30.1722ZM1982.03 30.3202C1980.44 29.8725 1979.51 28.2165 1979.95 26.6212C1980.4 25.026 1982.06 24.0956 1983.65 24.5433L1982.03 30.3202ZM1964.45 19.4286C1966.05 19.8333 1967.03 21.4639 1966.62 23.0705C1966.22 24.6772 1964.59 25.6516 1962.98 25.2469L1964.45 19.4286ZM1943.74 20.6875C1942.13 20.3285 1941.11 18.7262 1941.47 17.1087C1941.82 15.4912 1943.43 14.4711 1945.04 14.8301L1943.74 20.6875ZM1925.58 10.8092C1927.21 11.12 1928.27 12.6913 1927.96 14.3187C1927.65 15.9462 1926.08 17.0135 1924.45 16.7027L1925.58 10.8092ZM1904.98 13.2971C1903.35 13.0374 1902.23 11.5004 1902.49 9.86402C1902.75 8.22763 1904.29 7.11155 1905.92 7.37118L1904.98 13.2971ZM1886.23 4.57537C1887.88 4.78107 1889.04 6.28058 1888.84 7.92462C1888.63 9.56865 1887.13 10.7347 1885.49 10.529L1886.23 4.57537ZM1865.86 8.41413C1864.2 8.26548 1862.99 6.80725 1863.14 5.15707C1863.28 3.5069 1864.74 2.28968 1866.39 2.43833L1865.86 8.41413ZM1846.54 1.00894C1848.19 1.09775 1849.46 2.51096 1849.37 4.16543C1849.29 5.8199 1847.87 7.08912 1846.22 7.00031L1846.54 1.00894ZM1826.5 6.31431C1824.85 6.28836 1823.53 4.92435 1823.55 3.2677C1823.58 1.61105 1824.94 0.289099 1826.6 0.315046L1826.5 6.31431ZM1806.67 0.394387C1808.33 0.354804 1809.7 1.66548 1809.74 3.32186C1809.78 4.97824 1808.47 6.35309 1806.82 6.39267L1806.67 0.394387ZM1787.14 7.26596C1785.48 7.37368 1784.06 6.1207 1783.95 4.46735C1783.84 2.81401 1785.09 1.38638 1786.75 1.27866L1787.14 7.26596ZM1766.87 2.998C1768.51 2.81985 1769.99 4.0108 1770.17 5.65805C1770.35 7.3053 1769.16 8.78507 1767.51 8.96321L1766.87 2.998ZM1748.01 11.5048C1746.37 11.7552 1744.84 10.6304 1744.59 8.99256C1744.34 7.35473 1745.47 5.82406 1747.1 5.57371L1748.01 11.5048ZM1727.42 9.03742C1729.05 8.71326 1730.63 9.76767 1730.95 11.3925C1731.28 13.0173 1730.22 14.5973 1728.6 14.9215L1727.42 9.03742ZM1709.44 19.2029C1707.83 19.6014 1706.2 18.6208 1705.8 17.0126C1705.41 15.4044 1706.39 13.7776 1707.99 13.379L1709.44 19.2029ZM1688.69 18.6467C1690.27 18.1731 1691.95 19.0763 1692.42 20.6641C1692.89 22.2518 1691.99 23.9228 1690.4 24.3964L1688.69 18.6467ZM1671.76 30.4381C1670.19 30.9858 1668.48 30.1622 1667.93 28.5985C1667.39 27.0348 1668.21 25.3232 1669.77 24.7755L1671.76 30.4381ZM1651.03 31.8454C1652.56 31.224 1654.31 31.9654 1654.94 33.5013C1655.56 35.0373 1654.82 36.7861 1653.28 37.4075L1651.03 31.8454ZM1635.31 45.1749C1633.8 45.8676 1632.02 45.2091 1631.33 43.704C1630.63 42.1989 1631.29 40.4172 1632.8 39.7245L1635.31 45.1749ZM1614.8 48.5244C1616.27 47.7619 1618.08 48.3363 1618.85 49.8073C1619.61 51.2783 1619.03 53.0888 1617.56 53.8513L1614.8 48.5244ZM1600.38 63.2642C1598.95 64.093 1597.11 63.602 1596.28 62.1674C1595.45 60.7327 1595.94 58.8978 1597.38 58.0689L1600.38 63.2642ZM1580.3 68.4567C1581.7 67.5642 1583.55 67.9722 1584.44 69.3681C1585.34 70.764 1584.93 72.6192 1583.53 73.5117L1580.3 68.4567ZM1566.98 84.45C1565.6 85.3642 1563.74 84.9851 1562.82 83.6032C1561.91 82.2214 1562.29 80.3601 1563.67 79.446L1566.98 84.45ZM1547.15 90.2146C1548.55 89.3188 1550.4 89.7225 1551.3 91.1164C1552.2 92.5102 1551.79 94.3663 1550.4 95.2621L1547.15 90.2146ZM1533.56 105.931C1532.15 106.809 1530.3 106.381 1529.42 104.976C1528.55 103.571 1528.97 101.72 1530.38 100.842L1533.56 105.931ZM1513.35 111.329C1514.77 110.469 1516.62 110.92 1517.48 112.336C1518.34 113.752 1517.88 115.597 1516.47 116.457L1513.35 111.329ZM1499.39 126.693C1497.96 127.536 1496.12 127.063 1495.28 125.637C1494.43 124.211 1494.91 122.371 1496.33 121.528L1499.39 126.693ZM1479.28 131.478C1480.71 130.652 1482.55 131.145 1483.37 132.581C1484.2 134.017 1483.71 135.851 1482.27 136.678L1479.28 131.478ZM1464.94 146.526C1463.5 147.336 1461.67 146.822 1460.86 145.377C1460.05 143.932 1460.56 142.103 1462.01 141.293L1464.94 146.526ZM1444.53 150.97C1445.98 150.175 1447.81 150.709 1448.6 152.163C1449.4 153.617 1448.86 155.44 1447.41 156.235L1444.53 150.97ZM1429.88 165.699C1428.41 166.479 1426.6 165.925 1425.82 164.463C1425.04 163.001 1425.59 161.184 1427.05 160.404L1429.88 165.699ZM1409.56 169.613C1411.03 168.849 1412.84 169.421 1413.61 170.891C1414.37 172.361 1413.8 174.172 1412.33 174.937L1409.56 169.613ZM1394.61 184.04C1393.14 184.79 1391.33 184.2 1390.58 182.722C1389.83 181.245 1390.42 179.439 1391.9 178.69L1394.61 184.04ZM1374.07 187.632C1375.55 186.896 1377.35 187.504 1378.09 188.988C1378.82 190.473 1378.21 192.273 1376.73 193.008L1374.07 187.632ZM1358.81 201.782C1357.32 202.504 1355.52 201.879 1354.8 200.388C1354.08 198.896 1354.7 197.102 1356.2 196.381L1358.81 201.782ZM1338.35 204.914C1339.85 204.206 1341.64 204.847 1342.34 206.345C1343.05 207.843 1342.41 209.631 1340.91 210.339L1338.35 204.914ZM1322.88 218.764C1321.37 219.459 1319.59 218.802 1318.9 217.298C1318.2 215.794 1318.86 214.011 1320.36 213.317L1322.88 218.764ZM1302.24 221.588C1303.75 220.907 1305.53 221.579 1306.21 223.089C1306.89 224.599 1306.22 226.376 1304.71 227.057L1302.24 221.588ZM1286.46 235.196C1284.95 235.864 1283.18 235.177 1282.51 233.661C1281.84 232.145 1282.53 230.374 1284.04 229.706L1286.46 235.196ZM1265.89 237.619C1267.41 236.963 1269.18 237.665 1269.83 239.186C1270.49 240.708 1269.79 242.473 1268.27 243.129L1265.89 237.619ZM1249.96 250.931C1248.44 251.574 1246.68 250.858 1246.03 249.332C1245.39 247.805 1246.11 246.045 1247.63 245.402L1249.96 250.931ZM1229.27 253.055C1230.8 252.424 1232.55 253.154 1233.19 254.686C1233.82 256.218 1233.09 257.971 1231.55 258.602L1229.27 253.055ZM1213.05 266.142C1211.51 266.761 1209.77 266.018 1209.15 264.481C1208.53 262.944 1209.27 261.196 1210.81 260.577L1213.05 266.142ZM1192.39 267.916C1193.93 267.308 1195.67 268.066 1196.28 269.607C1196.89 271.149 1196.13 272.891 1194.59 273.498L1192.39 267.916ZM1176.05 280.723C1174.5 281.318 1172.77 280.548 1172.17 279.002C1171.57 277.456 1172.34 275.72 1173.89 275.124L1176.05 280.723ZM1155.32 282.202C1156.87 281.617 1158.6 282.401 1159.18 283.951C1159.77 285.502 1158.98 287.232 1157.43 287.816L1155.32 282.202ZM1138.75 294.778C1137.19 295.351 1135.47 294.555 1134.89 293.001C1134.32 291.446 1135.12 289.721 1136.67 289.148L1138.75 294.778ZM1118 295.952C1119.56 295.391 1121.28 296.199 1121.84 297.758C1122.4 299.316 1121.59 301.035 1120.03 301.597L1118 295.952ZM1101.28 308.279C1099.71 308.83 1098 308.009 1097.45 306.446C1096.9 304.884 1097.72 303.17 1099.28 302.62L1101.28 308.279ZM1080.52 309.156C1082.08 308.617 1083.79 309.449 1084.33 311.016C1084.87 312.582 1084.04 314.29 1082.47 314.829L1080.52 309.156ZM1063.62 321.246C1062.05 321.775 1060.35 320.93 1059.82 319.36C1059.29 317.79 1060.14 316.088 1061.71 315.56L1063.62 321.246ZM1042.84 321.838C1044.42 321.32 1046.11 322.176 1046.63 323.75C1047.15 325.324 1046.29 327.019 1044.72 327.537L1042.84 321.838ZM1025.76 333.703C1024.18 334.21 1022.49 333.342 1021.99 331.765C1021.48 330.188 1022.35 328.498 1023.92 327.991L1025.76 333.703ZM1004.98 334.01C1006.56 333.513 1008.25 334.392 1008.74 335.973C1009.24 337.554 1008.36 339.238 1006.78 339.734L1004.98 334.01ZM987.781 345.63C986.197 346.115 984.519 345.225 984.033 343.641C983.548 342.057 984.438 340.379 986.022 339.893L987.781 345.63ZM967.028 345.649C968.616 345.174 970.287 346.075 970.763 347.663C971.238 349.25 970.337 350.922 968.749 351.397L967.028 345.649ZM949.594 357.063C948.003 357.528 946.337 356.616 945.873 355.025C945.408 353.435 946.32 351.769 947.911 351.304L949.594 357.063ZM928.797 356.821C930.391 356.367 932.051 357.29 932.505 358.883C932.959 360.477 932.036 362.137 930.442 362.591L928.797 356.821ZM911.302 367.979C909.706 368.423 908.052 367.488 907.608 365.892C907.165 364.296 908.099 362.642 909.695 362.198L911.302 367.979ZM890.611 367.436C892.21 367.003 893.858 367.948 894.291 369.547C894.725 371.146 893.78 372.794 892.18 373.227L890.611 367.436ZM872.847 378.397C871.245 378.82 869.604 377.864 869.181 376.262C868.759 374.66 869.714 373.018 871.317 372.596L872.847 378.397ZM852.039 377.615C853.644 377.203 855.279 378.17 855.691 379.775C856.103 381.379 855.136 383.014 853.532 383.427L852.039 377.615ZM834.256 388.311C832.648 388.713 831.02 387.735 830.618 386.128C830.216 384.52 831.194 382.892 832.801 382.49L834.256 388.311ZM813.61 387.219C815.22 386.828 816.842 387.816 817.233 389.426C817.624 391.036 816.636 392.659 815.026 393.05L813.61 387.219ZM795.576 397.707C793.964 398.088 792.348 397.089 791.967 395.476C791.587 393.864 792.586 392.248 794.198 391.867L795.576 397.707ZM774.763 396.385C776.378 396.015 777.987 397.025 778.357 398.64C778.726 400.255 777.717 401.864 776.102 402.233L774.763 396.385ZM756.698 406.607C755.08 406.966 753.478 405.946 753.119 404.328C752.76 402.711 753.781 401.108 755.398 400.749L756.698 406.607ZM736.112 404.961C737.732 404.613 739.327 405.644 739.675 407.264C740.023 408.884 738.992 410.479 737.372 410.827L736.112 404.961ZM717.817 414.959C716.195 415.296 714.607 414.254 714.27 412.632C713.933 411.009 714.975 409.421 716.597 409.084L717.817 414.959ZM697.015 413.081C698.639 412.755 700.22 413.808 700.546 415.433C700.871 417.057 699.818 418.638 698.194 418.964L697.015 413.081ZM678.677 422.806C677.05 423.121 675.476 422.057 675.162 420.43C674.848 418.803 675.912 417.23 677.538 416.915L678.677 422.806ZM658.176 420.586C659.805 420.283 661.371 421.358 661.674 422.987C661.977 424.616 660.902 426.182 659.273 426.485L658.176 420.586ZM639.594 430.071C637.963 430.362 636.404 429.276 636.113 427.645C635.822 426.014 636.909 424.455 638.54 424.164L639.594 430.071ZM618.831 427.607C620.464 427.328 622.014 428.425 622.293 430.059C622.572 431.692 621.474 433.242 619.841 433.521L618.831 427.607ZM600.236 436.795C598.6 437.062 597.059 435.953 596.792 434.317C596.525 432.682 597.634 431.14 599.27 430.873L600.236 436.795ZM579.865 433.964C581.502 433.71 583.036 434.831 583.29 436.468C583.544 438.105 582.423 439.638 580.786 439.893L579.865 433.964ZM560.922 442.899C559.283 443.14 557.759 442.007 557.517 440.368C557.276 438.729 558.409 437.204 560.048 436.963L560.922 442.899ZM540.251 439.796C541.892 439.568 543.407 440.714 543.635 442.355C543.863 443.996 542.718 445.511 541.077 445.739L540.251 439.796ZM521.428 448.387C519.785 448.601 518.28 447.443 518.065 445.8C517.851 444.158 519.009 442.652 520.652 442.437L521.428 448.387ZM501.224 444.89C502.869 444.689 504.365 445.86 504.565 447.505C504.766 449.15 503.595 450.645 501.95 450.846L501.224 444.89ZM481.828 453.207C480.182 453.393 478.697 452.209 478.511 450.562C478.325 448.916 479.509 447.431 481.156 447.245L481.828 453.207ZM461.338 449.387C462.987 449.217 464.461 450.415 464.631 452.063C464.801 453.711 463.603 455.185 461.955 455.355L461.338 449.387ZM442.343 457.289C440.694 457.443 439.231 456.231 439.076 454.582C438.922 452.932 440.134 451.47 441.783 451.315L442.343 457.289ZM421.992 453.071C423.643 452.933 425.093 454.159 425.231 455.81C425.369 457.461 424.143 458.912 422.491 459.05L421.992 453.071ZM402.381 460.624C400.728 460.744 399.291 459.502 399.17 457.85C399.05 456.197 400.292 454.76 401.945 454.64L402.381 460.624ZM382.229 455.967C383.883 455.865 385.307 457.123 385.409 458.776C385.511 460.43 384.253 461.853 382.599 461.956L382.229 455.967ZM363.035 463.051C361.381 463.133 359.972 461.859 359.889 460.204C359.806 458.55 361.08 457.141 362.735 457.058L363.035 463.051ZM342.472 457.945C344.128 457.883 345.521 459.175 345.582 460.831C345.644 462.487 344.352 463.879 342.696 463.941L342.472 457.945ZM322.778 464.552C321.122 464.592 319.747 463.281 319.707 461.625C319.667 459.969 320.978 458.594 322.635 458.554L322.778 464.552ZM303.238 458.884C304.895 458.867 306.251 460.197 306.268 461.854C306.284 463.511 304.954 464.867 303.298 464.883L303.238 458.884ZM282.891 464.926C281.234 464.916 279.899 463.564 279.909 461.908C279.919 460.251 281.27 458.916 282.927 458.926L282.891 464.926ZM263.066 458.641C264.722 458.679 266.034 460.052 265.996 461.709C265.958 463.365 264.585 464.677 262.928 464.639L263.066 458.641ZM243.533 464.022C241.878 463.954 240.591 462.557 240.659 460.902C240.727 459.246 242.124 457.959 243.779 458.027L243.533 464.022ZM223.384 456.979C225.037 457.082 226.294 458.506 226.192 460.159C226.089 461.813 224.665 463.07 223.011 462.967L223.384 456.979ZM203.212 461.512C201.562 461.372 200.337 459.919 200.478 458.268C200.619 456.617 202.071 455.393 203.722 455.534L203.212 461.512ZM184.19 453.621C185.837 453.804 187.023 455.288 186.84 456.934C186.657 458.581 185.174 459.767 183.527 459.584L184.19 453.621ZM163.336 457.034C161.696 456.801 160.555 455.282 160.788 453.642C161.021 452.001 162.54 450.861 164.18 451.094L163.336 457.034ZM145.186 448.073C146.818 448.362 147.906 449.918 147.618 451.55C147.329 453.182 145.773 454.27 144.141 453.982L145.186 448.073ZM123.951 449.98C122.333 449.622 121.312 448.021 121.67 446.403C122.028 444.785 123.629 443.764 125.247 444.121L123.951 449.98ZM106.452 439.493C108.05 439.931 108.991 441.58 108.554 443.179C108.117 444.777 106.467 445.718 104.869 445.281L106.452 439.493ZM85.3044 439.278C83.7375 438.74 82.9038 437.033 83.4424 435.466C83.9807 433.899 85.6875 433.066 87.2544 433.604L85.3044 439.278ZM69.3857 426.7C70.9053 427.36 71.6018 429.128 70.9414 430.647C70.2812 432.167 68.5139 432.863 66.9944 432.203L69.3857 426.7ZM48.4702 422.967C47.0332 422.142 46.5364 420.309 47.3611 418.872C48.1855 417.435 50.0188 416.938 51.4561 417.763L48.4702 422.967ZM35.5288 407.081C36.8286 408.109 37.0491 409.996 36.0212 411.295C34.9937 412.595 33.1069 412.815 31.8074 411.788L35.5288 407.081ZM17.1875 397.681C16.1279 396.407 16.3018 394.516 17.5754 393.456C18.8491 392.397 20.7407 392.57 21.8003 393.844L17.1875 397.681ZM11.6548 377.661C12.3237 379.176 11.6375 380.947 10.1218 381.617C8.6062 382.286 6.83496 381.6 6.16577 380.084L11.6548 377.661ZM0.812988 360.326C0.623535 358.68 1.8042 357.192 3.4502 357.002C5.09619 356.813 6.58423 357.993 6.77368 359.639L0.812988 360.326ZM7.19263 340.757C6.94873 342.396 5.42236 343.526 3.78345 343.282C2.14478 343.038 1.01416 341.512 1.25806 339.873L7.19263 340.757ZM6.53149 319.545C7.09741 317.987 8.81836 317.184 10.3757 317.75C11.9329 318.315 12.7366 320.036 12.1709 321.594L6.53149 319.545ZM19.7473 304.569C18.9797 306.037 17.1672 306.606 15.699 305.838C14.2305 305.071 13.6624 303.258 14.4297 301.79L19.7473 304.569ZM25.0122 283.975C25.9272 282.594 27.7886 282.216 29.1699 283.131C30.5513 284.046 30.9292 285.907 30.0142 287.289L25.0122 283.975ZM41.1013 271.863C40.0881 273.173 38.2039 273.415 36.8931 272.401C35.5823 271.388 35.3411 269.504 36.3542 268.193L41.1013 271.863ZM49.7668 251.942C50.8586 250.696 52.7542 250.571 54.0005 251.662C55.2466 252.754 55.3718 254.65 54.28 255.896L49.7668 251.942ZM66.9019 242.134C65.7561 243.331 63.8572 243.373 62.6602 242.227C61.4634 241.081 61.4219 239.182 62.5674 237.985L66.9019 242.134ZM76.929 223.574C78.1206 222.423 80.0198 222.455 81.1709 223.647C82.3223 224.838 82.2898 226.738 81.0981 227.889L76.929 223.574ZM95.7466 214.199C94.5186 215.311 92.6213 215.217 91.5093 213.989C90.3972 212.761 90.4912 210.864 91.7195 209.752L95.7466 214.199ZM106.154 197.031C107.411 195.951 109.305 196.095 110.385 197.352C111.464 198.609 111.32 200.503 110.063 201.583L106.154 197.031ZM125.526 188.631C124.243 189.68 122.353 189.49 121.304 188.208C120.255 186.925 120.445 185.035 121.727 183.986L125.526 188.631ZM137.815 171.116C139.12 170.095 141.005 170.324 142.027 171.629C143.048 172.933 142.819 174.819 141.515 175.84L137.815 171.116ZM156.496 164.32C155.174 165.319 153.293 165.057 152.294 163.735C151.295 162.413 151.557 160.532 152.879 159.533L156.496 164.32ZM168.795 147.713C170.133 146.736 172.01 147.028 172.987 148.366C173.964 149.704 173.672 151.581 172.334 152.558L168.795 147.713ZM189.037 140.554C187.685 141.511 185.812 141.19 184.856 139.837C183.899 138.485 184.219 136.612 185.572 135.656L189.037 140.554ZM2556.92 387.855C2554.95 386.3 2552.41 384.168 2549.35 381.535L2553.27 376.988C2556.31 379.609 2558.77 381.672 2560.64 383.145L2556.92 387.855ZM2534.59 368.619C2530.12 364.685 2525.14 360.292 2519.66 355.49L2523.61 350.977C2529.1 355.785 2534.09 360.184 2538.56 364.116L2534.59 368.619ZM2504.73 342.479C2499.98 338.372 2494.97 334.059 2489.7 329.562L2493.6 324.999C2498.88 329.505 2503.9 333.828 2508.65 337.944L2504.73 342.479ZM2474.5 316.692C2469.58 312.553 2464.47 308.293 2459.18 303.929L2463 299.302C2468.3 303.678 2473.42 307.948 2478.36 312.098L2474.5 316.692ZM2444.01 291.515C2438.99 287.437 2433.83 283.285 2428.53 279.069L2432.27 274.376C2437.58 278.603 2442.75 282.767 2447.79 286.856L2444.01 291.515ZM2412.93 266.756C2407.84 262.785 2402.65 258.768 2397.36 254.715L2401.01 249.952C2406.32 254.017 2411.52 258.045 2416.62 262.028L2412.93 266.756ZM2381.45 242.65C2376.28 238.768 2371.02 234.86 2365.67 230.934L2369.23 226.099C2374.59 230.037 2379.86 233.957 2385.05 237.851L2381.45 242.65ZM2349.6 219.249C2344.3 215.446 2338.94 211.631 2333.5 207.812L2336.95 202.902C2342.4 206.734 2347.79 210.561 2353.1 214.377L2349.6 219.249ZM2317.22 196.509C2311.82 192.808 2306.36 189.107 2300.83 185.413L2304.17 180.425C2309.71 184.133 2315.19 187.847 2320.61 191.561L2317.22 196.509ZM2284.32 174.505C2278.82 170.923 2273.27 167.353 2267.66 163.798L2270.88 158.731C2276.5 162.299 2282.07 165.883 2287.59 169.478L2284.32 174.505ZM2250.89 153.309C2245.29 149.863 2239.65 146.438 2233.97 143.038L2237.05 137.888C2242.76 141.302 2248.42 144.741 2254.03 148.201L2250.89 153.309ZM2216.91 133.002C2211.23 129.707 2205.49 126.442 2199.72 123.21L2202.65 117.975C2208.45 121.221 2214.21 124.501 2219.92 127.809L2216.91 133.002ZM2182.38 113.672C2176.6 110.546 2170.77 107.457 2164.91 104.41L2167.68 99.0865C2173.57 102.148 2179.42 105.252 2185.24 108.393L2182.38 113.672ZM2147.28 95.4239C2141.4 92.4839 2135.47 89.5896 2129.52 86.7454L2132.11 81.3319C2138.09 84.1913 2144.05 87.1008 2149.96 90.0558L2147.28 95.4239ZM2111.6 78.3755C2105.61 75.6432 2099.59 72.9649 2093.54 70.3451L2095.92 64.8397C2102.01 67.4749 2108.06 70.1685 2114.09 72.9162L2111.6 78.3755ZM2075.32 62.6639C2069.22 60.1639 2063.1 57.7267 2056.96 55.3565L2059.12 49.7586C2065.3 52.1442 2071.46 54.5969 2077.6 57.1123L2075.32 62.6639ZM2038.45 48.447C2032.25 46.2081 2026.02 44.041 2019.78 41.9499L2021.69 36.2607C2027.97 38.3667 2034.24 40.549 2040.49 42.8032L2038.45 48.447ZM2001 35.9059C1994.69 33.9612 1988.37 32.0978 1982.03 30.3202L1983.65 24.5433C1990.04 26.335 1996.41 28.2129 2002.76 30.1722L2001 35.9059ZM1962.98 25.2469C1956.58 23.6343 1950.17 22.113 1943.74 20.6875L1945.04 14.8301C1951.52 16.2682 1957.99 17.8025 1964.45 19.4286L1962.98 25.2469ZM1924.45 16.7027C1917.97 15.4642 1911.48 14.3275 1904.98 13.2971L1905.92 7.37118C1912.48 8.41171 1919.04 9.55928 1925.58 10.8092L1924.45 16.7027ZM1885.49 10.529C1878.95 9.71022 1872.4 9.00374 1865.86 8.41413L1866.39 2.43833C1873.01 3.03429 1879.62 3.74824 1886.23 4.57537L1885.49 10.529ZM1846.22 7.00031C1839.64 6.6474 1833.07 6.41717 1826.5 6.31431L1826.6 0.315046C1833.24 0.419115 1839.89 0.652036 1846.54 1.00894L1846.22 7.00031ZM1806.82 6.39267C1800.25 6.54963 1793.69 6.83915 1787.14 7.26596L1786.75 1.27866C1793.38 0.846392 1800.02 0.553269 1806.67 0.394387L1806.82 6.39267ZM1767.51 8.96321C1761 9.66756 1754.5 10.5132 1748.01 11.5048L1747.1 5.57371C1753.68 4.5686 1760.27 3.71165 1766.87 2.998L1767.51 8.96321ZM1728.6 14.9215C1722.19 16.1989 1715.81 17.6245 1709.44 19.2029L1707.99 13.379C1714.45 11.7783 1720.93 10.3326 1727.42 9.03742L1728.6 14.9215ZM1690.4 24.3964C1684.17 26.2561 1677.95 28.2686 1671.76 30.4381L1669.77 24.7755C1676.06 22.5746 1682.36 20.5331 1688.69 18.6467L1690.4 24.3964ZM1653.28 37.4075C1647.26 39.8406 1641.27 42.4284 1635.31 45.1749L1632.8 39.7245C1638.85 36.9386 1644.93 34.3136 1651.03 31.8454L1653.28 37.4075ZM1617.56 53.8513C1611.81 56.8335 1606.08 59.9698 1600.38 63.2642L1597.38 58.0689C1603.16 54.729 1608.97 51.5487 1614.8 48.5244L1617.56 53.8513ZM1583.53 73.5117C1580.74 75.2982 1577.95 77.1244 1575.17 78.9907L1571.83 74.0091C1574.64 72.118 1577.47 70.2674 1580.3 68.4567L1583.53 73.5117ZM1575.17 78.9907C1572.45 80.8164 1569.72 82.6362 1566.98 84.45L1563.67 79.446C1566.4 77.6395 1569.12 75.8272 1571.83 74.0091L1575.17 78.9907ZM1550.4 95.2621C1544.83 98.8423 1539.21 102.399 1533.56 105.931L1530.38 100.842C1536.01 97.3234 1541.6 93.7807 1547.15 90.2146L1550.4 95.2621ZM1516.47 116.457C1510.81 119.892 1505.12 123.304 1499.39 126.693L1496.33 121.528C1502.05 118.151 1507.72 114.752 1513.35 111.329L1516.47 116.457ZM1482.27 136.678C1476.53 139.984 1470.75 143.266 1464.94 146.526L1462.01 141.293C1467.8 138.044 1473.56 134.772 1479.28 131.478L1482.27 136.678ZM1447.41 156.235C1441.6 159.412 1435.75 162.567 1429.88 165.699L1427.05 160.404C1432.91 157.282 1438.74 154.137 1444.53 150.97L1447.41 156.235ZM1412.33 174.937C1406.45 177.993 1400.55 181.028 1394.61 184.04L1391.9 178.69C1397.82 175.686 1403.7 172.661 1409.56 169.613L1412.33 174.937ZM1376.73 193.008C1370.78 195.955 1364.81 198.88 1358.81 201.782L1356.2 196.381C1362.18 193.487 1368.14 190.57 1374.07 187.632L1376.73 193.008ZM1340.91 210.339C1334.92 213.169 1328.91 215.978 1322.88 218.764L1320.36 213.317C1326.38 210.538 1332.38 207.737 1338.35 204.914L1340.91 210.339ZM1304.71 227.057C1298.65 229.792 1292.56 232.505 1286.46 235.196L1284.04 229.706C1290.13 227.022 1296.2 224.316 1302.24 221.588L1304.71 227.057ZM1268.27 243.129C1262.18 245.751 1256.08 248.352 1249.96 250.931L1247.63 245.402C1253.74 242.829 1259.82 240.235 1265.89 237.619L1268.27 243.129ZM1231.55 258.602C1225.4 261.138 1219.23 263.651 1213.05 266.142L1210.81 260.577C1216.98 258.092 1223.13 255.584 1229.27 253.055L1231.55 258.602ZM1194.59 273.498C1188.42 275.928 1182.24 278.336 1176.05 280.723L1173.89 275.124C1180.07 272.743 1186.24 270.34 1192.39 267.916L1194.59 273.498ZM1157.43 287.816C1151.21 290.159 1144.99 292.48 1138.75 294.778L1136.67 289.148C1142.9 286.855 1149.11 284.539 1155.32 282.202L1157.43 287.816ZM1120.03 301.597C1113.79 303.846 1107.54 306.074 1101.28 308.279L1099.28 302.62C1105.53 300.419 1111.77 298.197 1118 295.952L1120.03 301.597ZM1082.47 314.829C1076.19 316.99 1069.91 319.129 1063.62 321.246L1061.71 315.56C1067.98 313.447 1074.25 311.313 1080.52 309.156L1082.47 314.829ZM1044.72 327.537C1038.4 329.615 1032.08 331.67 1025.76 333.703L1023.92 327.991C1030.24 325.962 1036.54 323.911 1042.84 321.838L1044.72 327.537ZM1006.78 339.734C1000.45 341.722 994.115 343.687 987.781 345.63L986.022 339.893C992.344 337.955 998.663 335.993 1004.98 334.01L1006.78 339.734ZM968.749 351.397C962.364 353.309 955.978 355.198 949.594 357.063L947.911 351.304C954.283 349.442 960.656 347.557 967.028 345.649L968.749 351.397ZM930.442 362.591C924.06 364.41 917.68 366.206 911.302 367.979L909.695 362.198C916.06 360.429 922.428 358.636 928.797 356.821L930.442 362.591ZM892.18 373.227C885.731 374.974 879.287 376.698 872.847 378.397L871.317 372.596C877.743 370.9 884.175 369.18 890.611 367.436L892.18 373.227ZM853.532 383.427C847.099 385.079 840.674 386.707 834.256 388.311L832.801 382.49C839.206 380.889 845.619 379.264 852.039 377.615L853.532 383.427ZM815.026 393.05C808.533 394.627 802.049 396.18 795.576 397.707L794.198 391.867C800.659 390.343 807.13 388.794 813.61 387.219L815.026 393.05ZM776.102 402.233C769.622 403.717 763.153 405.175 756.698 406.607L755.398 400.749C761.841 399.32 768.296 397.865 774.763 396.385L776.102 402.233ZM737.372 410.827C730.839 412.231 724.32 413.608 717.817 414.959L716.597 409.084C723.086 407.736 729.592 406.362 736.112 404.961L737.372 410.827ZM698.194 418.964C691.67 420.272 685.164 421.553 678.677 422.806L677.538 416.915C684.012 415.664 690.504 414.386 697.015 413.081L698.194 418.964ZM659.273 426.485C652.692 427.709 646.131 428.904 639.594 430.071L638.54 424.164C645.063 423 651.609 421.807 658.176 420.586L659.273 426.485ZM619.841 433.521C613.281 434.642 606.745 435.733 600.236 436.795L599.27 430.873C605.764 429.814 612.285 428.725 618.831 427.607L619.841 433.521ZM580.786 439.893C574.135 440.926 567.514 441.928 560.922 442.899L560.048 436.963C566.624 435.995 573.23 434.995 579.865 433.964L580.786 439.893ZM541.077 445.739C534.494 446.654 527.944 447.536 521.428 448.387L520.652 442.437C527.151 441.589 533.684 440.709 540.251 439.796L541.077 445.739ZM501.95 450.846C495.202 451.669 488.494 452.456 481.828 453.207L481.156 447.245C487.804 446.496 494.494 445.71 501.224 444.89L501.95 450.846ZM461.955 455.355C455.374 456.036 448.836 456.68 442.343 457.289L441.783 451.315C448.257 450.708 454.776 450.065 461.338 449.387L461.955 455.355ZM422.491 459.05C415.734 459.615 409.03 460.139 402.381 460.624L401.945 454.64C408.573 454.157 415.255 453.634 421.992 453.071L422.491 459.05ZM382.599 461.956C376.019 462.362 369.497 462.727 363.035 463.051L362.735 457.058C369.173 456.735 375.672 456.372 382.229 455.967L382.599 461.956ZM342.696 463.941C335.986 464.191 329.345 464.395 322.778 464.552L322.635 458.554C329.175 458.398 335.788 458.195 342.472 457.945L342.696 463.941ZM303.298 464.883C296.407 464.952 289.604 464.966 282.891 464.926L282.927 458.926C289.607 458.966 296.379 458.952 303.238 458.884L303.298 464.883ZM262.928 464.639C256.368 464.489 249.902 464.283 243.533 464.022L243.779 458.027C250.11 458.287 256.54 458.491 263.066 458.641L262.928 464.639ZM223.011 462.967C216.289 462.549 209.688 462.064 203.212 461.512L203.722 455.534C210.15 456.082 216.705 456.563 223.384 456.979L223.011 462.967ZM183.527 459.584C176.635 458.817 169.902 457.968 163.336 457.034L164.18 451.094C170.683 452.018 177.355 452.861 184.19 453.621L183.527 459.584ZM144.141 453.982C137.195 452.753 130.462 451.419 123.951 449.98L125.247 444.121C131.669 445.541 138.318 446.859 145.186 448.073L144.141 453.982ZM104.869 445.281C98.0527 443.417 91.5269 441.417 85.3044 439.278L87.2544 433.604C93.3457 435.697 99.7485 437.66 106.452 439.493L104.869 445.281ZM66.9944 432.203C60.3716 429.325 54.189 426.248 48.4702 422.967L51.4561 417.763C56.9617 420.921 62.9434 423.901 69.3857 426.7L66.9944 432.203ZM31.8074 411.788C26.2412 407.387 21.3518 402.687 17.1875 397.681L21.8003 393.844C25.6687 398.494 30.2505 402.908 35.5288 407.081L31.8074 411.788ZM6.16577 380.084C3.41064 373.843 1.61108 367.255 0.812988 360.326L6.77368 359.639C7.50269 365.97 9.14355 371.973 11.6548 377.661L6.16577 380.084ZM1.25806 339.873C2.23267 333.328 3.9856 326.551 6.53149 319.545L12.1709 321.594C9.74683 328.265 8.10181 334.651 7.19263 340.757L1.25806 339.873ZM14.4297 301.79C17.4558 296 20.98 290.062 25.0122 283.975L30.0142 287.289C26.0845 293.22 22.6682 298.98 19.7473 304.569L14.4297 301.79ZM36.3542 268.193C40.458 262.884 44.9265 257.467 49.7668 251.942L54.28 255.896C49.5139 261.336 45.1243 266.658 41.1013 271.863L36.3542 268.193ZM62.5674 237.985C67.0928 233.258 71.8787 228.454 76.929 223.574L81.0981 227.889C76.1006 232.718 71.3701 237.466 66.9019 242.134L62.5674 237.985ZM91.7195 209.752C96.343 205.565 101.154 201.325 106.154 197.031L110.063 201.583C105.101 205.844 100.329 210.05 95.7466 214.199L91.7195 209.752ZM121.727 183.986C126.91 179.747 132.272 175.457 137.815 171.116L141.515 175.84C136.004 180.156 130.675 184.419 125.526 188.631L121.727 183.986ZM152.879 159.533C158.042 155.633 163.346 151.693 168.795 147.713L172.334 152.558C166.911 156.52 161.632 160.44 156.496 164.32L152.879 159.533ZM185.572 135.656C188.44 133.626 191.344 131.587 194.285 129.539L197.715 134.461C194.786 136.502 191.893 138.533 189.037 140.554L185.572 135.656Z" fill="#0090E3"/>
</svg>
