<svg width="134" height="25" viewBox="0 0 134 25" fill="none" xmlns="http://www.w3.org/2000/svg">
<path d="M2.99093 15.0348C2.99093 15.41 3.14362 15.7495 3.449 16.0532C3.75438 16.3391 4.15855 16.482 4.66153 16.482C5.14655 16.482 5.63156 16.3748 6.11658 16.1604C6.61956 15.946 7.09559 15.6244 7.54468 15.1956L7.54468 13.2124L4.90404 13.2124C4.29328 13.2124 3.81725 13.4 3.47594 13.7752C3.1526 14.1504 2.99093 14.5703 2.99093 15.0348ZM4.71542 19.2424C3.11667 19.2424 1.93108 18.8583 1.15865 18.09C0.386216 17.3039 -3.85893e-09 16.2855 -3.56258e-09 15.0348C-3.24506e-09 13.6948 0.45807 12.6675 1.37421 11.9528C2.29035 11.2381 3.48492 10.8808 4.95793 10.8808L7.51773 10.8808C7.49977 10.2197 7.30217 9.71054 6.92494 9.3532C6.56567 8.97801 6.06269 8.7904 5.416 8.7904C4.80524 8.7904 4.14059 8.87974 3.42205 9.0584C2.70351 9.2192 2.10173 9.41574 1.61672 9.648L0.673632 6.7536C1.17661 6.41414 1.94006 6.13721 2.96398 5.92281C4.00586 5.69054 4.80524 5.5744 5.36211 5.5744C6.92494 5.5744 8.26322 6.03 9.37696 6.94121C10.4907 7.83454 11.0476 8.978 11.0476 10.3716L11.0476 18.9208L9.24223 18.9208L8.37998 17.822C7.89497 18.1972 7.32014 18.5277 6.65548 18.8136C6.0088 19.0995 5.36211 19.2424 4.71542 19.2424Z" fill="#0090E3"/>
<path d="M17.1271 5.71801e-06L17.1271 6.3248C17.648 6.03894 18.1959 5.8156 18.7708 5.6548C19.3636 5.49401 19.8935 5.41361 20.3605 5.41361C22.2826 5.41361 23.7556 6.07467 24.7796 7.39681C25.8035 8.71894 26.3154 10.3627 26.3154 12.328C26.3154 14.2933 25.7855 15.9371 24.7257 17.2592C23.6838 18.5813 22.2287 19.2424 20.3605 19.2424C19.7498 19.2424 19.0672 19.1173 18.3127 18.8672C17.5582 18.6171 16.8846 18.2687 16.2918 17.822L15.4295 18.9208L13.6512 18.9208L13.6512 0.294804L17.1271 5.71801e-06ZM19.4444 16.2676C20.6479 16.2676 21.4922 15.8388 21.9772 14.9812C22.4623 14.1057 22.7048 13.2213 22.7048 12.328C22.7048 11.3096 22.4892 10.3984 22.0581 9.59441C21.627 8.79041 20.7557 8.38841 19.4444 8.38841C19.0672 8.38841 18.672 8.45987 18.2588 8.60281C17.8636 8.72787 17.4864 8.90654 17.1271 9.13881L17.1271 15.5172C17.4864 15.7316 17.8636 15.9103 18.2588 16.0532C18.672 16.1961 19.0672 16.2676 19.4444 16.2676Z" fill="#0090E3"/>
<path d="M31.9754 5.71451e-06L31.9754 6.3248C32.4964 6.03894 33.0442 5.8156 33.6191 5.6548C34.2119 5.49401 34.7418 5.41361 35.2089 5.41361C37.1309 5.41361 38.604 6.07467 39.6279 7.39681C40.6518 8.71894 41.1638 10.3627 41.1638 12.328C41.1638 14.2933 40.6338 15.9371 39.574 17.2592C38.5321 18.5813 37.0771 19.2424 35.2089 19.2424C34.5981 19.2424 33.9155 19.1173 33.161 18.8672C32.4065 18.6171 31.7329 18.2687 31.1401 17.822L30.2779 18.9208L28.4995 18.9208L28.4995 0.294804L31.9754 5.71451e-06ZM34.2927 16.2676C35.4963 16.2676 36.3405 15.8388 36.8256 14.9812C37.3106 14.1057 37.5531 13.2213 37.5531 12.328C37.5531 11.3096 37.3375 10.3984 36.9064 9.59441C36.4753 8.79041 35.604 8.38841 34.2927 8.38841C33.9155 8.38841 33.5203 8.45987 33.1071 8.60281C32.7119 8.72787 32.3347 8.90654 31.9754 9.13881L31.9754 15.5172C32.3347 15.7316 32.7119 15.9103 33.1071 16.0532C33.5203 16.1961 33.9155 16.2676 34.2927 16.2676Z" fill="#0090E3"/>
<path d="M67.9351 9.43361C67.3064 9.14774 66.7226 8.93334 66.1837 8.7904C65.6448 8.6296 65.0699 8.54921 64.4592 8.54921C64.0101 8.54921 63.6598 8.63854 63.4083 8.81721C63.1748 8.97801 63.058 9.21027 63.058 9.514C63.058 9.7284 63.2017 9.93387 63.4891 10.1304C63.7945 10.3269 64.2795 10.5413 64.9442 10.7736C66.04 11.1667 67.0549 11.7205 67.989 12.4352C68.9231 13.132 69.3902 14.0432 69.3902 15.1688C69.3902 16.4552 68.9231 17.4557 67.989 18.1704C67.0729 18.8851 65.7256 19.2424 63.9472 19.2424C63.3903 19.2424 62.6449 19.1352 61.7108 18.9208C60.7946 18.7064 60.0312 18.3669 59.4204 17.9024L60.4713 15.3832C61.1 15.6691 61.7018 15.8924 62.2766 16.0532C62.8694 16.1961 63.4083 16.2676 63.8933 16.2676C64.54 16.2676 65.034 16.1783 65.3753 15.9996C65.7166 15.8209 65.8873 15.5887 65.8873 15.3028C65.8873 14.9455 65.7166 14.6239 65.3753 14.338C65.034 14.0521 64.4951 13.7931 63.7586 13.5608C62.7167 13.2213 61.7287 12.7389 60.7946 12.1136C59.8785 11.4704 59.4204 10.6128 59.4204 9.5408C59.4204 8.308 59.8785 7.3432 60.7946 6.6464C61.7108 5.93174 62.9502 5.5744 64.5131 5.5744C65.0699 5.5744 65.7885 5.69054 66.6687 5.9228C67.5489 6.15507 68.3213 6.49454 68.986 6.9412L67.9351 9.43361Z" fill="#182C55"/>
<path d="M79.1616 18.6528C78.8742 18.8851 78.461 19.0727 77.9221 19.2156C77.4012 19.3764 76.9341 19.4568 76.521 19.4568C74.9043 19.4568 73.6289 19.0548 72.6947 18.2508C71.7786 17.4289 71.3205 16.2676 71.3205 14.7668L71.3205 8.6296L69.5691 8.6296L69.5691 5.9496L71.3205 5.9496L71.3205 2.8676L74.7965 2.2512L74.7965 5.9496L77.1677 5.9496L78.2455 8.6296L74.7965 8.6296L74.7965 14.1504C74.7965 14.8293 74.9582 15.3921 75.2815 15.8388C75.6048 16.2676 76.0809 16.482 76.7096 16.482C76.9431 16.482 77.1766 16.4552 77.4102 16.4016C77.6437 16.348 77.8862 16.2587 78.1377 16.1336L79.1616 18.6528Z" fill="#182C55"/>
<path d="M102.956 16.2676C104.159 16.2676 105.004 15.8388 105.489 14.9812C105.974 14.1057 106.216 13.2213 106.216 12.328C106.216 11.3096 106.001 10.3984 105.569 9.59441C105.138 8.79041 104.267 8.38841 102.956 8.38841C102.579 8.38841 102.183 8.45987 101.77 8.60281C101.375 8.72787 100.998 8.90654 100.638 9.13881L100.638 15.5172C100.998 15.7316 101.375 15.9103 101.77 16.0532C102.183 16.1961 102.579 16.2676 102.956 16.2676ZM97.1625 5.9228L98.9409 5.9228L99.6954 6.8876C100.288 6.44094 100.98 6.08361 101.77 5.81561C102.561 5.54761 103.261 5.4136 103.872 5.4136C105.794 5.4136 107.267 6.07467 108.291 7.39681C109.315 8.71894 109.827 10.3627 109.827 12.328C109.827 14.2933 109.297 15.9371 108.237 17.2592C107.195 18.5813 105.74 19.2424 103.872 19.2424C103.405 19.2424 102.875 19.162 102.282 19.0012C101.707 18.8404 101.159 18.6171 100.638 18.3312L100.638 24.522L97.1625 24.79L97.1625 5.9228Z" fill="#182C55"/>
<path d="M112.415 15.008C112.972 15.008 113.43 15.1956 113.789 15.5708C114.166 15.946 114.355 16.4105 114.355 16.9644C114.355 17.5183 114.166 17.9828 113.789 18.358C113.43 18.7332 112.972 18.9208 112.415 18.9208C111.858 18.9208 111.382 18.7332 110.987 18.358C110.61 17.9828 110.421 17.5183 110.421 16.9644C110.421 16.4105 110.61 15.946 110.987 15.5708C111.382 15.1956 111.858 15.008 112.415 15.008Z" fill="#182C55"/>
<path d="M118.397 7.3164C118.989 6.7268 119.726 6.26227 120.606 5.9228C121.504 5.58334 122.304 5.4136 123.004 5.4136C124.783 5.4136 126.04 5.93174 126.777 6.96801C127.531 8.00427 127.908 9.27281 127.908 10.7736L127.908 18.9208L124.405 18.9208L124.405 10.9344C124.405 10.1125 124.208 9.4872 123.813 9.0584C123.417 8.61174 122.843 8.38841 122.088 8.38841C121.585 8.38841 121.055 8.5224 120.498 8.7904C119.96 9.04054 119.466 9.33534 119.016 9.6748L119.016 18.9208L115.514 18.9208L115.514 5.9228L117.346 5.9228L118.397 7.3164Z" fill="#182C55"/>
<path d="M134 5.70447e-06L134 18.9208L130.524 18.9208L130.524 0.294804L134 5.70447e-06Z" fill="#182C55"/>
<path fill-rule="evenodd" clip-rule="evenodd" d="M49.9774 20.4097C54.3179 20.4097 57.8365 16.9101 57.8365 12.5931C57.8365 8.27604 54.3179 4.7764 49.9774 4.7764C45.637 4.7764 42.1184 8.27604 42.1184 12.5931C42.1184 16.9101 45.637 20.4097 49.9774 20.4097ZM54.8426 12.5931C54.8426 15.2655 52.6644 17.432 49.9774 17.432C49.1946 17.432 48.455 17.2481 47.7998 16.9214L54.3292 10.4272C54.6577 11.0788 54.8426 11.8145 54.8426 12.5931ZM52.2306 8.30327C51.557 7.95254 50.7905 7.75417 49.9774 7.75417C47.2905 7.75417 45.1123 9.92062 45.1123 12.5931C45.1123 13.4017 45.3118 14.1641 45.6644 14.8341L52.2306 8.30327Z" fill="#0090E3"/>
<path fill-rule="evenodd" clip-rule="evenodd" d="M87.4015 20.4097C91.7419 20.4097 95.2606 16.9101 95.2606 12.5931C95.2606 8.27604 91.7419 4.7764 87.4015 4.7764C83.0611 4.7764 79.5425 8.27604 79.5425 12.5931C79.5425 16.9101 83.0611 20.4097 87.4015 20.4097ZM92.2666 12.5931C92.2666 15.2655 90.0885 17.432 87.4015 17.432C86.6187 17.432 85.8791 17.2481 85.2239 16.9214L91.7533 10.4272C92.0818 11.0788 92.2666 11.8145 92.2666 12.5931ZM89.6547 8.30327C88.981 7.95254 88.2146 7.75417 87.4015 7.75417C84.7146 7.75417 82.5364 9.92062 82.5364 12.5931C82.5364 13.4017 82.7358 14.1641 83.0885 14.8341L89.6547 8.30327Z" fill="#182C55"/>
</svg>
