<svg width="200" height="37" viewBox="0 0 200 37" fill="none" xmlns="http://www.w3.org/2000/svg">
<path d="M4.46407 22.44C4.46407 23 4.69196 23.5066 5.14775 23.96C5.60355 24.3866 6.2068 24.6 6.95751 24.6C7.68142 24.6 8.40532 24.44 9.12922 24.12C9.87994 23.8 10.5904 23.32 11.2607 22.68L11.2607 19.72L7.31946 19.72C6.40788 19.72 5.69738 20 5.18797 20.56C4.70537 21.12 4.46407 21.7466 4.46407 22.44ZM7.03795 28.72C4.65175 28.72 2.88221 28.1466 1.72932 27C0.576441 25.8266 -5.75959e-09 24.3066 -5.31728e-09 22.44C-4.84337e-09 20.44 0.683686 18.9066 2.05106 17.84C3.41843 16.7733 5.20138 16.24 7.3999 16.24L11.2205 16.24C11.1937 15.2533 10.8988 14.4933 10.3357 13.96C9.7995 13.4 9.04879 13.12 8.08358 13.12C7.172 13.12 6.17999 13.2533 5.10754 13.52C4.03509 13.76 3.13691 14.0533 2.41301 14.4L1.00542 10.08C1.75614 9.57331 2.89561 9.15998 4.42385 8.83998C5.9789 8.49332 7.172 8.31998 8.00315 8.31998C10.3357 8.31998 12.3332 8.99998 13.9955 10.36C15.6578 11.6933 16.4889 13.4 16.4889 15.48L16.4889 28.24L13.7944 28.24L12.5074 26.6C11.7835 27.16 10.9256 27.6533 9.93356 28.08C8.96835 28.5066 8.00315 28.72 7.03795 28.72Z" fill="white"/>
<path d="M25.5628 -1.52648e-05L25.5628 9.43998C26.3403 9.01331 27.1581 8.67998 28.016 8.43998C28.9008 8.19998 29.6918 8.07998 30.3888 8.07998C33.2576 8.07998 35.4562 9.06665 36.9844 11.04C38.5126 13.0133 39.2768 15.4666 39.2768 18.4C39.2768 21.3333 38.4858 23.7866 36.904 25.76C35.3489 27.7333 33.1772 28.72 30.3888 28.72C29.4773 28.72 28.4584 28.5333 27.3324 28.16C26.2063 27.7866 25.2009 27.2666 24.3161 26.6L23.0292 28.24L20.3749 28.24L20.3749 0.439982L25.5628 -1.52648e-05ZM29.0215 24.28C30.8178 24.28 32.0779 23.64 32.8019 22.36C33.5258 21.0533 33.8877 19.7333 33.8877 18.4C33.8877 16.88 33.566 15.52 32.9225 14.32C32.279 13.12 30.9787 12.52 29.0215 12.52C28.4584 12.52 27.8686 12.6266 27.2519 12.84C26.6621 13.0266 26.099 13.2933 25.5628 13.64L25.5628 23.16C26.099 23.48 26.6621 23.7466 27.2519 23.96C27.8686 24.1733 28.4584 24.28 29.0215 24.28Z" fill="white"/>
<path d="M47.7245 -1.527e-05L47.7245 9.43998C48.502 9.01331 49.3198 8.67998 50.1777 8.43998C51.0625 8.19998 51.8534 8.07998 52.5505 8.07998C55.4193 8.07998 57.6178 9.06665 59.1461 11.04C60.6743 13.0133 61.4384 15.4666 61.4384 18.4C61.4384 21.3333 60.6475 23.7866 59.0656 25.76C57.5106 27.7333 55.3389 28.72 52.5505 28.72C51.6389 28.72 50.6201 28.5333 49.494 28.16C48.368 27.7866 47.3625 27.2666 46.4778 26.6L45.1908 28.24L42.5365 28.24L42.5365 0.439982L47.7245 -1.527e-05ZM51.1831 24.28C52.9795 24.28 54.2396 23.64 54.9635 22.36C55.6874 21.0533 56.0494 19.7333 56.0494 18.4C56.0494 16.88 55.7276 15.52 55.0842 14.32C54.4407 13.12 53.1404 12.52 51.1831 12.52C50.6201 12.52 50.0303 12.6266 49.4136 12.84C48.8238 13.0266 48.2607 13.2933 47.7245 13.64L47.7245 23.16C48.2607 23.48 48.8238 23.7466 49.4136 23.96C50.0303 24.1733 50.6201 24.28 51.1831 24.28Z" fill="white"/>
<path d="M101.396 14.08C100.457 13.6533 99.5858 13.3333 98.7815 13.12C97.9772 12.88 97.1192 12.76 96.2076 12.76C95.5373 12.76 95.0145 12.8933 94.6392 13.16C94.2906 13.4 94.1163 13.7466 94.1163 14.2C94.1163 14.52 94.3308 14.8267 94.7598 15.12C95.2156 15.4133 95.9395 15.7333 96.9315 16.08C98.567 16.6666 100.082 17.4933 101.476 18.56C102.87 19.6 103.567 20.96 103.567 22.64C103.567 24.56 102.87 26.0533 101.476 27.12C100.109 28.1866 98.0978 28.72 95.4435 28.72C94.6124 28.72 93.4997 28.56 92.1055 28.24C90.7381 27.92 89.5987 27.4133 88.6871 26.72L90.2555 22.96C91.1939 23.3866 92.0921 23.72 92.9501 23.96C93.8348 24.1733 94.6392 24.28 95.3631 24.28C96.3283 24.28 97.0656 24.1466 97.575 23.88C98.0844 23.6133 98.3391 23.2666 98.3391 22.84C98.3391 22.3066 98.0844 21.8267 97.575 21.4C97.0656 20.9733 96.2612 20.5866 95.162 20.24C93.6069 19.7333 92.1323 19.0133 90.7381 18.08C89.3708 17.12 88.6871 15.84 88.6871 14.24C88.6871 12.4 89.3708 10.96 90.7381 9.91998C92.1055 8.85332 93.9555 8.31998 96.2881 8.31998C97.1192 8.31998 98.1916 8.49332 99.5054 8.83998C100.819 9.18665 101.972 9.69332 102.964 10.36L101.396 14.08Z" fill="white"/>
<path d="M118.152 27.84C117.723 28.1866 117.106 28.4666 116.302 28.68C115.524 28.92 114.827 29.04 114.21 29.04C111.797 29.04 109.894 28.44 108.5 27.24C107.132 26.0133 106.448 24.28 106.448 22.04L106.448 12.88L103.834 12.88L103.834 8.87998L106.448 8.87998L106.448 4.27998L111.636 3.35998L111.636 8.87998L115.176 8.87998L116.784 12.88L111.636 12.88L111.636 21.12C111.636 22.1333 111.878 22.9733 112.36 23.64C112.843 24.28 113.553 24.6 114.492 24.6C114.84 24.6 115.189 24.56 115.537 24.48C115.886 24.4 116.248 24.2666 116.623 24.08L118.152 27.84Z" fill="white"/>
<path d="M153.665 24.28C155.462 24.28 156.722 23.64 157.446 22.36C158.169 21.0533 158.531 19.7333 158.531 18.4C158.531 16.88 158.21 15.52 157.566 14.32C156.923 13.12 155.622 12.52 153.665 12.52C153.102 12.52 152.512 12.6266 151.896 12.84C151.306 13.0266 150.743 13.2933 150.207 13.64L150.207 23.16C150.743 23.48 151.306 23.7466 151.896 23.96C152.512 24.1733 153.102 24.28 153.665 24.28ZM145.019 8.83998L147.673 8.83998L148.799 10.28C149.684 9.61331 150.716 9.07998 151.896 8.67998C153.075 8.27998 154.121 8.07998 155.033 8.07998C157.901 8.07998 160.1 9.06665 161.628 11.04C163.156 13.0133 163.921 15.4666 163.921 18.4C163.921 21.3333 163.13 23.7866 161.548 25.76C159.993 27.7333 157.821 28.72 155.033 28.72C154.335 28.72 153.545 28.6 152.66 28.36C151.802 28.12 150.984 27.7866 150.207 27.36L150.207 36.6L145.019 37L145.019 8.83998Z" fill="white"/>
<path d="M167.784 22.4C168.615 22.4 169.298 22.68 169.835 23.24C170.398 23.8 170.679 24.4933 170.679 25.32C170.679 26.1467 170.398 26.84 169.835 27.4C169.298 27.96 168.615 28.24 167.784 28.24C166.952 28.24 166.242 27.96 165.652 27.4C165.089 26.84 164.807 26.1467 164.807 25.32C164.807 24.4933 165.089 23.8 165.652 23.24C166.242 22.68 166.952 22.4 167.784 22.4Z" fill="white"/>
<path d="M176.711 10.92C177.596 10.04 178.695 9.34665 180.009 8.83998C181.35 8.33332 182.543 8.07998 183.588 8.07998C186.243 8.07998 188.12 8.85332 189.219 10.4C190.345 11.9467 190.908 13.84 190.908 16.08L190.908 28.24L185.68 28.24L185.68 16.32C185.68 15.0933 185.385 14.16 184.795 13.52C184.205 12.8533 183.347 12.52 182.221 12.52C181.47 12.52 180.679 12.72 179.848 13.12C179.044 13.4933 178.307 13.9333 177.636 14.44L177.636 28.24L172.408 28.24L172.408 8.83998L175.143 8.83998L176.711 10.92Z" fill="white"/>
<path d="M200 -1.5285e-05L200 28.24L194.812 28.24L194.812 0.439982L200 -1.5285e-05Z" fill="white"/>
<path fill-rule="evenodd" clip-rule="evenodd" d="M74.5933 30.4622C81.0715 30.4622 86.3232 25.2389 86.3232 18.7956C86.3232 12.3523 81.0715 7.12892 74.5933 7.12892C68.115 7.12892 62.8633 12.3523 62.8633 18.7956C62.8633 25.2389 68.115 30.4622 74.5933 30.4622ZM81.8546 18.7956C81.8546 22.7843 78.6036 26.0178 74.5933 26.0178C73.4249 26.0178 72.3209 25.7433 71.3431 25.2557L81.0884 15.5629C81.5787 16.5355 81.8546 17.6335 81.8546 18.7956ZM77.9562 12.3929C76.9507 11.8694 75.8068 11.5734 74.5933 11.5734C70.5829 11.5734 67.3319 14.8069 67.3319 18.7956C67.3319 20.0026 67.6296 21.1404 68.1559 22.1404L77.9562 12.3929Z" fill="white"/>
<path fill-rule="evenodd" clip-rule="evenodd" d="M130.45 30.4622C136.928 30.4622 142.18 25.2389 142.18 18.7956C142.18 12.3523 136.928 7.12892 130.45 7.12892C123.972 7.12892 118.72 12.3523 118.72 18.7956C118.72 25.2389 123.972 30.4622 130.45 30.4622ZM137.711 18.7956C137.711 22.7843 134.46 26.0178 130.45 26.0178C129.282 26.0178 128.178 25.7433 127.2 25.2557L136.945 15.5629C137.435 16.5355 137.711 17.6335 137.711 18.7956ZM133.813 12.3929C132.807 11.8694 131.663 11.5734 130.45 11.5734C126.44 11.5734 123.189 14.8069 123.189 18.7956C123.189 20.0026 123.486 21.1404 124.013 22.1404L133.813 12.3929Z" fill="white"/>
</svg>
