<svg width="147" height="37" viewBox="0 0 147 37" fill="none" xmlns="http://www.w3.org/2000/svg">
<path d="M20.8086 13.7539C20.1445 14.0534 19.4609 14.3008 18.7578 14.4961C18.0677 14.6784 17.3711 14.8542 16.668 15.0234C16.6419 15.0234 16.5703 15.0365 16.4531 15.0625C16.349 15.0885 16.2383 15.1211 16.1211 15.1602C16.0039 15.1862 15.8932 15.2122 15.7891 15.2383C15.6979 15.2513 15.6523 15.2578 15.6523 15.2578C15.4961 15.2057 15.3398 15.2057 15.1836 15.2578C15.0404 15.2969 14.8906 15.349 14.7344 15.4141C14.5911 15.4792 14.4349 15.5312 14.2656 15.5703C14.0964 15.5964 13.9076 15.5638 13.6992 15.4727C13.6602 15.4596 13.5885 15.4727 13.4844 15.5117C13.3802 15.5378 13.276 15.5768 13.1719 15.6289C13.0677 15.681 12.9766 15.7461 12.8984 15.8242C12.8203 15.8893 12.7747 15.9479 12.7617 16L12.8789 16.1172C12.8919 16.1562 12.8724 16.2344 12.8203 16.3516C12.7682 16.4557 12.7096 16.5729 12.6445 16.7031C12.5794 16.8203 12.5078 16.931 12.4297 17.0352C12.3646 17.1393 12.3125 17.2044 12.2734 17.2305C12.2865 17.3477 12.2539 17.4909 12.1758 17.6602C12.1107 17.8164 12.0326 17.9857 11.9414 18.168C11.8633 18.3503 11.7852 18.5391 11.707 18.7344C11.6419 18.9297 11.6094 19.112 11.6094 19.2812C11.6094 19.3333 11.6159 19.3854 11.6289 19.4375C11.6419 19.4896 11.6419 19.5352 11.6289 19.5742L11.6094 19.6133C11.4792 19.7174 11.3815 19.8542 11.3164 20.0234C11.2643 20.1797 11.2188 20.349 11.1797 20.5312C11.1536 20.7005 11.1146 20.8698 11.0625 21.0391C11.0234 21.2083 10.9518 21.3581 10.8477 21.4883V21.5078L10.8281 21.5273C10.6589 21.6055 10.5156 21.6185 10.3984 21.5664C10.2943 21.5143 10.1966 21.4362 10.1055 21.332C10.0273 21.2279 9.94922 21.1107 9.87109 20.9805C9.80599 20.8372 9.72786 20.7135 9.63672 20.6094C9.58464 20.4401 9.5651 20.2969 9.57812 20.1797C9.59115 20.0495 9.64974 19.9193 9.75391 19.7891L9.79297 19.7695C9.71484 19.6654 9.6888 19.5742 9.71484 19.4961C9.75391 19.4049 9.79297 19.3203 9.83203 19.2422C9.88411 19.1641 9.91667 19.0859 9.92969 19.0078C9.95573 18.9167 9.91667 18.8125 9.8125 18.6953L9.85156 18.6562C10.0208 18.487 10.112 18.2982 10.125 18.0898C10.138 17.8685 10.125 17.6471 10.0859 17.4258C10.0599 17.2044 10.0404 16.9831 10.0273 16.7617C10.0273 16.5404 10.0924 16.3385 10.2227 16.1562L10.2422 16.1367C10.2552 16.0586 10.2031 15.9544 10.0859 15.8242C9.96875 15.694 9.8776 15.5964 9.8125 15.5312C9.73438 15.7266 9.63021 15.8307 9.5 15.8438C9.38281 15.8438 9.24609 15.8242 9.08984 15.7852C8.94661 15.7461 8.80339 15.7135 8.66016 15.6875C8.51693 15.6615 8.38672 15.707 8.26953 15.8242L8.17188 15.9023L8.13281 15.8242C8.08073 15.707 8.00911 15.6484 7.91797 15.6484C7.83984 15.6354 7.7487 15.6354 7.64453 15.6484C7.48828 15.6615 7.33854 15.6745 7.19531 15.6875C7.0651 15.6875 6.92839 15.6875 6.78516 15.6875C6.70703 15.6224 6.61589 15.5964 6.51172 15.6094C6.42057 15.6224 6.32292 15.6354 6.21875 15.6484C6.1276 15.6615 6.02995 15.668 5.92578 15.668C5.83464 15.6549 5.74349 15.5964 5.65234 15.4922C5.5612 15.5312 5.41797 15.6875 5.22266 15.9609C5.02734 16.2214 4.81901 16.5143 4.59766 16.8398C4.38932 17.1654 4.1875 17.4844 3.99219 17.7969C3.8099 18.0964 3.6862 18.3047 3.62109 18.4219C3.56901 18.5 3.50391 18.5977 3.42578 18.7148C3.36068 18.832 3.28906 18.9557 3.21094 19.0859C3.13281 19.2031 3.0612 19.3203 2.99609 19.4375C2.93099 19.5417 2.87891 19.6328 2.83984 19.7109L2.85938 19.7695C2.85938 19.8997 2.83984 20.0039 2.80078 20.082C2.76172 20.1471 2.70964 20.2057 2.64453 20.2578C2.59245 20.2969 2.54036 20.3359 2.48828 20.375C2.4362 20.401 2.39062 20.4336 2.35156 20.4727C2.2474 20.4727 2.16927 20.4987 2.11719 20.5508C2.0651 20.6029 2.01953 20.6615 1.98047 20.7266C1.94141 20.7917 1.89583 20.8503 1.84375 20.9023C1.77865 20.9544 1.68099 20.9805 1.55078 20.9805C1.4987 21.0456 1.46615 21.0911 1.45312 21.1172C1.4401 21.1432 1.42057 21.1953 1.39453 21.2734C1.36849 21.3646 1.34896 21.4297 1.33594 21.4688C1.3099 21.5078 1.29036 21.5339 1.27734 21.5469C1.2513 21.5729 1.22526 21.5924 1.19922 21.6055C1.17318 21.6315 1.14714 21.6641 1.12109 21.7031C1.04297 21.7161 0.984375 21.7031 0.945312 21.6641C0.90625 21.625 0.867188 21.5729 0.828125 21.5078C0.789062 21.4557 0.75651 21.3971 0.730469 21.332C0.691406 21.2799 0.645833 21.2409 0.59375 21.2148L0.613281 21.1562C0.873698 20.388 1.1862 19.6589 1.55078 18.9688C1.91536 18.2656 2.30599 17.569 2.72266 16.8789C2.7487 16.8268 2.76823 16.7747 2.78125 16.7227C2.79427 16.6706 2.8138 16.6185 2.83984 16.5664C2.90495 16.3971 2.97005 16.2344 3.03516 16.0781C3.11328 15.9219 3.20443 15.7721 3.30859 15.6289C3.39974 15.4857 3.47786 15.349 3.54297 15.2188C3.62109 15.0885 3.69271 14.9518 3.75781 14.8086L3.71875 14.7695C3.30208 14.431 2.9375 14.0859 2.625 13.7344C2.32552 13.3698 2.03906 12.9596 1.76562 12.5039C1.70052 12.3867 1.63542 12.2695 1.57031 12.1523C1.50521 12.0221 1.4401 11.9049 1.375 11.8008L1.35547 11.7812C1.35547 11.5208 1.375 11.2604 1.41406 11C1.45312 10.7396 1.57031 10.5117 1.76562 10.3164L1.78516 10.2969V10.2773C1.85026 10.1471 1.92188 10.0495 2 9.98438C2.07812 9.91927 2.15625 9.86719 2.23438 9.82812C2.32552 9.78906 2.41667 9.75651 2.50781 9.73047C2.59896 9.69141 2.6901 9.63281 2.78125 9.55469V9.53516C3.08073 9.40495 3.3737 9.29427 3.66016 9.20312C3.94661 9.11198 4.2526 9.15104 4.57812 9.32031L4.61719 9.30078C4.73438 9.23568 4.8776 9.20312 5.04688 9.20312C5.21615 9.1901 5.36589 9.18359 5.49609 9.18359C5.57422 9.22266 5.65234 9.27474 5.73047 9.33984C5.82161 9.39193 5.90625 9.44401 5.98438 9.49609C6.07552 9.54818 6.16667 9.58724 6.25781 9.61328C6.34896 9.63932 6.43359 9.63281 6.51172 9.59375H6.53125V9.57422C6.66146 9.44401 6.76562 9.26172 6.84375 9.02734C6.92188 8.77995 7 8.51953 7.07812 8.24609C7.16927 7.97266 7.26693 7.70573 7.37109 7.44531C7.47526 7.17188 7.61849 6.9375 7.80078 6.74219C7.80078 6.70312 7.82682 6.61849 7.87891 6.48828C7.93099 6.34505 7.98307 6.1888 8.03516 6.01953C8.10026 5.83724 8.14583 5.66146 8.17188 5.49219C8.21094 5.3099 8.21094 5.16016 8.17188 5.04297L8.34766 5.0625C8.39974 5.01042 8.43229 4.96484 8.44531 4.92578L8.42578 4.86719C8.3737 4.8151 8.35417 4.75 8.36719 4.67188C8.38021 4.59375 8.39974 4.52214 8.42578 4.45703H8.40625L8.38672 4.37891C8.42578 4.36589 8.4974 4.33984 8.60156 4.30078C8.71875 4.26172 8.83594 4.21615 8.95312 4.16406C9.07031 4.11198 9.17448 4.06641 9.26562 4.02734C9.36979 3.98828 9.42839 3.96875 9.44141 3.96875C9.6237 4.07292 9.72135 4.1901 9.73438 4.32031C9.76042 4.45052 9.75391 4.60677 9.71484 4.78906C9.70182 4.88021 9.69531 4.95833 9.69531 5.02344C9.70833 5.07552 9.71484 5.14062 9.71484 5.21875C9.71484 5.34896 9.68229 5.51172 9.61719 5.70703C9.55208 5.88932 9.47396 6.08464 9.38281 6.29297C9.30469 6.5013 9.21354 6.69661 9.10938 6.87891C9.00521 7.0612 8.91406 7.21094 8.83594 7.32812V7.44531C8.83594 7.71875 8.79688 8.00521 8.71875 8.30469C8.64062 8.59115 8.54297 8.8776 8.42578 9.16406C8.30859 9.45052 8.17839 9.73047 8.03516 10.0039C7.90495 10.2773 7.77474 10.5378 7.64453 10.7852C7.55339 10.9414 7.45573 11.1237 7.35156 11.332C7.2474 11.5273 7.14323 11.7292 7.03906 11.9375C6.94792 12.1458 6.86328 12.3607 6.78516 12.582C6.72005 12.7904 6.67448 12.9792 6.64844 13.1484V13.168L6.16016 14.0859C6.21224 14.151 6.29036 14.2096 6.39453 14.2617C6.51172 14.3008 6.62891 14.3398 6.74609 14.3789C6.8763 14.418 7 14.4505 7.11719 14.4766C7.2474 14.4896 7.35807 14.4961 7.44922 14.4961C7.59245 14.4961 7.70964 14.5091 7.80078 14.5352C7.90495 14.5482 8.00911 14.6133 8.11328 14.7305L8.15234 14.7695H8.19141C8.29557 14.7435 8.38672 14.7305 8.46484 14.7305C8.54297 14.7305 8.63411 14.7305 8.73828 14.7305C8.84245 14.7565 8.9401 14.763 9.03125 14.75C9.13542 14.737 9.23958 14.724 9.34375 14.7109L9.32422 14.8477C9.38932 14.9128 9.44141 14.9583 9.48047 14.9844C9.54557 14.8802 9.6237 14.776 9.71484 14.6719C9.76693 14.75 9.8125 14.8086 9.85156 14.8477C9.89062 14.8216 9.9362 14.7695 9.98828 14.6914C10.0534 14.6133 10.099 14.5742 10.125 14.5742L10.1445 14.5547L10.1641 14.5742C10.3984 14.6523 10.6133 14.6784 10.8086 14.6523C11.0039 14.6263 11.2188 14.6133 11.4531 14.6133C11.4922 14.5221 11.5443 14.4505 11.6094 14.3984C11.6875 14.3464 11.7526 14.2943 11.8047 14.2422C11.8698 14.1771 11.9089 14.112 11.9219 14.0469C11.9349 13.9818 11.9023 13.8906 11.8242 13.7734L11.8047 13.7344C11.8047 13.7344 11.8242 13.6953 11.8633 13.6172C11.9154 13.5391 11.9674 13.4544 12.0195 13.3633C12.0716 13.2591 12.1172 13.168 12.1562 13.0898C12.2083 13.0117 12.2409 12.9596 12.2539 12.9336C12.5143 12.5039 12.7422 12.0677 12.9375 11.625C13.1328 11.1693 13.2305 10.6875 13.2305 10.1797V10.043C13.2565 10.0299 13.2826 10.0234 13.3086 10.0234C13.5039 9.94531 13.6081 9.84115 13.6211 9.71094C13.6341 9.56771 13.6276 9.41797 13.6016 9.26172C13.5755 9.10547 13.5755 8.94922 13.6016 8.79297C13.6406 8.63672 13.7773 8.5 14.0117 8.38281L14.0508 8.36328L14.0703 8.32422C14.1484 8.12891 14.2135 7.93359 14.2656 7.73828C14.3307 7.52995 14.4023 7.32812 14.4805 7.13281C14.7279 6.54688 14.9102 5.91536 15.0273 5.23828C15.0534 5.08203 15.112 4.94531 15.2031 4.82812C15.3073 4.69792 15.4115 4.57422 15.5156 4.45703C15.6198 4.32682 15.7109 4.19661 15.7891 4.06641C15.8802 3.92318 15.9258 3.76693 15.9258 3.59766C15.9258 3.49349 15.9128 3.42188 15.8867 3.38281V3.32422L15.9258 3.30469C16.1862 3.17448 16.388 3.01172 16.5312 2.81641C16.6745 2.62109 16.7461 2.3737 16.7461 2.07422C16.7461 2.03516 16.7396 1.96354 16.7266 1.85938C16.7266 1.75521 16.7135 1.6901 16.6875 1.66406C16.8047 1.58594 16.9284 1.48177 17.0586 1.35156L17.0977 1.37109C17.3451 1.55339 17.4948 1.74219 17.5469 1.9375C17.612 2.11979 17.625 2.30859 17.5859 2.50391C17.5599 2.69922 17.5143 2.90104 17.4492 3.10938C17.3841 3.31771 17.3516 3.53255 17.3516 3.75391L17.332 3.77344C17.1367 4.11198 16.9805 4.49609 16.8633 4.92578C16.7461 5.35547 16.6875 5.77214 16.6875 6.17578C16.5443 6.17578 16.4531 6.20833 16.4141 6.27344C16.388 6.33854 16.362 6.42318 16.3359 6.52734C16.3229 6.61849 16.2969 6.71615 16.2578 6.82031C16.2318 6.92448 16.1536 7.01562 16.0234 7.09375L16.0625 7.15234C16.0625 7.17839 16.0625 7.19792 16.0625 7.21094C16.0755 7.22396 16.082 7.24349 16.082 7.26953C16.082 7.34766 16.0625 7.41927 16.0234 7.48438C15.9844 7.53646 15.9453 7.59505 15.9062 7.66016C15.8672 7.71224 15.8411 7.77083 15.8281 7.83594C15.8281 7.90104 15.8607 7.97266 15.9258 8.05078C15.9779 8.12891 16.0104 8.17448 16.0234 8.1875H15.8086C15.6003 8.59115 15.4115 9.0013 15.2422 9.41797C15.0729 9.83464 14.9167 10.2578 14.7734 10.6875C14.6562 11.0521 14.5326 11.4102 14.4023 11.7617C14.2721 12.1133 14.1159 12.4583 13.9336 12.7969V12.8555C14.0508 13.0768 14.0573 13.2526 13.9531 13.3828C13.862 13.513 13.7578 13.6302 13.6406 13.7344C13.5365 13.8255 13.4648 13.9167 13.4258 14.0078C13.3867 14.099 13.4779 14.2161 13.6992 14.3594C13.8685 14.1901 14.0247 14.1315 14.168 14.1836C14.3112 14.2357 14.487 14.2878 14.6953 14.3398C14.7344 14.3008 14.7669 14.2682 14.793 14.2422C14.832 14.2031 14.8906 14.1966 14.9688 14.2227C14.9818 14.2357 14.9948 14.2487 15.0078 14.2617C15.0208 14.2617 15.0339 14.2682 15.0469 14.2812C15.125 14.1641 15.1966 14.099 15.2617 14.0859C15.3268 14.0729 15.3919 14.0794 15.457 14.1055C15.5221 14.1315 15.5872 14.1576 15.6523 14.1836C15.7174 14.2096 15.7826 14.2031 15.8477 14.1641C15.8867 14.138 15.9128 14.099 15.9258 14.0469C15.9388 13.9818 15.9583 13.9232 15.9844 13.8711C16.1797 14.0664 16.3424 14.1641 16.4727 14.1641C16.6159 14.151 16.7461 14.112 16.8633 14.0469C16.9935 13.9688 17.1172 13.8971 17.2344 13.832C17.3646 13.7669 17.5143 13.7734 17.6836 13.8516C17.8268 13.8516 17.9701 13.8385 18.1133 13.8125C18.2695 13.7734 18.4193 13.7409 18.5625 13.7148C18.9401 13.6497 19.3112 13.5977 19.6758 13.5586C20.0404 13.5195 20.4115 13.5326 20.7891 13.5977L20.8086 13.7539ZM5.78906 10.0039C5.67188 10.0039 5.5612 10.0104 5.45703 10.0234C5.36589 10.0365 5.28125 10.082 5.20312 10.1602C5.1901 10.1471 5.17708 10.1406 5.16406 10.1406C4.65625 9.9974 4.16797 10.0234 3.69922 10.2188C3.23047 10.4141 2.82682 10.694 2.48828 11.0586L2.44922 11.2148C2.4362 11.2539 2.42969 11.2995 2.42969 11.3516C2.42969 11.3906 2.42969 11.4232 2.42969 11.4492C2.42969 11.6966 2.48828 11.9245 2.60547 12.1328C2.68359 12.2891 2.77474 12.4193 2.87891 12.5234C2.99609 12.6276 3.11979 12.7253 3.25 12.8164C3.39323 12.9076 3.52995 12.9987 3.66016 13.0898C3.80339 13.181 3.93359 13.2917 4.05078 13.4219C4.3112 13.4219 4.48698 13.3568 4.57812 13.2266C4.68229 13.0833 4.75391 12.9206 4.79297 12.7383C4.84505 12.543 4.89714 12.3477 4.94922 12.1523C5.0013 11.957 5.11198 11.8008 5.28125 11.6836C5.29427 11.6836 5.30078 11.6836 5.30078 11.6836C5.30078 11.6706 5.30729 11.6641 5.32031 11.6641C5.26823 11.5339 5.26823 11.4036 5.32031 11.2734C5.38542 11.1432 5.45703 11.013 5.53516 10.8828C5.6263 10.7526 5.69792 10.6159 5.75 10.4727C5.8151 10.3294 5.82812 10.1732 5.78906 10.0039ZM31.1602 18.9492C30.9779 19.2617 30.8346 19.5156 30.7305 19.7109C30.6393 19.8932 30.5417 20.0495 30.4375 20.1797C30.3464 20.2969 30.2357 20.4076 30.1055 20.5117C29.9883 20.6029 29.819 20.7201 29.5977 20.8633C29.4544 20.9935 29.3112 21.1042 29.168 21.1953C29.0508 21.2865 28.9336 21.3646 28.8164 21.4297C28.7122 21.4948 28.6276 21.5273 28.5625 21.5273C28.5365 21.5273 28.5104 21.5208 28.4844 21.5078C28.4583 21.5078 28.4323 21.5078 28.4062 21.5078C28.3281 21.5078 28.25 21.5078 28.1719 21.5078C28.1068 21.5208 28.0482 21.4753 27.9961 21.3711C27.957 21.4102 27.9245 21.4557 27.8984 21.5078C27.8724 21.5599 27.8464 21.6055 27.8203 21.6445C27.7943 21.6966 27.7552 21.7357 27.7031 21.7617C27.6641 21.7878 27.6055 21.7878 27.5273 21.7617L27.4297 21.6445L27.1367 21.8984C26.7721 21.7161 26.4206 21.5599 26.082 21.4297C25.7565 21.3125 25.4635 21.1693 25.2031 21C24.9427 20.8307 24.7214 20.6159 24.5391 20.3555C24.3568 20.082 24.2266 19.7109 24.1484 19.2422C24.0833 19.1641 24.0117 19.099 23.9336 19.0469C23.8555 18.9818 23.7643 18.9622 23.6602 18.9883C23.5299 19.2096 23.3737 19.3984 23.1914 19.5547C23.0091 19.7109 22.8268 19.8802 22.6445 20.0625C22.5794 20.1276 22.5273 20.1992 22.4883 20.2773C22.4492 20.3555 22.3971 20.4271 22.332 20.4922C22.2279 20.6094 22.1042 20.694 21.9609 20.7461C21.8177 20.7852 21.6745 20.8242 21.5312 20.8633C21.388 20.9023 21.2513 20.9674 21.1211 21.0586C21.0039 21.1497 20.9193 21.306 20.8672 21.5273C20.7109 21.4362 20.5547 21.4102 20.3984 21.4492C20.2812 21.4753 20.1576 21.5013 20.0273 21.5273C19.8971 21.5664 19.7669 21.5859 19.6367 21.5859C19.5195 21.599 19.4023 21.5859 19.2852 21.5469C19.168 21.5078 19.0638 21.4232 18.9727 21.293C18.7904 21.3711 18.6211 21.3646 18.4648 21.2734C18.3086 21.1953 18.1589 21.0846 18.0156 20.9414C17.8854 20.7852 17.7552 20.6224 17.625 20.4531C17.4948 20.2839 17.3711 20.1602 17.2539 20.082C17.1758 19.8737 17.1823 19.6979 17.2734 19.5547C17.3516 19.3984 17.4427 19.2552 17.5469 19.125C17.638 18.9818 17.7031 18.8451 17.7422 18.7148C17.7812 18.5716 17.7227 18.4023 17.5664 18.207C17.6966 18.0117 17.8138 17.8099 17.918 17.6016C18.0221 17.3802 18.1263 17.1654 18.2305 16.957C18.3477 16.7357 18.4648 16.5273 18.582 16.332C18.7122 16.1237 18.8685 15.9479 19.0508 15.8047C18.9727 15.7135 18.9336 15.6289 18.9336 15.5508C18.9336 15.4596 18.9531 15.375 18.9922 15.2969C19.0312 15.2057 19.0768 15.1211 19.1289 15.043C19.181 14.9518 19.2201 14.8672 19.2461 14.7891L19.8125 14.5156L19.6758 14.0469C19.819 14.0729 19.9232 14.0664 19.9883 14.0273C20.0664 13.9883 20.1185 13.9297 20.1445 13.8516C20.1836 13.7734 20.2096 13.6888 20.2227 13.5977C20.2487 13.4935 20.2812 13.4023 20.3203 13.3242C20.3854 13.207 20.4831 13.1224 20.6133 13.0703C20.8867 12.862 21.1536 12.6406 21.4141 12.4062C21.6875 12.1719 21.9544 11.944 22.2148 11.7227C22.4883 11.5013 22.7682 11.293 23.0547 11.0977C23.3411 10.8893 23.6536 10.7135 23.9922 10.5703C24.2266 10.6094 24.4089 10.681 24.5391 10.7852C24.6823 10.8893 24.7865 11.013 24.8516 11.1562C24.9297 11.2995 24.9883 11.4622 25.0273 11.6445C25.0664 11.8138 25.1055 11.9831 25.1445 12.1523C25.2096 12.3737 25.2878 12.5625 25.3789 12.7188C25.4701 12.875 25.6263 13.0052 25.8477 13.1094C25.6654 13.4219 25.5938 13.7344 25.6328 14.0469C25.6719 14.3464 25.7109 14.6654 25.75 15.0039C25.7891 15.3164 25.7826 15.6224 25.7305 15.9219C25.6914 16.2214 25.5026 16.4883 25.1641 16.7227C25.138 16.8138 25.1315 16.9115 25.1445 17.0156C25.1576 17.1198 25.1641 17.224 25.1641 17.3281C25.1641 17.4323 25.1445 17.5299 25.1055 17.6211C25.0664 17.7122 24.9948 17.7839 24.8906 17.8359C25.0078 17.9792 25.0664 18.1224 25.0664 18.2656C25.0794 18.4089 25.0859 18.5456 25.0859 18.6758C25.099 18.806 25.1315 18.9232 25.1836 19.0273C25.2487 19.1315 25.3919 19.2096 25.6133 19.2617C25.6523 19.431 25.6849 19.5612 25.7109 19.6523C25.75 19.7305 25.7891 19.7956 25.8281 19.8477C25.8802 19.8997 25.9453 19.9518 26.0234 20.0039C26.1016 20.043 26.2057 20.1081 26.3359 20.1992C26.4401 20.2253 26.5573 20.2253 26.6875 20.1992C26.8177 20.1732 26.9219 20.2122 27 20.3164C27.0651 20.2513 27.1432 20.2188 27.2344 20.2188C27.3255 20.2057 27.4102 20.2057 27.4883 20.2188L27.7422 20.6484C27.8854 20.5443 28.0482 20.4531 28.2305 20.375C28.4128 20.2969 28.5885 20.2318 28.7578 20.1797C28.9531 20.1276 29.1484 20.082 29.3438 20.043L31.1602 18.9492ZM23.6602 12.2695C23.543 12.3737 23.3997 12.4779 23.2305 12.582C23.0612 12.6862 22.8919 12.7969 22.7227 12.9141C22.5664 13.0312 22.4297 13.1615 22.3125 13.3047C22.1953 13.4349 22.1237 13.5911 22.0977 13.7734C21.7982 13.8255 21.5898 13.9492 21.4727 14.1445C21.3555 14.3398 21.2578 14.5547 21.1797 14.7891C21.1016 15.0234 21.0169 15.2578 20.9258 15.4922C20.8346 15.7135 20.6719 15.8893 20.4375 16.0195C20.3594 16.0716 20.2878 16.0977 20.2227 16.0977C20.2357 16.0977 20.1966 16.1237 20.1055 16.1758C19.9622 16.2799 19.8385 16.4102 19.7344 16.5664C19.6302 16.7227 19.5391 16.8919 19.4609 17.0742C19.3958 17.2565 19.3307 17.4453 19.2656 17.6406C19.2135 17.8229 19.1615 17.9922 19.1094 18.1484C18.9271 18.1745 18.7904 18.2135 18.6992 18.2656C18.6081 18.3177 18.5495 18.3763 18.5234 18.4414C18.5104 18.4935 18.5169 18.5586 18.543 18.6367C18.569 18.7148 18.6081 18.7995 18.6602 18.8906C18.7122 18.9688 18.7643 19.0599 18.8164 19.1641C18.8815 19.2682 18.9336 19.3724 18.9727 19.4766C19.0117 19.5807 19.0312 19.6849 19.0312 19.7891C19.0443 19.8932 19.0182 19.9909 18.9531 20.082C19.1354 20.2253 19.3112 20.2578 19.4805 20.1797C19.6497 20.0885 19.806 19.9909 19.9492 19.8867C20.0013 19.8477 20.0534 19.8086 20.1055 19.7695C20.1706 19.7174 20.2357 19.6784 20.3008 19.6523C20.6003 19.7174 20.8737 19.6979 21.1211 19.5938C21.3685 19.4896 21.5964 19.3464 21.8047 19.1641C22.013 18.9818 22.2148 18.7865 22.4102 18.5781C22.6055 18.3698 22.8008 18.1875 22.9961 18.0312L22.8398 17.875C23.0742 17.8099 23.237 17.7253 23.3281 17.6211C23.4323 17.5039 23.4974 17.3737 23.5234 17.2305C23.5495 17.0872 23.5495 16.9375 23.5234 16.7812C23.4974 16.612 23.4779 16.4362 23.4648 16.2539C23.4518 16.1497 23.4453 16.0521 23.4453 15.9609C23.4583 15.8568 23.4844 15.7526 23.5234 15.6484C23.4193 15.349 23.3997 15.0625 23.4648 14.7891C23.543 14.5156 23.6406 14.2552 23.7578 14.0078C23.888 13.7474 24.0117 13.487 24.1289 13.2266C24.2461 12.9661 24.3047 12.6927 24.3047 12.4062L23.6602 12.2695ZM41.082 20.2969C41.0951 20.4531 41.069 20.5703 41.0039 20.6484C40.9388 20.7266 40.8477 20.7852 40.7305 20.8242C40.6263 20.8633 40.5091 20.8958 40.3789 20.9219C40.2487 20.9349 40.138 20.9674 40.0469 21.0195C39.6693 20.9805 39.3047 20.9284 38.9531 20.8633C38.6016 20.7852 38.276 20.6745 37.9766 20.5312C37.6771 20.375 37.4036 20.1732 37.1562 19.9258C36.9219 19.6784 36.7201 19.3659 36.5508 18.9883C36.7201 18.7148 36.7786 18.4154 36.7266 18.0898C36.6745 17.7513 36.6224 17.4258 36.5703 17.1133C36.5312 16.8008 36.5378 16.5143 36.5898 16.2539C36.6549 15.9935 36.8828 15.7852 37.2734 15.6289C37.2474 15.4857 37.2474 15.3294 37.2734 15.1602C37.3125 14.9909 37.2669 14.8477 37.1367 14.7305C36.681 14.8867 36.2839 15.1081 35.9453 15.3945C35.6068 15.681 35.2812 15.9935 34.9688 16.332C34.6693 16.6706 34.3633 17.0156 34.0508 17.3672C33.7513 17.7057 33.4193 18.0052 33.0547 18.2656C32.8854 18.2786 32.7031 18.2721 32.5078 18.2461C32.3255 18.207 32.1693 18.2591 32.0391 18.4023C32.0521 18.4935 32.0846 18.5716 32.1367 18.6367C32.1888 18.7018 32.2279 18.7669 32.2539 18.832C32.293 18.8971 32.3125 18.9688 32.3125 19.0469C32.3125 19.112 32.2669 19.1901 32.1758 19.2812C32.0456 19.4115 31.9023 19.5221 31.7461 19.6133C31.6029 19.6914 31.4596 19.7826 31.3164 19.8867C31.1862 19.9779 31.0755 20.0885 30.9844 20.2188C30.8932 20.349 30.8477 20.5247 30.8477 20.7461C30.7695 20.707 30.6979 20.7005 30.6328 20.7266C30.5677 20.7396 30.5091 20.7721 30.457 20.8242C30.3919 20.8763 30.3333 20.9349 30.2812 21C30.2292 21.0651 30.1771 21.1172 30.125 21.1562C30.099 21.2214 30.1055 21.2734 30.1445 21.3125C30.1836 21.3646 30.2292 21.4167 30.2812 21.4688C30.2292 21.612 30.1641 21.6966 30.0859 21.7227C29.9948 21.7617 29.9036 21.7682 29.8125 21.7422C29.7083 21.7161 29.6107 21.6706 29.5195 21.6055C29.4154 21.5534 29.3242 21.5078 29.2461 21.4688C29.207 21.2995 29.181 21.1042 29.168 20.8828C29.1549 20.6615 29.1615 20.4466 29.1875 20.2383C29.2135 20.0169 29.2656 19.8086 29.3438 19.6133C29.4219 19.418 29.5391 19.2552 29.6953 19.125C29.7474 19.0859 29.7799 19.0664 29.793 19.0664C29.806 19.0534 29.8125 19.0469 29.8125 19.0469C29.8125 19.0469 29.819 19.0469 29.832 19.0469C29.8451 19.0339 29.8711 19.0078 29.9102 18.9688C30.0143 18.8516 30.0859 18.7279 30.125 18.5977C30.1641 18.4544 30.1966 18.3112 30.2227 18.168C30.2487 18.0247 30.2878 17.888 30.3398 17.7578C30.3789 17.6146 30.457 17.4909 30.5742 17.3867C30.5221 17.1784 30.5221 16.9961 30.5742 16.8398C30.6393 16.6706 30.7174 16.5143 30.8086 16.3711C30.9128 16.2148 31.0104 16.0651 31.1016 15.9219C31.2057 15.7656 31.2708 15.5964 31.2969 15.4141C31.3099 15.349 31.3099 15.2904 31.2969 15.2383C31.2969 15.1732 31.2969 15.1081 31.2969 15.043C31.2708 14.8346 31.2904 14.6784 31.3555 14.5742C31.4336 14.457 31.5247 14.3659 31.6289 14.3008C31.7461 14.2227 31.8633 14.1445 31.9805 14.0664C32.1107 13.9883 32.2214 13.8711 32.3125 13.7148C32.6901 13.8971 32.9115 14.1445 32.9766 14.457C33.0547 14.7565 33.0807 15.0951 33.0547 15.4727C32.8333 15.6159 32.6641 15.8177 32.5469 16.0781C32.4297 16.3255 32.3516 16.5664 32.3125 16.8008C32.3385 16.8789 32.3711 16.9245 32.4102 16.9375C32.4622 16.9375 32.5143 16.931 32.5664 16.918C32.6315 16.8919 32.6901 16.8659 32.7422 16.8398C32.7943 16.8138 32.8464 16.8008 32.8984 16.8008C33.3672 16.4753 33.8294 16.1107 34.2852 15.707C34.7539 15.3034 35.1185 14.8411 35.3789 14.3203C35.7565 14.138 36.1146 13.9297 36.4531 13.6953C36.7917 13.4479 37.1628 13.2656 37.5664 13.1484L38.0156 12.6992C38.0807 12.8034 38.1589 12.8294 38.25 12.7773C38.3411 12.7122 38.4323 12.6406 38.5234 12.5625C38.6146 12.4844 38.6992 12.4388 38.7773 12.4258C38.8685 12.4128 38.9531 12.5039 39.0312 12.6992C39.1615 13.0378 39.194 13.3698 39.1289 13.6953C39.0638 14.0078 38.9596 14.3203 38.8164 14.6328C38.6862 14.9323 38.5495 15.2383 38.4062 15.5508C38.263 15.8633 38.1784 16.1823 38.1523 16.5078C38.1523 16.5859 38.1523 16.6706 38.1523 16.7617C38.1523 16.8398 38.1458 16.9245 38.1328 17.0156C38.1068 17.2891 38.0677 17.5885 38.0156 17.9141C37.9766 18.2266 37.9961 18.513 38.0742 18.7734C38.1393 19.0078 38.276 19.2161 38.4844 19.3984C38.6927 19.5807 38.875 19.763 39.0312 19.9453C39.1224 19.9323 39.2135 19.9388 39.3047 19.9648C39.3958 19.9909 39.4805 20.0169 39.5586 20.043C39.6497 20.069 39.7344 20.082 39.8125 20.082C39.8906 20.069 39.9688 20.0234 40.0469 19.9453C40.138 19.9062 40.2227 19.9128 40.3008 19.9648C40.3919 20.0039 40.4766 20.056 40.5547 20.1211C40.6328 20.1862 40.7109 20.2448 40.7891 20.2969C40.8802 20.3359 40.9779 20.3359 41.082 20.2969ZM57.3516 16.7422C57.0651 17.3932 56.8047 17.901 56.5703 18.2656C56.3359 18.6172 56.0755 18.9102 55.7891 19.1445C55.5156 19.3789 55.1966 19.6003 54.832 19.8086C54.4674 20.0039 54.0182 20.2839 53.4844 20.6484C53.263 20.6615 53.0221 20.7135 52.7617 20.8047C52.5013 20.8828 52.2799 20.9935 52.0977 21.1367C51.707 21.0977 51.349 21.013 51.0234 20.8828C50.6979 20.7526 50.3919 20.5443 50.1055 20.2578C50.0404 20.1927 49.9818 20.1211 49.9297 20.043C49.8776 19.9648 49.819 19.8932 49.7539 19.8281C49.6107 19.6589 49.5195 19.5091 49.4805 19.3789C49.4414 19.2487 49.4089 19.0794 49.3828 18.8711C49.3307 18.5716 49.2526 18.3568 49.1484 18.2266C49.0443 18.0964 48.8424 18.1615 48.543 18.4219L48.3672 18.2656L48.3281 18.3047C48.2109 18.3958 48.1133 18.474 48.0352 18.5391C47.9701 18.6042 47.8984 18.6758 47.8203 18.7539C47.7552 18.819 47.6901 18.8906 47.625 18.9688C47.5599 19.0469 47.4818 19.1445 47.3906 19.2617C47.2344 19.457 47.0586 19.6589 46.8633 19.8672C46.681 20.0755 46.4661 20.2188 46.2188 20.2969C46.1797 20.3359 46.1471 20.375 46.1211 20.4141C46.0951 20.4401 46.0495 20.4596 45.9844 20.4727C45.9062 20.4987 45.8151 20.4922 45.7109 20.4531C45.6068 20.4141 45.5221 20.362 45.457 20.2969C45.3138 20.2969 45.1836 20.3359 45.0664 20.4141C44.9622 20.4792 44.8581 20.5703 44.7539 20.6875C44.6628 20.7917 44.5716 20.9023 44.4805 21.0195C44.4023 21.1367 44.3112 21.2344 44.207 21.3125C43.9987 21.2344 43.8034 21.2214 43.6211 21.2734C43.4518 21.3255 43.2826 21.3711 43.1133 21.4102C42.944 21.4622 42.7747 21.4818 42.6055 21.4688C42.4362 21.4688 42.2669 21.3711 42.0977 21.1758C42.0195 20.7852 41.9544 20.4271 41.9023 20.1016C41.8503 19.8281 41.8047 19.5677 41.7656 19.3203C41.7266 19.0729 41.707 18.9232 41.707 18.8711C41.7721 18.806 41.8047 18.7214 41.8047 18.6172C41.7917 18.5 41.7721 18.4023 41.7461 18.3242C41.7201 18.3112 41.707 18.2982 41.707 18.2852C41.707 18.2721 41.694 18.2591 41.668 18.2461C41.7331 18.194 41.7852 18.1289 41.8242 18.0508C41.8503 17.9727 41.8958 17.9076 41.9609 17.8555C41.9219 17.7513 41.8763 17.6341 41.8242 17.5039C41.7721 17.3737 41.7461 17.2435 41.7461 17.1133C41.7852 17.0091 41.8242 16.9505 41.8633 16.9375C41.8893 16.9245 41.9609 16.9049 42.0781 16.8789C42.0651 16.8138 42.0521 16.7552 42.0391 16.7031C42.013 16.638 42.0065 16.5729 42.0195 16.5078C42.0195 16.3776 42.0521 16.2669 42.1172 16.1758C42.1693 16.0716 42.2279 15.974 42.293 15.8828C42.3581 15.7786 42.4167 15.668 42.4688 15.5508C42.5208 15.4336 42.5469 15.2969 42.5469 15.1406V15.043C42.7422 15.043 42.8724 14.9909 42.9375 14.8867C43.0026 14.7695 43.0417 14.6393 43.0547 14.4961C43.0677 14.3529 43.0742 14.2096 43.0742 14.0664C43.0742 13.9232 43.1133 13.819 43.1914 13.7539C43.2435 13.7018 43.2891 13.6823 43.3281 13.6953C43.3802 13.6953 43.4388 13.6953 43.5039 13.6953C43.582 13.6042 43.6341 13.5391 43.6602 13.5C43.6862 13.4479 43.6797 13.3568 43.6406 13.2266C43.7318 13.2266 43.8034 13.207 43.8555 13.168C43.9076 13.1289 43.9466 13.0768 43.9727 13.0117C44.0117 12.9466 44.0443 12.8815 44.0703 12.8164C44.1094 12.7513 44.1549 12.6927 44.207 12.6406C44.207 12.3151 44.2917 12.0872 44.4609 11.957C44.6302 11.8268 44.819 11.7227 45.0273 11.6445C45.2487 11.5534 45.4635 11.4492 45.6719 11.332C45.8932 11.2148 46.056 11.0065 46.1602 10.707C46.3294 10.8112 46.4727 10.8242 46.5898 10.7461C46.707 10.6549 46.8177 10.5638 46.9219 10.4727C47.026 10.3685 47.1432 10.3034 47.2734 10.2773C47.4036 10.2383 47.5664 10.3229 47.7617 10.5312C47.8398 10.2839 47.9961 10.1536 48.2305 10.1406C48.4779 10.1276 48.6992 10.1797 48.8945 10.2969V10.3164H48.9141C49.1224 10.3555 49.2786 10.4596 49.3828 10.6289C49.487 10.7852 49.5716 10.9674 49.6367 11.1758C49.7148 11.3711 49.793 11.5664 49.8711 11.7617C49.9622 11.957 50.0859 12.1133 50.2422 12.2305C50.3203 11.8919 50.3919 11.5469 50.457 11.1953C50.5352 10.8438 50.6589 10.5117 50.8281 10.1992C50.9453 10.3424 51.069 10.3685 51.1992 10.2773L51.1797 10.2383C51.1797 10.0299 51.2188 9.84115 51.2969 9.67188C51.388 9.5026 51.4727 9.33984 51.5508 9.18359C51.6419 9.01432 51.694 8.84505 51.707 8.67578C51.7331 8.49349 51.6745 8.29167 51.5312 8.07031C51.7526 8.00521 51.9089 7.88151 52 7.69922C52.1042 7.51693 52.1823 7.32161 52.2344 7.11328C52.2995 6.89193 52.3646 6.67057 52.4297 6.44922C52.5078 6.22786 52.625 6.03906 52.7812 5.88281C52.7812 5.84375 52.7747 5.80469 52.7617 5.76562C52.7617 5.72656 52.7617 5.6875 52.7617 5.64844C52.7747 5.54427 52.8138 5.45312 52.8789 5.375C52.944 5.29688 53.0156 5.21875 53.0938 5.14062C53.1719 5.0625 53.237 4.97786 53.2891 4.88672C53.3542 4.78255 53.3802 4.65885 53.3672 4.51562C53.4974 4.34635 53.6146 4.125 53.7188 3.85156C53.8229 3.5651 53.9336 3.29818 54.0508 3.05078C54.168 2.80339 54.3047 2.62109 54.4609 2.50391C54.6172 2.3737 54.819 2.38021 55.0664 2.52344C55.1185 2.67969 55.138 2.82292 55.125 2.95312C55.112 3.07031 55.0404 3.19401 54.9102 3.32422C54.9883 3.40234 55.0469 3.46745 55.0859 3.51953C55.0469 3.92318 54.9688 4.32682 54.8516 4.73047C54.7474 5.12109 54.6432 5.50521 54.5391 5.88281C54.5651 5.90885 54.5911 5.9349 54.6172 5.96094C54.6432 5.98698 54.6693 6.01302 54.6953 6.03906C54.474 6.35156 54.2917 6.66406 54.1484 6.97656C54.0182 7.28906 53.901 7.6276 53.7969 7.99219C53.7578 8.13542 53.7188 8.28516 53.6797 8.44141C53.6536 8.59766 53.6146 8.74089 53.5625 8.87109C53.4974 9.0013 53.4193 9.14453 53.3281 9.30078C53.237 9.44401 53.1589 9.58724 53.0938 9.73047C52.9505 10.0299 52.8203 10.3359 52.7031 10.6484C52.599 10.9479 52.4948 11.2539 52.3906 11.5664C52.2604 11.944 52.1237 12.3151 51.9805 12.6797C51.8503 13.0443 51.6875 13.4023 51.4922 13.7539V14.0664C51.4792 14.2096 51.4336 14.3138 51.3555 14.3789C51.2773 14.431 51.1862 14.4831 51.082 14.5352C50.9909 14.5742 50.8997 14.6393 50.8086 14.7305C50.7174 14.8086 50.6523 14.9453 50.6133 15.1406V15.1602L50.6328 15.1797C50.763 15.4661 50.7891 15.7331 50.7109 15.9805C50.6458 16.2148 50.5677 16.4492 50.4766 16.6836C50.3854 16.9049 50.3203 17.1263 50.2812 17.3477C50.2552 17.569 50.3464 17.7969 50.5547 18.0312C50.5417 18.2917 50.5938 18.5 50.7109 18.6562C50.8281 18.7995 50.9648 18.9232 51.1211 19.0273C51.2773 19.1315 51.4336 19.2292 51.5898 19.3203C51.7591 19.3984 51.8828 19.5026 51.9609 19.6328C52.0911 19.5026 52.2279 19.4049 52.3711 19.3398C52.5273 19.2617 52.6771 19.2031 52.8203 19.1641C52.9766 19.125 53.1263 19.0924 53.2695 19.0664C53.4258 19.0273 53.5755 18.9818 53.7188 18.9297C54.0573 18.8385 54.2917 18.7279 54.4219 18.5977C54.5521 18.4674 54.6172 18.3828 54.6172 18.3438C54.6302 18.1615 54.6953 18.0443 54.8125 17.9922C54.9427 17.9401 55.0859 17.9076 55.2422 17.8945C55.4115 17.8685 55.5742 17.8359 55.7305 17.7969C55.8997 17.7578 56.0234 17.6602 56.1016 17.5039C56.2448 17.5169 56.3685 17.4714 56.4727 17.3672C56.5898 17.25 56.694 17.1328 56.7852 17.0156C56.8763 16.8984 56.9674 16.8008 57.0586 16.7227C57.1497 16.6445 57.2474 16.651 57.3516 16.7422ZM49.3242 13.7344C49.1159 13.5781 48.9727 13.4023 48.8945 13.207C48.8294 12.9987 48.7708 12.7904 48.7188 12.582C48.6797 12.3737 48.6211 12.1784 48.543 11.9961C48.4779 11.8008 48.3411 11.638 48.1328 11.5078L48.0938 11.4883C48.0807 11.4883 48.0091 11.5013 47.8789 11.5273C47.7487 11.5534 47.6706 11.5729 47.6445 11.5859C47.7487 11.6771 47.8138 11.7552 47.8398 11.8203C47.8659 11.8854 47.8659 11.9505 47.8398 12.0156C47.8268 12.0807 47.7943 12.1523 47.7422 12.2305C47.7031 12.2956 47.6706 12.3802 47.6445 12.4844C47.6185 12.5104 47.5664 12.5039 47.4883 12.4648C47.4102 12.4128 47.3516 12.3737 47.3125 12.3477C47.1302 12.6211 46.8698 12.8034 46.5312 12.8945C46.2057 12.9727 45.8932 13.0508 45.5938 13.1289C45.6198 13.194 45.6458 13.2526 45.6719 13.3047C45.6979 13.3568 45.724 13.4154 45.75 13.4805C45.3594 13.7409 45.0729 14.0599 44.8906 14.4375C44.7214 14.8021 44.5651 15.1862 44.4219 15.5898C44.2917 15.9805 44.1289 16.3646 43.9336 16.7422C43.7513 17.1068 43.4648 17.4193 43.0742 17.6797C43.1393 17.7839 43.1849 17.888 43.2109 17.9922C43.237 18.0964 43.3216 18.1745 43.4648 18.2266C43.5039 18.3698 43.5169 18.5195 43.5039 18.6758C43.5039 18.819 43.4909 18.9622 43.4648 19.1055C43.4388 19.2487 43.4193 19.3984 43.4062 19.5547C43.4062 19.6979 43.4258 19.8477 43.4648 20.0039L43.5039 20.043C43.9076 20.1862 44.2201 20.1992 44.4414 20.082C44.6758 19.9648 44.8776 19.8151 45.0469 19.6328C45.2292 19.4505 45.4245 19.2812 45.6328 19.125C45.8411 18.9688 46.1341 18.9297 46.5117 19.0078L46.5898 18.8906C46.5638 18.8255 46.5443 18.7669 46.5312 18.7148C46.5182 18.6628 46.5117 18.6042 46.5117 18.5391C46.5247 18.3958 46.5638 18.2852 46.6289 18.207C46.694 18.1159 46.7786 18.0182 46.8828 17.9141C46.974 17.8099 47.0586 17.6992 47.1367 17.582C47.2279 17.4648 47.3125 17.3411 47.3906 17.2109C47.4688 17.0938 47.5599 16.9961 47.6641 16.918C47.7682 16.8268 47.9049 16.8138 48.0742 16.8789L48.4453 15.4727C48.4583 15.4076 48.5169 15.349 48.6211 15.2969C48.7383 15.2448 48.8359 15.1862 48.9141 15.1211C49.0052 15.056 49.0573 14.9714 49.0703 14.8672C49.0964 14.763 49.0247 14.6263 48.8555 14.457C48.8815 14.4049 48.901 14.3398 48.9141 14.2617C48.9271 14.1836 48.9466 14.112 48.9727 14.0469C48.9987 13.9818 49.0312 13.9297 49.0703 13.8906C49.1094 13.8516 49.1745 13.8451 49.2656 13.8711L49.3242 13.7344ZM69.6367 6.87891C69.4544 7.07422 69.2526 7.17839 69.0312 7.19141C68.8099 7.19141 68.5885 7.17188 68.3672 7.13281C68.1589 7.09375 67.9505 7.08073 67.7422 7.09375C67.5469 7.09375 67.3776 7.19792 67.2344 7.40625C67.026 7.35417 66.8112 7.34766 66.5898 7.38672C66.3685 7.41276 66.1406 7.45833 65.9062 7.52344C65.6719 7.57552 65.4375 7.6276 65.2031 7.67969C64.9688 7.73177 64.7344 7.7513 64.5 7.73828L64.168 7.40625C64.0768 7.54948 63.9466 7.64062 63.7773 7.67969C63.6211 7.70573 63.4648 7.66667 63.3086 7.5625C63.0352 7.74479 62.7617 7.82943 62.4883 7.81641C62.2148 7.80339 61.9479 7.79688 61.6875 7.79688C61.4271 7.78385 61.1797 7.83594 60.9453 7.95312C60.724 8.05729 60.5352 8.32422 60.3789 8.75391C60.2617 9.05339 60.151 9.35938 60.0469 9.67188C59.9427 9.97135 59.8385 10.2708 59.7344 10.5703C59.4479 11.3516 59.1549 12.1263 58.8555 12.8945C58.569 13.6497 58.2435 14.3984 57.8789 15.1406C57.8529 15.7266 57.8659 16.319 57.918 16.918C57.9701 17.5169 58.0286 18.1094 58.0938 18.6953C58.0417 18.8516 58.0221 19.0143 58.0352 19.1836C58.0612 19.3529 58.1068 19.5221 58.1719 19.6914C58.237 19.8607 58.3151 20.0234 58.4062 20.1797C58.4974 20.3229 58.5951 20.4531 58.6992 20.5703L59.0508 20.2383L59.5391 20.9219C59.6693 20.7526 59.819 20.5768 59.9883 20.3945C60.1706 20.1992 60.3594 20.0234 60.5547 19.8672C60.75 19.6979 60.9518 19.5612 61.1602 19.457C61.3815 19.3398 61.6029 19.2617 61.8242 19.2227C61.9154 19.1315 62 19.0339 62.0781 18.9297C62.1562 18.8255 62.2409 18.7409 62.332 18.6758C62.4232 18.5977 62.5208 18.5456 62.625 18.5195C62.7422 18.4805 62.8789 18.487 63.0352 18.5391C63.4518 18.3047 63.8229 18.0117 64.1484 17.6602C64.474 17.2956 64.7995 16.9375 65.125 16.5859C65.4505 16.2214 65.7891 15.8893 66.1406 15.5898C66.5052 15.2904 66.9284 15.082 67.4102 14.9648C67.0977 15.7201 66.7005 16.4557 66.2188 17.1719C65.737 17.875 65.1966 18.5065 64.5977 19.0664C64.4414 19.2487 64.2461 19.4115 64.0117 19.5547C63.9076 19.6198 63.7969 19.6914 63.6797 19.7695C63.5625 19.8346 63.4518 19.8997 63.3477 19.9648C62.9961 20.1992 62.6576 20.4531 62.332 20.7266C62.0065 20.987 61.694 21.2799 61.3945 21.6055C61.3555 21.5273 61.3034 21.4753 61.2383 21.4492C61.1732 21.4232 61.0951 21.4102 61.0039 21.4102C60.9258 21.4102 60.8411 21.4167 60.75 21.4297C60.6719 21.4427 60.6003 21.4427 60.5352 21.4297C60.2878 21.612 59.9622 21.7552 59.5586 21.8594C59.168 21.9766 58.8164 22.0026 58.5039 21.9375C58.4128 21.9115 58.2891 21.8594 58.1328 21.7812C57.9766 21.7161 57.8594 21.6576 57.7812 21.6055C57.2734 21.2669 56.8893 20.8503 56.6289 20.3555C56.3815 19.8477 56.2448 19.2943 56.2188 18.6953L56.0625 18.5391C56.2318 18.3828 56.3359 18.2266 56.375 18.0703C56.4271 17.9141 56.4401 17.7578 56.4141 17.6016C56.401 17.4323 56.3685 17.263 56.3164 17.0938C56.2773 16.9115 56.2513 16.7292 56.2383 16.5469C56.2253 16.4297 56.2253 16.332 56.2383 16.2539C56.2643 16.1758 56.2904 16.0846 56.3164 15.9805C56.4206 15.5638 56.5182 15.1602 56.6094 14.7695C56.7005 14.3659 56.7982 13.9622 56.9023 13.5586C57.1628 12.569 57.4622 11.5924 57.8008 10.6289C58.1523 9.65234 58.5169 8.6888 58.8945 7.73828C58.6862 7.66016 58.4779 7.61458 58.2695 7.60156C58.0612 7.57552 57.8464 7.5625 57.625 7.5625C57.4167 7.5625 57.2018 7.55599 56.9805 7.54297C56.7721 7.52995 56.5638 7.48438 56.3555 7.40625C56.2643 7.36719 56.2188 7.34766 56.2188 7.34766C56.2188 7.33464 56.1667 7.32812 56.0625 7.32812C55.9974 7.32812 55.9062 7.34115 55.7891 7.36719C55.6719 7.38021 55.5547 7.38672 55.4375 7.38672C55.3203 7.38672 55.2161 7.3737 55.125 7.34766C55.0208 7.32161 54.9622 7.26302 54.9492 7.17188V6.97656C54.9622 6.76823 55.0078 6.63151 55.0859 6.56641C55.1641 6.48828 55.2617 6.44271 55.3789 6.42969C55.4961 6.40365 55.6263 6.39062 55.7695 6.39062C55.9128 6.3776 56.0495 6.33203 56.1797 6.25391C56.5443 6.33203 56.8893 6.39062 57.2148 6.42969C57.5404 6.45573 57.8529 6.44922 58.1523 6.41016C58.4648 6.37109 58.7643 6.28646 59.0508 6.15625C59.3503 6.02604 59.6432 5.83073 59.9297 5.57031C60.138 5.16667 60.2943 4.73698 60.3984 4.28125C60.5026 3.8125 60.6198 3.35677 60.75 2.91406C60.8932 2.45833 61.0755 2.04167 61.2969 1.66406C61.5182 1.27344 61.8568 0.947917 62.3125 0.6875C62.5208 0.661458 62.7031 0.6875 62.8594 0.765625C63.0156 0.84375 63.1719 0.928385 63.3281 1.01953C63.263 1.20182 63.2109 1.39062 63.1719 1.58594C63.1328 1.78125 63.0872 1.97656 63.0352 2.17188C62.9961 2.36719 62.944 2.55599 62.8789 2.73828C62.8138 2.92057 62.7161 3.08984 62.5859 3.24609C62.7552 3.3112 62.8529 3.38932 62.8789 3.48047C62.9049 3.57161 62.8919 3.66927 62.8398 3.77344C62.7878 3.8776 62.7227 3.98828 62.6445 4.10547C62.5664 4.22266 62.5208 4.32682 62.5078 4.41797C62.3646 4.43099 62.2409 4.52214 62.1367 4.69141C62.0456 4.86068 61.9479 4.99089 61.8438 5.08203C61.7396 5.30339 61.7591 5.49219 61.9023 5.64844C62.0456 5.80469 62.1758 5.95443 62.293 6.09766C62.4102 6.13672 62.5273 6.14323 62.6445 6.11719C62.7617 6.07812 62.8659 6.03906 62.957 6C63.0612 5.96094 63.1589 5.94141 63.25 5.94141C63.3411 5.94141 63.4258 5.99349 63.5039 6.09766C63.6341 5.95443 63.7643 5.89583 63.8945 5.92188C64.0247 5.9349 64.1549 5.96745 64.2852 6.01953C64.4154 6.05859 64.5456 6.07812 64.6758 6.07812C64.806 6.0651 64.9297 5.96094 65.0469 5.76562C65.2031 5.6875 65.3464 5.66797 65.4766 5.70703C65.6198 5.74609 65.75 5.79818 65.8672 5.86328C65.9844 5.91536 66.0951 5.96094 66.1992 6C66.3164 6.02604 66.4336 6 66.5508 5.92188C66.7461 5.94792 66.9609 5.95443 67.1953 5.94141C67.4427 5.92839 67.6836 5.90234 67.918 5.86328C68.1654 5.82422 68.4062 5.77865 68.6406 5.72656C68.888 5.66146 69.1094 5.60938 69.3047 5.57031C69.5 5.6875 69.6172 5.79167 69.6562 5.88281C69.6953 5.97396 69.7018 6.0651 69.6758 6.15625C69.6628 6.2474 69.6367 6.35156 69.5977 6.46875C69.5716 6.57292 69.5846 6.70964 69.6367 6.87891ZM79.5586 15.0234C79.4414 15.1406 79.3503 15.2318 79.2852 15.2969C79.2331 15.362 79.181 15.4271 79.1289 15.4922C79.0898 15.5443 79.0378 15.6029 78.9727 15.668C78.9206 15.7331 78.8359 15.8307 78.7188 15.9609C78.6146 16.0651 78.5169 16.1758 78.4258 16.293C78.3346 16.4102 78.2305 16.5143 78.1133 16.6055C77.957 16.5664 77.8333 16.5859 77.7422 16.6641C77.6641 16.7422 77.5859 16.8333 77.5078 16.9375C77.4427 17.0286 77.3776 17.1198 77.3125 17.2109C77.2604 17.2891 77.1888 17.3216 77.0977 17.3086C76.7852 17.4779 76.4727 17.6276 76.1602 17.7578C75.8477 17.875 75.5482 18.0508 75.2617 18.2852L75.1055 18.1289L73.0742 19.1055C73.0091 19.1315 72.944 19.1706 72.8789 19.2227C72.8138 19.2747 72.7487 19.3203 72.6836 19.3594C72.3971 19.5156 72.0977 19.6589 71.7852 19.7891C71.4857 19.9062 71.1862 20.0169 70.8867 20.1211L70.6328 20.1992C70.737 20.4596 70.737 20.6419 70.6328 20.7461C70.5286 20.8503 70.3789 20.9284 70.1836 20.9805C69.9883 21.0195 69.7734 21.0456 69.5391 21.0586C69.3047 21.0716 69.1224 21.1172 68.9922 21.1953C68.8359 21.1693 68.6732 21.1562 68.5039 21.1562C68.3477 21.1693 68.1849 21.1888 68.0156 21.2148C67.8333 21.2409 67.6641 21.2539 67.5078 21.2539C67.3516 21.2539 67.1823 21.2344 67 21.1953H66.9609C66.7396 21.2995 66.5443 21.319 66.375 21.2539C66.2188 21.2018 66.0755 21.1107 65.9453 20.9805C65.8151 20.8372 65.6914 20.6745 65.5742 20.4922C65.4701 20.2969 65.3594 20.1211 65.2422 19.9648C65.1641 19.8607 65.0664 19.7109 64.9492 19.5156C64.832 19.3203 64.7344 19.112 64.6562 18.8906C64.5651 18.6693 64.513 18.4479 64.5 18.2266C64.474 17.9922 64.5195 17.7904 64.6367 17.6211C64.7539 17.4518 64.8516 17.2695 64.9297 17.0742C64.9948 16.8789 65.0273 16.651 65.0273 16.3906C65.0273 16.2995 65.0273 16.2148 65.0273 16.1367C65.0143 16.0586 65.0078 15.974 65.0078 15.8828C65.0729 15.8828 65.1445 15.8893 65.2227 15.9023C65.3008 15.9023 65.3724 15.9023 65.4375 15.9023C65.5156 15.8893 65.5742 15.8633 65.6133 15.8242C65.6654 15.7721 65.6914 15.6875 65.6914 15.5703C65.6914 15.5052 65.6654 15.4531 65.6133 15.4141C65.5742 15.375 65.5482 15.3359 65.5352 15.2969C65.6133 15.1797 65.6849 15.0885 65.75 15.0234C65.8281 14.9453 65.8932 14.8737 65.9453 14.8086C65.9974 14.7305 66.0365 14.6458 66.0625 14.5547C66.0885 14.4505 66.082 14.3138 66.043 14.1445C66.1992 13.8711 66.3815 13.6302 66.5898 13.4219C66.8112 13.2005 67.0391 12.9987 67.2734 12.8164C67.5078 12.6211 67.7487 12.4323 67.9961 12.25C68.2435 12.0677 68.4779 11.8724 68.6992 11.6641C68.9466 11.7682 69.1419 11.7682 69.2852 11.6641C69.4414 11.5599 69.5781 11.4492 69.6953 11.332C69.8125 11.2018 69.9297 11.0977 70.0469 11.0195C70.1641 10.9414 70.3203 10.974 70.5156 11.1172L70.5547 11.1562C70.9062 10.8047 71.2578 10.6484 71.6094 10.6875C71.974 10.7266 72.2799 10.8438 72.5273 11.0391C72.7878 11.2344 72.957 11.4622 73.0352 11.7227C73.1133 11.9701 73.0417 12.1393 72.8203 12.2305C72.9635 12.3737 73.0352 12.543 73.0352 12.7383C73.0352 12.9336 72.9831 13.1029 72.8789 13.2461C72.7617 13.4023 72.6576 13.5651 72.5664 13.7344C72.4883 13.8906 72.4036 14.0599 72.3125 14.2422C72.1823 14.5417 72.0391 14.8281 71.8828 15.1016C71.7266 15.362 71.5052 15.5833 71.2188 15.7656C70.9844 15.7005 70.8216 15.7266 70.7305 15.8438C70.6523 15.9609 70.5938 16.0911 70.5547 16.2344C70.5156 16.3646 70.4701 16.4688 70.418 16.5469C70.3659 16.625 70.2552 16.599 70.0859 16.4688L70.0469 16.4297L70.0078 16.4688C69.9036 16.5729 69.819 16.6901 69.7539 16.8203C69.7018 16.9505 69.6237 17.0482 69.5195 17.1133C69.4023 17.0742 69.2786 17.0417 69.1484 17.0156C69.0182 16.9896 68.8945 16.9635 68.7773 16.9375C68.7773 17.2109 68.7253 17.4258 68.6211 17.582C68.5169 17.7383 68.3802 17.8685 68.2109 17.9727C68.0547 18.0638 67.8724 18.1419 67.6641 18.207C67.4557 18.2591 67.2474 18.3307 67.0391 18.4219C66.8438 18.5 66.6549 18.6042 66.4727 18.7344C66.3034 18.8516 66.1667 19.0208 66.0625 19.2422C66.1927 19.3854 66.3555 19.4701 66.5508 19.4961C66.7461 19.5091 66.9479 19.5091 67.1562 19.4961C67.3646 19.4701 67.5664 19.457 67.7617 19.457C67.9701 19.457 68.1523 19.5091 68.3086 19.6133L68.3281 19.6328L68.3477 19.6133C68.6602 19.5742 68.9596 19.5026 69.2461 19.3984C69.5456 19.2812 69.832 19.1641 70.1055 19.0469C70.3919 18.9167 70.6784 18.7995 70.9648 18.6953C71.2643 18.5781 71.5703 18.4935 71.8828 18.4414C71.9479 18.5456 72.0326 18.6042 72.1367 18.6172C72.2539 18.6302 72.3646 18.6237 72.4688 18.5977L72.4883 18.5586C72.5143 18.4674 72.5404 18.3893 72.5664 18.3242C72.5924 18.2461 72.6315 18.1615 72.6836 18.0703C72.7747 17.9271 72.8854 17.8164 73.0156 17.7383C73.1458 17.6602 73.2826 17.6016 73.4258 17.5625C73.582 17.5234 73.7448 17.4974 73.9141 17.4844C74.0833 17.4714 74.2526 17.4518 74.4219 17.4258H74.4609L74.4805 17.3672C74.5326 17.2109 74.5977 17.1068 74.6758 17.0547C74.7669 16.9896 74.8581 16.944 74.9492 16.918C75.0534 16.8919 75.1576 16.8724 75.2617 16.8594C75.3789 16.8464 75.4896 16.8073 75.5938 16.7422C75.8281 16.8203 76.0234 16.7943 76.1797 16.6641C76.3359 16.5339 76.4857 16.3971 76.6289 16.2539L76.7852 16.4492L76.8438 16.3711C77.0391 16.1888 77.1823 16.0521 77.2734 15.9609C77.3776 15.8698 77.4753 15.7917 77.5664 15.7266C77.6576 15.6484 77.7617 15.5768 77.8789 15.5117C78.0091 15.4336 78.1849 15.3229 78.4062 15.1797C78.5885 15.0625 78.7643 14.9453 78.9336 14.8281C79.1159 14.7109 79.2917 14.5807 79.4609 14.4375C79.526 14.4635 79.5586 14.5156 79.5586 14.5938C79.5586 14.6589 79.5586 14.724 79.5586 14.7891C79.5456 14.8151 79.5326 14.8542 79.5195 14.9062C79.5195 14.9583 79.5326 14.9974 79.5586 15.0234ZM71.4727 12.582C71.4596 12.569 71.4466 12.5625 71.4336 12.5625C71.4336 12.5625 71.4271 12.556 71.4141 12.543C71.1406 12.3997 70.9128 12.3346 70.7305 12.3477C70.5482 12.3477 70.3789 12.3997 70.2227 12.5039C70.0794 12.5951 69.9427 12.7188 69.8125 12.875C69.6953 13.0182 69.5651 13.1549 69.4219 13.2852C69.2917 13.4023 69.1354 13.4935 68.9531 13.5586C68.7708 13.6237 68.5495 13.6172 68.2891 13.5391C68.25 13.7474 68.2109 13.9557 68.1719 14.1641C68.1458 14.3594 68.1263 14.5612 68.1133 14.7695C67.8919 14.8477 67.7161 14.9583 67.5859 15.1016C67.4688 15.2448 67.3646 15.401 67.2734 15.5703C67.1953 15.7396 67.1172 15.9219 67.0391 16.1172C66.974 16.2995 66.8828 16.4753 66.7656 16.6445L66.8438 16.7422C66.8958 16.7161 66.9544 16.7357 67.0195 16.8008C67.0846 16.8659 67.1302 16.9115 67.1562 16.9375C67.2995 16.7292 67.4883 16.5534 67.7227 16.4102C67.9701 16.2669 68.2174 16.1367 68.4648 16.0195C68.7253 15.8893 68.9727 15.7526 69.207 15.6094C69.4414 15.4661 69.6172 15.2773 69.7344 15.043C70.151 14.9258 70.4635 14.6914 70.6719 14.3398C70.8802 13.9883 71.056 13.6237 71.1992 13.2461C71.2253 13.168 71.2708 13.0573 71.3359 12.9141C71.4141 12.7578 71.4596 12.6471 71.4727 12.582ZM91.375 15.6875C91.349 16.0391 91.2513 16.3516 91.082 16.625C90.9258 16.8984 90.7305 17.1523 90.4961 17.3867C90.2617 17.6081 90.0078 17.8229 89.7344 18.0312C89.4609 18.2266 89.2135 18.4349 88.9922 18.6562C89.0312 18.9297 88.9922 19.0924 88.875 19.1445C88.7578 19.1966 88.6146 19.2292 88.4453 19.2422C88.2891 19.2422 88.1263 19.2617 87.957 19.3008C87.8008 19.3268 87.6966 19.457 87.6445 19.6914C87.4622 19.6914 87.3125 19.75 87.1953 19.8672C87.0781 19.9844 86.9609 20.1081 86.8438 20.2383C86.7266 20.3555 86.5898 20.4596 86.4336 20.5508C86.2904 20.6289 86.1016 20.6484 85.8672 20.6094C85.8021 20.7396 85.7174 20.8242 85.6133 20.8633C85.5091 20.9023 85.3984 20.9284 85.2812 20.9414C85.1641 20.9544 85.0469 20.974 84.9297 21C84.8255 21.026 84.7344 21.0911 84.6562 21.1953L84.3633 20.7656C83.8034 21.013 83.2565 21.1172 82.7227 21.0781C82.2018 21.0391 81.6484 20.9805 81.0625 20.9023C80.9844 20.7591 80.8932 20.6289 80.7891 20.5117C80.6979 20.3945 80.6003 20.2773 80.4961 20.1602C80.4049 20.043 80.3138 19.9258 80.2227 19.8086C80.1445 19.6914 80.0794 19.5547 80.0273 19.3984L80.3203 19.1055L80.0273 18.8125C80.0273 18.7083 80.0339 18.5911 80.0469 18.4609C80.0599 18.3307 80.0599 18.207 80.0469 18.0898C80.0469 17.9596 80.0208 17.8424 79.9688 17.7383C79.9297 17.6211 79.8451 17.5299 79.7148 17.4648C79.4154 17.7513 79.1549 18.0703 78.9336 18.4219C78.7253 18.7604 78.5169 19.112 78.3086 19.4766C78.1133 19.8411 77.9049 20.1992 77.6836 20.5508C77.4622 20.9023 77.1953 21.2214 76.8828 21.5078C76.9479 21.7031 76.9284 21.8333 76.8242 21.8984C76.7201 21.9635 76.5898 22.0286 76.4336 22.0938C76.1862 21.8464 76.043 21.5859 76.0039 21.3125C75.9518 21.0521 75.9583 20.7786 76.0234 20.4922C76.0885 20.2057 76.1862 19.9258 76.3164 19.6523C76.4336 19.3659 76.5443 19.0924 76.6484 18.832C76.7135 18.6758 76.7656 18.526 76.8047 18.3828C76.8307 18.2396 76.8568 18.0833 76.8828 17.9141C76.9089 17.8099 76.9349 17.7122 76.9609 17.6211C77 17.5169 77.0326 17.4128 77.0586 17.3086C77.1107 17.0872 77.1562 16.8789 77.1953 16.6836C77.2474 16.4753 77.2865 16.2604 77.3125 16.0391C77.4427 15.2708 77.5664 14.5026 77.6836 13.7344C77.8138 12.9531 78.0286 12.2044 78.3281 11.4883C78.3802 10.7982 78.5495 10.1667 78.8359 9.59375C79.1224 9.02083 79.4544 8.45443 79.832 7.89453C79.7799 7.7513 79.7865 7.59505 79.8516 7.42578C79.9297 7.24349 80.0273 7.06771 80.1445 6.89844C80.2747 6.71615 80.4049 6.54688 80.5352 6.39062C80.6784 6.22135 80.7891 6.07812 80.8672 5.96094C80.7109 5.7526 80.6849 5.57682 80.7891 5.43359C80.9062 5.29036 81.056 5.14714 81.2383 5.00391C81.4206 4.86068 81.5833 4.71094 81.7266 4.55469C81.8828 4.39844 81.9219 4.20964 81.8438 3.98828C81.9219 3.81901 82.0521 3.6888 82.2344 3.59766C82.4167 3.50651 82.6055 3.42188 82.8008 3.34375C82.9961 3.26562 83.1719 3.18099 83.3281 3.08984C83.4844 2.98568 83.5755 2.84245 83.6016 2.66016C83.9401 2.64714 84.2266 2.70573 84.4609 2.83594C84.6953 2.95312 84.9102 3.14193 85.1055 3.40234C85.0924 3.49349 85.0924 3.60417 85.1055 3.73438C85.1185 3.85156 85.125 3.97526 85.125 4.10547C85.125 4.22266 85.112 4.33984 85.0859 4.45703C85.0729 4.5612 85.0273 4.65234 84.9492 4.73047C85.0534 4.80859 85.0924 4.91276 85.0664 5.04297C85.0534 5.16016 85.0143 5.28385 84.9492 5.41406C84.8971 5.54427 84.8385 5.67448 84.7734 5.80469C84.7083 5.9349 84.6758 6.05208 84.6758 6.15625C84.6628 6.52083 84.5651 6.89193 84.3828 7.26953C84.2135 7.63411 84.0052 7.94661 83.7578 8.20703C83.6016 8.85807 83.3997 9.48958 83.1523 10.1016C82.9049 10.7005 82.5599 11.2604 82.1172 11.7812C82.1693 11.8984 82.1562 12.0026 82.0781 12.0938C82.013 12.1719 81.9349 12.2565 81.8438 12.3477C81.7656 12.4258 81.707 12.5039 81.668 12.582C81.6419 12.6602 81.694 12.7448 81.8242 12.8359C82.2018 12.25 82.6771 11.8008 83.25 11.4883C83.8359 11.1758 84.4544 10.9284 85.1055 10.7461C85.1966 10.8372 85.2878 10.9023 85.3789 10.9414C85.4831 10.9674 85.5872 11 85.6914 11.0391C85.7695 10.8828 85.8607 10.8047 85.9648 10.8047C86.069 10.8047 86.1732 10.8438 86.2773 10.9219C86.3815 10.987 86.4857 11.0651 86.5898 11.1562C86.707 11.2474 86.8112 11.306 86.9023 11.332C87.0977 11.4753 87.2214 11.6445 87.2734 11.8398C87.3255 12.0352 87.3516 12.2435 87.3516 12.4648C87.3516 12.6732 87.3516 12.888 87.3516 13.1094C87.3516 13.3307 87.3971 13.5326 87.4883 13.7148C87.2539 14.1836 86.9544 14.6198 86.5898 15.0234C86.2383 15.4271 85.8932 15.8372 85.5547 16.2539L85.3984 16.1172C85.0339 16.4688 84.6107 16.7878 84.1289 17.0742C83.6602 17.3477 83.1914 17.5755 82.7227 17.7578C82.5404 17.6667 82.3711 17.5885 82.2148 17.5234C82.0586 17.4453 81.8698 17.4258 81.6484 17.4648C81.349 17.6862 81.1667 17.9792 81.1016 18.3438C81.0365 18.7083 81.0755 19.0599 81.2188 19.3984C81.3099 19.6198 81.4206 19.7565 81.5508 19.8086C81.681 19.8607 81.8177 19.8867 81.9609 19.8867C82.1172 19.8737 82.2669 19.8672 82.4102 19.8672C82.5664 19.8542 82.7161 19.8997 82.8594 20.0039L83.0156 19.8672C83.1068 19.9844 83.1914 20.0365 83.2695 20.0234C83.3607 20.0104 83.4518 19.9844 83.543 19.9453C83.6341 19.8932 83.7188 19.8607 83.7969 19.8477C83.888 19.8216 83.9727 19.8737 84.0508 20.0039C84.181 19.8346 84.3438 19.7435 84.5391 19.7305C84.7474 19.7174 84.9492 19.7174 85.1445 19.7305C85.3529 19.7305 85.5482 19.7109 85.7305 19.6719C85.9128 19.6328 86.056 19.4961 86.1602 19.2617C86.3555 19.3008 86.5052 19.2812 86.6094 19.2031C86.7266 19.125 86.8307 19.0404 86.9219 18.9492C87.026 18.8451 87.1237 18.7474 87.2148 18.6562C87.319 18.5651 87.4622 18.5195 87.6445 18.5195C87.8529 18.3763 88.0482 18.2201 88.2305 18.0508C88.4128 17.8685 88.5885 17.6927 88.7578 17.5234C88.9401 17.3411 89.1159 17.1654 89.2852 16.9961C89.4674 16.8268 89.6693 16.6836 89.8906 16.5664C90.0208 16.5534 90.138 16.4883 90.2422 16.3711C90.3464 16.2539 90.4505 16.1367 90.5547 16.0195C90.6719 15.9023 90.7956 15.8047 90.9258 15.7266C91.056 15.6484 91.2057 15.6354 91.375 15.6875ZM82.6055 4.88672C82.5404 4.96484 82.4557 5.07552 82.3516 5.21875C82.2604 5.36198 82.1758 5.51823 82.0977 5.6875C82.0195 5.84375 81.9544 6.00651 81.9023 6.17578C81.8633 6.33203 81.8633 6.46224 81.9023 6.56641C81.8112 6.63151 81.7005 6.74219 81.5703 6.89844C81.4531 7.04167 81.3424 7.20443 81.2383 7.38672C81.1341 7.55599 81.043 7.73177 80.9648 7.91406C80.8997 8.08333 80.8802 8.22656 80.9062 8.34375C80.6979 8.4349 80.5807 8.5651 80.5547 8.73438C80.5286 8.89062 80.5091 9.05339 80.4961 9.22266C80.4961 9.37891 80.4635 9.52865 80.3984 9.67188C80.3464 9.80208 80.1836 9.88672 79.9102 9.92578L80.1445 10.2969C80.1576 10.401 80.1576 10.4792 80.1445 10.5312C80.1315 10.5703 80.1055 10.6094 80.0664 10.6484C80.0273 10.6745 79.9818 10.707 79.9297 10.7461C79.8906 10.7721 79.8516 10.8177 79.8125 10.8828C79.9427 10.987 79.9753 11.0781 79.9102 11.1562C79.8581 11.2344 79.7799 11.319 79.6758 11.4102C79.5846 11.5013 79.5065 11.612 79.4414 11.7422C79.3763 11.8724 79.4023 12.0352 79.5195 12.2305C79.2982 12.4258 79.1354 12.6992 79.0312 13.0508C78.9401 13.3893 78.8685 13.7604 78.8164 14.1641C78.7643 14.5547 78.7188 14.9518 78.6797 15.3555C78.6406 15.7591 78.5755 16.1237 78.4844 16.4492C78.9792 15.4466 79.4935 14.4701 80.0273 13.5195C80.5612 12.569 81.056 11.5859 81.5117 10.5703C81.4466 10.349 81.4661 10.1602 81.5703 10.0039C81.6745 9.83464 81.7917 9.67839 81.9219 9.53516C82.0521 9.37891 82.1628 9.23568 82.2539 9.10547C82.3451 8.96224 82.3451 8.80599 82.2539 8.63672C82.319 8.57161 82.3841 8.50651 82.4492 8.44141C82.5273 8.36328 82.6185 8.33073 82.7227 8.34375C82.6966 8.22656 82.7031 8.08333 82.7422 7.91406C82.7943 7.73177 82.8594 7.55599 82.9375 7.38672C83.0156 7.20443 83.1003 7.04167 83.1914 6.89844C83.2956 6.74219 83.3997 6.63151 83.5039 6.56641C83.4648 6.39714 83.4974 6.21484 83.6016 6.01953C83.7057 5.8112 83.8034 5.60938 83.8945 5.41406C83.9857 5.21875 84.0378 5.02995 84.0508 4.84766C84.0638 4.66536 83.9661 4.50911 83.7578 4.37891L82.6055 4.88672ZM85.8672 12.6797C85.7891 12.5755 85.7109 12.4779 85.6328 12.3867C85.5547 12.2826 85.4766 12.1784 85.3984 12.0742C85.2552 11.9049 85.1445 11.8529 85.0664 11.918C84.9883 11.9701 84.9036 12.0547 84.8125 12.1719C84.7344 12.276 84.6367 12.3737 84.5195 12.4648C84.4023 12.543 84.2461 12.5169 84.0508 12.3867C83.7513 12.6341 83.4323 12.888 83.0938 13.1484C82.7682 13.4089 82.4492 13.6823 82.1367 13.9688C81.8372 14.2552 81.5638 14.5677 81.3164 14.9062C81.082 15.2318 80.9062 15.5964 80.7891 16C80.9193 16.2083 81.069 16.3385 81.2383 16.3906C81.4206 16.4427 81.5964 16.4688 81.7656 16.4688C81.9349 16.4557 82.0911 16.4362 82.2344 16.4102C82.3776 16.3841 82.4883 16.3906 82.5664 16.4297C82.7227 16.2995 82.8854 16.1953 83.0547 16.1172C83.237 16.0391 83.4193 15.9674 83.6016 15.9023C83.7969 15.8242 83.9792 15.7461 84.1484 15.668C84.3307 15.5898 84.5 15.4922 84.6562 15.375C85.0859 15.0625 85.4049 14.6654 85.6133 14.1836C85.8346 13.7018 85.9193 13.2005 85.8672 12.6797ZM104.051 15.0234C103.934 15.1406 103.842 15.2318 103.777 15.2969C103.725 15.362 103.673 15.4271 103.621 15.4922C103.582 15.5443 103.53 15.6029 103.465 15.668C103.413 15.7331 103.328 15.8307 103.211 15.9609C103.107 16.0651 103.009 16.1758 102.918 16.293C102.827 16.4102 102.723 16.5143 102.605 16.6055C102.449 16.5664 102.326 16.5859 102.234 16.6641C102.156 16.7422 102.078 16.8333 102 16.9375C101.935 17.0286 101.87 17.1198 101.805 17.2109C101.753 17.2891 101.681 17.3216 101.59 17.3086C101.277 17.4779 100.965 17.6276 100.652 17.7578C100.34 17.875 100.04 18.0508 99.7539 18.2852L99.5977 18.1289L97.5664 19.1055C97.5013 19.1315 97.4362 19.1706 97.3711 19.2227C97.306 19.2747 97.2409 19.3203 97.1758 19.3594C96.8893 19.5156 96.5898 19.6589 96.2773 19.7891C95.9779 19.9062 95.6784 20.0169 95.3789 20.1211L95.125 20.1992C95.2292 20.4596 95.2292 20.6419 95.125 20.7461C95.0208 20.8503 94.8711 20.9284 94.6758 20.9805C94.4805 21.0195 94.2656 21.0456 94.0312 21.0586C93.7969 21.0716 93.6146 21.1172 93.4844 21.1953C93.3281 21.1693 93.1654 21.1562 92.9961 21.1562C92.8398 21.1693 92.6771 21.1888 92.5078 21.2148C92.3255 21.2409 92.1562 21.2539 92 21.2539C91.8438 21.2539 91.6745 21.2344 91.4922 21.1953H91.4531C91.2318 21.2995 91.0365 21.319 90.8672 21.2539C90.7109 21.2018 90.5677 21.1107 90.4375 20.9805C90.3073 20.8372 90.1836 20.6745 90.0664 20.4922C89.9622 20.2969 89.8516 20.1211 89.7344 19.9648C89.6562 19.8607 89.5586 19.7109 89.4414 19.5156C89.3242 19.3203 89.2266 19.112 89.1484 18.8906C89.0573 18.6693 89.0052 18.4479 88.9922 18.2266C88.9661 17.9922 89.0117 17.7904 89.1289 17.6211C89.2461 17.4518 89.3438 17.2695 89.4219 17.0742C89.487 16.8789 89.5195 16.651 89.5195 16.3906C89.5195 16.2995 89.5195 16.2148 89.5195 16.1367C89.5065 16.0586 89.5 15.974 89.5 15.8828C89.5651 15.8828 89.6367 15.8893 89.7148 15.9023C89.793 15.9023 89.8646 15.9023 89.9297 15.9023C90.0078 15.8893 90.0664 15.8633 90.1055 15.8242C90.1576 15.7721 90.1836 15.6875 90.1836 15.5703C90.1836 15.5052 90.1576 15.4531 90.1055 15.4141C90.0664 15.375 90.0404 15.3359 90.0273 15.2969C90.1055 15.1797 90.1771 15.0885 90.2422 15.0234C90.3203 14.9453 90.3854 14.8737 90.4375 14.8086C90.4896 14.7305 90.5286 14.6458 90.5547 14.5547C90.5807 14.4505 90.5742 14.3138 90.5352 14.1445C90.6914 13.8711 90.8737 13.6302 91.082 13.4219C91.3034 13.2005 91.5312 12.9987 91.7656 12.8164C92 12.6211 92.2409 12.4323 92.4883 12.25C92.7357 12.0677 92.9701 11.8724 93.1914 11.6641C93.4388 11.7682 93.6341 11.7682 93.7773 11.6641C93.9336 11.5599 94.0703 11.4492 94.1875 11.332C94.3047 11.2018 94.4219 11.0977 94.5391 11.0195C94.6562 10.9414 94.8125 10.974 95.0078 11.1172L95.0469 11.1562C95.3984 10.8047 95.75 10.6484 96.1016 10.6875C96.4661 10.7266 96.7721 10.8438 97.0195 11.0391C97.2799 11.2344 97.4492 11.4622 97.5273 11.7227C97.6055 11.9701 97.5339 12.1393 97.3125 12.2305C97.4557 12.3737 97.5273 12.543 97.5273 12.7383C97.5273 12.9336 97.4753 13.1029 97.3711 13.2461C97.2539 13.4023 97.1497 13.5651 97.0586 13.7344C96.9805 13.8906 96.8958 14.0599 96.8047 14.2422C96.6745 14.5417 96.5312 14.8281 96.375 15.1016C96.2188 15.362 95.9974 15.5833 95.7109 15.7656C95.4766 15.7005 95.3138 15.7266 95.2227 15.8438C95.1445 15.9609 95.0859 16.0911 95.0469 16.2344C95.0078 16.3646 94.9622 16.4688 94.9102 16.5469C94.8581 16.625 94.7474 16.599 94.5781 16.4688L94.5391 16.4297L94.5 16.4688C94.3958 16.5729 94.3112 16.6901 94.2461 16.8203C94.194 16.9505 94.1159 17.0482 94.0117 17.1133C93.8945 17.0742 93.7708 17.0417 93.6406 17.0156C93.5104 16.9896 93.3867 16.9635 93.2695 16.9375C93.2695 17.2109 93.2174 17.4258 93.1133 17.582C93.0091 17.7383 92.8724 17.8685 92.7031 17.9727C92.5469 18.0638 92.3646 18.1419 92.1562 18.207C91.9479 18.2591 91.7396 18.3307 91.5312 18.4219C91.3359 18.5 91.1471 18.6042 90.9648 18.7344C90.7956 18.8516 90.6589 19.0208 90.5547 19.2422C90.6849 19.3854 90.8477 19.4701 91.043 19.4961C91.2383 19.5091 91.4401 19.5091 91.6484 19.4961C91.8568 19.4701 92.0586 19.457 92.2539 19.457C92.4622 19.457 92.6445 19.5091 92.8008 19.6133L92.8203 19.6328L92.8398 19.6133C93.1523 19.5742 93.4518 19.5026 93.7383 19.3984C94.0378 19.2812 94.3242 19.1641 94.5977 19.0469C94.8841 18.9167 95.1706 18.7995 95.457 18.6953C95.7565 18.5781 96.0625 18.4935 96.375 18.4414C96.4401 18.5456 96.5247 18.6042 96.6289 18.6172C96.7461 18.6302 96.8568 18.6237 96.9609 18.5977L96.9805 18.5586C97.0065 18.4674 97.0326 18.3893 97.0586 18.3242C97.0846 18.2461 97.1237 18.1615 97.1758 18.0703C97.2669 17.9271 97.3776 17.8164 97.5078 17.7383C97.638 17.6602 97.7747 17.6016 97.918 17.5625C98.0742 17.5234 98.237 17.4974 98.4062 17.4844C98.5755 17.4714 98.7448 17.4518 98.9141 17.4258H98.9531L98.9727 17.3672C99.0247 17.2109 99.0898 17.1068 99.168 17.0547C99.2591 16.9896 99.3503 16.944 99.4414 16.918C99.5456 16.8919 99.6497 16.8724 99.7539 16.8594C99.8711 16.8464 99.9818 16.8073 100.086 16.7422C100.32 16.8203 100.516 16.7943 100.672 16.6641C100.828 16.5339 100.978 16.3971 101.121 16.2539L101.277 16.4492L101.336 16.3711C101.531 16.1888 101.674 16.0521 101.766 15.9609C101.87 15.8698 101.967 15.7917 102.059 15.7266C102.15 15.6484 102.254 15.5768 102.371 15.5117C102.501 15.4336 102.677 15.3229 102.898 15.1797C103.081 15.0625 103.257 14.9453 103.426 14.8281C103.608 14.7109 103.784 14.5807 103.953 14.4375C104.018 14.4635 104.051 14.5156 104.051 14.5938C104.051 14.6589 104.051 14.724 104.051 14.7891C104.038 14.8151 104.025 14.8542 104.012 14.9062C104.012 14.9583 104.025 14.9974 104.051 15.0234ZM95.9648 12.582C95.9518 12.569 95.9388 12.5625 95.9258 12.5625C95.9258 12.5625 95.9193 12.556 95.9062 12.543C95.6328 12.3997 95.4049 12.3346 95.2227 12.3477C95.0404 12.3477 94.8711 12.3997 94.7148 12.5039C94.5716 12.5951 94.4349 12.7188 94.3047 12.875C94.1875 13.0182 94.0573 13.1549 93.9141 13.2852C93.7839 13.4023 93.6276 13.4935 93.4453 13.5586C93.263 13.6237 93.0417 13.6172 92.7812 13.5391C92.7422 13.7474 92.7031 13.9557 92.6641 14.1641C92.638 14.3594 92.6185 14.5612 92.6055 14.7695C92.3841 14.8477 92.2083 14.9583 92.0781 15.1016C91.9609 15.2448 91.8568 15.401 91.7656 15.5703C91.6875 15.7396 91.6094 15.9219 91.5312 16.1172C91.4661 16.2995 91.375 16.4753 91.2578 16.6445L91.3359 16.7422C91.388 16.7161 91.4466 16.7357 91.5117 16.8008C91.5768 16.8659 91.6224 16.9115 91.6484 16.9375C91.7917 16.7292 91.9805 16.5534 92.2148 16.4102C92.4622 16.2669 92.7096 16.1367 92.957 16.0195C93.2174 15.8893 93.4648 15.7526 93.6992 15.6094C93.9336 15.4661 94.1094 15.2773 94.2266 15.043C94.6432 14.9258 94.9557 14.6914 95.1641 14.3398C95.3724 13.9883 95.5482 13.6237 95.6914 13.2461C95.7174 13.168 95.763 13.0573 95.8281 12.9141C95.9062 12.7578 95.9518 12.6471 95.9648 12.582ZM111.961 20.2969C111.974 20.4531 111.948 20.5703 111.883 20.6484C111.818 20.7266 111.727 20.7852 111.609 20.8242C111.505 20.8633 111.388 20.8958 111.258 20.9219C111.128 20.9349 111.017 20.9674 110.926 21.0195C110.548 20.9805 110.184 20.9284 109.832 20.8633C109.48 20.7852 109.155 20.6745 108.855 20.5312C108.556 20.375 108.283 20.1732 108.035 19.9258C107.801 19.6784 107.599 19.3659 107.43 18.9883C107.599 18.7148 107.658 18.4154 107.605 18.0898C107.553 17.7513 107.501 17.4258 107.449 17.1133C107.41 16.8008 107.417 16.5143 107.469 16.2539C107.534 15.9935 107.762 15.7852 108.152 15.6289C108.126 15.4857 108.126 15.3294 108.152 15.1602C108.191 14.9909 108.146 14.8477 108.016 14.7305C107.56 14.8867 107.163 15.1081 106.824 15.3945C106.486 15.681 106.16 15.9935 105.848 16.332C105.548 16.6706 105.242 17.0156 104.93 17.3672C104.63 17.7057 104.298 18.0052 103.934 18.2656C103.764 18.2786 103.582 18.2721 103.387 18.2461C103.204 18.207 103.048 18.2591 102.918 18.4023C102.931 18.4935 102.964 18.5716 103.016 18.6367C103.068 18.7018 103.107 18.7669 103.133 18.832C103.172 18.8971 103.191 18.9688 103.191 19.0469C103.191 19.112 103.146 19.1901 103.055 19.2812C102.924 19.4115 102.781 19.5221 102.625 19.6133C102.482 19.6914 102.339 19.7826 102.195 19.8867C102.065 19.9779 101.954 20.0885 101.863 20.2188C101.772 20.349 101.727 20.5247 101.727 20.7461C101.648 20.707 101.577 20.7005 101.512 20.7266C101.447 20.7396 101.388 20.7721 101.336 20.8242C101.271 20.8763 101.212 20.9349 101.16 21C101.108 21.0651 101.056 21.1172 101.004 21.1562C100.978 21.2214 100.984 21.2734 101.023 21.3125C101.062 21.3646 101.108 21.4167 101.16 21.4688C101.108 21.612 101.043 21.6966 100.965 21.7227C100.874 21.7617 100.783 21.7682 100.691 21.7422C100.587 21.7161 100.49 21.6706 100.398 21.6055C100.294 21.5534 100.203 21.5078 100.125 21.4688C100.086 21.2995 100.06 21.1042 100.047 20.8828C100.034 20.6615 100.04 20.4466 100.066 20.2383C100.092 20.0169 100.145 19.8086 100.223 19.6133C100.301 19.418 100.418 19.2552 100.574 19.125C100.626 19.0859 100.659 19.0664 100.672 19.0664C100.685 19.0534 100.691 19.0469 100.691 19.0469C100.691 19.0469 100.698 19.0469 100.711 19.0469C100.724 19.0339 100.75 19.0078 100.789 18.9688C100.893 18.8516 100.965 18.7279 101.004 18.5977C101.043 18.4544 101.076 18.3112 101.102 18.168C101.128 18.0247 101.167 17.888 101.219 17.7578C101.258 17.6146 101.336 17.4909 101.453 17.3867C101.401 17.1784 101.401 16.9961 101.453 16.8398C101.518 16.6706 101.596 16.5143 101.688 16.3711C101.792 16.2148 101.889 16.0651 101.98 15.9219C102.085 15.7656 102.15 15.5964 102.176 15.4141C102.189 15.349 102.189 15.2904 102.176 15.2383C102.176 15.1732 102.176 15.1081 102.176 15.043C102.15 14.8346 102.169 14.6784 102.234 14.5742C102.312 14.457 102.404 14.3659 102.508 14.3008C102.625 14.2227 102.742 14.1445 102.859 14.0664C102.99 13.9883 103.1 13.8711 103.191 13.7148C103.569 13.8971 103.79 14.1445 103.855 14.457C103.934 14.7565 103.96 15.0951 103.934 15.4727C103.712 15.6159 103.543 15.8177 103.426 16.0781C103.309 16.3255 103.23 16.5664 103.191 16.8008C103.217 16.8789 103.25 16.9245 103.289 16.9375C103.341 16.9375 103.393 16.931 103.445 16.918C103.51 16.8919 103.569 16.8659 103.621 16.8398C103.673 16.8138 103.725 16.8008 103.777 16.8008C104.246 16.4753 104.708 16.1107 105.164 15.707C105.633 15.3034 105.997 14.8411 106.258 14.3203C106.635 14.138 106.993 13.9297 107.332 13.6953C107.671 13.4479 108.042 13.2656 108.445 13.1484L108.895 12.6992C108.96 12.8034 109.038 12.8294 109.129 12.7773C109.22 12.7122 109.311 12.6406 109.402 12.5625C109.493 12.4844 109.578 12.4388 109.656 12.4258C109.747 12.4128 109.832 12.5039 109.91 12.6992C110.04 13.0378 110.073 13.3698 110.008 13.6953C109.943 14.0078 109.839 14.3203 109.695 14.6328C109.565 14.9323 109.428 15.2383 109.285 15.5508C109.142 15.8633 109.057 16.1823 109.031 16.5078C109.031 16.5859 109.031 16.6706 109.031 16.7617C109.031 16.8398 109.025 16.9245 109.012 17.0156C108.986 17.2891 108.947 17.5885 108.895 17.9141C108.855 18.2266 108.875 18.513 108.953 18.7734C109.018 19.0078 109.155 19.2161 109.363 19.3984C109.572 19.5807 109.754 19.763 109.91 19.9453C110.001 19.9323 110.092 19.9388 110.184 19.9648C110.275 19.9909 110.359 20.0169 110.438 20.043C110.529 20.069 110.613 20.082 110.691 20.082C110.77 20.069 110.848 20.0234 110.926 19.9453C111.017 19.9062 111.102 19.9128 111.18 19.9648C111.271 20.0039 111.355 20.056 111.434 20.1211C111.512 20.1862 111.59 20.2448 111.668 20.2969C111.759 20.3359 111.857 20.3359 111.961 20.2969ZM118.309 8.8125C118.074 8.90365 117.944 9.04036 117.918 9.22266C117.892 9.40495 117.879 9.59375 117.879 9.78906C117.892 9.98438 117.885 10.1667 117.859 10.3359C117.833 10.5052 117.703 10.6159 117.469 10.668C117.378 10.5117 117.26 10.3685 117.117 10.2383C116.987 10.0951 116.857 9.95833 116.727 9.82812C116.596 9.6849 116.492 9.53516 116.414 9.37891C116.336 9.22266 116.31 9.03385 116.336 8.8125L117.312 7.67969C117.469 7.73177 117.592 7.79688 117.684 7.875C117.775 7.95312 117.853 8.04427 117.918 8.14844C117.983 8.2526 118.042 8.36328 118.094 8.48047C118.159 8.58464 118.23 8.69531 118.309 8.8125ZM122.098 17.5625C122.111 17.849 122.085 18.0508 122.02 18.168C121.967 18.2852 121.902 18.3828 121.824 18.4609C121.746 18.526 121.674 18.6042 121.609 18.6953C121.557 18.7734 121.531 18.9167 121.531 19.125C121.232 19.4505 120.991 19.6914 120.809 19.8477C120.626 19.9909 120.451 20.1146 120.281 20.2188C120.112 20.3099 119.923 20.4141 119.715 20.5312C119.507 20.6484 119.22 20.8307 118.855 21.0781L118.719 21.0977C118.68 21.293 118.608 21.4036 118.504 21.4297C118.413 21.4688 118.302 21.4883 118.172 21.4883C118.055 21.4883 117.938 21.5013 117.82 21.5273C117.703 21.5534 117.605 21.6641 117.527 21.8594C117.306 21.9245 117.117 21.9505 116.961 21.9375C116.805 21.9245 116.603 21.918 116.355 21.918C116.277 21.918 116.173 21.9115 116.043 21.8984C115.926 21.8854 115.828 21.8919 115.75 21.918C115.698 21.931 115.639 21.9635 115.574 22.0156C115.522 22.0807 115.464 22.1328 115.398 22.1719C115.333 22.2109 115.268 22.224 115.203 22.2109C115.138 22.2109 115.079 22.1589 115.027 22.0547C114.871 22.0938 114.728 22.0938 114.598 22.0547C114.467 22.0156 114.344 21.9505 114.227 21.8594C114.109 21.7682 113.999 21.6576 113.895 21.5273C113.803 21.4102 113.712 21.2995 113.621 21.1953C113.556 21.1172 113.484 21.0456 113.406 20.9805C113.328 20.9154 113.257 20.8503 113.191 20.7852C113.048 20.6419 112.944 20.4596 112.879 20.2383C112.814 20.0169 112.775 19.7891 112.762 19.5547C112.749 19.3203 112.755 19.0859 112.781 18.8516C112.807 18.6172 112.846 18.4089 112.898 18.2266C113.016 18.1094 113.1 17.9792 113.152 17.8359C113.191 17.6797 113.224 17.5234 113.25 17.3672C113.289 17.2109 113.328 17.0612 113.367 16.918C113.419 16.7617 113.504 16.625 113.621 16.5078C113.621 16.3385 113.647 16.1823 113.699 16.0391C113.764 15.8958 113.842 15.7591 113.934 15.6289C114.038 15.4987 114.148 15.3815 114.266 15.2773C114.396 15.1602 114.513 15.0495 114.617 14.9453C114.721 14.9453 114.826 14.9453 114.93 14.9453C115.034 14.9323 115.132 14.9388 115.223 14.9648C115.314 14.9779 115.392 15.0169 115.457 15.082C115.522 15.1341 115.574 15.2253 115.613 15.3555C115.704 15.707 115.678 15.9935 115.535 16.2148C115.405 16.4232 115.255 16.625 115.086 16.8203C114.917 17.0156 114.78 17.2174 114.676 17.4258C114.572 17.6341 114.598 17.901 114.754 18.2266C114.611 18.2266 114.513 18.2656 114.461 18.3438C114.422 18.4219 114.389 18.513 114.363 18.6172C114.35 18.7083 114.324 18.7995 114.285 18.8906C114.246 18.9818 114.168 19.0469 114.051 19.0859C114.129 19.1641 114.168 19.3008 114.168 19.4961C114.181 19.6914 114.201 19.8802 114.227 20.0625C114.266 20.2318 114.324 20.3685 114.402 20.4727C114.493 20.5768 114.656 20.5833 114.891 20.4922C115.06 20.6354 115.262 20.694 115.496 20.668C115.743 20.6419 115.971 20.6354 116.18 20.6484C116.362 20.5312 116.518 20.4727 116.648 20.4727C116.779 20.4596 116.902 20.4727 117.02 20.5117C117.137 20.5378 117.26 20.5638 117.391 20.5898C117.521 20.6159 117.677 20.5964 117.859 20.5312C117.911 20.3099 118.003 20.1797 118.133 20.1406C118.263 20.1016 118.393 20.082 118.523 20.082C118.654 20.069 118.771 20.043 118.875 20.0039C118.992 19.9648 119.07 19.8346 119.109 19.6133C119.214 19.4831 119.337 19.4115 119.48 19.3984C119.624 19.3724 119.767 19.3464 119.91 19.3203C120.066 19.2943 120.203 19.2422 120.32 19.1641C120.451 19.0729 120.542 18.9036 120.594 18.6562C120.815 18.487 120.971 18.3633 121.062 18.2852C121.167 18.194 121.251 18.1224 121.316 18.0703C121.382 18.0182 121.466 17.9596 121.57 17.8945C121.674 17.8294 121.85 17.7188 122.098 17.5625ZM131.199 20.2969C131.212 20.4531 131.186 20.5703 131.121 20.6484C131.056 20.7266 130.965 20.7852 130.848 20.8242C130.743 20.8633 130.626 20.8958 130.496 20.9219C130.366 20.9349 130.255 20.9674 130.164 21.0195C129.786 20.9805 129.422 20.9284 129.07 20.8633C128.719 20.7852 128.393 20.6745 128.094 20.5312C127.794 20.375 127.521 20.1732 127.273 19.9258C127.039 19.6784 126.837 19.3659 126.668 18.9883C126.837 18.7148 126.896 18.4154 126.844 18.0898C126.792 17.7513 126.74 17.4258 126.688 17.1133C126.648 16.8008 126.655 16.5143 126.707 16.2539C126.772 15.9935 127 15.7852 127.391 15.6289C127.365 15.4857 127.365 15.3294 127.391 15.1602C127.43 14.9909 127.384 14.8477 127.254 14.7305C126.798 14.8867 126.401 15.1081 126.062 15.3945C125.724 15.681 125.398 15.9935 125.086 16.332C124.786 16.6706 124.48 17.0156 124.168 17.3672C123.868 17.7057 123.536 18.0052 123.172 18.2656C123.003 18.2786 122.82 18.2721 122.625 18.2461C122.443 18.207 122.286 18.2591 122.156 18.4023C122.169 18.4935 122.202 18.5716 122.254 18.6367C122.306 18.7018 122.345 18.7669 122.371 18.832C122.41 18.8971 122.43 18.9688 122.43 19.0469C122.43 19.112 122.384 19.1901 122.293 19.2812C122.163 19.4115 122.02 19.5221 121.863 19.6133C121.72 19.6914 121.577 19.7826 121.434 19.8867C121.303 19.9779 121.193 20.0885 121.102 20.2188C121.01 20.349 120.965 20.5247 120.965 20.7461C120.887 20.707 120.815 20.7005 120.75 20.7266C120.685 20.7396 120.626 20.7721 120.574 20.8242C120.509 20.8763 120.451 20.9349 120.398 21C120.346 21.0651 120.294 21.1172 120.242 21.1562C120.216 21.2214 120.223 21.2734 120.262 21.3125C120.301 21.3646 120.346 21.4167 120.398 21.4688C120.346 21.612 120.281 21.6966 120.203 21.7227C120.112 21.7617 120.021 21.7682 119.93 21.7422C119.826 21.7161 119.728 21.6706 119.637 21.6055C119.533 21.5534 119.441 21.5078 119.363 21.4688C119.324 21.2995 119.298 21.1042 119.285 20.8828C119.272 20.6615 119.279 20.4466 119.305 20.2383C119.331 20.0169 119.383 19.8086 119.461 19.6133C119.539 19.418 119.656 19.2552 119.812 19.125C119.865 19.0859 119.897 19.0664 119.91 19.0664C119.923 19.0534 119.93 19.0469 119.93 19.0469C119.93 19.0469 119.936 19.0469 119.949 19.0469C119.962 19.0339 119.988 19.0078 120.027 18.9688C120.132 18.8516 120.203 18.7279 120.242 18.5977C120.281 18.4544 120.314 18.3112 120.34 18.168C120.366 18.0247 120.405 17.888 120.457 17.7578C120.496 17.6146 120.574 17.4909 120.691 17.3867C120.639 17.1784 120.639 16.9961 120.691 16.8398C120.757 16.6706 120.835 16.5143 120.926 16.3711C121.03 16.2148 121.128 16.0651 121.219 15.9219C121.323 15.7656 121.388 15.5964 121.414 15.4141C121.427 15.349 121.427 15.2904 121.414 15.2383C121.414 15.1732 121.414 15.1081 121.414 15.043C121.388 14.8346 121.408 14.6784 121.473 14.5742C121.551 14.457 121.642 14.3659 121.746 14.3008C121.863 14.2227 121.98 14.1445 122.098 14.0664C122.228 13.9883 122.339 13.8711 122.43 13.7148C122.807 13.8971 123.029 14.1445 123.094 14.457C123.172 14.7565 123.198 15.0951 123.172 15.4727C122.951 15.6159 122.781 15.8177 122.664 16.0781C122.547 16.3255 122.469 16.5664 122.43 16.8008C122.456 16.8789 122.488 16.9245 122.527 16.9375C122.579 16.9375 122.632 16.931 122.684 16.918C122.749 16.8919 122.807 16.8659 122.859 16.8398C122.911 16.8138 122.964 16.8008 123.016 16.8008C123.484 16.4753 123.947 16.1107 124.402 15.707C124.871 15.3034 125.236 14.8411 125.496 14.3203C125.874 14.138 126.232 13.9297 126.57 13.6953C126.909 13.4479 127.28 13.2656 127.684 13.1484L128.133 12.6992C128.198 12.8034 128.276 12.8294 128.367 12.7773C128.458 12.7122 128.549 12.6406 128.641 12.5625C128.732 12.4844 128.816 12.4388 128.895 12.4258C128.986 12.4128 129.07 12.5039 129.148 12.6992C129.279 13.0378 129.311 13.3698 129.246 13.6953C129.181 14.0078 129.077 14.3203 128.934 14.6328C128.803 14.9323 128.667 15.2383 128.523 15.5508C128.38 15.8633 128.296 16.1823 128.27 16.5078C128.27 16.5859 128.27 16.6706 128.27 16.7617C128.27 16.8398 128.263 16.9245 128.25 17.0156C128.224 17.2891 128.185 17.5885 128.133 17.9141C128.094 18.2266 128.113 18.513 128.191 18.7734C128.257 19.0078 128.393 19.2161 128.602 19.3984C128.81 19.5807 128.992 19.763 129.148 19.9453C129.24 19.9323 129.331 19.9388 129.422 19.9648C129.513 19.9909 129.598 20.0169 129.676 20.043C129.767 20.069 129.852 20.082 129.93 20.082C130.008 20.069 130.086 20.0234 130.164 19.9453C130.255 19.9062 130.34 19.9128 130.418 19.9648C130.509 20.0039 130.594 20.056 130.672 20.1211C130.75 20.1862 130.828 20.2448 130.906 20.2969C130.997 20.3359 131.095 20.3359 131.199 20.2969ZM146.297 15.4141C146.154 15.5964 146.043 15.7982 145.965 16.0195C145.887 16.2409 145.789 16.4492 145.672 16.6445C145.568 16.8398 145.431 17.0026 145.262 17.1328C145.105 17.263 144.884 17.3216 144.598 17.3086C144.389 17.3867 144.233 17.5299 144.129 17.7383C144.038 17.9336 143.947 18.1354 143.855 18.3438C143.764 18.5391 143.647 18.7018 143.504 18.832C143.361 18.9492 143.146 18.9622 142.859 18.8711C142.495 19.0273 142.163 19.2357 141.863 19.4961C141.577 19.7435 141.303 20.0039 141.043 20.2773C140.952 20.3685 140.848 20.4857 140.73 20.6289C140.613 20.7591 140.503 20.8568 140.398 20.9219C140.307 20.974 140.216 20.9805 140.125 20.9414C140.034 20.9023 139.949 20.8633 139.871 20.8242C139.793 20.7721 139.715 20.7461 139.637 20.7461C139.572 20.7461 139.513 20.8047 139.461 20.9219C139.552 21.1042 139.572 21.2279 139.52 21.293C139.467 21.3711 139.383 21.4297 139.266 21.4688C139.148 21.5078 139.025 21.5404 138.895 21.5664C138.764 21.5924 138.66 21.638 138.582 21.7031C138.426 21.8464 138.315 22.0221 138.25 22.2305C138.185 22.4388 138.126 22.6471 138.074 22.8555C138.022 23.0638 137.944 23.2591 137.84 23.4414C137.749 23.6367 137.592 23.7865 137.371 23.8906C137.501 23.9818 137.553 24.0729 137.527 24.1641C137.514 24.2552 137.482 24.3464 137.43 24.4375C137.378 24.5417 137.339 24.6393 137.312 24.7305C137.299 24.8216 137.352 24.9128 137.469 25.0039C137.273 25.2513 137.098 25.5182 136.941 25.8047C136.798 26.0911 136.655 26.3776 136.512 26.6641C136.368 26.9635 136.212 27.25 136.043 27.5234C135.887 27.8099 135.685 28.0638 135.438 28.2852L135.496 28.7539C135.301 28.7018 135.177 28.7083 135.125 28.7734C135.086 28.8385 135.066 28.9297 135.066 29.0469C135.066 29.1641 135.066 29.2812 135.066 29.3984C135.079 29.5286 135.04 29.6263 134.949 29.6914C134.91 29.7435 134.865 29.7826 134.812 29.8086C134.773 29.8346 134.734 29.8672 134.695 29.9062C134.279 30.2188 133.992 30.6159 133.836 31.0977C133.81 31.1758 133.79 31.2539 133.777 31.332C133.764 31.4102 133.745 31.4948 133.719 31.5859C133.654 31.7682 133.549 31.957 133.406 32.1523C133.263 32.3477 133.107 32.5495 132.938 32.7578C132.768 32.9661 132.605 33.181 132.449 33.4023C132.293 33.6367 132.169 33.8711 132.078 34.1055C131.87 34.0794 131.707 34.099 131.59 34.1641C131.46 34.2422 131.355 34.3398 131.277 34.457C131.199 34.5872 131.134 34.724 131.082 34.8672C131.03 35.0104 130.965 35.1341 130.887 35.2383C130.796 35.3555 130.685 35.4401 130.555 35.4922C130.411 35.5573 130.229 35.5573 130.008 35.4922L129.129 36.293C128.973 36.2018 128.823 36.1823 128.68 36.2344C128.523 36.2865 128.374 36.3581 128.23 36.4492C128.074 36.5404 127.924 36.612 127.781 36.6641C127.625 36.7161 127.462 36.6966 127.293 36.6055C127.202 36.7096 127.124 36.7617 127.059 36.7617C126.993 36.7747 126.915 36.7227 126.824 36.6055L126.531 36.918C126.375 36.7878 126.186 36.6641 125.965 36.5469C125.73 36.4427 125.516 36.319 125.32 36.1758C125.125 36.0456 124.969 35.8893 124.852 35.707C124.734 35.5378 124.715 35.3164 124.793 35.043C124.767 34.9648 124.728 34.8802 124.676 34.7891C124.611 34.6979 124.559 34.6003 124.52 34.4961C124.48 34.4049 124.454 34.3073 124.441 34.2031C124.428 34.112 124.454 34.0273 124.52 33.9492C124.402 33.7279 124.363 33.5 124.402 33.2656C124.428 33.0443 124.474 32.8229 124.539 32.6016C124.604 32.3802 124.656 32.1589 124.695 31.9375C124.734 31.7161 124.695 31.4948 124.578 31.2734C124.734 31.1562 124.852 31.0065 124.93 30.8242C124.995 30.6419 125.06 30.4531 125.125 30.2578C125.177 30.0625 125.236 29.8737 125.301 29.6914C125.366 29.5091 125.477 29.3594 125.633 29.2422L125.613 28.9297C126.225 28.2786 126.876 27.6797 127.566 27.1328C128.243 26.599 129.012 26.2018 129.871 25.9414C130.04 25.6419 130.262 25.4206 130.535 25.2773C130.809 25.1471 131.089 25.0234 131.375 24.9062C131.648 24.8021 131.902 24.6654 132.137 24.4961C132.371 24.3398 132.547 24.0859 132.664 23.7344C132.729 23.8776 132.794 23.9362 132.859 23.9102C132.924 23.8971 132.99 23.8646 133.055 23.8125C133.133 23.7734 133.204 23.7409 133.27 23.7148C133.335 23.7018 133.4 23.7604 133.465 23.8906C133.595 23.5 133.803 23.1875 134.09 22.9531C134.389 22.7188 134.715 22.5104 135.066 22.3281C135.431 22.1589 135.796 21.9896 136.16 21.8203C136.525 21.6641 136.844 21.4688 137.117 21.2344C137.404 21 137.618 20.7135 137.762 20.375C137.905 20.0234 137.938 19.5742 137.859 19.0273C137.977 18.9492 138.055 18.8516 138.094 18.7344C138.133 18.6042 138.159 18.474 138.172 18.3438C138.198 18.2135 138.23 18.0964 138.27 17.9922C138.309 17.888 138.393 17.8164 138.523 17.7773C138.432 17.6341 138.322 17.569 138.191 17.582C138.061 17.5951 137.924 17.6341 137.781 17.6992C137.651 17.7643 137.527 17.8294 137.41 17.8945C137.293 17.9596 137.195 17.9727 137.117 17.9336C137.078 18.1159 136.993 18.2461 136.863 18.3242C136.746 18.4023 136.616 18.474 136.473 18.5391C136.329 18.5911 136.18 18.6497 136.023 18.7148C135.867 18.7799 135.743 18.8841 135.652 19.0273C135.535 18.9753 135.424 19.0013 135.32 19.1055C135.229 19.1966 135.132 19.3008 135.027 19.418C134.936 19.5221 134.832 19.6003 134.715 19.6523C134.598 19.7044 134.461 19.6523 134.305 19.4961C134.227 19.7044 134.096 19.8411 133.914 19.9062C133.745 19.9714 133.556 20.0039 133.348 20.0039C133.139 20.0039 132.924 19.9909 132.703 19.9648C132.495 19.9388 132.306 19.9453 132.137 19.9844L131.805 19.6523C131.779 19.7174 131.74 19.7695 131.688 19.8086C131.622 19.8477 131.557 19.8542 131.492 19.8281C131.388 19.6068 131.29 19.3724 131.199 19.125C131.095 18.8646 131.03 18.6107 131.004 18.3633C130.965 18.1029 130.984 17.8555 131.062 17.6211C131.141 17.3737 131.297 17.1589 131.531 16.9766C131.896 16.3125 132.371 15.7917 132.957 15.4141C133.022 15.4661 133.094 15.4857 133.172 15.4727C133.25 15.4466 133.328 15.4141 133.406 15.375C133.497 15.3229 133.582 15.2708 133.66 15.2188C133.738 15.1536 133.81 15.1146 133.875 15.1016C133.914 14.9583 133.986 14.8216 134.09 14.6914C134.207 14.5612 134.331 14.444 134.461 14.3398C134.604 14.2357 134.747 14.1445 134.891 14.0664C135.047 13.9753 135.19 13.8971 135.32 13.832C135.568 13.7148 135.796 13.5716 136.004 13.4023C136.225 13.2201 136.447 13.0508 136.668 12.8945C136.889 12.7253 137.117 12.582 137.352 12.4648C137.586 12.3477 137.853 12.2891 138.152 12.2891L138.504 12.6016C138.283 12.7318 138.087 12.8945 137.918 13.0898C137.762 13.2721 137.599 13.4609 137.43 13.6562C137.26 13.8385 137.078 14.0078 136.883 14.1641C136.688 14.3203 136.447 14.4245 136.16 14.4766C135.926 14.9323 135.607 15.3229 135.203 15.6484C134.812 15.9609 134.409 16.2539 133.992 16.5273C133.992 16.7227 133.934 16.8789 133.816 16.9961C133.699 17.1133 133.562 17.2174 133.406 17.3086C133.25 17.3997 133.094 17.4844 132.938 17.5625C132.781 17.6276 132.651 17.7188 132.547 17.8359C132.456 17.9401 132.41 18.0768 132.41 18.2461C132.41 18.4023 132.495 18.6107 132.664 18.8711C132.82 18.793 133.009 18.7409 133.23 18.7148C133.452 18.6888 133.667 18.6562 133.875 18.6172C134.083 18.5651 134.266 18.4935 134.422 18.4023C134.591 18.2982 134.708 18.1419 134.773 17.9336C134.956 17.7773 135.151 17.6797 135.359 17.6406C135.568 17.6016 135.783 17.5951 136.004 17.6211C136.434 17.1523 136.863 16.7227 137.293 16.332C137.736 15.9284 138.152 15.5182 138.543 15.1016C138.934 14.6849 139.292 14.2422 139.617 13.7734C139.956 13.2917 140.249 12.7383 140.496 12.1133C140.757 12.0352 140.991 12.0677 141.199 12.2109C141.408 12.3542 141.557 12.5365 141.648 12.7578C141.622 12.9141 141.577 13.0638 141.512 13.207C141.46 13.3372 141.408 13.4674 141.355 13.5977C141.316 13.7148 141.284 13.8451 141.258 13.9883C141.245 14.1315 141.271 14.2943 141.336 14.4766C141.232 14.4505 141.147 14.4831 141.082 14.5742C141.03 14.6654 140.971 14.7435 140.906 14.8086C140.945 14.9779 140.939 15.1341 140.887 15.2773C140.835 15.4076 140.77 15.5378 140.691 15.668C140.613 15.7852 140.542 15.9154 140.477 16.0586C140.424 16.2018 140.411 16.3581 140.438 16.5273C140.255 16.8659 140.118 17.224 140.027 17.6016C139.949 17.9661 139.897 18.3372 139.871 18.7148L140.223 19.0273C140.392 18.7799 140.6 18.6042 140.848 18.5C141.108 18.3958 141.368 18.3112 141.629 18.2461C141.889 18.168 142.143 18.0833 142.391 17.9922C142.638 17.888 142.853 17.7122 143.035 17.4648C143.113 17.0872 143.276 16.8203 143.523 16.6641C143.771 16.4948 144.031 16.3516 144.305 16.2344C144.578 16.1172 144.839 15.987 145.086 15.8438C145.346 15.6875 145.529 15.4401 145.633 15.1016H146.121C146.095 15.1667 146.108 15.2253 146.16 15.2773C146.212 15.3294 146.258 15.375 146.297 15.4141ZM135.496 24.0664C135.366 24.1445 135.223 24.2161 135.066 24.2812C134.91 24.3464 134.754 24.418 134.598 24.4961C134.441 24.5742 134.298 24.6654 134.168 24.7695C134.038 24.8737 133.94 25.0039 133.875 25.1602C133.732 25.082 133.595 25.0755 133.465 25.1406C133.348 25.2188 133.23 25.3034 133.113 25.3945C132.996 25.4987 132.872 25.5833 132.742 25.6484C132.625 25.7135 132.495 25.707 132.352 25.6289C132.104 25.7852 131.87 25.9544 131.648 26.1367C131.414 26.319 131.18 26.4948 130.945 26.6641C130.711 26.8464 130.47 27.0091 130.223 27.1523C129.962 27.3086 129.689 27.4258 129.402 27.5039C129.259 27.7383 129.07 27.9206 128.836 28.0508C128.602 28.194 128.367 28.3307 128.133 28.4609C127.885 28.5911 127.664 28.7474 127.469 28.9297C127.273 29.112 127.15 29.3659 127.098 29.6914C126.694 29.9518 126.421 30.2839 126.277 30.6875C126.121 31.1042 126.036 31.5404 126.023 31.9961C126.01 32.4648 126.03 32.9336 126.082 33.4023C126.134 33.8841 126.16 34.3203 126.16 34.7109C126.329 34.9062 126.499 35.043 126.668 35.1211C126.837 35.1992 127.013 35.2383 127.195 35.2383C127.378 35.2383 127.566 35.2122 127.762 35.1602C127.944 35.1211 128.146 35.082 128.367 35.043C128.419 34.8477 128.517 34.7174 128.66 34.6523C128.79 34.6003 128.934 34.5612 129.09 34.5352C129.233 34.5091 129.37 34.4701 129.5 34.418C129.617 34.3789 129.682 34.2747 129.695 34.1055L129.871 34.2617C129.884 34.0534 129.943 33.8776 130.047 33.7344C130.151 33.6042 130.275 33.4805 130.418 33.3633C130.561 33.2461 130.717 33.1354 130.887 33.0312C131.043 32.9271 131.18 32.8099 131.297 32.6797C131.271 32.4323 131.316 32.224 131.434 32.0547C131.551 31.8854 131.681 31.7292 131.824 31.5859C131.967 31.4427 132.098 31.2865 132.215 31.1172C132.319 30.9479 132.358 30.7331 132.332 30.4727C132.462 30.4206 132.553 30.3359 132.605 30.2188C132.658 30.1016 132.71 29.9909 132.762 29.8867C132.814 29.7826 132.879 29.7044 132.957 29.6523C133.048 29.6003 133.185 29.6133 133.367 29.6914C133.185 29.5482 133.107 29.4375 133.133 29.3594C133.172 29.2812 133.237 29.2096 133.328 29.1445C133.419 29.0924 133.504 29.0273 133.582 28.9492C133.66 28.8711 133.66 28.7539 133.582 28.5977C133.895 28.4674 134.096 28.2786 134.188 28.0312C134.279 27.7839 134.344 27.5169 134.383 27.2305C134.435 26.957 134.507 26.6836 134.598 26.4102C134.689 26.1497 134.891 25.9414 135.203 25.7852C135.177 25.5508 135.216 25.3424 135.32 25.1602C135.438 24.9909 135.548 24.8281 135.652 24.6719C135.77 24.5156 135.848 24.3529 135.887 24.1836C135.939 24.0143 135.893 23.8125 135.75 23.5781L135.496 24.0664Z" fill="#0090E3"/>
</svg>
