<svg width="98" height="18" viewBox="0 0 98 18" fill="none" xmlns="http://www.w3.org/2000/svg">
<path d="M2.17171 10.9168C2.17171 11.1892 2.28258 11.4357 2.50431 11.6562C2.72605 11.8638 3.01952 11.9676 3.38474 11.9676C3.73691 11.9676 4.08908 11.8897 4.44125 11.7341C4.80646 11.5784 5.15211 11.3449 5.47819 11.0335L5.47819 9.59352L3.56082 9.59352C3.11735 9.59352 2.7717 9.72973 2.52388 10.0022C2.2891 10.2746 2.17171 10.5795 2.17171 10.9168ZM3.42387 13.9719C2.26301 13.9719 1.40216 13.693 0.841293 13.1351C0.280431 12.5643 -2.80197e-09 11.8249 -2.58678e-09 10.9168C-2.35623e-09 9.94379 0.332604 9.19784 0.997813 8.67892C1.66302 8.16 2.5304 7.90054 3.59995 7.90054L5.45862 7.90054C5.44558 7.42054 5.3021 7.05081 5.02819 6.79135C4.76733 6.51892 4.40212 6.3827 3.93256 6.3827C3.48908 6.3827 3.00648 6.44757 2.48475 6.5773C1.96302 6.69406 1.52607 6.83676 1.1739 7.00541L0.489124 4.90378C0.854336 4.6573 1.40868 4.45622 2.15215 4.30054C2.90866 4.13189 3.48908 4.04757 3.89343 4.04757C5.02819 4.04757 5.99992 4.37838 6.8086 5.04C7.61729 5.68865 8.02163 6.51892 8.02163 7.53081L8.02163 13.7384L6.71078 13.7384L6.0847 12.9405C5.73253 13.213 5.31515 13.453 4.83254 13.6605C4.36299 13.8681 3.89343 13.9719 3.42387 13.9719Z" fill="#0090E3"/>
<path d="M12.436 -2.93087e-09L12.436 4.59243C12.8142 4.38487 13.2121 4.2227 13.6294 4.10595C14.0599 3.98919 14.4446 3.93081 14.7838 3.93081C16.1794 3.93081 17.249 4.41081 17.9924 5.37081C18.7359 6.33081 19.1076 7.52433 19.1076 8.95135C19.1076 10.3784 18.7228 11.5719 17.9533 12.5319C17.1968 13.4919 16.1403 13.9719 14.7838 13.9719C14.3403 13.9719 13.8447 13.8811 13.2968 13.6995C12.749 13.5178 12.2599 13.2649 11.8295 12.9405L11.2034 13.7384L9.9121 13.7384L9.9121 0.214053L12.436 -2.93087e-09ZM14.1186 11.8119C14.9925 11.8119 15.6055 11.5005 15.9577 10.8778C16.3098 10.2422 16.4859 9.6 16.4859 8.95135C16.4859 8.21189 16.3294 7.55027 16.0164 6.96649C15.7033 6.3827 15.0707 6.09081 14.1186 6.09081C13.8447 6.09081 13.5577 6.1427 13.2577 6.24649C12.9708 6.3373 12.6968 6.46703 12.436 6.63568L12.436 11.267C12.6968 11.4227 12.9708 11.5524 13.2577 11.6562C13.5577 11.76 13.8447 11.8119 14.1186 11.8119Z" fill="#0090E3"/>
<path d="M23.2173 -5.47178e-09L23.2173 4.59243C23.5956 4.38487 23.9934 4.2227 24.4108 4.10595C24.8412 3.98919 25.226 3.93081 25.5651 3.93081C26.9608 3.93081 28.0303 4.41081 28.7738 5.37081C29.5173 6.33081 29.889 7.52433 29.889 8.95135C29.889 10.3784 29.5042 11.5719 28.7347 12.5319C27.9781 13.4919 26.9216 13.9719 25.5651 13.9719C25.1217 13.9719 24.626 13.8811 24.0782 13.6995C23.5304 13.5178 23.0413 13.2649 22.6108 12.9405L21.9847 13.7384L20.6935 13.7384L20.6935 0.214053L23.2173 -5.47178e-09ZM24.8999 11.8119C25.7738 11.8119 26.3869 11.5005 26.739 10.8778C27.0912 10.2422 27.2673 9.6 27.2673 8.95135C27.2673 8.21189 27.1108 7.55027 26.7977 6.96649C26.4847 6.3827 25.8521 6.09081 24.8999 6.09081C24.626 6.09081 24.3391 6.1427 24.0391 6.24649C23.7521 6.3373 23.4782 6.46703 23.2173 6.63568L23.2173 11.267C23.4782 11.4227 23.7521 11.5524 24.0391 11.6562C24.3391 11.76 24.626 11.8119 24.8999 11.8119Z" fill="#0090E3"/>
<path d="M49.3275 6.84973C48.871 6.64216 48.4471 6.48649 48.0558 6.3827C47.6645 6.26595 47.2471 6.20757 46.8037 6.20757C46.4776 6.20757 46.2232 6.27243 46.0406 6.40216C45.8711 6.51892 45.7863 6.68757 45.7863 6.90811C45.7863 7.06379 45.8906 7.21298 46.0993 7.35568C46.3211 7.49838 46.6732 7.65406 47.1558 7.8227C47.9515 8.10811 48.6884 8.51027 49.3667 9.02919C50.0449 9.53514 50.3841 10.1968 50.3841 11.0141C50.3841 11.9481 50.0449 12.6746 49.3667 13.1935C48.7015 13.7124 47.7232 13.9719 46.4319 13.9719C46.0276 13.9719 45.4863 13.8941 44.808 13.7384C44.1428 13.5827 43.5885 13.3362 43.145 12.9989L43.9081 11.1697C44.3646 11.3773 44.8015 11.5395 45.2189 11.6562C45.6493 11.76 46.0406 11.8119 46.3928 11.8119C46.8624 11.8119 47.2211 11.747 47.4689 11.6173C47.7167 11.4876 47.8406 11.3189 47.8406 11.1114C47.8406 10.8519 47.7167 10.6184 47.4689 10.4108C47.2211 10.2032 46.8298 10.0151 46.295 9.84649C45.5385 9.6 44.8211 9.24973 44.1428 8.79568C43.4776 8.32865 43.145 7.70595 43.145 6.92757C43.145 6.03243 43.4776 5.33189 44.1428 4.82595C44.808 4.30703 45.708 4.04757 46.8428 4.04757C47.2471 4.04757 47.7689 4.13189 48.408 4.30054C49.0471 4.46919 49.608 4.71568 50.0906 5.04L49.3275 6.84973Z" fill="#182C55"/>
<path d="M57.4791 13.5438C57.2704 13.7124 56.9704 13.8487 56.5791 13.9524C56.2009 14.0692 55.8617 14.1276 55.5617 14.1276C54.3878 14.1276 53.4618 13.8357 52.7835 13.2519C52.1183 12.6551 51.7857 11.8119 51.7857 10.7222L51.7857 6.26595L50.514 6.26595L50.514 4.32L51.7857 4.32L51.7857 2.08216L54.3096 1.63459L54.3096 4.32L56.0313 4.32L56.8139 6.26595L54.3096 6.26595L54.3096 10.2746C54.3096 10.7676 54.427 11.1762 54.6617 11.5005C54.8965 11.8119 55.2422 11.9676 55.6987 11.9676C55.8683 11.9676 56.0378 11.9481 56.2074 11.9092C56.3769 11.8703 56.553 11.8054 56.7356 11.7146L57.4791 13.5438Z" fill="#182C55"/>
<path d="M74.756 11.8119C75.6299 11.8119 76.243 11.5005 76.5951 10.8778C76.9473 10.2422 77.1234 9.6 77.1234 8.95135C77.1234 8.21189 76.9669 7.55027 76.6538 6.96649C76.3408 6.3827 75.7082 6.09081 74.756 6.09081C74.4821 6.09081 74.1952 6.1427 73.8952 6.24649C73.6082 6.3373 73.3343 6.46703 73.0734 6.63568L73.0734 11.267C73.3343 11.4227 73.6082 11.5524 73.8952 11.6562C74.1952 11.76 74.4821 11.8119 74.756 11.8119ZM70.5496 4.30054L71.8408 4.30054L72.3887 5.00108C72.8191 4.67676 73.3213 4.4173 73.8952 4.2227C74.4691 4.02811 74.9778 3.93081 75.4212 3.93081C76.8169 3.93081 77.8864 4.41081 78.6299 5.37081C79.3734 6.33081 79.7451 7.52433 79.7451 8.95135C79.7451 10.3784 79.3603 11.5719 78.5908 12.5319C77.8342 13.4919 76.7777 13.9719 75.4212 13.9719C75.0821 13.9719 74.6973 13.9135 74.2669 13.7968C73.8495 13.68 73.4517 13.5178 73.0734 13.3103L73.0734 17.8054L70.5496 18L70.5496 4.30054Z" fill="#182C55"/>
<path d="M81.6244 10.8973C82.0287 10.8973 82.3613 11.0335 82.6222 11.3059C82.8961 11.5784 83.0331 11.9157 83.0331 12.3178C83.0331 12.72 82.8961 13.0573 82.6222 13.3297C82.3613 13.6022 82.0287 13.7384 81.6244 13.7384C81.2201 13.7384 80.8744 13.6022 80.5874 13.3297C80.3135 13.0573 80.1766 12.72 80.1766 12.3178C80.1766 11.9157 80.3135 11.5784 80.5874 11.3059C80.8744 11.0335 81.2201 10.8973 81.6244 10.8973Z" fill="#182C55"/>
<path d="M85.9677 5.31243C86.3981 4.88433 86.9329 4.54703 87.572 4.30054C88.2242 4.05405 88.8046 3.93081 89.3133 3.93081C90.6046 3.93081 91.5176 4.30703 92.0524 5.05946C92.6002 5.81189 92.8741 6.73297 92.8741 7.8227L92.8741 13.7384L90.3306 13.7384L90.3306 7.93946C90.3306 7.3427 90.1872 6.88865 89.9002 6.5773C89.6133 6.25297 89.1959 6.09081 88.6481 6.09081C88.2828 6.09081 87.8981 6.18811 87.4937 6.3827C87.1024 6.56433 86.7437 6.77838 86.4177 7.02487L86.4177 13.7384L83.8742 13.7384L83.8742 4.30054L85.2046 4.30054L85.9677 5.31243Z" fill="#182C55"/>
<path d="M97.2973 -1.27624e-08L97.2973 13.7384L94.7734 13.7384L94.7734 0.214053L97.2973 -1.27624e-08Z" fill="#182C55"/>
<path fill-rule="evenodd" clip-rule="evenodd" d="M36.2885 14.8195C39.4401 14.8195 41.9949 12.2784 41.9949 9.14384C41.9949 6.00925 39.4401 3.46816 36.2885 3.46816C33.1369 3.46816 30.582 6.00925 30.582 9.14384C30.582 12.2784 33.1369 14.8195 36.2885 14.8195ZM39.821 9.14384C39.821 11.0843 38.2395 12.6574 36.2885 12.6574C35.7201 12.6574 35.183 12.5238 34.7073 12.2866L39.4483 7.57121C39.6868 8.04436 39.821 8.57851 39.821 9.14384ZM37.9245 6.02903C37.4354 5.77436 36.8788 5.63033 36.2885 5.63033C34.3375 5.63033 32.7559 7.20338 32.7559 9.14384C32.7559 9.73101 32.9007 10.2845 33.1568 10.771L37.9245 6.02903Z" fill="#0090E3"/>
<path fill-rule="evenodd" clip-rule="evenodd" d="M63.4623 14.8195C66.6139 14.8195 69.1687 12.2784 69.1687 9.14384C69.1687 6.00925 66.6139 3.46816 63.4623 3.46816C60.3107 3.46816 57.7559 6.00925 57.7559 9.14384C57.7559 12.2784 60.3107 14.8195 63.4623 14.8195ZM66.9949 9.14384C66.9949 11.0843 65.4133 12.6574 63.4623 12.6574C62.8939 12.6574 62.3569 12.5238 61.8811 12.2866L66.6221 7.57121C66.8606 8.04436 66.9949 8.57851 66.9949 9.14384ZM65.0983 6.02903C64.6092 5.77436 64.0527 5.63033 63.4623 5.63033C61.5113 5.63033 59.9297 7.20338 59.9297 9.14384C59.9297 9.73101 60.0746 10.2845 60.3306 10.771L65.0983 6.02903Z" fill="#182C55"/>
</svg>
