<svg width="104" height="50" viewBox="0 0 104 50" fill="none" xmlns="http://www.w3.org/2000/svg">
<path d="M5.2298 10.6023C4.87955 10.0544 4.54737 9.53861 4.23328 9.05496C3.92734 8.56386 3.65882 8.10966 3.4277 7.69238C3.19694 7.26729 3.0192 6.87983 2.89448 6.53C2.76196 6.17981 2.70214 5.86423 2.71504 5.58328C2.72148 5.4428 2.7909 5.29348 2.92329 5.13532C3.04823 4.969 3.19587 4.81936 3.36621 4.6864C3.5369 4.54564 3.71024 4.43237 3.88624 4.3466C4.07039 4.25338 4.221 4.20946 4.33806 4.21483C4.61902 4.22772 4.85289 4.41442 5.03969 4.77492C5.11802 4.94275 5.23569 5.1906 5.3927 5.51845C5.55787 5.83886 5.74821 6.20735 5.96372 6.62391C6.17958 7.03267 6.41743 7.47373 6.67725 7.94707C6.94524 8.41297 7.21713 8.87905 7.49293 9.34531C7.77652 9.81192 8.05693 10.2627 8.33416 10.6978C8.61954 11.1254 8.89147 11.5054 9.14994 11.8379C9.41621 12.1708 9.66194 12.4402 9.88711 12.646C10.1204 12.8444 10.323 12.9476 10.4947 12.9554C10.721 12.9658 10.935 12.8192 11.1366 12.5157C11.3382 12.2121 11.5287 11.8102 11.7081 11.3101C11.8952 10.8104 12.0659 10.2434 12.2202 9.60915C12.3748 8.96712 12.5141 8.31658 12.6382 7.65751C12.7701 6.9988 12.8853 6.36279 12.9838 5.74947C13.0827 5.12835 13.1663 4.58474 13.2346 4.11863C13.2695 3.86997 13.3483 3.68589 13.4711 3.56639C13.5943 3.43909 13.7495 3.37973 13.9368 3.38833C14.1007 3.39585 14.2786 3.4392 14.4705 3.5184C14.6624 3.59759 14.8413 3.70356 15.0073 3.8363C15.1736 3.96125 15.3076 4.10817 15.4093 4.27707C15.5192 4.43853 15.5699 4.61291 15.5613 4.80021C15.5481 5.08897 15.5052 5.42721 15.4326 5.81491C15.3679 6.20298 15.2865 6.61374 15.1884 7.0472C15.0985 7.47321 14.9963 7.9104 14.8819 8.35875C14.7678 8.79929 14.6548 9.21643 14.5429 9.61015C14.4676 9.88824 14.3656 10.2355 14.237 10.6519C14.1166 11.0609 13.9676 11.4959 13.79 11.957C13.6128 12.4103 13.4081 12.8662 13.1759 13.3248C12.944 13.7756 12.6829 14.182 12.3926 14.5441C12.1026 14.8984 11.7807 15.1808 11.4269 15.3914C11.0806 15.6101 10.6967 15.7098 10.2753 15.6905C9.97094 15.6765 9.65881 15.5761 9.33891 15.3894C9.01865 15.2105 8.70089 14.9769 8.38565 14.6887C8.0704 14.4005 7.76067 14.0774 7.45645 13.7193C7.15259 13.3534 6.86452 12.9844 6.59223 12.6121C6.31995 12.2399 6.06663 11.8802 5.8323 11.5332C5.59832 11.1784 5.39749 10.868 5.2298 10.6023ZM19.7068 11.6068C19.6588 12.6525 19.7817 13.4676 20.0756 14.052C20.3694 14.6364 20.8207 14.9426 21.4294 14.9705C21.8118 14.9881 22.1682 14.891 22.4986 14.6794C22.8367 14.4681 23.1322 14.1649 23.3849 13.7698C23.6377 13.3747 23.8392 12.903 23.9895 12.3546C24.148 11.7988 24.2422 11.1931 24.2723 10.5376C24.2906 10.1396 24.2907 9.79545 24.2728 9.50526C24.2552 9.20727 24.232 8.94421 24.2034 8.7161C24.1829 8.48053 24.1612 8.27229 24.1382 8.09136C24.1152 7.91043 24.1075 7.73802 24.115 7.57413C24.1265 7.32439 24.2401 7.14972 24.4558 7.05013C24.6719 6.94274 25.0102 6.8996 25.4706 6.92073C26.0559 6.94759 26.5025 7.10103 26.8103 7.38106C27.1259 7.66145 27.2721 8.05528 27.2488 8.56256C27.1854 9.94392 26.9919 11.1785 26.6682 12.2664C26.3524 13.3546 25.9231 14.2734 25.3804 15.0228C24.8458 15.7647 24.21 16.326 23.4731 16.7066C22.7361 17.0873 21.9228 17.2573 21.0331 17.2164C20.4009 17.1874 19.8217 17.0279 19.2954 16.7378C18.7765 16.4559 18.3327 16.0719 17.964 15.5857C17.6034 15.0921 17.3287 14.5164 17.1399 13.8587C16.9515 13.1931 16.8752 12.4701 16.911 11.6896C16.9246 11.3931 16.9469 11.0774 16.9779 10.7425C17.0089 10.4076 17.0488 10.0497 17.0976 9.66872C17.1467 9.27994 17.2051 8.8603 17.2726 8.4098C17.3481 7.95966 17.4291 7.47067 17.5159 6.94284C17.5497 6.71759 17.6633 6.54293 17.8567 6.41885C18.0583 6.28733 18.3073 6.22837 18.6039 6.24198C18.8692 6.25415 19.1177 6.29293 19.3493 6.3583C19.581 6.42368 19.7766 6.50695 19.9362 6.60812C20.1036 6.70965 20.2312 6.825 20.3191 6.95416C20.4149 7.08369 20.4595 7.21869 20.4531 7.35917C20.4466 7.49964 20.4052 7.72063 20.3288 8.02213C20.2606 8.31619 20.1824 8.65671 20.0942 9.04371C20.0142 9.42325 19.9326 9.83792 19.8494 10.2877C19.7744 10.73 19.7268 11.1697 19.7068 11.6068ZM28.2996 2.79216C28.3182 2.38634 28.4485 2.10295 28.6905 1.942C28.9325 1.78105 29.3228 1.71293 29.8613 1.73764C30.0486 1.74623 30.2116 1.77326 30.3502 1.81873C30.4889 1.8642 30.6029 1.93591 30.6923 2.03386C30.782 2.124 30.8506 2.24837 30.8981 2.40696C30.9537 2.55811 30.9957 2.75164 31.0239 2.98756C31.0935 3.6868 31.1615 4.42115 31.2278 5.19063C31.3024 5.95266 31.3691 6.71433 31.428 7.47564C31.4951 8.22951 31.5551 8.96741 31.608 9.68934C31.6612 10.4035 31.7049 11.0702 31.7391 11.6896C31.7814 12.3016 31.8072 12.8463 31.8166 13.3238C31.8341 13.7939 31.8366 14.1655 31.8241 14.4386C31.8112 14.7196 31.773 14.9564 31.7094 15.149C31.6536 15.3419 31.5606 15.4941 31.4304 15.6054C31.3079 15.7171 31.1479 15.7958 30.9503 15.8414C30.7608 15.8797 30.5256 15.8923 30.2447 15.8795C29.9715 15.8669 29.7562 15.7867 29.5988 15.6387C29.4491 15.491 29.3809 15.2728 29.3942 14.9841C29.4078 14.6875 29.4025 14.2923 29.3782 13.7985C29.3543 13.2969 29.3173 12.7399 29.2672 12.1276C29.2171 11.5153 29.157 10.8634 29.0871 10.172C29.025 9.48088 28.9547 8.79725 28.8762 8.12107C28.8055 7.44525 28.7336 6.79674 28.6605 6.17554C28.5955 5.5469 28.5349 4.99276 28.4787 4.51312C28.4228 4.02567 28.3785 3.62869 28.3456 3.32217C28.3131 3.00785 28.2978 2.83118 28.2996 2.79216ZM39.49 5.37032C39.5287 4.52746 40.0943 4.1311 41.1869 4.18123C41.3742 4.18983 41.5358 4.24808 41.6716 4.35598C41.8074 4.46388 41.8829 4.60812 41.8981 4.78869C41.9465 5.26797 41.9873 5.743 42.0204 6.21376C42.0536 6.68453 42.0801 7.21364 42.1001 7.80111C42.1282 8.38114 42.1481 9.05464 42.1599 9.8216C42.1798 10.5811 42.1968 11.4891 42.2108 12.5456C42.2058 12.6548 42.2179 12.7336 42.2469 12.7818C42.2838 12.8304 42.3257 12.8558 42.3725 12.858C42.4427 12.8612 42.5162 12.7942 42.5929 12.6569C42.8851 12.0838 43.2056 11.5745 43.5545 11.1291C43.9038 10.6759 44.2731 10.2979 44.6624 9.99509C45.052 9.6845 45.4574 9.45675 45.8786 9.31184C46.3079 9.15948 46.741 9.09333 47.1781 9.11339C47.7556 9.13989 48.271 9.32777 48.7242 9.67704C49.1774 10.0263 49.5541 10.5089 49.8543 11.1249C50.1545 11.7409 50.3747 12.4822 50.5148 13.3489C50.6552 14.2078 50.7013 15.1641 50.653 16.2176C50.6397 16.5064 50.6054 16.7434 50.55 16.9285C50.5027 17.1062 50.4258 17.2474 50.3194 17.352C50.2129 17.4566 50.069 17.5243 49.8877 17.5551C49.7061 17.5936 49.4826 17.6069 49.2172 17.5947C48.8504 17.5778 48.5883 17.4954 48.4309 17.3474C48.2812 17.1998 48.2132 16.9777 48.2268 16.6811C48.2605 15.9475 48.2415 15.2545 48.1697 14.6021C48.1061 13.9423 47.9998 13.3626 47.8507 12.863C47.7015 12.3635 47.5165 11.9639 47.2956 11.6644C47.0826 11.3653 46.8434 11.2096 46.578 11.1974C45.9771 11.1699 45.3538 11.6301 44.7081 12.578C44.0702 13.5263 43.3822 14.969 42.6442 16.9059C42.5736 17.0826 42.4965 17.2276 42.4131 17.3411C42.3297 17.4546 42.2318 17.544 42.1193 17.6092C42.0146 17.6748 41.8876 17.7159 41.7382 17.7325C41.5885 17.7569 41.4122 17.7644 41.2093 17.7551C40.7957 17.7361 40.5027 17.6445 40.3303 17.4802C40.1658 17.3162 40.084 17.0544 40.0848 16.6946C40.1003 15.3346 40.0739 14.0351 40.0056 12.7963C39.9455 11.55 39.872 10.4244 39.7852 9.41936C39.7065 8.40688 39.6324 7.55102 39.5628 6.85178C39.5014 6.1451 39.4771 5.65128 39.49 5.37032ZM54.4815 5.38956C54.2551 5.37917 54.0419 5.33811 53.8419 5.26636C53.65 5.18717 53.4826 5.08564 53.3397 4.96177C53.205 4.83046 53.0984 4.68089 53.0201 4.51306C52.9418 4.34523 52.9071 4.16376 52.916 3.96865C52.9311 3.64087 53.072 3.38144 53.3389 3.19034C53.6135 2.99961 53.9694 2.91427 54.4064 2.93432C54.6093 2.94363 54.8026 2.99161 54.9864 3.07824C55.1704 3.15708 55.3299 3.26215 55.4646 3.39347C55.6072 3.52514 55.7174 3.67879 55.7954 3.85443C55.8737 4.02225 55.9088 4.19592 55.9005 4.37542C55.8851 4.711 55.7481 4.97062 55.4894 5.15426C55.2389 5.33047 54.9029 5.4089 54.4815 5.38956ZM52.7138 8.88643C52.7264 8.61328 52.8536 8.39623 53.0956 8.23528C53.3458 8.06688 53.666 7.99164 54.0562 8.00954C54.7586 8.04177 55.1221 8.30089 55.1467 8.78691C55.1626 9.12392 55.1764 9.50386 55.1883 9.92673C55.208 10.35 55.2225 10.8003 55.2319 11.2778C55.2494 11.7479 55.2582 12.2371 55.2584 12.7454C55.2667 13.2463 55.2712 13.7431 55.2721 14.2359C55.2733 14.7208 55.2713 15.19 55.2662 15.6433C55.261 16.0967 55.2498 16.5107 55.2326 16.8853C55.2147 17.2755 55.0608 17.5617 54.7709 17.7439C54.4888 17.9265 54.0824 18.0056 53.5517 17.9813C53.3098 17.9702 53.1213 17.9029 52.9862 17.7794C52.8585 17.664 52.7997 17.4971 52.8097 17.2786C52.8591 16.2016 52.878 15.1936 52.8664 14.2545C52.8629 13.3081 52.8467 12.4666 52.818 11.7301C52.797 10.994 52.7703 10.3828 52.7379 9.89641C52.7136 9.40259 52.7056 9.06593 52.7138 8.88643ZM67.455 15.3815C67.6903 15.1967 67.9172 15.1094 68.1357 15.1194C68.2606 15.1252 68.3723 15.1616 68.4709 15.2287C68.5695 15.2957 68.6782 15.3985 68.797 15.5369C68.9058 15.7218 68.981 15.8738 69.0224 15.993C69.072 16.1048 69.0943 16.2153 69.0893 16.3246C69.0786 16.5587 68.9513 16.7757 68.7075 16.9757C68.3186 17.2707 67.8999 17.533 67.4514 17.7627C67.0032 17.9846 66.5372 18.1705 66.0532 18.3203C65.5693 18.4702 65.0717 18.5764 64.5605 18.6389C64.0489 18.7093 63.5434 18.733 63.0439 18.7101C62.4118 18.6811 61.8224 18.5719 61.2758 18.3826C60.7289 18.2011 60.2437 17.9521 59.8203 17.6354C59.4046 17.3192 59.058 16.9474 58.7804 16.5202C58.5032 16.0852 58.3142 15.6033 58.2133 15.0747C58.1531 14.853 58.0932 14.7094 58.0336 14.6441C57.9822 14.5714 57.8902 14.532 57.7575 14.5259C57.4688 14.5126 57.2496 14.4322 57.0999 14.2846C56.9503 14.1369 56.8815 13.9304 56.8937 13.6651C56.8987 13.5558 56.9098 13.4859 56.9268 13.4554L56.961 13.2224C57.0129 12.9432 57.0963 12.7437 57.2113 12.6239C57.3341 12.5044 57.5165 12.4502 57.7584 12.4613L57.934 12.4693C58.2618 12.4844 58.499 12.3427 58.6456 12.0445C58.9123 11.5171 59.2431 11.0395 59.6381 10.6119C60.0331 10.1842 60.4719 9.82507 60.9545 9.53438C61.4375 9.23589 61.9482 9.01298 62.4868 8.86563C63.0335 8.71085 63.5839 8.64616 64.138 8.67159C64.7156 8.69809 65.2501 8.80865 65.7417 9.00326C66.2415 9.19043 66.6718 9.44089 67.0328 9.75464C67.3938 10.0684 67.6706 10.4291 67.863 10.8368C68.0633 11.2448 68.1528 11.6791 68.1317 12.1395C68.117 12.4595 68.0412 12.7493 67.9041 13.0089C67.7671 13.2686 67.5768 13.4944 67.3334 13.6866C67.0903 13.871 66.7981 14.0179 66.4568 14.1274C66.1233 14.2372 65.7449 14.3019 65.3217 14.3216L61.2408 14.545C61.0847 14.5378 60.9541 14.5709 60.8491 14.6443C60.7518 14.718 60.7002 14.8212 60.6941 14.9539C60.6848 15.1568 60.75 15.3553 60.8897 15.5495C61.0372 15.7439 61.2324 15.921 61.4753 16.0808C61.7264 16.2331 62.0139 16.3596 62.3377 16.4605C62.6694 16.5618 63.0108 16.6205 63.362 16.6366C63.6975 16.652 64.0424 16.6365 64.3964 16.5902C64.7586 16.5364 65.1143 16.455 65.4634 16.3459C65.8204 16.2371 66.1666 16.1044 66.5023 15.9478C66.8383 15.7833 67.1559 15.5945 67.455 15.3815ZM64.9831 12.2414C65.1012 12.2234 65.2052 12.1734 65.295 12.0915C65.3851 12.0018 65.4333 11.8906 65.4393 11.7579C65.4447 11.6409 65.4068 11.5296 65.3256 11.4242C65.2444 11.3188 65.1315 11.2237 64.9868 11.1389C64.8424 11.0462 64.6738 10.972 64.4808 10.9162C64.2879 10.8604 64.0821 10.8275 63.8636 10.8175C63.5436 10.8028 63.2137 10.8346 62.8738 10.9129C62.5339 10.9911 62.2238 11.102 61.9435 11.2456C61.6636 11.3813 61.4334 11.5389 61.2532 11.7183C61.0732 11.89 60.9791 12.0655 60.9709 12.245C60.9627 12.4245 61.0678 12.5193 61.2863 12.5293C61.419 12.5354 61.6343 12.5296 61.9323 12.512C62.2303 12.4944 62.5597 12.4743 62.9205 12.4518C63.2817 12.4214 63.6469 12.3874 64.0162 12.3496C64.3855 12.3118 64.7078 12.2757 64.9831 12.2414ZM76.5073 9.59111C76.2186 9.57786 75.9613 9.64426 75.7357 9.79032C75.5103 9.92857 75.3134 10.1307 75.1447 10.3967C74.9765 10.6549 74.8332 10.965 74.7149 11.3272C74.597 11.6815 74.497 12.0719 74.4148 12.4982C74.3327 12.9246 74.2692 13.3714 74.2243 13.8386C74.1794 14.3058 74.146 14.7774 74.1242 15.2534C74.0955 15.8778 74.0906 16.4954 74.1095 17.1063C74.1366 17.7097 74.1383 18.269 74.1147 18.7841C74.0993 19.1196 73.9624 19.3754 73.7041 19.5512C73.4454 19.7349 73.0858 19.8161 72.6254 19.795C72.5395 19.791 72.4423 19.7788 72.3338 19.7581C72.2252 19.7375 72.1213 19.7015 72.022 19.65C71.9305 19.5989 71.8477 19.5286 71.7736 19.4392C71.7069 19.3579 71.6729 19.2468 71.6716 19.106C71.6328 18.416 71.5636 17.709 71.4639 16.9849C71.3642 16.2608 71.2291 15.539 71.0588 14.8195C70.8967 14.0926 70.6912 13.3714 70.4425 12.6562C70.2016 11.9413 69.917 11.24 69.5888 10.5523C69.5317 10.4324 69.4821 10.3206 69.44 10.217C69.4056 10.1138 69.3906 10.0153 69.3949 9.92168C69.4002 9.80462 69.4567 9.68208 69.5642 9.55406C69.6799 9.41859 69.8185 9.29591 69.98 9.18601C70.1492 9.07647 70.3291 8.99087 70.5197 8.92923C70.7183 8.86014 70.9074 8.82971 71.0869 8.83795C71.3835 8.85156 71.6355 9.07037 71.8428 9.49438C72.0505 9.91059 72.2313 10.5719 72.3852 11.4784C72.4171 11.6362 72.4433 11.7469 72.4638 11.8104C72.4844 11.8739 72.5142 11.9066 72.5532 11.9084C72.639 11.9123 72.6998 11.7822 72.7354 11.5179C72.863 10.7808 73.0522 10.1521 73.3029 9.63176C73.5539 9.10365 73.8551 8.6756 74.2064 8.34761C74.5659 8.01218 74.968 7.77254 75.4125 7.62871C75.8649 7.48523 76.3564 7.42566 76.8871 7.45002C77.1915 7.46398 77.4985 7.50544 77.8082 7.5744C78.1178 7.64335 78.395 7.73819 78.6398 7.85891C78.8845 7.97963 79.0813 8.12161 79.2302 8.28486C79.3791 8.44811 79.4491 8.62729 79.4402 8.82239C79.4337 8.96287 79.3948 9.12923 79.3234 9.32147C79.2602 9.50627 79.1776 9.68627 79.0758 9.86147C78.9742 10.0289 78.8582 10.1721 78.7276 10.2913C78.6051 10.403 78.4815 10.4559 78.3566 10.4502C78.2161 10.4438 78.0813 10.3985 77.9523 10.3144C77.8235 10.2224 77.6833 10.126 77.5315 10.0252C77.3875 9.92477 77.2314 9.83158 77.0633 9.74566C76.9034 9.6523 76.718 9.60078 76.5073 9.59111ZM84.6899 22.7535C84.8928 22.7628 85.0621 22.7393 85.1976 22.6829C85.3328 22.6344 85.443 22.5338 85.5282 22.3813C85.6134 22.2288 85.6777 22.0206 85.7211 21.7567C85.7645 21.4928 85.7957 21.154 85.8146 20.7404C85.8881 19.1405 85.8927 17.7604 85.8287 16.6C85.7724 15.4399 85.6962 14.4588 85.6001 13.6567C85.5039 12.8546 85.4082 12.2128 85.313 11.7314C85.226 11.2425 85.1882 10.8732 85.1996 10.6234C85.2118 10.3581 85.3426 10.149 85.5921 9.99624C85.8415 9.84346 86.1773 9.76893 86.5995 9.77266C87.2004 9.80023 87.5552 9.99248 87.664 10.3494C87.8024 10.911 87.9214 11.5578 88.0207 12.2897C88.1283 13.0141 88.2097 13.796 88.265 14.6354C88.3282 15.4751 88.3622 16.3526 88.3671 17.2678C88.3802 18.1756 88.3656 19.09 88.3234 20.0109C88.2786 20.9864 88.1825 21.8032 88.035 22.4612C87.8949 23.1273 87.679 23.657 87.3872 24.0503C87.1033 24.444 86.7388 24.7166 86.2939 24.8683C85.8486 25.0277 85.3021 25.0926 84.6543 25.0628C84.2719 25.0453 83.8723 24.9761 83.4556 24.8553C83.0462 24.7427 82.6463 24.5953 82.2558 24.4132C81.865 24.2388 81.499 24.0343 81.1578 23.7997C80.8088 23.5647 80.5072 23.3201 80.253 23.066C79.9906 22.8194 79.787 22.5676 79.6424 22.3107C79.49 22.0534 79.4191 21.8077 79.4299 21.5736C79.4353 21.4565 79.4882 21.326 79.5886 21.182C79.6891 21.038 79.8126 20.9029 79.9592 20.7767C80.0976 20.6579 80.2468 20.5592 80.4068 20.4805C80.5668 20.4018 80.7093 20.3654 80.8341 20.3711C80.9824 20.3779 81.136 20.4397 81.2949 20.5565C81.446 20.6729 81.6114 20.8173 81.7912 20.9898C81.9631 21.162 82.1502 21.3465 82.3523 21.5435C82.5466 21.7401 82.761 21.9259 82.9954 22.1009C83.2376 22.2762 83.4967 22.425 83.7726 22.5471C84.0486 22.6693 84.3543 22.7381 84.6899 22.7535ZM86.911 7.83959C86.6851 7.82141 86.4762 7.77271 86.2843 7.69352C86.1002 7.61469 85.9406 7.51352 85.8055 7.39001C85.6707 7.25869 85.564 7.11302 85.4853 6.953C85.4148 6.78553 85.3839 6.60814 85.3925 6.42084C85.4075 6.09306 85.5445 5.83344 85.8036 5.64199C86.0626 5.45054 86.4029 5.36448 86.8243 5.38382C87.035 5.39349 87.2322 5.44164 87.416 5.52828C87.6078 5.60747 87.7749 5.7168 87.9171 5.85628C88.0596 5.98795 88.1699 6.14161 88.2479 6.31724C88.3262 6.48507 88.3611 6.66264 88.3525 6.84994C88.3371 7.18552 88.2041 7.44142 87.9536 7.61762C87.7034 7.78601 87.3559 7.86001 86.911 7.83959ZM101.006 16.921C101.241 16.7363 101.468 16.6489 101.686 16.659C101.811 16.6647 101.923 16.7011 102.022 16.7682C102.12 16.8353 102.229 16.938 102.348 17.0764C102.456 17.2613 102.532 17.4133 102.573 17.5325C102.623 17.6443 102.645 17.7548 102.64 17.8641C102.629 18.0982 102.502 18.3153 102.258 18.5152C101.869 18.8102 101.45 19.0726 101.002 19.3022C100.554 19.5241 100.088 19.71 99.6039 19.8598C99.1199 20.0097 98.6224 20.1159 98.1111 20.1785C97.5996 20.2488 97.094 20.2726 96.5946 20.2496C95.9624 20.2206 95.373 20.1115 94.8265 19.9222C94.2795 19.7406 93.7943 19.4916 93.3709 19.175C92.9553 18.8587 92.6087 18.487 92.3311 18.0597C92.0539 17.6247 91.8648 17.1429 91.7639 16.6142C91.7037 16.3925 91.6438 16.249 91.5843 16.1837C91.5329 16.1109 91.4408 16.0715 91.3081 16.0654C91.0194 16.0522 90.8002 15.9717 90.6505 15.8241C90.5009 15.6764 90.4322 15.47 90.4443 15.2046C90.4494 15.0953 90.4604 15.0255 90.4774 14.995L90.5116 14.7619C90.5635 14.4828 90.647 14.2832 90.7619 14.1634C90.8847 14.0439 91.0671 13.9897 91.309 14.0008L91.4846 14.0089C91.8124 14.0239 92.0496 13.8823 92.1963 13.584C92.4629 13.0566 92.7937 12.5791 93.1888 12.1514C93.5838 11.7238 94.0226 11.3646 94.5052 11.0739C94.9881 10.7754 95.4988 10.5525 96.0374 10.4052C96.5841 10.2504 97.1346 10.1857 97.6887 10.2111C98.2662 10.2376 98.8007 10.3482 99.2923 10.5428C99.7921 10.73 100.222 10.9804 100.583 11.2942C100.944 11.6079 101.221 11.9686 101.414 12.3763C101.614 12.7844 101.703 13.2186 101.682 13.6791C101.668 13.9991 101.592 14.2888 101.455 14.5485C101.318 14.8081 101.127 15.034 100.884 15.2261C100.641 15.4105 100.349 15.5574 100.007 15.6669C99.6739 15.7767 99.2956 15.8415 98.8723 15.8612L94.7914 16.0845C94.6353 16.0773 94.5048 16.1104 94.3997 16.1838C94.3025 16.2576 94.2508 16.3608 94.2447 16.4934C94.2354 16.6964 94.3006 16.8949 94.4403 17.089C94.5878 17.2834 94.783 17.4605 95.0259 17.6203C95.277 17.7726 95.5645 17.8992 95.8883 18.0001C96.22 18.1013 96.5614 18.16 96.9126 18.1761C97.2482 18.1915 97.593 18.176 97.9471 18.1297C98.3093 18.076 98.6649 17.9945 99.0141 17.8854C99.371 17.7767 99.7173 17.6439 100.053 17.4873C100.389 17.3228 100.707 17.1341 101.006 16.921ZM98.5337 13.7809C98.6519 13.7629 98.7558 13.7129 98.8456 13.631C98.9358 13.5413 98.9839 13.4301 98.99 13.2974C98.9953 13.1804 98.9574 13.0692 98.8762 12.9638C98.7951 12.8584 98.6821 12.7632 98.5374 12.6784C98.3931 12.5857 98.2244 12.5115 98.0315 12.4558C97.8385 12.4 97.6328 12.3671 97.4142 12.357C97.0943 12.3424 96.7643 12.3741 96.4244 12.4524C96.0846 12.5307 95.7745 12.6416 95.4942 12.7851C95.2142 12.9209 94.9841 13.0784 94.8038 13.2579C94.6239 13.4295 94.5298 13.605 94.5215 13.7845C94.5133 13.964 94.6184 14.0588 94.837 14.0688C94.9696 14.0749 95.185 14.0692 95.483 14.0515C95.781 14.0339 96.1104 14.0139 96.4711 13.9913C96.8323 13.961 97.1975 13.9269 97.5668 13.8891C97.9361 13.8513 98.2584 13.8152 98.5337 13.7809ZM3.06198 33.5583C3.06735 33.4412 3.12327 33.3304 3.22974 33.2258C3.33657 33.1134 3.47389 33.018 3.64172 32.9397C3.80991 32.8535 3.99671 32.7878 4.20213 32.7425C4.41571 32.6897 4.62786 32.6682 4.83858 32.6778C4.95564 32.6832 5.05176 32.7189 5.12694 32.7849C5.20992 32.8513 5.27851 32.9757 5.33271 33.158C5.38727 33.3326 5.43062 33.5809 5.46276 33.9031C5.50306 34.2177 5.53499 34.6298 5.55854 35.1392C5.58259 35.2967 5.60436 35.419 5.62383 35.5059C5.65147 35.5854 5.6887 35.6262 5.73552 35.6283C5.80576 35.6315 5.88155 35.5138 5.96289 35.2751C6.60817 33.6545 7.4693 32.8689 8.54629 32.9184C9.04577 32.9413 9.49125 33.1181 9.88275 33.4489C10.2821 33.7801 10.641 34.3088 10.9596 35.0351C11.2864 35.754 11.5833 36.6983 11.8502 37.868C12.1176 39.0299 12.3725 40.4611 12.6152 42.1615C12.6268 42.248 12.635 42.3266 12.6395 42.3972C12.6441 42.4678 12.645 42.5343 12.6421 42.5968C12.6339 42.7763 12.5838 42.9304 12.4919 43.0591C12.4081 43.1804 12.2979 43.2809 12.1613 43.3607C12.025 43.4326 11.8741 43.4844 11.7084 43.5159C11.5423 43.5552 11.3774 43.5711 11.2135 43.5635C10.8857 43.5485 10.6493 43.5025 10.5042 43.4254C10.367 43.3487 10.2833 43.2119 10.2532 43.015C10.0813 41.8184 9.90727 40.7546 9.73101 39.8237C9.56255 38.8931 9.38729 38.1108 9.20522 37.4768C9.03132 36.8353 8.85043 36.3461 8.66256 36.009C8.47469 35.6719 8.2793 35.4987 8.07639 35.4894C7.87347 35.4801 7.67636 35.6001 7.48504 35.8494C7.30189 36.0912 7.11601 36.4776 6.92741 37.0086C6.73881 37.5396 6.54749 38.2151 6.35344 39.0352C6.1672 39.8557 5.97752 40.8363 5.7844 41.9771C5.73106 42.2875 5.56351 42.53 5.28177 42.7048C5.00002 42.8796 4.64843 42.9573 4.227 42.9379C3.94605 42.9251 3.73412 42.8567 3.59121 42.7328C3.4483 42.6089 3.37369 42.4452 3.36739 42.2416C3.37164 40.615 3.35484 39.2769 3.31698 38.2272C3.28728 37.1701 3.25182 36.3238 3.21058 35.6884C3.16971 35.0452 3.13302 34.5665 3.10052 34.2522C3.06802 33.9379 3.05517 33.7066 3.06198 33.5583ZM21.6527 33.6254C22.0819 33.6451 22.4925 33.7304 22.8844 33.8813C23.2763 34.0322 23.6191 34.2318 23.9127 34.4799C24.2064 34.7279 24.4354 35.02 24.5999 35.356C24.7721 35.6924 24.8491 36.0596 24.8309 36.4576C24.8233 36.6215 24.777 36.7797 24.6918 36.9322C24.6147 37.0773 24.5111 37.2055 24.3809 37.3168C24.251 37.4203 24.1025 37.5034 23.9354 37.5662C23.7764 37.6214 23.6111 37.6451 23.4394 37.6373C23.4238 37.6365 23.408 37.6397 23.392 37.6468C23.3842 37.6465 23.3725 37.6459 23.3569 37.6452C23.3409 37.6523 23.3252 37.6555 23.3095 37.6548L23.3134 38.5934C23.2934 39.7109 23.4121 40.5336 23.6694 41.0616C23.9345 41.5899 24.2973 41.8646 24.7578 41.8857C24.9216 41.8933 25.0667 41.8843 25.193 41.8588C25.3271 41.8337 25.4497 41.8041 25.5608 41.7701C25.68 41.7286 25.791 41.6946 25.8939 41.6681C25.9968 41.6415 26.099 41.6306 26.2004 41.6352C26.3799 41.6434 26.5324 41.7286 26.658 41.8908C26.7913 42.0534 26.8529 42.2439 26.8429 42.4624C26.8329 42.6809 26.737 42.8955 26.5553 43.1061C26.3813 43.3171 26.1537 43.5061 25.8723 43.6731C25.5913 43.8323 25.2766 43.9586 24.9282 44.0521C24.5798 44.1456 24.23 44.1843 23.8788 44.1682C23.27 44.1402 22.7469 43.866 22.3094 43.3454C21.8722 42.817 21.5784 42.0605 21.4281 41.076C21.3884 40.9178 21.3296 40.8369 21.2515 40.8333C21.1579 40.829 21.0738 40.8721 20.9992 40.9625C20.1819 41.9026 19.3248 42.5984 18.4282 43.05C17.5319 43.4937 16.6584 43.6961 15.8078 43.657C15.4098 43.6388 15.0534 43.5638 14.7388 43.432C14.4242 43.3003 14.1586 43.1239 13.942 42.9028C13.7335 42.6742 13.5738 42.4049 13.4629 42.0948C13.3601 41.7772 13.3175 41.4273 13.3351 41.0449C13.3598 40.5064 13.5028 39.9459 13.7642 39.3635C14.0333 38.7815 14.384 38.2111 14.8164 37.6522C15.2487 37.0933 15.7422 36.5646 16.2969 36.066C16.8594 35.5678 17.4424 35.1332 18.046 34.762C18.6574 34.3912 19.2728 34.1027 19.8923 33.8965C20.5118 33.6903 21.0986 33.5999 21.6527 33.6254ZM21.0805 37.6581C21.2331 37.3992 21.3707 37.2139 21.4931 37.1022C21.6159 36.9827 21.7875 36.9084 22.0078 36.8794C22.1805 36.8639 22.2689 36.8132 22.2728 36.7274C22.2757 36.6649 22.2553 36.5975 22.2117 36.5251C22.0728 36.3154 21.9247 36.1327 21.7677 35.9768C21.6109 35.8132 21.396 35.7252 21.1228 35.7126C20.8263 35.699 20.4906 35.7697 20.116 35.9245C19.7413 36.0794 19.3561 36.2924 18.9605 36.5636C18.573 36.8274 18.1874 37.1343 17.8038 37.4842C17.4283 37.8268 17.0913 38.1828 16.7928 38.5523C16.4943 38.9218 16.2506 39.2899 16.0617 39.6567C15.8728 40.0234 15.7716 40.355 15.758 40.6516C15.7458 40.9169 15.8066 41.127 15.9402 41.2817C16.0817 41.4368 16.2773 41.5201 16.5271 41.5315C17.167 41.5609 17.8811 41.2535 18.6692 40.6092C19.4574 39.965 20.2612 38.9813 21.0805 37.6581ZM34.9746 34.2367C35.4038 34.2564 35.8144 34.3417 36.2063 34.4926C36.5983 34.6435 36.941 34.8431 37.2347 35.0912C37.5283 35.3392 37.7573 35.6313 37.9218 35.9673C38.094 36.3037 38.171 36.6709 38.1528 37.0689C38.1453 37.2328 38.0989 37.391 38.0137 37.5435C37.9367 37.6886 37.833 37.8168 37.7028 37.9281C37.5729 38.0316 37.4244 38.1147 37.2573 38.1775C37.0983 38.2327 36.933 38.2564 36.7613 38.2486C36.7457 38.2478 36.7299 38.251 36.7139 38.2581C36.7061 38.2578 36.6944 38.2572 36.6788 38.2565C36.6629 38.2636 36.6471 38.2668 36.6315 38.2661L36.6353 39.2047C36.6153 40.3222 36.734 41.1449 36.9913 41.6729C37.2564 42.2012 37.6192 42.4759 38.0797 42.497C38.2436 42.5046 38.3887 42.4956 38.515 42.4701C38.6491 42.445 38.7716 42.4154 38.8827 42.3814C39.0019 42.3399 39.113 42.3059 39.2158 42.2794C39.3187 42.2528 39.4209 42.2419 39.5224 42.2465C39.7019 42.2547 39.8544 42.3399 39.9799 42.5021C40.1132 42.6647 40.1748 42.8552 40.1648 43.0737C40.1548 43.2922 40.0589 43.5068 39.8772 43.7174C39.7033 43.9284 39.4756 44.1174 39.1942 44.2844C38.9132 44.4435 38.5985 44.5699 38.2501 44.6634C37.9017 44.7569 37.5519 44.7956 37.2007 44.7795C36.592 44.7515 36.0688 44.4773 35.6313 43.9567C35.1941 43.4283 34.9003 42.6718 34.75 41.6873C34.7103 41.5291 34.6515 41.4482 34.5734 41.4446C34.4798 41.4403 34.3957 41.4834 34.3212 41.5738C33.5038 42.5139 32.6468 43.2097 31.7501 43.6613C30.8538 44.105 29.9804 44.3074 29.1297 44.2683C28.7317 44.2501 28.3754 44.1751 28.0608 44.0433C27.7462 43.9116 27.4805 43.7352 27.2639 43.5141C27.0554 43.2855 26.8957 43.0162 26.7848 42.7061C26.682 42.3885 26.6394 42.0386 26.657 41.6562C26.6817 41.1177 26.8247 40.5572 27.0861 39.9748C27.3552 39.3928 27.706 38.8224 28.1383 38.2635C28.5706 37.7046 29.0641 37.1758 29.6188 36.6773C30.1813 36.1791 30.7643 35.7445 31.3679 35.3733C31.9793 35.0025 32.5947 34.714 33.2142 34.5078C33.8337 34.3016 34.4205 34.2112 34.9746 34.2367ZM34.4024 38.2694C34.5551 38.0105 34.6926 37.8252 34.815 37.7135C34.9378 37.594 35.1094 37.5197 35.3297 37.4907C35.5025 37.4752 35.5908 37.4245 35.5948 37.3387C35.5976 37.2762 35.5773 37.2088 35.5337 37.1364C35.3947 36.9267 35.2467 36.7439 35.0896 36.5881C34.9328 36.4245 34.7179 36.3365 34.4448 36.3239C34.1482 36.3103 33.8126 36.381 33.4379 36.5358C33.0632 36.6907 32.678 36.9037 32.2824 37.1749C31.8949 37.4387 31.5093 37.7456 31.1257 38.0955C30.7502 38.4381 30.4132 38.7941 30.1147 39.1636C29.8162 39.5331 29.5725 39.9012 29.3836 40.268C29.1948 40.6347 29.0935 40.9663 29.0799 41.2629C29.0677 41.5282 29.1285 41.7383 29.2622 41.893C29.4036 42.0481 29.5992 42.1314 29.849 42.1428C30.4889 42.1722 31.203 41.8648 31.9912 41.2205C32.7793 40.5763 33.5831 39.5926 34.4024 38.2694ZM41.4942 45.2932C41.4871 44.2527 41.4413 43.2926 41.3565 42.4128C41.2799 41.5255 41.1903 40.7511 41.0877 40.0894C40.9929 39.4281 40.9041 38.8923 40.8213 38.4818C40.7463 38.0717 40.7111 37.8159 40.7157 37.7144C40.7225 37.5661 40.7838 37.4243 40.8995 37.2888C41.023 37.1537 41.1729 37.0393 41.3493 36.9458C41.526 36.8444 41.7133 36.767 41.9113 36.7135C42.1171 36.6604 42.3019 36.6376 42.4658 36.6451C42.5985 36.6512 42.7106 36.6798 42.8021 36.7309C42.9014 36.7824 42.968 36.8636 43.002 36.9747C43.035 37.1092 43.0637 37.2512 43.0881 37.401C43.1206 37.5432 43.1518 37.7167 43.1815 37.9214C43.2151 38.2123 43.2709 38.3596 43.3489 38.3631C43.4348 38.3671 43.5382 38.2428 43.6593 37.9903C43.8319 37.6384 44.0133 37.3496 44.2035 37.1237C44.3938 36.8978 44.5934 36.7231 44.8024 36.5998C45.0195 36.469 45.2386 36.3813 45.4597 36.3367C45.6885 36.2924 45.9239 36.2759 46.1658 36.287C46.8994 36.3206 47.5066 36.6378 47.9874 37.2386C48.476 37.8398 48.8396 38.6933 49.0782 39.7991C49.1115 39.9258 49.1428 40.0094 49.1723 40.0498C49.202 40.0825 49.2364 40.0997 49.2755 40.1015C49.3145 40.1033 49.3542 40.0894 49.3947 40.06C49.4433 40.0231 49.4896 39.951 49.5337 39.8435C49.7442 39.3448 49.9825 38.9256 50.2483 38.5859C50.5145 38.2383 50.7853 37.9614 51.0607 37.7551C51.3442 37.5413 51.6288 37.3901 51.9144 37.3015C52.2 37.213 52.4716 37.1746 52.7291 37.1864C53.2052 37.2083 53.6264 37.4035 53.9927 37.7723C54.3671 38.1336 54.686 38.6839 54.9492 39.4233C55.2207 40.1553 55.4402 41.0804 55.6079 42.1986C55.7837 43.3094 55.911 44.6252 55.9898 46.1461C55.9705 46.5675 55.8283 46.8543 55.5632 47.0063C55.2978 47.1662 54.9427 47.2359 54.4978 47.2155C54.2091 47.2023 53.9856 47.1295 53.8275 46.9971C53.6693 46.8647 53.5832 46.6965 53.5691 46.4925C53.5174 45.4031 53.4484 44.434 53.3623 43.5854C53.2842 42.7294 53.1882 42.0094 53.0742 41.4254C52.9606 40.8337 52.8249 40.3817 52.6672 40.0694C52.5173 39.7575 52.3409 39.5969 52.138 39.5876C52.0365 39.583 51.9043 39.6512 51.7414 39.7923C51.5864 39.9338 51.4138 40.1996 51.2239 40.5897C51.0343 40.9721 50.8301 41.5023 50.6113 42.1805C50.3928 42.8509 50.1734 43.7128 49.953 44.7663C49.8925 45.0608 49.7378 45.2805 49.4887 45.4254C49.2474 45.5708 48.955 45.6356 48.6117 45.6198C48.2136 45.6016 47.9395 45.5264 47.7891 45.3944C47.6465 45.2627 47.5743 45.0482 47.5723 44.7509C47.5647 44.2344 47.5335 43.7207 47.4788 43.2099C47.4321 42.6916 47.3648 42.1997 47.2766 41.7342C47.1889 41.261 47.0876 40.8262 46.9728 40.4299C46.8584 40.0258 46.7337 39.6759 46.5987 39.3804C46.464 39.077 46.3224 38.8398 46.1738 38.6687C46.0253 38.4977 45.8768 38.4088 45.7285 38.4019C45.5334 38.393 45.336 38.5208 45.1361 38.7854C44.9441 39.0503 44.7625 39.4291 44.5913 39.9217C44.4279 40.4148 44.2871 41.0105 44.1691 41.7089C44.051 42.4074 43.9721 43.1897 43.9323 44.056C43.9255 44.2043 43.9226 44.3528 43.9236 44.5014C43.925 44.6422 43.9221 44.7907 43.9149 44.9468C43.9042 45.1809 43.8564 45.3703 43.7715 45.515C43.6945 45.6601 43.5838 45.7723 43.4393 45.8517C43.3027 45.9315 43.144 45.9828 42.963 46.0058C42.7821 46.0288 42.5863 46.0355 42.3756 46.0258C42.1805 46.0168 42.0251 45.9941 41.9095 45.9575C41.7935 45.9287 41.7055 45.8856 41.6456 45.8281C41.5856 45.7706 41.5461 45.6945 41.527 45.5997C41.5075 45.5128 41.4966 45.4106 41.4942 45.2932ZM65.4897 33.9242C65.2634 33.9138 65.0502 33.8727 64.8502 33.801C64.6583 33.7218 64.4909 33.6202 64.348 33.4964C64.2132 33.3651 64.1067 33.2155 64.0284 33.0477C63.95 32.8798 63.9154 32.6984 63.9243 32.5032C63.9394 32.1755 64.0803 31.916 64.3472 31.7249C64.6218 31.5342 64.9777 31.4489 65.4147 31.4689C65.6176 31.4782 65.8109 31.5262 65.9946 31.6128C66.1787 31.6917 66.3381 31.7967 66.4729 31.9281C66.6154 32.0597 66.7257 32.2134 66.8037 32.389C66.882 32.5569 66.917 32.7305 66.9088 32.91C66.8934 33.2456 66.7564 33.5052 66.4977 33.6889C66.2471 33.8651 65.9112 33.9435 65.4897 33.9242ZM63.7221 37.421C63.7346 37.1479 63.8619 36.9308 64.1039 36.7699C64.3541 36.6015 64.6743 36.5262 65.0645 36.5441C65.7669 36.5764 66.1304 36.8355 66.155 37.3215C66.1708 37.6585 66.1847 38.0385 66.1966 38.4613C66.2162 38.8845 66.2308 39.3349 66.2401 39.8124C66.2577 40.2824 66.2665 40.7716 66.2666 41.28C66.2749 41.7809 66.2795 42.2777 66.2804 42.7705C66.2816 43.2554 66.2796 43.7246 66.2744 44.1779C66.2693 44.6313 66.2581 45.0453 66.2409 45.4199C66.223 45.8101 66.0691 46.0963 65.7792 46.2785C65.4971 46.4611 65.0907 46.5402 64.56 46.5159C64.3181 46.5048 64.1296 46.4375 63.9945 46.314C63.8668 46.1986 63.808 46.0317 63.818 45.8131C63.8674 44.7362 63.8863 43.7282 63.8746 42.7891C63.8712 41.8427 63.855 41.0012 63.8262 40.2647C63.8053 39.5286 63.7786 38.9174 63.7462 38.431C63.7219 37.9372 63.7139 37.6005 63.7221 37.421ZM69.016 36.5847C69.0214 36.4676 69.0773 36.3568 69.1838 36.2522C69.2906 36.1398 69.4279 36.0444 69.5958 35.9661C69.7639 35.8799 69.9508 35.8142 70.1562 35.7689C70.3698 35.7161 70.5819 35.6946 70.7926 35.7043C70.9097 35.7096 71.0058 35.7453 71.081 35.8113C71.164 35.8777 71.2326 36.0021 71.2867 36.1844C71.3413 36.359 71.3847 36.6073 71.4168 36.9295C71.4571 37.2441 71.489 37.6562 71.5126 38.1656C71.5366 38.3231 71.5584 38.4454 71.5779 38.5323C71.6055 38.6118 71.6427 38.6526 71.6896 38.6547C71.7598 38.6579 71.8356 38.5402 71.9169 38.3015C72.5622 36.6809 73.4233 35.8954 74.5003 35.9448C74.9998 35.9677 75.4453 36.1446 75.8368 36.4753C76.2361 36.8065 76.595 37.3352 76.9137 38.0615C77.2404 38.7804 77.5373 39.7247 77.8043 40.8944C78.0716 42.0563 78.3266 43.4875 78.5692 45.1879C78.5809 45.2744 78.589 45.353 78.5936 45.4236C78.5982 45.4942 78.599 45.5607 78.5962 45.6232C78.5879 45.8027 78.5378 45.9568 78.4459 46.0855C78.3621 46.2068 78.2519 46.3073 78.1153 46.3871C77.9791 46.459 77.8281 46.5108 77.6624 46.5423C77.4964 46.5816 77.3314 46.5975 77.1675 46.5899C76.8397 46.5749 76.6033 46.5289 76.4583 46.4518C76.321 46.3751 76.2373 46.2383 76.2073 46.0414C76.0354 44.8448 75.8613 43.781 75.685 42.8501C75.5166 41.9195 75.3413 41.1372 75.1593 40.5032C74.9854 39.8618 74.8045 39.3725 74.6166 39.0354C74.4287 38.6983 74.2333 38.5251 74.0304 38.5158C73.8275 38.5065 73.6304 38.6265 73.4391 38.8758C73.2559 39.1176 73.0701 39.5041 72.8815 40.035C72.6929 40.566 72.5015 41.2415 72.3075 42.0616C72.1212 42.8821 71.9316 43.8627 71.7384 45.0035C71.6851 45.3139 71.5175 45.5564 71.2358 45.7312C70.9541 45.906 70.6025 45.9837 70.181 45.9644C69.9001 45.9515 69.6882 45.8831 69.5452 45.7592C69.4023 45.6353 69.3277 45.4716 69.3214 45.268C69.3257 43.6415 69.3089 42.3033 69.271 41.2536C69.2413 40.1965 69.2059 39.3502 69.1646 38.7148C69.1237 38.0717 69.0871 37.5929 69.0546 37.2786C69.0221 36.9643 69.0092 36.733 69.016 36.5847Z" fill="#0090E3"/>
</svg>
