<svg width="20" height="21" viewBox="0 0 20 21" fill="none" xmlns="http://www.w3.org/2000/svg">
<path d="M10.0052 5.66832C7.16803 5.66832 4.87957 7.95679 4.87957 10.7939C4.87957 13.6311 7.16803 15.9196 10.0052 15.9196C12.8423 15.9196 15.1308 13.6311 15.1308 10.7939C15.1308 7.95679 12.8423 5.66832 10.0052 5.66832ZM10.0052 14.1263C8.17174 14.1263 6.67287 12.6318 6.67287 10.7939C6.67287 8.95603 8.16728 7.46162 10.0052 7.46162C11.8431 7.46162 13.3375 8.95603 13.3375 10.7939C13.3375 12.6318 11.8386 14.1263 10.0052 14.1263ZM16.536 5.45866C16.536 6.12334 16.0007 6.65419 15.3405 6.65419C14.6758 6.65419 14.1449 6.11888 14.1449 5.45866C14.1449 4.79844 14.6803 4.26313 15.3405 4.26313C16.0007 4.26313 16.536 4.79844 16.536 5.45866ZM19.9308 6.67204C19.8549 5.07056 19.4891 3.65198 18.3159 2.48321C17.1472 1.31445 15.7286 0.948652 14.1271 0.868355C12.4765 0.774676 7.52937 0.774676 5.87882 0.868355C4.28181 0.944191 2.86323 1.30999 1.69 2.47875C0.516775 3.64752 0.155439 5.0661 0.0751426 6.66757C-0.0185371 8.31812 -0.0185371 13.2653 0.0751426 14.9158C0.150979 16.5173 0.516775 17.9359 1.69 19.1047C2.86323 20.2734 4.27735 20.6392 5.87882 20.7195C7.52937 20.8132 12.4765 20.8132 14.1271 20.7195C15.7286 20.6437 17.1472 20.2779 18.3159 19.1047C19.4847 17.9359 19.8505 16.5173 19.9308 14.9158C20.0245 13.2653 20.0245 8.32258 19.9308 6.67204ZM17.7984 16.6868C17.4505 17.5612 16.7769 18.2348 15.8981 18.5872C14.5821 19.1091 11.4595 18.9887 10.0052 18.9887C8.55092 18.9887 5.42381 19.1047 4.11229 18.5872C3.23795 18.2392 2.56435 17.5656 2.21193 16.6868C1.69 15.3709 1.81045 12.2482 1.81045 10.7939C1.81045 9.33968 1.69446 6.21256 2.21193 4.90104C2.55988 4.0267 3.23349 3.3531 4.11229 3.00068C5.42827 2.47875 8.55092 2.5992 10.0052 2.5992C11.4595 2.5992 14.5866 2.48321 15.8981 3.00068C16.7724 3.34864 17.446 4.02224 17.7984 4.90104C18.3204 6.21702 18.1999 9.33968 18.1999 10.7939C18.1999 12.2482 18.3204 15.3753 17.7984 16.6868Z" fill="white"/>
</svg>
