<svg width="732" height="844" viewBox="0 0 732 844" fill="none" xmlns="http://www.w3.org/2000/svg">
<path d="M354.37 524.938L354.22 559.819C354.002 559.662 353.767 559.531 353.577 559.316L323.174 524.864C322.943 524.602 322.808 524.302 322.665 524.006L354.37 524.938ZM371.857 477.68C371.705 477.764 371.528 477.81 371.388 477.934L323.194 520.465C323.06 520.582 322.995 520.749 322.885 520.897L367.596 522.208L371.857 477.68ZM370.544 524.139C370.512 524.508 370.346 524.821 370.096 525.041C369.847 525.261 369.516 525.388 369.147 525.371L357.46 525.03L357.304 560.188C357.526 560.088 357.759 560.007 357.945 559.843L406.139 517.313C406.333 517.141 406.44 516.922 406.569 516.713L371.665 512.494L370.544 524.139ZM371.955 509.419L406.581 513.608C406.454 513.37 406.345 513.128 406.157 512.915L375.754 478.463C375.527 478.206 375.251 478.022 374.976 477.844L371.955 509.419Z" fill="#CECEEF"/>
<path d="M32.477 526.341C35.2583 528.521 38.0911 530.615 40.9411 532.658C63.7239 549.086 82.5923 570.509 98.2673 593.683C135.523 648.751 153.07 721.19 220.937 748.364C285.577 774.233 350.956 738.184 393.448 690.601C412.145 669.658 429.502 647.223 451.066 629.319C477.506 607.398 510.796 593.751 545.167 602.077C571.453 608.445 594.768 625.645 621.448 629.542C634.464 631.377 647.721 630.474 660.368 626.891C673.015 623.309 684.776 617.125 694.895 608.737C723.722 584.413 736.495 543.696 730.589 506.36C724.734 469.488 701.024 431.019 668.129 413.064C630.238 392.362 587.557 383.092 549.511 362.854C504.134 338.822 468.561 297.178 450.723 249.062C430.979 195.848 440.748 135.871 416.385 84.0814C403.303 56.2899 380.074 33.7684 352.861 19.5894C325.649 5.41047 294.368 -0.649059 263.601 0.0547389C227.702 0.878697 189.931 12.1738 167.062 39.8622C150.426 59.9977 143.472 86.7764 143.026 112.903C141.464 202.388 215.529 320.798 113.135 383.659C84.8242 401.048 49.3366 405.769 23.7725 426.985C10.8616 437.697 0.9725 453.009 0.0797299 469.745C-1.25943 495.134 14.4671 512.299 32.477 526.341Z" fill="url(#paint0_linear_567_22363)"/>
<path d="M200.927 537H521.595C523.559 537 525.443 537.782 526.831 539.175C528.22 540.568 529 542.457 529 544.427V781H195V542.88C195.021 541.316 195.654 539.823 196.763 538.723C197.872 537.623 199.367 537.004 200.927 537Z" fill="#2B478B"/>
<path d="M505 562H218V757H505V562Z" fill="#E1EFFF"/>
<path d="M147.582 625.441C169.211 602.849 190.568 574.714 217.75 558.565C219.494 557.521 221.388 556.752 223.366 556.283C224.348 556.01 225.373 555.934 226.384 556.058C227.395 556.182 228.371 556.504 229.257 557.006C230.316 557.742 231.204 558.695 231.864 559.802C234.161 563.379 235.244 567.599 234.954 571.837C234.761 576.365 234.075 580.858 232.91 585.238C231.066 590.662 228.57 595.842 225.475 600.664C223.978 603.202 222.658 605.87 221.033 608.328C217.711 613.576 214.061 618.61 210.105 623.4C205.647 628.59 202.187 634.567 196.78 638.761C196.683 642.441 196.313 646.024 195.878 649.672C195.203 655.36 194.655 770.183 194.768 780.981H222.707C222.868 789.818 223.061 798.784 223.222 807.622C223.447 819.785 222.98 831.885 224.171 844H126C126.531 841.542 127.046 838.746 127.609 836.287C130.828 821.408 133.838 806.465 136.751 791.521C138.199 784.034 139.615 776.546 141.064 769.026C142.303 762.695 142.013 755.979 144.282 749.857C144.696 748.956 144.936 747.986 144.99 746.996C144.933 746.137 144.709 745.296 144.331 744.522L142.496 739.991C128.961 706.601 137.169 669.934 145.586 636.431C146.02 634.696 146.037 632.912 146.391 631.161C146.777 629.169 146.165 626.935 147.582 625.441Z" fill="#FFE2CF"/>
<path d="M225.948 554.205C226.573 555.213 221.465 559.534 214.547 563.807C210.317 566.445 205.763 568.526 201 570C204.253 566.204 208.058 562.918 212.289 560.254C219.207 555.917 225.324 553.213 225.948 554.205Z" fill="#F8C9AA"/>
<path d="M196 639C192.366 637.9 188.998 635.931 186.136 633.234C183.204 630.576 181.066 627.01 180 623C182.082 626.254 184.519 629.215 187.256 631.818C189.941 634.431 192.963 636.606 196 639Z" fill="#F8C9AA"/>
<path d="M148 635C148 633.389 148 631.777 148 630.166V627.765V627.089C148 627.089 148 627.169 148 626.75C148.066 626.578 148.171 626.424 148.307 626.299C148.42 626.17 148.517 626.106 148.598 626.025L149.115 625.622C149.187 625.591 149.248 625.541 149.293 625.477L149.519 625.284C150.149 624.768 150.731 624.237 151.329 623.673C151.926 623.109 152.557 622.625 153.154 622.061C154.362 620.952 155.647 619.929 157 619C156.147 620.416 155.191 621.768 154.14 623.044C153.093 624.309 151.942 625.484 150.698 626.557L150.456 626.766L150.149 626.992L149.697 627.314L149.535 627.443C149.535 627.443 149.535 627.443 149.648 627.234C149.761 627.024 149.648 627.056 149.648 627.04V627.653C149.648 628.474 149.551 629.264 149.406 630.102C149.22 631.802 148.745 633.459 148 635Z" fill="#F8C9AA"/>
<path d="M146 746C156.919 750.236 168.465 752.057 180 751.36C174.299 753.081 168.342 753.453 162.507 752.45C156.67 751.589 151.053 749.394 146 746Z" fill="#F8C9AA"/>
<path d="M145 748C148.818 750.175 152.889 751.923 157.13 753.21C161.322 754.567 165.71 755.503 170 757C165.435 756.875 160.91 756.151 156.555 754.848C152.127 753.588 148.136 751.223 145 748Z" fill="#F8C9AA"/>
<path d="M575.419 625.213C553.805 602.683 532.433 574.645 505.251 558.552C503.505 557.516 501.611 556.749 499.634 556.278C497.657 555.735 495.545 555.994 493.76 556.999C492.696 557.731 491.802 558.681 491.136 559.785C488.838 563.355 487.755 567.565 488.047 571.794C488.242 576.306 488.927 580.784 490.09 585.149C491.937 590.547 494.433 595.704 497.526 600.505C499.022 603.051 500.342 605.693 501.967 608.143C505.3 613.366 508.95 618.381 512.895 623.163C517.353 628.335 520.813 634.372 526.22 638.471C526.317 642.138 526.687 645.709 527.122 649.344C527.798 655.012 528.345 769.438 528.232 780.199H500.294C500.133 789.005 499.94 797.94 499.779 806.747C499.553 818.885 500.036 830.926 498.829 843H597C596.453 840.55 595.938 837.764 595.391 835.314C592.172 820.486 589.162 805.595 586.266 790.703C584.801 783.241 583.385 775.779 581.936 768.285C580.713 761.96 580.987 755.267 578.718 749.166C578.311 748.266 578.071 747.301 578.01 746.316C578.075 745.46 578.299 744.624 578.669 743.85L580.52 739.318C594.055 706.044 585.847 669.519 577.43 636.117C576.996 634.388 576.98 632.61 576.626 630.865C576.223 628.911 576.819 626.686 575.419 625.213Z" fill="#FFE2CF"/>
<path d="M497.052 554.211C496.427 555.203 501.535 559.522 508.453 563.809C512.685 566.443 517.238 568.523 522 570C518.78 566.19 515.001 562.889 510.791 560.21C503.793 555.907 497.676 553.203 497.052 554.211Z" fill="#F8C9AA"/>
<path d="M527 638C530.636 636.975 534.003 635.128 536.858 632.594C539.793 630.102 541.933 626.76 543 623C540.925 626.058 538.485 628.835 535.737 631.267C533.05 633.717 530.04 635.756 527 638Z" fill="#F8C9AA"/>
<path d="M575 634C575 632.489 575 630.979 575 629.468V627.202V626.568C575 626.568 575 626.568 575 626.251C574.936 626.092 574.836 625.948 574.709 625.828L574.401 625.571L573.883 625.208L573.705 625.072L573.478 624.876C572.863 624.408 572.264 623.894 571.665 623.366C571.067 622.837 570.435 622.399 569.836 621.855C568.632 620.819 567.35 619.865 566 619C566.847 620.323 567.8 621.586 568.849 622.776C569.899 623.966 571.058 625.067 572.313 626.069L572.54 626.266L572.847 626.477L573.317 626.779L573.462 626.9C573.462 626.9 573.462 626.976 573.349 626.704C573.236 626.432 573.349 626.538 573.349 626.523V626.598V627.172C573.349 627.943 573.462 628.683 573.592 629.483C573.803 631.049 574.278 632.573 575 634Z" fill="#F8C9AA"/>
<path d="M577 746C571.543 747.768 565.93 749.062 560.231 749.866C554.523 750.614 548.755 750.858 543 750.597C548.703 752.063 554.662 752.384 560.501 751.541C566.335 750.777 571.947 748.892 577 746Z" fill="#F8C9AA"/>
<path d="M578 748C574.19 750.19 570.118 751.939 565.87 753.21C561.679 754.567 557.29 755.503 553 757C557.566 756.884 562.092 756.159 566.445 754.847C570.875 753.592 574.867 751.226 578 748Z" fill="#F8C9AA"/>
<rect x="263" y="587" width="197" height="170" fill="white"/>
<rect x="295" y="708" width="134" height="30" rx="15" fill="#6FC3F3"/>
<path d="M342.82 726.1C340.77 726.1 339.27 724.7 339.27 722.7C339.27 720.7 340.77 719.27 342.82 719.27C344.87 719.27 346.37 720.7 346.37 722.7C346.37 724.71 344.87 726.1 342.82 726.1ZM342.82 724.75C343.95 724.75 344.84 723.98 344.84 722.7C344.84 721.43 343.95 720.63 342.82 720.63C341.7 720.63 340.81 721.43 340.81 722.7C340.81 723.98 341.7 724.75 342.82 724.75Z" fill="white"/>
<path d="M349.884 724.9C350.594 724.9 351.074 724.37 351.074 723.67C351.074 722.98 350.594 722.42 349.884 722.42C349.174 722.42 348.674 722.98 348.674 723.67C348.674 724.37 349.174 724.9 349.884 724.9ZM350.174 726.1C349.444 726.1 348.984 725.87 348.694 725.51V727.95H347.294V721.32H348.494L348.584 721.89C348.864 721.5 349.334 721.22 350.104 721.22C351.484 721.22 352.424 722.26 352.424 723.67C352.424 725.08 351.474 726.1 350.174 726.1Z" fill="white"/>
<path d="M353.009 726V725.04L355.149 722.45H353.049V721.31H356.739V722.26L354.589 724.86H356.889V726H353.009Z" fill="white"/>
<path d="M358.793 723.17H360.953C360.883 722.62 360.373 722.31 359.873 722.31C359.263 722.31 358.913 722.67 358.793 723.17ZM362.283 723.98H358.763C358.863 724.57 359.243 724.98 359.933 724.98C360.353 724.98 360.713 724.81 360.893 724.47H362.243C361.923 725.48 361.023 726.1 359.873 726.1C358.313 726.1 357.413 724.97 357.413 723.66C357.413 722.33 358.333 721.21 359.893 721.21C361.343 721.21 362.313 722.19 362.313 723.58C362.313 723.72 362.303 723.85 362.283 723.98Z" fill="white"/>
<path d="M365.432 724.86C366.132 724.86 366.632 724.31 366.632 723.61C366.632 722.92 366.132 722.39 365.432 722.39C364.712 722.39 364.232 722.92 364.232 723.61C364.232 724.31 364.712 724.86 365.432 724.86ZM366.712 721.85L366.842 721.31H368.042V725.61C368.042 727.14 367.062 728.1 365.502 728.1C364.202 728.1 363.272 727.38 363.052 726.25H364.422C364.552 726.66 365.002 726.9 365.502 726.9C366.182 726.9 366.652 726.47 366.652 725.68V725.42C366.362 725.76 365.892 726 365.162 726C363.852 726 362.882 724.97 362.882 723.59C362.882 722.21 363.842 721.21 365.152 721.21C365.892 721.21 366.412 721.49 366.712 721.85Z" fill="white"/>
<path d="M371.497 724.86C372.197 724.86 372.697 724.31 372.697 723.61C372.697 722.92 372.197 722.39 371.497 722.39C370.777 722.39 370.297 722.92 370.297 723.61C370.297 724.31 370.777 724.86 371.497 724.86ZM372.777 721.85L372.907 721.31H374.107V725.61C374.107 727.14 373.127 728.1 371.567 728.1C370.267 728.1 369.337 727.38 369.117 726.25H370.487C370.617 726.66 371.067 726.9 371.567 726.9C372.247 726.9 372.717 726.47 372.717 725.68V725.42C372.427 725.76 371.957 726 371.227 726C369.917 726 368.947 724.97 368.947 723.59C368.947 722.21 369.907 721.21 371.217 721.21C371.957 721.21 372.477 721.49 372.777 721.85Z" fill="white"/>
<path d="M376.381 723.17H378.541C378.471 722.62 377.961 722.31 377.461 722.31C376.851 722.31 376.501 722.67 376.381 723.17ZM379.871 723.98H376.351C376.451 724.57 376.831 724.98 377.521 724.98C377.941 724.98 378.301 724.81 378.481 724.47H379.831C379.511 725.48 378.611 726.1 377.461 726.1C375.901 726.1 375.001 724.97 375.001 723.66C375.001 722.33 375.921 721.21 377.481 721.21C378.931 721.21 379.901 722.19 379.901 723.58C379.901 723.72 379.891 723.85 379.871 723.98Z" fill="white"/>
<path d="M380.8 726V721.31H382.01L382.12 721.85C382.33 721.55 382.85 721.21 383.56 721.21C384.78 721.21 385.48 721.97 385.48 723.14V726H384.09V723.45C384.09 722.82 383.75 722.47 383.2 722.47C382.66 722.47 382.22 722.83 382.21 723.43L382.2 726H380.8Z" fill="white"/>
<path d="M348.321 647.342L321.254 677.749C321.184 677.443 321.08 677.147 321.08 676.812V623.188C321.08 622.781 321.194 622.413 321.297 622.044L348.321 647.342ZM400.115 619.494C399.917 619.45 399.727 619.354 399.508 619.354H324.494C324.287 619.354 324.101 619.45 323.891 619.494L362.002 655.166L400.115 619.494ZM363.09 659.132C362.777 659.432 362.39 659.577 362.002 659.577C361.614 659.577 361.226 659.432 360.917 659.132L350.953 649.808L323.668 680.453C323.94 680.537 324.206 680.646 324.494 680.646H399.508C399.811 680.646 400.074 680.537 400.348 680.453L373.064 649.808L363.09 659.132ZM375.692 647.342L402.756 677.746C402.829 677.44 402.92 677.144 402.92 676.812V623.188C402.92 622.788 402.82 622.413 402.718 622.046L375.692 647.342Z" fill="#CECEEF"/>
<path d="M232.734 457.341L216.081 487.991C215.964 487.749 215.819 487.523 215.754 487.243L205.293 442.501C205.214 442.162 205.237 441.833 205.251 441.504L232.734 457.341ZM270.517 424.001C270.342 424.003 270.165 423.96 269.983 424.002L207.394 438.636C207.22 438.676 207.084 438.793 206.917 438.871L245.675 461.2L270.517 424.001ZM247.357 464.297C247.154 464.607 246.859 464.804 246.535 464.88C246.212 464.956 245.86 464.91 245.543 464.721L235.411 458.885L218.623 489.776C218.866 489.793 219.11 489.832 219.35 489.776L281.939 475.143C282.192 475.084 282.39 474.941 282.602 474.818L253.859 454.571L247.357 464.297ZM255.572 452.001L284.083 472.089C284.085 471.82 284.103 471.555 284.038 471.278L273.577 426.536C273.499 426.202 273.343 425.909 273.186 425.622L255.572 452.001Z" fill="#CECEEF"/>
<path d="M340.601 359.126L307.325 348.664C307.54 348.502 307.735 348.317 307.997 348.199L349.9 329.348C350.218 329.205 350.546 329.164 350.871 329.115L340.601 359.126ZM380.571 389.81C380.536 389.64 380.544 389.458 380.467 389.287L354.097 330.668C354.024 330.506 353.884 330.394 353.775 330.246L339.297 372.567L380.571 389.81ZM336.58 374.812C336.236 374.673 335.987 374.421 335.85 374.118C335.714 373.815 335.691 373.461 335.816 373.113L339.6 362.05L306.061 351.501C306.091 351.743 306.099 351.99 306.201 352.215L332.571 410.833C332.677 411.07 332.855 411.237 333.017 411.421L347.372 379.328L336.58 374.812ZM350.224 380.515L335.979 412.351C336.244 412.301 336.507 412.268 336.766 412.151L378.67 393.3C378.983 393.16 379.24 392.951 379.492 392.741L350.224 380.515Z" fill="#CECEEF"/>
<path d="M451.314 434.938L417.512 443.554C417.61 443.303 417.678 443.043 417.838 442.805L443.549 404.723C443.744 404.434 444.001 404.227 444.252 404.015L451.314 434.938ZM501.448 439.994C501.329 439.868 501.24 439.709 501.084 439.604L447.812 403.637C447.665 403.537 447.487 403.517 447.317 403.447L457.278 447.053L501.448 439.994ZM456.149 450.392C455.784 450.454 455.439 450.372 455.163 450.186C454.888 450 454.682 449.711 454.606 449.35L452.001 437.951L417.93 446.631C418.083 446.821 418.22 447.027 418.425 447.165L471.697 483.131C471.912 483.277 472.151 483.325 472.386 483.397L467.703 448.552L456.149 450.392ZM470.752 448.061L475.394 482.629C475.593 482.447 475.799 482.28 475.958 482.044L501.669 443.963C501.861 443.678 501.97 443.365 502.073 443.054L470.752 448.061Z" fill="#CECEEF"/>
<defs>
<linearGradient id="paint0_linear_567_22363" x1="165.665" y1="458.476" x2="396.463" y2="806.248" gradientUnits="userSpaceOnUse">
<stop stop-color="#8D8DEC" stop-opacity="0.167177"/>
<stop offset="1" stop-color="#5454D4" stop-opacity="0.01"/>
</linearGradient>
</defs>
</svg>
